<?xml version="1.0" standalone="no"?>
<!DOCTYPE svg PUBLIC "-//W3C//DTD SVG 1.1//EN" "http://www.w3.org/Graphics/SVG/1.1/DTD/svg11.dtd" >
<svg>
<metadata>
Created by FontForge 20090914 at Tue May 31 22:53:05 2016
 By www-data
Copyright 2006-2009 Dalton Maag Ltd. All rights reserved. wf-rip
</metadata>
<defs>
<font id="CoHeadlineCorp-Regular" horiz-adv-x="474" >
  <font-face 
    font-family="Co Headline Corp"
    font-weight="400"
    font-stretch="normal"
    units-per-em="1000"
    panose-1="2 11 5 3 6 2 2 2 2 4"
    ascent="800"
    descent="-200"
    x-height="501.999"
    cap-height="686"
    bbox="-234 -253.005 1346 950.001"
    underline-thickness="50"
    underline-position="-50"
    unicode-range="U+0008-U+FB04"
  />
<missing-glyph horiz-adv-x="500" 
d="M50 0v750h400v-750h-400zM400 50v650h-300v-650h300z" />
    <glyph glyph-name="f_f" unicode="ff" horiz-adv-x="723" 
d="M61 533c0 36 4.99707 67.001 14.9971 93.001s24.167 47.167 42.5 63.5s40 28.333 65 36s52.5 11.5 82.5 11.5c38.667 0 70 -5.66699 94 -17s36 -28.666 36 -51.999c0 -11.333 -3.16699 -21.333 -9.5 -30s-13.166 -15.334 -20.499 -20.001
c-10.667 8.66699 -23.167 15.667 -37.5 21s-31.5 8 -51.5 8c-36 0 -62 -10 -78 -30s-24 -48.333 -24 -85v-30h234v31c0 36 5 67 15 93s24.167 47.167 42.5 63.5s40 28.333 65 36s52.5 11.5 82.5 11.5c54.667 0 93.334 -6.5 116.001 -19.5s34 -29.5 34 -49.5
c0 -11.333 -3.16699 -21.333 -9.5 -30s-13.166 -15.334 -20.499 -20.001c-10.667 8.66699 -25.167 15.667 -43.5 21s-37.833 8 -58.5 8c-39.333 0 -67.333 -10 -84 -30s-25 -48.333 -25 -85v-30h150c22 0 37.5 -4.5 46.5 -13.5s13.5 -22.167 13.5 -39.5
c0 -11.333 -1.66699 -21.833 -5 -31.5s-6 -16.5 -8 -20.5h-197v-397h-114v397h-234v-397h-114v533z" />
    <glyph glyph-name="f_i" unicode="fi" horiz-adv-x="585" 
d="M61 533c0 37.333 5.83105 68.9951 17.498 94.9951s27.5 47 47.5 63s43.5 27.667 70.5 35s56.167 11 87.5 11c58.667 0 102 -6.16699 130 -18.5s42 -29.166 42 -50.499c0 -11.333 -3.16699 -21.5 -9.5 -30.5s-13.166 -15.833 -20.499 -20.5
c-5.33301 4 -12.833 7.83301 -22.5 11.5s-20.167 6.83398 -31.5 9.50098s-23.166 4.83398 -35.499 6.50098s-23.833 2.5 -34.5 2.5c-40 0 -71.333 -9.66699 -94 -29s-34 -49.666 -34 -90.999v-25h289c24 0 39.667 -5.16699 47 -15.5s11 -26.166 11 -47.499v-439h-113v397
h-234v-397h-113v533z" />
    <glyph glyph-name="f_l" unicode="fl" horiz-adv-x="572" 
d="M61 533c0 37.333 5.83008 69 17.4971 95s27.834 47 48.501 63s45.334 27.667 74.001 35s60 11 94 11c32.667 0 61.834 -2 87.501 -6s47.667 -8.33301 66 -13s32.5 -9 42.5 -13s15.667 -6.33301 17 -7v-698h-114v633c-4 1.33301 -14.833 4 -32.5 8s-39.5 6 -65.5 6
c-42.667 0 -73.5 -10.167 -92.5 -30.5s-28.5 -50.833 -28.5 -91.5v-23h114c22 0 37.5 -4.5 46.5 -13.5s13.5 -22.167 13.5 -39.5c0 -11.333 -1.66699 -21.833 -5 -31.5s-6 -16.5 -8 -20.5h-161v-397h-114v533z" />
    <glyph glyph-name="f_f_i" unicode="ffi" horiz-adv-x="939" 
d="M61 533c0 36 4.99707 66.9951 14.9971 92.9951s24.167 47.167 42.5 63.5s40 28.333 65 36s52.5 11.5 82.5 11.5c38.667 0 70 -5.66699 94 -17s36 -28.666 36 -51.999c0 -11.333 -3.16699 -21.333 -9.5 -30s-13.166 -15.334 -20.499 -20.001
c-10.667 8.66699 -23.167 15.667 -37.5 21s-31.5 8 -51.5 8c-36 0 -62 -10 -78 -30s-24 -48.333 -24 -85v-30h240v31c0 37.333 5.83301 69 17.5 95s27.5 47 47.5 63s43.5 27.667 70.5 35s56.167 11 87.5 11c58.667 0 102 -6.16699 130 -18.5s42 -29.166 42 -50.499
c0 -11.333 -3.16699 -21.5 -9.5 -30.5s-13.166 -15.833 -20.499 -20.5c-5.33301 4 -12.833 7.83301 -22.5 11.5s-20.167 6.83398 -31.5 9.50098s-23.166 4.83398 -35.499 6.50098s-23.833 2.5 -34.5 2.5c-40 0 -71.333 -9.66699 -94 -29s-34 -49.666 -34 -90.999v-25h289
c24 0 39.667 -5.16699 47 -15.5s11 -26.166 11 -47.499v-439h-114v397h-232v-397h-114v397h-240v-397h-114v533z" />
    <glyph glyph-name="f_f_l" unicode="ffl" horiz-adv-x="918" 
d="M61 533c0 36 4.99609 67 14.9961 93s24.167 47.167 42.5 63.5s40 28.333 65 36s52.5 11.5 82.5 11.5c38.667 0 70 -5.66699 94 -17s36 -28.666 36 -51.999c0 -11.333 -3.16699 -21.333 -9.5 -30s-13.166 -15.334 -20.499 -20.001
c-10.667 8.66699 -23.167 15.667 -37.5 21s-31.5 8 -51.5 8c-36 0 -62 -10 -78 -30s-24 -48.333 -24 -85v-30h232v31c0 37.333 5.83301 69 17.5 95s27.834 47 48.501 63s45.334 27.667 74.001 35s60 11 94 11c32.667 0 61.834 -2 87.501 -6s47.667 -8.33301 66 -13
s32.5 -9 42.5 -13s15.667 -6.33301 17 -7v-698h-114v633c-4 1.33301 -14.833 4 -32.5 8s-39.5 6 -65.5 6c-42.667 0 -73.5 -10.167 -92.5 -30.5s-28.5 -50.833 -28.5 -91.5v-23h114c22 0 37.5 -4.5 46.5 -13.5s13.5 -22.167 13.5 -39.5c0 -11.333 -1.66699 -21.833 -5 -31.5
s-6 -16.5 -8 -20.5h-161v-397h-114v397h-232v-397h-114v533z" />
    <glyph glyph-name=".notdef" horiz-adv-x="500" 
d="M50 0v750h400v-750h-400zM400 50v650h-300v-650h300z" />
    <glyph glyph-name=".null" horiz-adv-x="0" 
 />
    <glyph glyph-name=".null" horiz-adv-x="0" 
 />
    <glyph glyph-name=".null" horiz-adv-x="0" 
 />
    <glyph glyph-name="nonmarkingreturn" unicode="&#x9;" horiz-adv-x="251" 
 />
    <glyph glyph-name="nonmarkingreturn" unicode="&#xd;" horiz-adv-x="251" 
 />
    <glyph glyph-name="space" unicode=" " horiz-adv-x="251" 
 />
    <glyph glyph-name="exclam" unicode="!" horiz-adv-x="239" 
d="M62 633c0 18 5.50098 31.332 16.501 39.999s25.5 13 43.5 13c12 0 23.167 -1.66699 33.5 -5s17.166 -5.66602 20.499 -6.99902v-454h-114v413zM120.001 133.999c20.667 0 38.5 -7.33301 53.5 -22s22.5 -32.334 22.5 -53.001c0 -20 -7.5 -37.5 -22.5 -52.5
s-32.833 -22.5 -53.5 -22.5s-38.667 7.5 -54 22.5s-23 32.5 -23 52.5c0 20.667 7.66699 38.334 23 53.001s33.333 22 54 22z" />
    <glyph glyph-name="quotedbl" unicode="&#x22;" horiz-adv-x="515" 
d="M88 684c0 17.333 5.5 30.5 16.5 39.5s25.5 13.5 43.5 13.5c12 0 23.167 -1.66699 33.5 -5s17.5 -6 21.5 -8v-266h-115v226zM313 684c0 17.333 5.33301 30.5 16 39.5s25 13.5 43 13.5c12 0 23.167 -1.66699 33.5 -5s17.5 -6 21.5 -8v-266h-114v226z" />
    <glyph glyph-name="numbersign" unicode="#" horiz-adv-x="761" 
d="M162 161h-67.998c-20 0 -34.333 4.33301 -43 13s-13 20.667 -13 36c0 10.667 1.66699 20.5 5 29.5s6.33301 15.167 9 18.5h127l31 183h-68c-20 0 -34.333 4.16699 -43 12.5s-13 20.166 -13 35.499c0 11.333 1.66699 21.5 5 30.5s6.33301 15.167 9 18.5h127l20 117
c3.33301 17.333 10 29.833 20 37.5s23.333 11.5 40 11.5c10 0 19 -1.33301 27 -4s13.667 -4.66699 17 -6l-27 -156h178l20 117c3.33301 17.333 10 29.833 20 37.5s23 11.5 39 11.5c10.667 0 20 -1.33301 28 -4s13.667 -4.66699 17 -6l-27 -156h69
c19.333 0 33.166 -4.16699 41.499 -12.5s12.5 -20.5 12.5 -36.5c0 -10.667 -1.5 -20.5 -4.5 -29.5s-5.5 -15.167 -7.5 -18.5h-127l-32 -183h69c19.333 0 33.166 -4.16699 41.499 -12.5s12.5 -20.166 12.5 -35.499c0 -11.333 -1.5 -21.5 -4.5 -30.5s-5.5 -15.167 -7.5 -18.5
h-127l-28 -161h-97l27 161h-178l-27 -161h-97zM454.002 258l31 183h-178l-31 -183h178z" />
    <glyph glyph-name="dollar" unicode="$" horiz-adv-x="645" 
d="M79 162c5.33301 -4 13.666 -9.16699 24.999 -15.5s25.5 -12.833 42.5 -19.5s36.667 -12.834 59 -18.501s47.166 -9.5 74.499 -11.5v199l-32 7c-26 5.33301 -51.167 12.666 -75.5 21.999s-46.166 21.333 -65.499 36s-34.833 32.834 -46.5 54.501s-17.5 47.5 -17.5 77.5
c0 26 4.5 50.333 13.5 73s23 42.834 42 60.501s43.5 32.334 73.5 44.001s66 19.167 108 22.5v74c0 20.667 12 31 36 31c8 0 15.167 -1 21.5 -3s10.166 -3.33301 11.499 -4v-99c26 -2 49 -5 69 -9s37.333 -8.33301 52 -13s26.667 -9.16699 36 -13.5s16 -7.83301 20 -10.5
c10.667 -6.66699 19 -14.5 25 -23.5s9 -18.833 9 -29.5c0 -14.667 -4.16699 -28.5 -12.5 -41.5s-17.166 -22.167 -26.499 -27.5c-4.66699 5.33301 -12 11.666 -22 18.999s-22.333 14.333 -37 21s-31.5 12.667 -50.5 18s-39.833 9 -62.5 11v-198l36 -7
c68.667 -13.333 120.334 -34.666 155.001 -63.999s52.334 -71 53.001 -125c0 -57.333 -20.333 -103.833 -61 -139.5s-101.667 -56.834 -183 -63.501v-106h-69v106c-33.333 2 -63.833 6.16699 -91.5 12.5s-52.167 13.5 -73.5 21.5s-39.333 16 -54 24
s-25.334 14.333 -32.001 19zM280 594c-43.333 -3.33301 -74.5 -13.333 -93.5 -30s-28.5 -37.667 -28.5 -63c0 -24.667 9.83301 -44.167 29.5 -58.5s50.5 -25.833 92.5 -34.5v186zM349 96c42 4.66699 72.833 14.6689 92.5 30.002s29.5 36.666 29.5 63.999
c0 28.667 -10.5 49.667 -31.5 63s-51.167 23.666 -90.5 30.999v-188z" />
    <glyph glyph-name="percent" unicode="%" horiz-adv-x="973" 
d="M743 374c28 0 54.167 -5 78.5 -15s45.666 -23.667 63.999 -41s32.666 -37.833 42.999 -61.5s15.5 -49.167 15.5 -76.5s-5.16699 -52.833 -15.5 -76.5s-24.666 -44.167 -42.999 -61.5s-39.666 -31 -63.999 -41s-50.5 -15 -78.5 -15s-54.167 5 -78.5 15
s-45.666 23.667 -63.999 41s-32.666 37.833 -42.999 61.5s-15.5 49.167 -15.5 76.5s5.16699 52.833 15.5 76.5s24.666 44.167 42.999 61.5s39.666 31 63.999 41s50.5 15 78.5 15zM624 698c6 10.667 12.833 19.833 20.5 27.5s20.5 11.5 38.5 11.5c15.333 0 28 -2.66699 38 -8
s16.333 -9.33301 19 -12l-408 -717h-107zM847 179.999c0 14.667 -2.66699 28.5 -8 41.5s-12.666 24.167 -21.999 33.5s-20.333 16.833 -33 22.5s-26.334 8.5 -41.001 8.5s-28.334 -2.83301 -41.001 -8.5s-23.667 -13.167 -33 -22.5s-16.666 -20.5 -21.999 -33.5
s-8 -26.833 -8 -41.5s2.66699 -28.5 8 -41.5s12.666 -24.167 21.999 -33.5s20.333 -16.833 33 -22.5s26.334 -8.5 41.001 -8.5s28.334 2.83301 41.001 8.5s23.667 13.167 33 22.5s16.666 20.5 21.999 33.5s8 26.833 8 41.5zM29 542.999c0 27.333 5.16699 52.833 15.5 76.5
s24.666 44.167 42.999 61.5s39.666 31 63.999 41s50.5 15 78.5 15s54.167 -5 78.5 -15s45.666 -23.667 63.999 -41s32.666 -37.833 42.999 -61.5s15.5 -49.167 15.5 -76.5s-5.16699 -52.833 -15.5 -76.5s-24.666 -44.167 -42.999 -61.5s-39.666 -31 -63.999 -41
s-50.5 -15 -78.5 -15s-54.167 5 -78.5 15s-45.666 23.667 -63.999 41s-32.666 37.833 -42.999 61.5s-15.5 49.167 -15.5 76.5zM230 436.999c14.667 0 28.334 2.83301 41.001 8.5s23.667 13.167 33 22.5s16.666 20.5 21.999 33.5s8 26.833 8 41.5s-2.66699 28.5 -8 41.5
s-12.666 24.167 -21.999 33.5s-20.333 16.833 -33 22.5s-26.334 8.5 -41.001 8.5s-28.334 -2.83301 -41.001 -8.5s-23.667 -13.167 -33 -22.5s-16.666 -20.5 -21.999 -33.5s-8 -26.833 -8 -41.5s2.66699 -28.5 8 -41.5s12.666 -24.167 21.999 -33.5s20.333 -16.833 33 -22.5
s26.334 -8.5 41.001 -8.5z" />
    <glyph glyph-name="ampersand" unicode="&#x26;" horiz-adv-x="722" 
d="M516 300h-197.998c-45.333 0 -79.333 -9.66699 -102 -29s-34 -46 -34 -80c0 -36 15.167 -63.167 45.5 -81.5s79.833 -27.5 148.5 -27.5c45.333 0 78.666 1 99.999 3s34.666 3.66699 39.999 5v210zM647.002 404c21.333 0 36.502 -4.49805 45.502 -13.498
s13.5 -21.833 13.5 -38.5c0 -11.333 -1.66699 -21.833 -5 -31.5s-6 -16.5 -8 -20.5h-62v-302c-12 -2.66699 -38.667 -5.83398 -80 -9.50098s-97 -5.5 -167 -5.5c-59.333 0 -109.333 4.83301 -150 14.5s-73.667 23.5 -99 41.5s-43.666 39.333 -54.999 64s-17 52 -17 82
c0 39.333 10 73.166 30 101.499s50 50.166 90 65.499c-34.667 15.333 -60.667 36.666 -78 63.999s-26 58 -26 92c0 60.667 22.333 108.5 67 143.5s106 52.5 184 52.5c50.667 0 89.667 -4.16699 117 -12.5s45.666 -15.166 54.999 -20.499c21.333 -12.667 32 -28.667 32 -48
c0 -13.333 -3.83301 -25.166 -11.5 -35.499s-14.834 -17.833 -21.501 -22.5c-10 9.33301 -29.333 19 -58 29s-63.334 15 -104.001 15c-96.667 0 -145 -35.333 -145 -106c0 -36 13.167 -61.5 39.5 -76.5s64.5 -22.5 114.5 -22.5h299z" />
    <glyph glyph-name="quotesingle" unicode="'" horiz-adv-x="300" 
d="M93 684c0 17.333 5.33301 30.5 16 39.5s25.334 13.5 44.001 13.5c12 0 23.167 -1.66699 33.5 -5s17.166 -6 20.499 -8v-266h-114v226z" />
    <glyph glyph-name="parenleft" unicode="(" horiz-adv-x="342" 
d="M324 -132c-41.333 8 -79 23.5 -113 46.5s-63 53 -87 90s-42.667 80.5 -56 130.5s-20 106 -20 168c0 61.333 6.5 117 19.5 167s31.5 93.5 55.5 130.5s53 67 87 90s72 38.5 114 46.5v-106c-52 -20 -91.667 -57 -119 -111s-41 -126.333 -41 -217s13.667 -163.167 41 -217.5
s67 -91.5 119 -111.5v-106z" />
    <glyph glyph-name="parenright" unicode=")" horiz-adv-x="342" 
d="M18 -26c52 19.333 91.667 56.168 119 110.501s41 127.166 41 218.499c0 90.667 -13.667 163 -41 217s-67 91 -119 111v106c41.333 -8 79 -23.667 113 -47s63 -53.333 87 -90s42.5 -80 55.5 -130s19.5 -105.667 19.5 -167c0 -62 -6.5 -117.833 -19.5 -167.5
s-31.5 -93 -55.5 -130s-53 -67.167 -87 -90.5s-71.667 -39 -113 -47v106z" />
    <glyph glyph-name="asterisk" unicode="*" horiz-adv-x="537" 
d="M192 480l-159 46.9961c0 4.66699 0.333008 11.834 1 21.501s2.5 19.334 5.5 29.001s7.83301 18.167 14.5 25.5s16 11 28 11c9.33301 0 20 -2.66699 32 -8l109 -46l-7 131c0 17.333 5.33301 29.333 16 36s24 10 40 10c10 0 19.833 -1.5 29.5 -4.5
s16.167 -5.16699 19.5 -6.5l-7 -165l110 45c12 5.33301 22.667 8 32 8c16.667 0 29.167 -7.16699 37.5 -21.5s12.5 -31.5 12.5 -51.5c0 -3.33301 -0.166992 -6.16602 -0.5 -8.49902s-0.5 -4.16602 -0.5 -5.49902l-160 -47l111 -140l-84 -57l-103 151l-103 -151l-83 57z" />
    <glyph glyph-name="plus" unicode="+" horiz-adv-x="633" 
d="M261 286l-153 0.00195312c-19.333 0 -33 5.16699 -41 15.5s-12 24.166 -12 41.499c0 11.333 1.5 21.666 4.5 30.999s5.16699 15.666 6.5 18.999h195v158c0 18 5.16699 31.333 15.5 40s24.833 13 43.5 13c12 0 23 -1.5 33 -4.5s16.667 -5.5 20 -7.5v-199h152
c19.333 0 33 -5 41 -15s12 -23.667 12 -41c0 -12 -1.5 -22.667 -4.5 -32s-5.16699 -15.666 -6.5 -18.999h-194v-204h-112v204z" />
    <glyph glyph-name="comma" unicode="," horiz-adv-x="300" 
d="M89 88c5.33301 17.333 12.668 30.332 22.001 38.999s22.666 13 39.999 13c10 0 19 -1.33301 27 -4s15 -5.66699 21 -9s11 -6.66602 15 -9.99902s6.66699 -6 8 -8l-115 -268l-83 32z" />
    <glyph glyph-name="hyphen" unicode="-" horiz-adv-x="329" 
d="M244 328c19.333 0 33 -5.49707 41 -16.4971s12 -24.833 12 -41.5c0 -10.667 -1.33301 -20.834 -4 -30.501s-5 -16.834 -7 -21.501h-201c-19.333 0 -32.833 5.33301 -40.5 16s-11.5 24.667 -11.5 42c0 11.333 1.33301 21.666 4 30.999s5 16.333 7 21h200z" />
    <glyph glyph-name="period" unicode="." horiz-adv-x="300" 
d="M73 63c0 10.667 1.99805 20.668 5.99805 30.001s9.5 17.5 16.5 24.5s15.333 12.5 25 16.5s19.834 6 30.501 6c21.333 0 39.5 -7.5 54.5 -22.5s22.5 -33.167 22.5 -54.5c0 -10.667 -2 -20.834 -6 -30.501s-9.5 -18 -16.5 -25s-15.167 -12.667 -24.5 -17
s-19.333 -6.5 -30 -6.5c-21.333 0 -39.666 7.83301 -54.999 23.5s-23 34.167 -23 55.5z" />
    <glyph glyph-name="slash" unicode="/" horiz-adv-x="346" 
d="M230 690c5.33301 15.333 11.835 27 19.502 35s20.167 12 37.5 12c15.333 0 28.166 -3.16699 38.499 -9.5s17.166 -11.5 20.499 -15.5l-237 -721h-109z" />
    <glyph glyph-name="zero" unicode="0" horiz-adv-x="668" 
d="M46 343c0 56 6.5 106.333 19.5 151s31.833 82.5 56.5 113.5s54.834 54.833 90.501 71.5s76.167 25 121.5 25c44.667 0 84.834 -8.33301 120.501 -25s65.834 -40.5 90.501 -71.5s43.5 -68.833 56.5 -113.5s19.5 -95 19.5 -151s-6.5 -106.333 -19.5 -151
s-31.833 -82.5 -56.5 -113.5s-54.834 -54.667 -90.501 -71s-75.834 -24.5 -120.501 -24.5c-45.333 0 -85.833 8.16699 -121.5 24.5s-65.834 40 -90.501 71s-43.5 68.833 -56.5 113.5s-19.5 95 -19.5 151zM334 88c28 0 52.333 6.16699 73 18.5s37.834 29.833 51.501 52.5
s24 49.667 31 81s10.5 65.666 10.5 102.999s-3.5 71.666 -10.5 102.999s-17.333 58.166 -31 80.499s-30.834 39.833 -51.501 52.5s-45 19 -73 19s-52.5 -6.33301 -73.5 -19s-38.333 -30.167 -52 -52.5s-24 -49.166 -31 -80.499s-10.5 -65.666 -10.5 -102.999
s3.5 -71.666 10.5 -102.999s17.333 -58.333 31 -81s31 -40.167 52 -52.5s45.5 -18.5 73.5 -18.5z" />
    <glyph glyph-name="one" unicode="1" horiz-adv-x="469" 
d="M227 551l-159 -114.999c-4 2 -9 4.66699 -15 8s-11.833 7.66602 -17.5 12.999s-10.334 11.333 -14.001 18s-5.5 14 -5.5 22c0 14.667 3.66699 27 11 37s19.333 20.667 36 32l120 83c16 11.333 30.833 20.333 44.5 27s30.834 10 51.501 10c16 0 30 -2.5 42 -7.5
s19.333 -8.5 22 -10.5v-668h-116v551z" />
    <glyph glyph-name="two" unicode="2" horiz-adv-x="559" 
d="M16 101c9.33301 6 24.3301 16.1719 44.9971 30.5049l67.5 48l72.5 54c24 18.333 44 34.833 60 49.5c38.667 34.667 68.334 67.167 89.001 97.5s31 64.166 31 101.499c0 16 -2.83301 31.167 -8.5 45.5s-14.334 27.166 -26.001 38.499s-26.667 20.333 -45 27
s-40.166 10 -65.499 10s-47.166 -3.66699 -65.499 -11s-33.666 -16 -45.999 -26s-22 -20.333 -29 -31s-11.833 -19 -14.5 -25c-6 1.33301 -12.5 3.66602 -19.5 6.99902s-13.667 7.66602 -20 12.999s-11.666 11.5 -15.999 18.5s-6.5 14.833 -6.5 23.5
c0 10 1.83301 19.5 5.5 28.5s8.16699 17.167 13.5 24.5c3.33301 4.66699 9.83301 11.5 19.5 20.5s23 17.833 40 26.5s37.667 16.167 62 22.5s53.166 9.5 86.499 9.5c42 0 79 -5.5 111 -16.5s58.833 -26 80.5 -45s38 -41.5 49 -67.5s16.5 -54 16.5 -84
c0 -23.333 -2.66699 -45 -8 -65s-12.333 -38.333 -21 -55s-18.5 -32.167 -29.5 -46.5s-22.167 -27.833 -33.5 -40.5s-27 -27.834 -47 -45.501l-62 -52.5l-61 -48l-43 -32h310v-106h-492v101z" />
    <glyph glyph-name="three" unicode="3" horiz-adv-x="589" 
d="M61 139c8 -5.33301 18.3301 -11.001 30.9971 -17.001s27.334 -11.667 44.001 -17s35.167 -9.83301 55.5 -13.5s42.166 -5.5 65.499 -5.5c49.333 0 87 9.5 113 28.5s39 45.833 39 80.5s-13.833 60.334 -41.5 77.001s-65.834 25 -114.501 25h-63
c-2 3.33301 -5 10.166 -9 20.499s-6 21.833 -6 34.5c0 34.667 21 52 63 52h20c46 0 81 9.16699 105 27.5s36 42.833 36 73.5c0 30 -11.667 54.167 -35 72.5s-58.666 27.5 -105.999 27.5c-26.667 0 -49.667 -3.33301 -69 -10s-35.666 -14.667 -48.999 -24
s-23.833 -18.833 -31.5 -28.5s-12.5 -17.167 -14.5 -22.5c-16.667 2.66699 -31.167 9.66699 -43.5 21s-18.5 24.666 -18.5 39.999c0 9.33301 1.5 18.333 4.5 27s8.83301 17.667 17.5 27c4.66699 4.66699 12.167 11 22.5 19s24 15.667 41 23s37.667 13.666 62 18.999
s52.5 8 84.5 8c44.667 0 83 -5.33301 115 -16s58.333 -24.667 79 -42s35.834 -37.166 45.501 -59.499s14.5 -45.166 14.5 -68.499c0 -20 -3.16699 -38.667 -9.5 -56s-14.833 -32.833 -25.5 -46.5s-22.834 -25.667 -36.501 -36s-27.5 -18.833 -41.5 -25.5
c44 -14.667 75.833 -37 95.5 -67s29.5 -62.667 29.5 -98c0 -30 -6.16699 -57.667 -18.5 -83s-29.666 -47.166 -51.999 -65.499s-49.5 -32.5 -81.5 -42.5s-67.667 -15 -107 -15c-34 0 -65.333 2.66699 -94 8s-54 11.5 -76 18.5s-40.667 14.333 -56 22
s-26.666 14.167 -33.999 19.5z" />
    <glyph glyph-name="four" unicode="4" horiz-adv-x="623" 
d="M389 256l-0.00195312 315.997c-23.333 -12 -48.666 -29.167 -75.999 -51.5s-52.666 -46.666 -75.999 -72.999s-42.833 -53.166 -58.5 -80.499s-23.5 -51.666 -23.5 -72.999c0 -16.667 6 -27.167 18 -31.5s27.667 -6.5 47 -6.5h169zM388.998 150.997h-192.001
c-52 0 -91.833 8.66699 -119.5 26s-41.5 45.666 -41.5 84.999c0 29.333 6.33301 60 19 92s29.5 63.667 50.5 95s45.167 61.333 72.5 90s55.666 53.834 84.999 75.501s58.333 39 87 52s55.334 19.5 80.001 19.5c23.333 0 40.833 -2.5 52.5 -7.5s18.834 -8.16699 21.501 -9.5
v-413h33c39.333 0 59 -17 59 -51c0 -12.667 -2 -24 -6 -34s-7 -16.667 -9 -20h-77v-151h-115v151z" />
    <glyph glyph-name="five" unicode="5" horiz-adv-x="570" 
d="M59 129c17.333 -9.33301 41.835 -18.9971 73.502 -28.9971s67.834 -15 108.501 -15c57.333 0 99 11.333 125 34s39 51 39 85c0 17.333 -3.16699 33.5 -9.5 48.5s-16.5 28 -30.5 39s-32.667 19.667 -56 26s-52 9.5 -86 9.5c-14.667 0 -29.667 -0.666992 -45 -2
s-30.333 -3 -45 -5s-28.5 -4.33301 -41.5 -7s-24.167 -5.33398 -33.5 -8.00098l10 313c1.33301 45.333 25.666 68 72.999 68h295c39.333 0 59 -17 59 -51c0 -12.667 -2 -24 -6 -34s-7 -16.667 -9 -20h-307l-5 -163c10.667 1.33301 25.167 2.83301 43.5 4.5
s38.166 2.5 59.499 2.5c47.333 0 87.166 -6.16699 119.499 -18.5s58.5 -28.5 78.5 -48.5s34.333 -43 43 -69s13 -52.667 13 -80c0 -33.333 -6 -63.833 -18 -91.5s-29.667 -51.5 -53 -71.5s-52 -35.5 -86 -46.5s-73.333 -16.5 -118 -16.5c-32.667 0 -62.5 2.33301 -89.5 7
s-50.5 10.167 -70.5 16.5s-36.5 12.666 -49.5 18.999s-21.833 11.166 -26.5 14.499z" />
    <glyph glyph-name="six" unicode="6" horiz-adv-x="615" 
d="M294 670c8 10.667 17.002 18.998 27.002 24.998s23 9 39 9c20 0 36.167 -4 48.5 -12s19.833 -13.667 22.5 -17l-176 -233c7.33301 4 18.166 8.33301 32.499 13s33.166 7 56.499 7c36 0 68.333 -6.16699 97 -18.5s53 -28.833 73 -49.5s35.333 -44.667 46 -72
s16 -56.333 16 -87c0 -37.333 -6.83301 -71.333 -20.5 -102s-32.5 -57.167 -56.5 -79.5s-52.333 -39.666 -85 -51.999s-68 -18.5 -106 -18.5c-38.667 0 -74.167 6 -106.5 18s-60.333 28.833 -84 50.5s-42.167 47.334 -55.5 77.001s-20 62.5 -20 98.5
c0 45.333 10 88.833 30 130.5s47 84.5 81 128.5zM307.002 81.998c46 0 82.832 13.667 110.499 41s41.5 62.666 41.5 105.999c0 22.667 -3.83301 43.167 -11.5 61.5s-18.167 33.833 -31.5 46.5s-29.333 22.5 -48 29.5s-39 10.5 -61 10.5s-42.333 -3.66699 -61 -11
s-34.667 -17.5 -48 -30.5s-23.833 -28.667 -31.5 -47s-11.5 -38.166 -11.5 -59.499s3.66699 -41 11 -59s17.833 -33.5 31.5 -46.5s29.834 -23.167 48.501 -30.5s39 -11 61 -11z" />
    <glyph glyph-name="seven" unicode="7" horiz-adv-x="524" 
d="M130 0c4.66699 11.333 13.666 31.499 26.999 60.499l45.5 100.5l54 121l54.5 122.5l46 104.5l29 68h-322c-40 0 -60 17.667 -60 53c0 12.667 1.83301 24.334 5.5 35.001s6.83398 17.667 9.50098 21h423c23.333 0 41 -5.33301 53 -16s18 -25 18 -43
c0 -13.333 -2 -26.5 -6 -39.5s-9 -27.167 -15 -42.5c-6.66699 -16.667 -16.167 -39.167 -28.5 -67.5l-41.5 -94l-48 -108l-48.5 -109l-43.5 -96.5l-31 -70h-121z" />
    <glyph glyph-name="eight" unicode="8" horiz-adv-x="675" 
d="M176 349c-37.333 19.333 -63.668 43.166 -79.001 71.499s-23 57.166 -23 86.499s6.16699 56 18.5 80s29.833 44.667 52.5 62s50.334 30.833 83.001 40.5s69.334 14.5 110.001 14.5s77.167 -4.83301 109.5 -14.5s59.833 -23.167 82.5 -40.5s40.167 -38 52.5 -62
s18.5 -50.667 18.5 -80s-7.66699 -58.166 -23 -86.499s-41.666 -52.166 -78.999 -71.499c22 -9.33301 40.5 -20.166 55.5 -32.499s27.167 -25.666 36.5 -39.999s16 -29.333 20 -45s6 -30.834 6 -45.501c0 -30.667 -6.33301 -58.5 -19 -83.5s-30.834 -46.333 -54.501 -64
s-52.834 -31.334 -87.501 -41.001s-74 -14.5 -118 -14.5s-83.333 4.83301 -118 14.5s-64 23.334 -88 41.001s-42.333 39 -55 64s-19 52.833 -19 83.5c0 14.667 2 29.834 6 45.501s10.667 30.667 20 45s21.5 27.666 36.5 39.999s33.5 23.166 55.5 32.499zM337.998 395
c49.333 0 86.166 10.167 110.499 30.5s36.5 45.833 36.5 76.5c0 31.333 -12.167 57.333 -36.5 78s-61.166 31 -110.499 31c-50 0 -87.167 -10.333 -111.5 -31s-36.5 -46.667 -36.5 -78c0 -30.667 12.167 -56.167 36.5 -76.5s61.5 -30.5 111.5 -30.5zM337.998 81
c52 0 91.667 9.83301 119 29.5s41 46.5 41 80.5c0 33.333 -13.667 60 -41 80s-67 30 -119 30s-91.833 -10 -119.5 -30s-41.5 -46.667 -41.5 -80c0 -34 13.833 -60.833 41.5 -80.5s67.5 -29.5 119.5 -29.5z" />
    <glyph glyph-name="nine" unicode="9" horiz-adv-x="617" 
d="M357 241c-6.66699 -4 -17 -8.16895 -31 -12.502s-29 -6.5 -45 -6.5c-39.333 0 -74.333 6.16699 -105 18.5s-56.334 29 -77.001 50s-36.334 45.333 -47.001 73s-16 56.834 -16 87.501c0 36.667 6.66699 70.5 20 101.5s32 57.833 56 80.5s52.5 40.167 85.5 52.5
s69.167 18.5 108.5 18.5c38.667 0 74.334 -6 107.001 -18s60.834 -28.833 84.501 -50.5s42 -47.5 55 -77.5s19.5 -63 19.5 -99c0 -47.333 -10.167 -91.166 -30.5 -131.499s-44.833 -79.5 -73.5 -117.5l-165 -218h-134zM152 455.998
c0 -23.333 3.8291 -44.1641 11.4961 -62.4971s18.334 -33.833 32.001 -46.5s29.834 -22.5 48.501 -29.5s39.334 -10.5 62.001 -10.5s43.5 3.66699 62.5 11s35.333 17.666 49 30.999s24.334 29 32.001 47s11.5 38 11.5 60c0 21.333 -3.83301 41.166 -11.5 59.499
s-18.334 34.166 -32.001 47.499s-30 23.666 -49 30.999s-39.833 11 -62.5 11c-23.333 0 -44.5 -3.66699 -63.5 -11s-35.167 -17.666 -48.5 -30.999s-23.666 -29 -30.999 -47s-11 -38 -11 -60z" />
    <glyph glyph-name="colon" unicode=":" horiz-adv-x="300" 
d="M73 425c0 10.667 1.99805 20.668 5.99805 30.001s9.5 17.5 16.5 24.5s15.333 12.5 25 16.5s19.834 6 30.501 6c21.333 0 39.5 -7.5 54.5 -22.5s22.5 -33.167 22.5 -54.5c0 -10.667 -2 -20.834 -6 -30.501s-9.5 -18 -16.5 -25s-15.167 -12.667 -24.5 -17
s-19.333 -6.5 -30 -6.5c-21.333 0 -39.666 7.83301 -54.999 23.5s-23 34.167 -23 55.5zM72.998 63.001c0 10.667 1.99805 20.668 5.99805 30.001s9.5 17.5 16.5 24.5s15.333 12.5 25 16.5s19.834 6 30.501 6c21.333 0 39.5 -7.5 54.5 -22.5s22.5 -33.167 22.5 -54.5
c0 -10.667 -2 -20.834 -6 -30.501s-9.5 -18 -16.5 -25s-15.167 -12.667 -24.5 -17s-19.333 -6.5 -30 -6.5c-21.333 0 -39.666 7.83301 -54.999 23.5s-23 34.167 -23 55.5z" />
    <glyph glyph-name="semicolon" unicode=";" horiz-adv-x="300" 
d="M89 88c5.33301 17.333 12.667 30.333 22 39s23 13 41 13c19.333 0 35 -4.16699 47 -12.5s19.667 -14.5 23 -18.5l-115 -268l-83 32zM73.001 425c0 10.667 1.99805 20.668 5.99805 30.001s9.5 17.5 16.5 24.5s15.333 12.5 25 16.5s19.834 6 30.501 6
c21.333 0 39.5 -7.5 54.5 -22.5s22.5 -33.167 22.5 -54.5c0 -10.667 -2 -20.834 -6 -30.501s-9.5 -18 -16.5 -25s-15.167 -12.667 -24.5 -17s-19.333 -6.5 -30 -6.5c-21.333 0 -39.666 7.83301 -54.999 23.5s-23 34.167 -23 55.5z" />
    <glyph glyph-name="less" unicode="&#x3c;" horiz-adv-x="635" 
d="M561 593v-117.998l-348 -132l348 -132v-117l-440 180c-18.667 7.33301 -31.5 17 -38.5 29s-10.5 25.333 -10.5 40c0 13.333 2.66699 25.166 8 35.499s11 18.166 17 23.499z" />
    <glyph glyph-name="equal" unicode="=" horiz-adv-x="633" 
d="M525 519c19.333 0 33 -5 41 -15s12 -23.667 12 -41c0 -12 -1.5 -22.667 -4.5 -32s-5.16699 -15.666 -6.5 -18.999h-459c-19.333 0 -33 5 -41 15s-12 23.667 -12 41c0 12 1.5 22.667 4.5 32s5.16699 15.666 6.5 18.999h459zM525 270c19.333 0 33 -5 41 -15
s12 -23.667 12 -41c0 -12 -1.5 -22.667 -4.5 -32s-5.16699 -15.666 -6.5 -18.999h-459c-19.333 0 -33 5.16699 -41 15.5s-12 24.166 -12 41.499c0 12 1.5 22.5 4.5 31.5s5.16699 15.167 6.5 18.5h459z" />
    <glyph glyph-name="greater" unicode="&#x3e;" horiz-adv-x="635" 
d="M73 212l349 131l-349 132v118l440 -181c18 -7.33301 30.667 -17 38 -29s11 -25.333 11 -40c0 -14 -2.5 -25.833 -7.5 -35.5s-10.833 -17.5 -17.5 -23.5l-464 -190v118z" />
    <glyph glyph-name="question" unicode="?" horiz-adv-x="540" 
d="M178 207c0 20.667 1.16699 38.668 3.5 54.001s6.83301 29.166 13.5 41.499s15.334 23.5 26.001 33.5s24.667 20 42 30c38.667 22 67.5 42.667 86.5 62s28.5 44 28.5 74c0 28.667 -10.667 53.334 -32 74.001s-56 31 -104 31c-22 0 -42 -2.83301 -60 -8.5
s-33.667 -12.834 -47 -21.501s-24.333 -18.167 -33 -28.5s-15.334 -19.833 -20.001 -28.5c-18.667 4.66699 -32.834 12.667 -42.501 24s-14.5 24.333 -14.5 39c0 13.333 4.5 27.166 13.5 41.499s22.833 27.333 41.5 39s42 21.334 70 29.001s61 11.5 99 11.5
c44 0 81.667 -5.5 113 -16.5s57 -25.5 77 -43.5s34.5 -38.667 43.5 -62s13.5 -47.333 13.5 -72c0 -26 -3.5 -49 -10.5 -69s-16.167 -37.667 -27.5 -53s-24.666 -29 -39.999 -41s-31 -23 -47 -33c-14.667 -9.33301 -27 -17.833 -37 -25.5s-18.167 -15.5 -24.5 -23.5
s-10.833 -16.5 -13.5 -25.5s-4 -19.833 -4 -32.5h-114zM158 59.001c0 20 7.5 37.5 22.5 52.5s33.167 22.5 54.5 22.5c20.667 0 38.5 -7.5 53.5 -22.5s22.5 -32.5 22.5 -52.5c0 -20.667 -7.5 -38.167 -22.5 -52.5s-32.833 -21.5 -53.5 -21.5
c-21.333 0 -39.5 7.16699 -54.5 21.5s-22.5 31.833 -22.5 52.5z" />
    <glyph glyph-name="at" unicode="@" horiz-adv-x="997" 
d="M743 -166c-6 -2.66699 -15.334 -6.00684 -28.001 -10.0068s-28.834 -8 -48.501 -12s-42.5 -7.5 -68.5 -10.5s-55 -4.5 -87 -4.5c-69.333 0 -132.833 11.167 -190.5 33.5s-107 53.5 -148 93.5s-72.833 87.5 -95.5 142.5s-34 115.167 -34 180.5
c0 66 11.167 126.833 33.5 182.5s53.666 103.834 93.999 144.501s88.833 72.5 145.5 95.5s119 34.5 187 34.5c73.333 0 138 -11.5 194 -34.5s102.833 -54.667 140.5 -95s66.167 -87.833 85.5 -142.5s29 -113.667 29 -177c0 -24 -1.5 -48 -4.5 -72s-6.66699 -46.5 -11 -67.5
s-9.16602 -39.667 -14.499 -56s-10 -28.833 -14 -37.5c-29.333 -2 -72.666 -4.33301 -129.999 -7s-133 -4 -227 -4c-40 0 -76.167 2 -108.5 6s-60 11.5 -83 22.5s-40.667 26.333 -53 46s-18.5 44.834 -18.5 75.501c0 48 16.5 84.833 49.5 110.5s85.833 38.5 158.5 38.5
c21.333 0 41 -1.16699 59 -3.5s31.667 -4.16602 41 -5.49902c0 36.667 -10.833 63.167 -32.5 79.5s-54.167 24.5 -97.5 24.5c-30 0 -54.333 -3 -73 -9s-34 -12.333 -46 -19c-3.33301 3.33301 -7.83301 9.33301 -13.5 18s-8.5 18.667 -8.5 30c0 20.667 11.667 36.667 35 48
s62 17 116 17c71.333 0 125.666 -15.167 162.999 -45.5s56 -75.166 56 -134.499v-216c4.66699 0 12.834 0.333008 24.501 1s24.5 1.33398 38.5 2.00098s27.333 1.33398 40 2.00098s22.334 1.33398 29.001 2.00098c3.33301 11.333 7.33301 30.833 12 58.5s7 59.5 7 95.5
c0 49.333 -8 95.5 -24 138.5s-39 80.333 -69 112s-66.333 56.667 -109 75s-90.334 27.5 -143.001 27.5c-50 0 -96.333 -9 -139 -27s-79.667 -43 -111 -75s-55.833 -70.167 -73.5 -114.5s-26.5 -92.5 -26.5 -144.5s8.83301 -99.667 26.5 -143s42.834 -80.5 75.501 -111.5
s71.667 -55.167 117 -72.5s96 -26 152 -26c46.667 0 86.167 3.66699 118.5 11s54.5 13.333 66.5 18zM593.999 228.993c-7.33301 1.33301 -18.667 3 -34 5s-33.666 3 -54.999 3c-44 0 -74.333 -6 -91 -18s-25 -30.667 -25 -56s10.167 -43.5 30.5 -54.5s53.5 -16.5 99.5 -16.5
c14 0 27.667 0.166992 41 0.5s24.666 0.833008 33.999 1.5v135z" />
    <glyph glyph-name="A" unicode="A" horiz-adv-x="733" 
d="M5 0l56.002 144.501l65 159l70.5 165.5l72.5 164c12 26.667 25.667 45.167 41 55.5s34.666 15.5 57.999 15.5c8.66699 0 17.167 -1 25.5 -3s15.666 -4.33301 21.999 -7s11.666 -5.16699 15.999 -7.5s6.83301 -3.83301 7.5 -4.5c10.667 -18.667 24.5 -46.334 41.5 -83.001
l55 -123.5l60.5 -143l57.5 -141l46.5 -118l28 -73.5h-132c-3.33301 8 -7.66602 19.333 -12.999 34l-17.5 47.5l-19.5 51.5l-18 46h-335l-39.5 -101.5l-28.5 -77.5h-120zM488.002 284.001l-32 81.5l-35.5 87l-33 77.5c-10.333 23.333 -18.5 41 -24.5 53l-29 -63.5l-33 -75
l-34 -80.5l-32 -80h253z" />
    <glyph glyph-name="B" unicode="B" horiz-adv-x="691" 
d="M73 621c0 21.333 5.33496 36.8311 16.002 46.498s23 15.834 37 18.501c13.333 2.66699 34.833 5 64.5 7s72.5 3 128.5 3c60.667 0 110.667 -5.33301 150 -16s70.166 -24.834 92.499 -42.501s37.833 -38 46.5 -61s13 -47.167 13 -72.5
c0 -21.333 -2.83301 -40.166 -8.5 -56.499s-12.667 -30.5 -21 -42.5s-17.833 -22.167 -28.5 -30.5s-21 -14.833 -31 -19.5c34 -11.333 61.5 -30.833 82.5 -58.5s31.5 -62.5 31.5 -104.5c0 -28 -4.33301 -54.333 -13 -79s-24.834 -46.167 -48.501 -64.5
s-56.667 -32.666 -99 -42.999s-96.833 -15.5 -163.5 -15.5c-32 0 -62.333 0.5 -91 1.5s-54 2 -76 3s-40.167 2.16699 -54.5 3.5s-23.5 2 -27.5 2v621zM375.002 400.998c23.333 0 43.001 2.5 59.001 7.5s29 11.667 39 20s17.167 18.333 21.5 30s6.5 24.167 6.5 37.5
c0 14 -2.83301 27.167 -8.5 39.5s-15.167 22.833 -28.5 31.5s-31 15.5 -53 20.5s-49 7.5 -81 7.5c-38.667 0 -70.334 -1 -95.001 -3s-40 -3.66699 -46 -5v-186h186zM189.003 99.998c6 -1.33301 20.832 -3 44.499 -5s57.5 -3 101.5 -3c35.333 0 65 2.16699 89 6.5
s43.5 11 58.5 20s25.667 20 32 33s9.5 28.5 9.5 46.5c0 14 -2.16699 27 -6.5 39s-11.666 22.5 -21.999 31.5s-24 16.167 -41 21.5s-38.167 8 -63.5 8h-202v-198z" />
    <glyph glyph-name="C" unicode="C" horiz-adv-x="664" 
d="M649 46c-7.33301 -5.33301 -17.501 -11.665 -30.501 -18.998s-29.333 -14.333 -49 -21s-42.834 -12.334 -69.501 -17.001s-57 -7 -91 -7c-49.333 0 -96 7.83301 -140 23.5s-82.833 38.5 -116.5 68.5s-60.334 67.333 -80.001 112s-29.5 96 -29.5 154
c0 57.333 9.5 108.666 28.5 153.999s45 83.5 78 114.5s71.5 54.667 115.5 71s91 24.5 141 24.5c48 0 87.333 -4 118 -12s54.834 -17.833 72.501 -29.5s30 -23.667 37 -36s10.5 -22.5 10.5 -30.5c0 -8.66699 -1.83301 -17 -5.5 -25s-8 -15.167 -13 -21.5
s-10.167 -11.833 -15.5 -16.5s-10 -8 -14 -10c-6.66699 7.33301 -15.834 15.333 -27.501 24s-25.5 16.667 -41.5 24s-34 13.5 -54 18.5s-41.667 7.5 -65 7.5c-34 0 -65.667 -5.83301 -95 -17.5s-54.666 -28.667 -75.999 -51s-38.166 -49.333 -50.499 -81
s-18.5 -67.5 -18.5 -107.5c0 -40.667 6.5 -76.5 19.5 -107.5s30.833 -57 53.5 -78s49.334 -36.833 80.001 -47.5s63.667 -16 99 -16c42 0 78.167 5.33301 108.5 16s52.5 20.667 66.5 30l53 -91h1z" />
    <glyph glyph-name="D" unicode="D" horiz-adv-x="746" 
d="M192 104c4 -1.33301 14.6689 -2.83203 32.002 -4.49902s41.666 -2.5 72.999 -2.5c90.667 0 160 21.5 208 64.5s72 103.833 72 182.5c0 36 -5.5 69.167 -16.5 99.5s-27.833 56.333 -50.5 78s-51.667 38.667 -87 51s-77.333 18.5 -126 18.5
c-32 0 -56.833 -0.833008 -74.5 -2.5s-27.834 -2.83398 -30.501 -3.50098v-481zM73.002 621.001c0 17.333 3.33398 31.001 10.001 41.001s18.5 17.5 35.5 22.5s39.667 8.16699 68 9.5s64.5 2 108.5 2c63.333 0 120.166 -8.16699 170.499 -24.5s93 -39.666 128 -69.999
s61.833 -67.333 80.5 -111s28 -92.5 28 -146.5c0 -54.667 -9 -103.834 -27 -147.501s-44.5 -80.834 -79.5 -111.501s-78.333 -54.167 -130 -70.5s-111.167 -24.5 -178.5 -24.5c-71.333 0 -124 1.5 -158 4.5s-52.667 4.83301 -56 5.5v621z" />
    <glyph glyph-name="E" unicode="E" horiz-adv-x="638" 
d="M73 618c0 45.333 24.334 67.998 73.001 67.998h384c40 0 60 -18 60 -54c0 -12.667 -2 -24.167 -6 -34.5s-7 -17.166 -9 -20.499h-381v-172h322c39.333 0 59 -18 59 -54c0 -12.667 -1.83301 -24.167 -5.5 -34.5s-6.83398 -17.166 -9.50098 -20.499h-366v-187h390v-109
h-511v618z" />
    <glyph glyph-name="F" unicode="F" horiz-adv-x="584" 
d="M73 618c0 45.333 24.333 67.998 73 67.998h355c40 0 60 -18 60 -54c0 -12.667 -2 -24.167 -6 -34.5s-7 -17.166 -9 -20.499h-352v-182h278c40 0 60 -18 60 -54c0 -12.667 -2 -24.167 -6 -34.5s-7 -17.166 -9 -20.499h-323v-286h-121v618z" />
    <glyph glyph-name="G" unicode="G" horiz-adv-x="719" 
d="M543 276l-117.003 0.00390625c-39.333 0 -59 17.333 -59 52c0 13.333 1.83301 25 5.5 35s6.83398 16.667 9.50098 20h207c47.333 0 71 -22.667 71 -68v-316c-5.33301 -1.33301 -15 -2.83301 -29 -4.5s-30.833 -3.5 -50.5 -5.5s-41.5 -3.66699 -65.5 -5s-49 -2 -75 -2
c-58 0 -111.333 7.66699 -160 23s-90.5 38 -125.5 68s-62.333 67.5 -82 112.5s-29.5 97.167 -29.5 156.5c0 56 9.66699 106.333 29 151s46 82.667 80 114s74.167 55.333 120.5 72s96.5 25 150.5 25c27.333 0 52 -1.66699 74 -5s41.333 -7.5 58 -12.5
s30.834 -10.167 42.501 -15.5s20.834 -10.333 27.501 -15c12 -8 20.833 -16.5 26.5 -25.5s8.5 -18.167 8.5 -27.5c0 -8.66699 -1.83301 -16.834 -5.5 -24.501s-8 -14.667 -13 -21s-10.167 -11.833 -15.5 -16.5s-10 -8.33398 -14 -11.001
c-7.33301 7.33301 -16.833 15 -28.5 23s-25.667 15.167 -42 21.5s-34.5 11.666 -54.5 15.999s-42 6.5 -66 6.5c-37.333 0 -71.333 -5.83301 -102 -17.5s-57.334 -28.5 -80.001 -50.5s-40.167 -48.833 -52.5 -80.5s-18.5 -67.167 -18.5 -106.5c0 -44 6.66699 -82 20 -114
s32.333 -58.167 57 -78.5s53.834 -35.5 87.501 -45.5s71.167 -15 112.5 -15c24.667 0 46 0.666992 64 2s29.333 2.66602 34 3.99902v181z" />
    <glyph glyph-name="H" unicode="H" horiz-adv-x="736" 
d="M73 631c0 18.667 5.66699 32.499 17 41.499s26.666 13.5 45.999 13.5c12.667 0 24.334 -1.66699 35.001 -5s17.667 -5.66602 21 -6.99902v-263h352v220c0 18.667 5.5 32.5 16.5 41.5s26.167 13.5 45.5 13.5c13.333 0 25.333 -1.66699 36 -5s17.667 -6 21 -8v-673h-119
v302h-352v-302h-119v631z" />
    <glyph glyph-name="I" unicode="I" horiz-adv-x="265" 
d="M73 631c0 18.667 5.66699 32.499 17 41.499s26.666 13.5 45.999 13.5c12.667 0 24.334 -1.66699 35.001 -5s17.667 -5.66602 21 -6.99902v-674h-119v631z" />
    <glyph glyph-name="J" unicode="J" horiz-adv-x="587" 
d="M91 174c4 -6 10.334 -13.999 19.001 -23.999s19.834 -19.833 33.501 -29.5s29.834 -18 48.501 -25s40 -10.5 64 -10.5c21.333 0 41 2.66699 59 8s33.5 14 46.5 26s23 28 30 48s10.5 44.667 10.5 74v390c0 18.667 5.5 32.5 16.5 41.5s26.167 13.5 45.5 13.5
c13.333 0 25.333 -1.66699 36 -5s17.667 -6 21 -8v-440c0 -38 -5.33301 -72.5 -16 -103.5s-26.834 -57.333 -48.501 -79s-48.667 -38.5 -81 -50.5s-70.5 -18 -114.5 -18c-39.333 0 -74 5.5 -104 16.5s-55.333 23.5 -76 37.5s-36.834 27.667 -48.501 41
s-18.834 22.666 -21.501 27.999z" />
    <glyph glyph-name="K" unicode="K" horiz-adv-x="664" 
d="M73 631c0 18.667 5.66797 32.4961 17.001 41.4961s26.666 13.5 45.999 13.5c12.667 0 24.334 -1.66699 35.001 -5s17.667 -5.66602 21 -6.99902v-279l63 59.5l77.5 71.5l74.5 67l54 47c16.667 13.333 31.834 24.333 45.501 33s30.167 13 49.5 13
c21.333 0 38.666 -4.5 51.999 -13.5s22 -16.167 26 -21.5c-3.33301 -3.33301 -12 -11.166 -26 -23.499l-50 -44.5l-64 -57l-69 -61l-63.5 -57l-48.5 -44c66.667 -58.667 129 -118 187 -178s111 -122 159 -186h-147c-17.333 20.667 -38.333 44.5 -63 71.5l-79.5 83.5
c-28.333 28.667 -57.833 56.834 -88.5 84.501s-60.334 52.834 -89.001 75.501v-315h-119v631z" />
    <glyph glyph-name="L" unicode="L" horiz-adv-x="550" 
d="M73 631c0 18.667 5.66699 32.499 17 41.499s26.666 13.5 45.999 13.5c12.667 0 24.334 -1.66699 35.001 -5s17.667 -5.66602 21 -6.99902v-565h353v-109h-472v631z" />
    <glyph glyph-name="M" unicode="M" horiz-adv-x="896" 
d="M68 0c0.666992 17.333 1.83594 42.3359 3.50293 75.0029s3.66699 69.167 6 109.5l7 126l7 126l6.5 109c2 32.333 3.66699 57.166 5 74.499c1.33301 24 9.33301 41 24 51s31.334 15 50.001 15c20.667 0 37.667 -3 51 -9s22.666 -11.667 27.999 -17l36.5 -73.5l53 -107
l57 -113.5l47.5 -93l42.5 84.5l51 102l48 97l34.5 70.5c9.33301 19.333 21 34 35 44s32 15 54 15c19.333 0 35.666 -2.5 48.999 -7.5s21.666 -9.16699 24.999 -12.5c1.33301 -18.667 3 -45.667 5 -81l6.5 -117.5l7.5 -135l8 -135c2.66699 -43 4.83398 -82 6.50098 -117
s3.16699 -61.833 4.5 -80.5h-117c-0.666992 10.667 -1.66699 29.167 -3 55.5s-3 56.833 -5 91.5s-4 71.167 -6 109.5s-4 74.666 -6 108.999l-5.5 91l-3.5 54.5l-24 -48l-32.5 -65.5l-36.5 -74.5l-36.5 -74.5l-32 -66l-23.5 -48.5h-98c-8 18 -19.667 42.833 -35 74.5
l-49.5 101.5l-53 107l-47.5 92c-0.666992 -16 -1.83398 -37.333 -3.50098 -64s-3.33398 -56.334 -5.00098 -89.001s-3.5 -66.5 -5.5 -101.5s-3.83301 -68.833 -5.5 -101.5l-4.5 -89c-1.33301 -26.667 -2.33301 -48 -3 -64h-118z" />
    <glyph glyph-name="N" unicode="N" horiz-adv-x="735" 
d="M73 622c0 23.333 7.16992 39.833 21.5029 49.5s31.166 14.5 50.499 14.5c18.667 0 34 -3 46 -9s20.333 -10.667 25 -14c6.66699 -8 17.5 -22.167 32.5 -42.5l52 -72l63 -90l66.5 -96.5l62.5 -93l51.5 -79v441c0 18.667 5.33301 32.5 16 41.5s25.667 13.5 45 13.5
c13.333 0 25.166 -1.66699 35.499 -5s17.166 -6 20.499 -8v-673h-120l-43 66.5l-55.5 84l-63.5 94.5l-66 97.5l-64.5 93l-57.5 80.5v-516h-118v622z" />
    <glyph glyph-name="O" unicode="O" horiz-adv-x="819" 
d="M409 704c52 0 100.167 -9.16699 144.5 -27.5s83 -43.666 116 -75.999s58.833 -70.5 77.5 -114.5s28 -91.667 28 -143s-9.33301 -99 -28 -143s-44.5 -82.167 -77.5 -114.5s-71.667 -57.666 -116 -75.999s-92.5 -27.5 -144.5 -27.5s-100.167 9.16699 -144.5 27.5
s-83 43.666 -116 75.999s-58.833 70.5 -77.5 114.5s-28 91.667 -28 143s9.33301 99 28 143s44.5 82.167 77.5 114.5s71.667 57.666 116 75.999s92.5 27.5 144.5 27.5zM409 91c34.667 0 66.667 6.33301 96 19s54.666 30.167 75.999 52.5s38.166 48.833 50.499 79.5
s18.5 64.334 18.5 101.001s-6.16699 70.5 -18.5 101.5s-29.166 57.667 -50.499 80s-46.666 39.666 -75.999 51.999s-61.333 18.5 -96 18.5s-66.667 -6.16699 -96 -18.5s-54.833 -29.666 -76.5 -51.999s-38.5 -49 -50.5 -80s-18 -64.833 -18 -101.5s6 -70.334 18 -101.001
s28.833 -57.167 50.5 -79.5s47.167 -39.833 76.5 -52.5s61.333 -19 96 -19z" />
    <glyph glyph-name="P" unicode="P" horiz-adv-x="662" 
d="M189 345l39 -5.50195c21.333 -3 48.666 -4.5 81.999 -4.5c36.667 0 67.334 3.33301 92.001 10s44.167 16 58.5 28s24.5 25.833 30.5 41.5s9 32.5 9 50.5c0 16.667 -2.66699 32.834 -8 48.501s-15.333 29.5 -30 41.5s-34.834 21.667 -60.501 29s-58.5 11 -98.5 11
c-32 0 -57.667 -0.666992 -77 -2s-31.666 -2.66602 -36.999 -3.99902v-244zM73 620.998c0 21.333 5.33301 36.6689 16 46.002s23.667 15.666 39 18.999c10.667 2 30 4.16699 58 6.5s68 3.5 120 3.5c106.667 0 186 -21 238 -63s78 -98 78 -168
c0 -32.667 -5.5 -63.167 -16.5 -91.5s-28.5 -52.833 -52.5 -73.5s-55.333 -36.834 -94 -48.501s-85.667 -17.5 -141 -17.5c-14 0 -28.167 0.5 -42.5 1.5s-27.5 2 -39.5 3s-22.333 2.16699 -31 3.5s-14 2 -16 2v-244h-116v621z" />
    <glyph glyph-name="Q" unicode="Q" horiz-adv-x="819" 
d="M567 18c-22 -11.333 -46.667 -19.833 -74 -25.5s-55.333 -8.5 -84 -8.5c-52 0 -100.167 9.16699 -144.5 27.5s-83 43.5 -116 75.5s-58.833 69.833 -77.5 113.5s-28 91.167 -28 142.5s9.33301 99 28 143s44.5 82.167 77.5 114.5s71.667 57.666 116 75.999
s92.5 27.5 144.5 27.5s100.167 -9.16699 144.5 -27.5s83 -43.666 116 -75.999s58.833 -70.5 77.5 -114.5s28 -91.667 28 -143c0 -54 -10.5 -103.833 -31.5 -149.5s-49.5 -84.167 -85.5 -115.5l92 -115l-88 -67zM442 176c-7.33301 9.33301 -13.668 18.502 -19.001 27.502
s-8 17.833 -8 26.5c0 10 2.5 18.5 7.5 25.5s11.333 12.667 19 17s16.167 7.66602 25.5 9.99902s18.666 3.83301 27.999 4.5l91 -119c19.333 19.333 34.833 44.166 46.5 74.499s17.5 63.833 17.5 100.5s-6.16699 70.5 -18.5 101.5s-29.166 57.667 -50.499 80
s-46.666 39.666 -75.999 51.999s-61.333 18.5 -96 18.5s-66.667 -6.16699 -96 -18.5s-54.833 -29.666 -76.5 -51.999s-38.5 -49 -50.5 -80s-18 -64.833 -18 -101.5s6 -70.5 18 -101.5s28.833 -57.667 50.5 -80s47.167 -39.833 76.5 -52.5s61.333 -19 96 -19
c32.667 0 62 6 88 18z" />
    <glyph glyph-name="R" unicode="R" horiz-adv-x="672" 
d="M73 621c0 21.333 5.33301 36.665 16 45.998s23.667 15.666 39 18.999c10 2 28.667 4.16699 56 6.5s67 3.5 119 3.5c104.667 0 183 -20 235 -60s78 -94.333 78 -163c0 -48 -11.5 -87.667 -34.5 -119s-54.5 -55.666 -94.5 -72.999c14 -19.333 28.167 -40.666 42.5 -63.999
l42.5 -72.5l40.5 -74.5l36.5 -70h-138c-5.33301 11.333 -14 28.5 -26 51.5l-39 73l-42 74c-14 23.667 -25.667 41.834 -35 54.501c-11.333 -1.33301 -23.166 -2.33301 -35.499 -3s-23.833 -1 -34.5 -1c-23.333 0 -45.333 0.833008 -66 2.5s-35.334 3.16699 -44.001 4.5v-256
h-116v621zM189 357.999c8.66699 -1.33301 21.667 -3.00195 39 -5.00195s42.333 -3 75 -3c36 0 66.167 3 90.5 9s44 14.333 59 25s25.667 23.5 32 38.5s9.5 31.5 9.5 49.5c0 16.667 -3 32.334 -9 47.001s-16.333 27.667 -31 39s-34.5 20.333 -59.5 27s-56.5 10 -94.5 10
c-33.333 0 -58.833 -0.666992 -76.5 -2s-29.167 -2.66602 -34.5 -3.99902v-231z" />
    <glyph glyph-name="S" unicode="S" horiz-adv-x="689" 
d="M95 157c7.33301 -5.33301 18.3252 -11.8291 32.9922 -19.4961s32.834 -15.334 54.501 -23.001s46.334 -14.167 74.001 -19.5s57.834 -8 90.501 -8c58 0 99.5 8.5 124.5 25.5s37.5 41.167 37.5 72.5c0 15.333 -2.83301 28.333 -8.5 39s-14 19.834 -25 27.501
s-24.333 13.834 -40 18.501s-33.5 8.66699 -53.5 12l-110 20c-28 4.66699 -55 11.667 -81 21s-49 21.666 -69 36.999s-36 34.166 -48 56.499s-18 49.166 -18 80.499c0 28 5.16699 54.667 15.5 80s26.833 47.333 49.5 66s51.334 33.5 86.001 44.5s76.667 16.5 126 16.5
c36 0 67.333 -2 94 -6s49.334 -8.83301 68.001 -14.5s33.667 -11.5 45 -17.5s19.666 -10.667 24.999 -14c10.667 -7.33301 19.334 -15.333 26.001 -24s10 -18.667 10 -30c0 -15.333 -4.66699 -29.5 -14 -42.5s-18 -22.167 -26 -27.5c-6 6.66699 -15.5 14.167 -28.5 22.5
s-29 16.166 -48 23.499s-41.167 13.666 -66.5 18.999s-53 8 -83 8s-55.167 -2.33301 -75.5 -7s-36.5 -11.167 -48.5 -19.5s-20.667 -18.333 -26 -30s-8 -24.834 -8 -39.501c0 -25.333 9.83301 -45.166 29.5 -59.499s52.5 -25.833 98.5 -34.5l112 -21
c72.667 -13.333 127.334 -35.166 164.001 -65.499s55 -74.166 55 -131.499c0 -32 -6.33301 -60.833 -19 -86.5s-31.167 -47.834 -55.5 -66.501s-54.666 -33 -90.999 -43s-78.166 -15 -125.499 -15c-40 0 -76.667 3.16699 -110 9.5s-63 14 -89 23s-47.667 18.167 -65 27.5
s-30 16.666 -38 21.999z" />
    <glyph glyph-name="T" unicode="T" horiz-adv-x="655" 
d="M264 577h-199.999c-39.333 0 -59 18 -59 54c0 12.667 2 24.167 6 34.5s7 17.166 9 20.499h571c39.333 0 59 -18 59 -54c0 -12.667 -1.83301 -24.167 -5.5 -34.5s-6.83398 -17.166 -9.50098 -20.499h-252v-577h-119v577z" />
    <glyph glyph-name="U" unicode="U" horiz-adv-x="756" 
d="M66 631c0 18.667 5.5 32.5 16.5 41.5s26.167 13.5 45.5 13.5c13.333 0 25.333 -1.66699 36 -5s17.667 -6 21 -8v-355c0 -38 3.33301 -71.167 10 -99.5s17.5 -52 32.5 -71s34.833 -33.333 59.5 -43s55 -14.5 91 -14.5s66.333 4.83301 91 14.5s44.5 24 59.5 43
s25.833 42.667 32.5 71s10 61.5 10 99.5v313c0 18.667 5.5 32.5 16.5 41.5s26.167 13.5 45.5 13.5c13.333 0 25.333 -1.66699 36 -5s17.667 -6 21 -8v-365c0 -105.333 -26 -186 -78 -242s-130 -84 -234 -84s-182 28 -234 84s-78 136.667 -78 242v323z" />
    <glyph glyph-name="V" unicode="V" horiz-adv-x="692" 
d="M272 0l-51.001 105.5l-51 111l-47.5 108l-41 96.5l-31.5 75.5l-19 46.5c-7.33301 17.333 -13.5 33.5 -18.5 48.5s-7.5 29.167 -7.5 42.5c0 16 4.83301 28.667 14.5 38s24.167 14 43.5 14c15.333 0 28 -2 38 -6s16.333 -6.66699 19 -8
c12 -35.333 26.833 -75.833 44.5 -121.5l56 -142.5l60.5 -147.5l59 -136.5c14.667 32 30.834 69.333 48.501 112l53.5 132l53 134.5l47 119.5c9.33301 23.333 19.333 39.833 30 49.5s27 14.5 49 14.5c17.333 0 31.833 -3.16699 43.5 -9.5s19.167 -10.5 22.5 -12.5l-25.5 -65
l-41.5 -101.5l-52 -124l-57 -133.5l-56.5 -129l-50.5 -111h-132z" />
    <glyph glyph-name="W" unicode="W" horiz-adv-x="1003" 
d="M225 0l-31.999 81.001l-37.5 98.5l-38.5 104.5l-35 99l-28.5 81.5c-8.33301 23.667 -14.166 41.167 -17.499 52.5l-20 64c-6 18.667 -9 34.667 -9 48c0 17.333 5.16699 31.166 15.5 41.499s25.5 15.5 45.5 15.5c15.333 0 27.833 -2 37.5 -6s15.834 -6.66699 18.501 -8
c4.66699 -18.667 10.834 -41 18.501 -67l26 -85l30.5 -96l32.5 -99.5l32 -96c10.333 -31 20.166 -59.167 29.499 -84.5l38.5 132l39.5 140l34 124l22 84c5.33301 18.667 13.166 33.667 23.499 45s26.833 17 49.5 17c15.333 0 29 -2 41 -6s19.667 -7 23 -9l28 -116.5l34 -134
l37.5 -140.5l38.5 -135l44 130.5l41.5 129.5l36 118.5l28.5 97.5c6.66699 22.667 15.667 39.167 27 49.5s27.666 15.5 48.999 15.5c18.667 0 34 -2.83301 46 -8.5s19.333 -9.5 22 -11.5c-12 -44 -27 -93.167 -45 -147.5l-57.5 -170l-64 -178l-65.5 -170.5h-134
c-4 11.333 -9.33301 27.5 -16 48.5s-13.834 44.833 -21.501 71.5l-25 86.5c-9 31 -17.667 62.333 -26 94l-24 92.5l-20.5 83c-6 -24.667 -13 -52 -21 -82l-25 -91.5l-26.5 -92.5l-26 -86.5l-23 -72.5c-7 -21.333 -12.833 -38.333 -17.5 -51h-133z" />
    <glyph glyph-name="X" unicode="X" horiz-adv-x="694" 
d="M12 0c10 14.667 24 34 42 58l61 81l73 96l78 102l-99.5 118l-71 86c-19 24 -33.167 43.5 -42.5 58.5s-14 27.167 -14 36.5c0 14 4.83301 25.833 14.5 35.5s23.167 14.5 40.5 14.5c12 0 22 -1.33301 30 -4s14 -5 18 -7l33 -41.5l45.5 -57.5l55.5 -69.5l62 -76.5l73.5 97
l51.5 69.5c14 19 26 34.333 36 46s19 20.667 27 27s16.167 10.666 24.5 12.999s17.833 3.5 28.5 3.5c10 0 19 -1.33301 27 -4s15.167 -5.66699 21.5 -9s11.5 -6.66602 15.5 -9.99902s7 -6 9 -8l-36.5 -46l-57 -72l-71.5 -90l-79 -101l86.5 -107l79.5 -99l65 -82.5l43 -57.5
h-145l-35 45.5l-47 61l-56.5 71l-62.5 76.5l-58 -75.5l-52.5 -70.5l-45 -61l-33.5 -47h-135z" />
    <glyph glyph-name="Y" unicode="Y" horiz-adv-x="666" 
d="M268 258c-16 18.667 -33.8311 40.999 -53.498 66.999l-59.5 78.5l-56 75l-42 58.5c-12 16.667 -23.667 33.834 -35 51.501s-17 33.5 -17 47.5c0 15.333 5 27.5 15 36.5s23.333 13.5 40 13.5c13.333 0 24.166 -1.66699 32.499 -5l17.5 -7l42 -62l58.5 -83.5l63.5 -88.5
l57 -76l49.5 68.5l50 73l47 71.5l40.5 63c7.33301 11.333 16.666 21.833 27.999 31.5s27.333 14.5 48 14.5c18 0 33 -3.5 45 -10.5s19.333 -11.833 22 -14.5c-6 -12 -15 -27.833 -27 -47.5l-41.5 -65l-50.5 -75l-54.5 -78l-53.5 -74l-47 -63.5v-258h-119v258z" />
    <glyph glyph-name="Z" unicode="Z" horiz-adv-x="640" 
d="M13 111l121.5 120.501l122 124l113 118.5l95.5 103h-373c-40 0 -60 18 -60 54c0 12.667 2 24.167 6 34.5s7.33301 17.166 10 20.499h487c54 0 81 -21.667 81 -65c0 -19.333 -6.5 -38.333 -19.5 -57s-30.167 -40 -51.5 -64l-87 -94.5l-98.5 -104l-100 -102.5l-89.5 -90
h443v-109h-600v111z" />
    <glyph glyph-name="bracketleft" unicode="[" horiz-adv-x="351" 
d="M73 672c0 42.667 22.333 63.998 67 63.998h187c3.33301 -7.33301 6.16602 -16.166 8.49902 -26.499s3.5 -20.5 3.5 -30.5c0 -13.333 -3.16699 -24.666 -9.5 -33.999s-21.166 -14 -44.499 -14h-103v-655h150v-105h-259v801z" />
    <glyph glyph-name="backslash" unicode="\" horiz-adv-x="343" 
d="M0 712c3.33301 4.66699 10 10 20 16s23 9 39 9c16.667 0 29 -4.16699 37 -12.5s14.667 -19.833 20 -34.5l228 -699h-109z" />
    <glyph glyph-name="bracketright" unicode="]" horiz-adv-x="351" 
d="M18 -129v105.002h150v655h-103c-23.333 0 -38.166 4.66699 -44.499 14s-9.5 20.666 -9.5 33.999c0 10 1.16699 20.167 3.5 30.5s5.16602 19.166 8.49902 26.499h187c44.667 0 67 -21.333 67 -64v-801h-259z" />
    <glyph glyph-name="asciicircum" unicode="^" horiz-adv-x="496" 
d="M169 627c12 24 24.5 40 37.5 48s27.167 12 42.5 12s27.5 -2.5 36.5 -7.5s15.833 -9.16699 20.5 -12.5l166 -330h-111l-115 236l-117 -236h-106z" />
    <glyph glyph-name="underscore" unicode="_" horiz-adv-x="500" 
d="M0 -70h500v-59h-500v59z" />
    <glyph glyph-name="grave" unicode="`" horiz-adv-x="500" 
d="M139 659c0 2.66699 1.16992 7.33301 3.50293 14s5.66602 13.5 9.99902 20.5s10.166 13 17.499 18s16.666 7.5 27.999 7.5c15.333 0 33.333 -7.33301 54 -22l109 -79l-37 -52z" />
    <glyph glyph-name="a" unicode="a" horiz-adv-x="569" 
d="M510 2c-6.66699 -1.33301 -17.165 -2.8291 -31.498 -4.49609s-31.166 -3.33398 -50.499 -5.00098s-41 -3.16699 -65 -4.5s-49 -2 -75 -2c-52 0 -94.5 4.5 -127.5 13.5s-59 21 -78 36s-32 32.333 -39 52s-10.5 39.834 -10.5 60.501c0 27.333 4.16699 51.333 12.5 72
s22 38 41 52s43.833 24.5 74.5 31.5s68 10.5 112 10.5c25.333 0 49.333 -0.833008 72 -2.5s39.667 -3.16699 51 -4.5c0 23.333 -3.83301 42.666 -11.5 57.999s-18.167 27.333 -31.5 36s-29.333 14.667 -48 18s-39.334 5 -62.001 5c-38 0 -68.5 -4.33301 -91.5 -13
s-38.167 -16 -45.5 -22c-4 3.33301 -9.5 9.66602 -16.5 18.999s-10.5 20.666 -10.5 33.999c0 9.33301 2.5 18.5 7.5 27.5s13.833 17 26.5 24s29.667 12.5 51 16.5s48.333 6 81 6c39.333 0 75.166 -3.83301 107.499 -11.5s60.166 -19.834 83.499 -36.501
s41.5 -38.667 54.5 -66s19.5 -60.333 19.5 -99v-301zM397.002 224.004c-6.66699 1.33301 -19.166 3.33398 -37.499 6.00098s-45.833 4 -82.5 4c-45.333 0 -78.333 -6.83301 -99 -20.5s-31 -35.167 -31 -64.5c0 -12 2.16699 -23 6.5 -33s11.833 -18.5 22.5 -25.5
s25.167 -12.333 43.5 -16s41.166 -5.5 68.499 -5.5c30.667 0 55 1.16699 73 3.5s30 4.16602 36 5.49902v146z" />
    <glyph glyph-name="b" unicode="b" horiz-adv-x="625" 
d="M46 684c0 18 5.33301 31.332 16 39.999s25.667 13 45 13c12 0 23 -1.5 33 -4.5s16.667 -5.16699 20 -6.5v-287c16.667 21.333 39.667 39.5 69 54.5s63 22.5 101 22.5c36.667 0 70.5 -6.5 101.5 -19.5s58 -31.333 81 -55s41 -51.667 54 -84s19.5 -67.833 19.5 -106.5
c0 -38 -6.66699 -73.333 -20 -106s-32 -60.667 -56 -84s-52.5 -41.666 -85.5 -54.999s-69.167 -20 -108.5 -20s-75.5 6 -108.5 18s-61.5 30 -85.5 54s-42.667 54 -56 90s-20 78.333 -20 127v409zM314 88.999c22.667 0 43.499 4.16895 62.499 12.502s35.333 19.666 49 33.999
s24.167 31.333 31.5 51s11 41.167 11 64.5s-3.66699 45 -11 65s-17.833 37.167 -31.5 51.5s-30 25.666 -49 33.999s-39.833 12.5 -62.5 12.5c-23.333 0 -44.5 -4.16699 -63.5 -12.5s-35.167 -19.833 -48.5 -34.5s-23.833 -32 -31.5 -52s-11.5 -41.333 -11.5 -64
c0 -24 3.83301 -46 11.5 -66s18.334 -37 32.001 -51s30 -25 49 -33s39.833 -12 62.5 -12z" />
    <glyph glyph-name="c" unicode="c" horiz-adv-x="501" 
d="M494 36c-8 -5.33301 -17.8311 -10.834 -29.498 -16.501s-25 -11 -40 -16s-32 -9.16699 -51 -12.5s-40.5 -5 -64.5 -5c-37.333 0 -72.333 5.66699 -105 17s-61.334 28.166 -86.001 50.499s-44.167 49.833 -58.5 82.5s-21.5 70.334 -21.5 113.001s7 80.667 21 114
s33.333 61.333 58 84s53.834 39.834 87.501 51.501s69.834 17.5 108.501 17.5c32.667 0 60.5 -2.66699 83.5 -8s41.667 -12 56 -20s24.666 -17 30.999 -27s9.5 -20 9.5 -30c0 -13.333 -4.5 -25.666 -13.5 -36.999s-17.5 -20 -25.5 -26c-12 11.333 -29.333 22.166 -52 32.499
s-50.667 15.5 -84 15.5c-22.667 0 -43.834 -3.33301 -63.501 -10s-36.667 -16.834 -51 -30.501s-25.666 -30.667 -33.999 -51s-12.5 -44.5 -12.5 -72.5c0 -29.333 4.33301 -54.333 13 -75s20.667 -37.667 36 -51s33 -23.166 53 -29.499s41.667 -9.5 65 -9.5
c33.333 0 60.166 4.5 80.499 13.5s34.166 15.833 41.499 20.5z" />
    <glyph glyph-name="d" unicode="d" horiz-adv-x="625" 
d="M465 684c0 18 5.16895 31.334 15.502 40.001s25.166 13 44.499 13c12 0 23 -1.5 33 -4.5s16.667 -5.16699 20 -6.5v-451c0 -48.667 -6.83301 -91 -20.5 -127s-32.5 -66 -56.5 -90s-52.333 -42 -85 -54s-68.334 -18 -107.001 -18c-39.333 0 -75.5 6.66699 -108.5 20
s-61.5 31.666 -85.5 54.999s-42.833 51.333 -56.5 84s-20.5 68 -20.5 106c0 38.667 6.5 74.167 19.5 106.5s31 60.333 54 84s50 42 81 55s64.833 19.5 101.5 19.5c38.667 0 72.667 -7.5 102 -22.5s52.333 -33.167 69 -54.5v245zM465.002 251.001
c0 22.667 -3.83301 43.998 -11.5 63.998s-18.167 37.333 -31.5 52s-29.5 26.167 -48.5 34.5s-39.833 12.5 -62.5 12.5c-23.333 0 -44.333 -4.16699 -63 -12.5s-34.834 -19.666 -48.501 -33.999s-24.167 -31.5 -31.5 -51.5s-11 -41.667 -11 -65s3.66699 -44.833 11 -64.5
s17.833 -36.667 31.5 -51s29.834 -25.666 48.501 -33.999s39.667 -12.5 63 -12.5c22.667 0 43.5 4 62.5 12s35.167 19 48.5 33s23.833 31 31.5 51s11.5 42 11.5 66z" />
    <glyph glyph-name="e" unicode="e" horiz-adv-x="551" 
d="M505 37c-5.33301 -3.33301 -13.6709 -7.99707 -25.0039 -13.9971s-25.5 -11.667 -42.5 -17s-36.667 -10 -59 -14s-46.833 -6 -73.5 -6c-37.333 0 -72.166 5.66699 -104.499 17s-60.666 28.166 -84.999 50.499s-43.5 49.666 -57.5 81.999s-21 69.5 -21 111.5
c0 40 6.83301 76.5 20.5 109.5s32.667 61.333 57 85s53 42 86 55s69.167 19.5 108.5 19.5c34.667 0 65.334 -4.5 92.001 -13.5s49.167 -21 67.5 -36s32.166 -32.5 41.499 -52.5s14 -41.333 14 -64c0 -23.333 -4.33301 -44.5 -13 -63.5s-24 -35.333 -46 -49
s-51.667 -24.334 -89 -32.001s-84.666 -11.5 -141.999 -11.5c-13.333 0 -25.833 0.166992 -37.5 0.5s-24.167 0.833008 -37.5 1.5c5.33301 -34 21.833 -61.5 49.5 -82.5s67.167 -31.5 118.5 -31.5c17.333 0 33.333 1.33301 48 4s27.834 6 39.501 10s21.667 8 30 12l18.5 9z
M153.995 274.003c15.333 -0.666992 30 -0.999023 44 -0.999023h42c36.667 0 66.334 2.33301 89.001 7s40.334 10.667 53.001 18s21 15.666 25 24.999s6 19 6 29c0 25.333 -10.167 44.333 -30.5 57s-45.5 19 -75.5 19c-24.667 0 -46.334 -4.33301 -65.001 -13
s-34.334 -20.167 -47.001 -34.5s-22.5 -30.833 -29.5 -49.5s-10.833 -37.667 -11.5 -57z" />
    <glyph glyph-name="f" unicode="f" horiz-adv-x="375" 
d="M61 533c0 36 4.99805 67.001 14.998 93.001s24.167 47.167 42.5 63.5s40 28.333 65 36s52.5 11.5 82.5 11.5c54.667 0 93.334 -6.5 116.001 -19.5s34 -29.5 34 -49.5c0 -11.333 -3.16699 -21.333 -9.5 -30s-13.166 -15.334 -20.499 -20.001
c-10.667 8.66699 -25.167 15.667 -43.5 21s-37.833 8 -58.5 8c-39.333 0 -67.333 -10 -84 -30s-25 -48.333 -25 -85v-30h150c22 0 37.5 -4.5 46.5 -13.5s13.5 -22.167 13.5 -39.5c0 -11.333 -1.66699 -21.833 -5 -31.5s-6 -16.5 -8 -20.5h-197v-397h-114v533z" />
    <glyph glyph-name="g" unicode="g" horiz-adv-x="625" 
d="M121 -86c2.66699 -1.33301 8.49609 -3.82715 17.4961 -7.49414s20.333 -7.33398 34 -11.001s29.667 -6.83398 48 -9.50098s38.166 -4 59.499 -4c22.667 0 45 2.5 67 7.5s41.667 14 59 27s31.5 31.167 42.5 54.5s16.5 53.333 16.5 90v12c-15.333 -18 -37.5 -35 -66.5 -51
s-63.833 -24 -104.5 -24c-37.333 0 -71.666 6.16699 -102.999 18.5s-58.333 29.666 -81 51.999s-40.334 49.166 -53.001 80.499s-19 66 -19 104s6.83301 73 20.5 105s32.5 59.667 56.5 83s52.833 41.666 86.5 54.999s70.5 20 110.5 20c38 0 73.167 -5.66699 105.5 -17
s60.5 -28.666 84.5 -51.999s42.667 -53 56 -89s20 -78.333 20 -127v-144c0 -52.667 -7.16699 -97.834 -21.5 -135.501s-34.166 -68.5 -59.499 -92.5s-55.5 -41.5 -90.5 -52.5s-73.167 -16.5 -114.5 -16.5c-27.333 0 -52.166 1.5 -74.499 4.5s-42.166 6.66699 -59.499 11
s-31.666 8.66602 -42.999 12.999s-19.666 7.83301 -24.999 10.5zM310.996 94.0059c22.667 0 43.333 4 62 12s34.667 19 48 33s23.833 30.667 31.5 50s11.5 40.666 11.5 63.999c0 22.667 -3.83301 43.834 -11.5 63.501s-18.167 36.667 -31.5 51s-29.333 25.5 -48 33.5
s-39.334 12 -62.001 12c-23.333 0 -44.5 -4.16699 -63.5 -12.5s-35.167 -19.833 -48.5 -34.5s-23.666 -31.667 -30.999 -51s-11 -40 -11 -62c0 -48 14 -86.5 42 -115.5s65.333 -43.5 112 -43.5z" />
    <glyph glyph-name="h" unicode="h" horiz-adv-x="603" 
d="M58 684c0 18 5.33008 31.332 15.9971 39.999s25.667 13 45 13c12 0 23 -1.5 33 -4.5s16.667 -5.16699 20 -6.5v-275c13.333 16 33.333 31 60 45s61.334 21 104.001 21c30.667 0 58.834 -4.33301 84.501 -13s47.834 -21.5 66.501 -38.5s33 -38.167 43 -63.5s15 -55 15 -89
v-313h-114v279c0 44 -9.16699 77.333 -27.5 100s-49.833 34 -94.5 34c-45.333 0 -79.5 -13.167 -102.5 -39.5s-34.5 -61.166 -34.5 -104.499v-269h-114v684z" />
    <glyph glyph-name="i" unicode="i" horiz-adv-x="241" 
d="M63 449c0 18.667 5.33301 32.167 16 40.5s25.667 12.5 45 12.5c12 0 23 -1.5 33 -4.5s16.667 -5.16699 20 -6.5v-491h-114v449zM120 727c19.333 0 35.666 -6.66699 48.999 -20s20 -29.666 20 -48.999s-6.66699 -35.666 -20 -48.999s-29.666 -20 -48.999 -20
s-35.666 6.66699 -48.999 20s-20 29.666 -20 48.999s6.66699 35.666 20 48.999s29.666 20 48.999 20z" />
    <glyph glyph-name="j" unicode="j" horiz-adv-x="241" 
d="M-100 -103c8 -4 18.498 -7.5 31.498 -10.5s26.833 -4.5 41.5 -4.5c11.333 0 22.5 1.16699 33.5 3.5s20.667 6.83301 29 13.5s15 15.834 20 27.501s7.5 27.167 7.5 46.5v476c0 18.667 5.33301 32.167 16 40.5s25.667 12.5 45 12.5c12 0 23 -1.5 33 -4.5
s16.667 -5.16699 20 -6.5v-509c0 -37.333 -5.16699 -68.333 -15.5 -93s-24.166 -44.334 -41.499 -59.001s-37.166 -25 -59.499 -31s-45.5 -9 -69.5 -9c-13.333 0 -26.333 1 -39 3s-24.5 4.16699 -35.5 6.5s-20.5 5 -28.5 8s-14 5.5 -18 7.5zM119.998 727
c19.333 0 35.666 -6.66699 48.999 -20s20 -29.666 20 -48.999s-6.66699 -35.666 -20 -48.999s-29.666 -20 -48.999 -20s-35.666 6.66699 -48.999 20s-20 29.666 -20 48.999s6.66699 35.666 20 48.999s29.666 20 48.999 20z" />
    <glyph glyph-name="k" unicode="k" horiz-adv-x="557" 
d="M58 684c0 18 5.33203 31.334 15.999 40.001s25.667 13 45 13c12 0 23 -1.5 33 -4.5s16.667 -5.16699 20 -6.5v-409l36.5 26.5l52.5 38.5l60 44l59 43c14.667 10.667 28 18.834 40 24.501s27.667 8.5 47 8.5c18 0 33.333 -4.83301 46 -14.5s20.667 -17.834 24 -24.501
c-14 -12.667 -33.167 -28.167 -57.5 -46.5l-74.5 -55l-72 -51l-49 -34.5c56.667 -42 108.334 -87.5 155.001 -136.5s86 -95.5 118 -139.5h-142c-15.333 18.667 -32.5 38.167 -51.5 58.5s-39.333 40.333 -61 60s-43.667 38.667 -66 57s-43.833 35.166 -64.5 50.499v-226h-114
v684z" />
    <glyph glyph-name="l" unicode="l" horiz-adv-x="241" 
d="M63 684c0 18 5.33301 31.333 16 40s25.667 13 45 13c12 0 23 -1.5 33 -4.5s16.667 -5.16699 20 -6.5v-726h-114v684z" />
    <glyph glyph-name="m" unicode="m" horiz-adv-x="929" 
d="M58 323c0 32 5.66602 60 16.999 84s26.833 44 46.5 60s42.834 28.167 69.501 36.5s55.667 12.5 87 12.5c41.333 0 78.333 -7.66699 111 -23s58.667 -38 78 -68c19.333 30 45 52.667 77 68s68.333 23 109 23c30.667 0 59.334 -4 86.001 -12s49.667 -20 69 -36
s34.666 -36 45.999 -60s17 -52 17 -84v-324h-114v285c0 46 -10.333 78.833 -31 98.5s-48.667 29.5 -84 29.5c-34 0 -62.5 -11 -85.5 -33s-34.5 -57.667 -34.5 -107v-273h-114v273c0 49.333 -11.5 85 -34.5 107s-51.5 33 -85.5 33c-34.667 0 -62.667 -10 -84 -30
s-32 -53 -32 -99v-284h-114v323z" />
    <glyph glyph-name="n" unicode="n" horiz-adv-x="604" 
d="M58 303c0 33.333 6.16602 63.166 18.499 89.499s29.333 48.666 51 66.999s47.334 32.333 77.001 42s62.167 14.5 97.5 14.5s68 -4.83301 98 -14.5s55.833 -23.667 77.5 -42s38.5 -40.666 50.5 -66.999s18 -56.166 18 -89.499v-303h-114v274
c0 45.333 -11 79.833 -33 103.5s-54.333 35.5 -97 35.5c-43.333 0 -75.833 -11.833 -97.5 -35.5s-32.5 -58.167 -32.5 -103.5v-274h-114v303z" />
    <glyph glyph-name="o" unicode="o" horiz-adv-x="626" 
d="M313 516c38.667 0 74.834 -6.66699 108.501 -20s62.834 -31.833 87.501 -55.5s44 -51.667 58 -84s21 -67.5 21 -105.5c0 -37.333 -7 -72.166 -21 -104.499s-33.333 -60.333 -58 -84s-53.834 -42.334 -87.501 -56.001s-69.834 -20.5 -108.501 -20.5
s-74.834 6.83301 -108.501 20.5s-62.834 32.334 -87.501 56.001s-44 51.667 -58 84s-21 67.166 -21 104.499c0 38 7 73.167 21 105.5s33.333 60.333 58 84s53.834 42.167 87.501 55.5s69.834 20 108.501 20zM313 87c22.667 0 43.667 4.16699 63 12.5s35.833 20 49.5 35
s24.334 32.333 32.001 52s11.5 41.167 11.5 64.5s-3.83301 45.166 -11.5 65.499s-18.334 37.833 -32.001 52.5s-30.167 26.167 -49.5 34.5s-40.333 12.5 -63 12.5c-23.333 0 -44.5 -4.16699 -63.5 -12.5s-35.333 -19.833 -49 -34.5s-24.334 -32.167 -32.001 -52.5
s-11.5 -42.166 -11.5 -65.499s3.83301 -44.833 11.5 -64.5s18.334 -37 32.001 -52s30 -26.667 49 -35s40.167 -12.5 63.5 -12.5z" />
    <glyph glyph-name="p" unicode="p" horiz-adv-x="625" 
d="M46 228c0 46.667 6.66699 87.8311 20 123.498s32 65.667 56 90s53 42.833 87 55.5s71.667 19 113 19c38 0 73 -6.66699 105 -20s59.833 -31.666 83.5 -54.999s42.167 -51.333 55.5 -84s20 -68 20 -106c0 -38.667 -6.5 -74.167 -19.5 -106.5s-31 -60.166 -54 -83.499
s-50 -41.5 -81 -54.5s-64.833 -19.5 -101.5 -19.5c-38 0 -71.667 7.33301 -101 22s-52.333 32.667 -69 54v-263h-114v428zM314 87.9971c22.667 0 43.501 4.16699 62.501 12.5s35.333 19.833 49 34.5s24.167 32 31.5 52s11 41.667 11 65c0 22.667 -3.66699 43.834 -11 63.501
s-17.833 36.667 -31.5 51s-30 25.666 -49 33.999s-39.833 12.5 -62.5 12.5s-43.5 -4 -62.5 -12s-35.333 -19 -49 -33s-24.334 -30.833 -32.001 -50.5s-11.5 -41.5 -11.5 -65.5c0 -23.333 3.83301 -45 11.5 -65s18.167 -37.333 31.5 -52s29.5 -26.167 48.5 -34.5
s40.167 -12.5 63.5 -12.5z" />
    <glyph glyph-name="q" unicode="q" horiz-adv-x="625" 
d="M465 63c-16.667 -21.333 -39.666 -39.3301 -68.999 -53.9971s-63.333 -22 -102 -22c-36.667 0 -70.5 6.5 -101.5 19.5s-58 31.167 -81 54.5s-41 51.166 -54 83.499s-19.5 67.833 -19.5 106.5c0 38 6.83301 73.333 20.5 106s32.5 60.667 56.5 84s52.5 41.666 85.5 54.999
s69.167 20 108.5 20c40.667 0 77.667 -5.83301 111 -17.5s61.666 -29.334 84.999 -53.001s41.333 -53.667 54 -90s19 -78.833 19 -127.5v-428h-113v263zM465.001 252.003c0 24 -3.83301 45.833 -11.5 65.5s-18.167 36.5 -31.5 50.5s-29.5 25 -48.5 33s-39.833 12 -62.5 12
c-23.333 0 -44.333 -4.16699 -63 -12.5s-34.834 -19.666 -48.501 -33.999s-24.167 -31.333 -31.5 -51s-11 -40.834 -11 -63.501c0 -23.333 3.66699 -45 11 -65s17.833 -37.333 31.5 -52s29.834 -26.167 48.501 -34.5s39.667 -12.5 63 -12.5c22.667 0 43.5 4.16699 62.5 12.5
s35.167 19.833 48.5 34.5s23.833 32 31.5 52s11.5 41.667 11.5 65z" />
    <glyph glyph-name="r" unicode="r" horiz-adv-x="416" 
d="M58 323c0 61.333 18.832 108.834 56.499 142.501s89.834 50.5 156.501 50.5c42 0 76.167 -5.83301 102.5 -17.5s39.5 -29.5 39.5 -53.5c0 -11.333 -3.16699 -22.333 -9.5 -33s-11.5 -17.334 -15.5 -20.001c-11.333 5.33301 -25.333 10.333 -42 15s-35.667 7 -57 7
c-78 0 -117 -41.333 -117 -124v-290h-114v323z" />
    <glyph glyph-name="s" unicode="s" horiz-adv-x="549" 
d="M71 125c4.66699 -3.33301 12.999 -7.6709 24.999 -13.0039s26.833 -10.833 44.5 -16.5s37.834 -10.5 60.501 -14.5s47.334 -6 74.001 -6c34.667 0 63 4.5 85 13.5s33 24.5 33 46.5c0 18.667 -7 32.834 -21 42.501s-39 16.5 -75 20.5l-78 9
c-26.667 2.66699 -51.167 7.5 -73.5 14.5s-41.5 16.5 -57.5 28.5s-28.5 26.833 -37.5 44.5s-13.5 38.834 -13.5 63.501c0 21.333 4.16699 41.5 12.5 60.5s21.5 35.833 39.5 50.5s41.5 26.167 70.5 34.5s64.167 12.5 105.5 12.5c69.333 0 123.166 -7.66699 161.499 -23
s57.5 -35.333 57.5 -60c0 -8 -1.5 -15 -4.5 -21s-6.33301 -11.333 -10 -16s-7.5 -8.5 -11.5 -11.5s-7 -4.83301 -9 -5.5c-2.66699 2.66699 -8.5 6.83398 -17.5 12.501s-21.167 11.334 -36.5 17.001s-33.666 10.667 -54.999 15s-46 6.5 -74 6.5
c-77.333 0 -116 -20.333 -116 -61c0 -17.333 7.33301 -30.5 22 -39.5s35.667 -15.167 63 -18.5l102 -13c55.333 -7.33301 98.333 -22.5 129 -45.5s46 -56.833 46 -101.5c0 -50 -19.833 -90 -59.5 -120s-96.834 -45 -171.501 -45c-36 0 -68.667 2.66699 -98 8
s-54.833 11.5 -76.5 18.5s-39.167 13.833 -52.5 20.5s-22 11.667 -26 15z" />
    <glyph glyph-name="t" unicode="t" horiz-adv-x="402" 
d="M61 591c0 18.667 5.33301 32.1689 16 40.502s25.334 12.5 44.001 12.5c12 0 23.167 -1.5 33.5 -4.5s17.166 -5.16699 20.499 -6.5v-131h145c22 0 37.5 -4.5 46.5 -13.5s13.5 -22.167 13.5 -39.5c0 -11.333 -1.66699 -21.833 -5 -31.5s-6 -16.5 -8 -20.5h-192v-223
c0 -17.333 2.33301 -31.5 7 -42.5s11.167 -19.833 19.5 -26.5s18 -11.334 29 -14.001s22.5 -4 34.5 -4c19.333 0 37.333 3 54 9s28.667 11.667 36 17l46 -76c-5.33301 -4 -12.833 -9 -22.5 -15s-21.5 -11.667 -35.5 -17s-29.667 -9.83301 -47 -13.5s-36.333 -5.5 -57 -5.5
c-58.667 0 -103 15.167 -133 45.5s-45 70.166 -45 119.499v440z" />
    <glyph glyph-name="u" unicode="u" horiz-adv-x="605" 
d="M58 449c0 18.667 5.33301 32.167 16 40.5s25.667 12.5 45 12.5c12 0 23 -1.5 33 -4.5s16.667 -5.16699 20 -6.5v-263c0 -45.333 10.667 -79.833 32 -103.5s54 -35.5 98 -35.5s76.667 11.833 98 35.5s32 58.167 32 103.5v221c0 18.667 5.33301 32.167 16 40.5
s25.334 12.5 44.001 12.5c12.667 0 24 -1.5 34 -4.5s16.667 -5.16699 20 -6.5v-288c0 -34 -5.83301 -64.5 -17.5 -91.5s-28.334 -49.833 -50.001 -68.5s-47.5 -32.834 -77.5 -42.501s-63 -14.5 -99 -14.5s-69 4.83301 -99 14.5s-55.667 23.834 -77 42.501s-38 41.5 -50 68.5
s-18 57.5 -18 91.5v246z" />
    <glyph glyph-name="v" unicode="v" horiz-adv-x="563" 
d="M219 0l-85.999 163.498c-26 51 -48.333 96.5 -67 136.5s-33 73.333 -43 100s-15 44 -15 52c0 14 4.66699 25.833 14 35.5s23.666 14.5 42.999 14.5c14 0 25.5 -1.33301 34.5 -4s14.167 -4.66699 15.5 -6c13.333 -36 27.666 -72.5 42.999 -109.5l45.5 -105l42 -90
l32.5 -66.5c12.667 24 26.334 52.333 41.001 85l42.5 97l37 87.5c11 26.333 18.833 45.5 23.5 57.5c6.66699 16.667 14.667 29.834 24 39.501s24 14.5 44 14.5c18.667 0 33.834 -3.16699 45.501 -9.5s18.167 -10.166 19.5 -11.499c-4 -14 -10.833 -33.167 -20.5 -57.5
s-21.334 -51.5 -35.001 -81.5l-44 -94l-46.5 -95.5l-43.5 -86.5l-34.5 -66h-112z" />
    <glyph glyph-name="w" unicode="w" horiz-adv-x="816" 
d="M173 0l-80.4961 194.997c-21 53.333 -37.667 97.5 -50 132.5s-21 62 -26 81s-7.5 32.5 -7.5 40.5c0 14 4.66699 26.333 14 37s23.666 16 42.999 16c14.667 0 26.167 -1.33301 34.5 -4s13.833 -4.66699 16.5 -6c8 -29.333 17 -60.5 27 -93.5l31 -98.5l31.5 -93.5
l27.5 -79.5c7.33301 20.667 15.166 44.334 23.499 71.001l26 82.5l26.5 86l24 82.5c5.33301 17.333 12.833 30.5 22.5 39.5s25.167 13.5 46.5 13.5c13.333 0 25.333 -1.83301 36 -5.5s17.334 -6.16699 20.001 -7.5l28 -94.5l30 -97.5l29.5 -92l26.5 -78
c17.333 46 35.166 96.333 53.499 151s35.166 109.334 50.499 164.001c6 20.667 13.833 35.834 23.5 45.501s24.5 14.5 44.5 14.5c18 0 32.667 -3 44 -9s17.666 -9.66699 18.999 -11c-5.33301 -22 -14.666 -52.333 -27.999 -91l-45 -125.5l-53 -138
c-18.667 -47 -36.334 -89.5 -53.001 -127.5h-118c-5.33301 14 -12.5 34.5 -21.5 61.5l-29.5 88.5l-31.5 98.5l-28.5 92.5l-28.5 -92.5l-31 -98.5l-28.5 -88.5c-8.66699 -27 -15.667 -47.5 -21 -61.5h-118z" />
    <glyph glyph-name="x" unicode="x" horiz-adv-x="572" 
d="M5 0c3.33301 4.66699 11.332 14.8369 23.999 30.5039l46.5 57l61 74l68.5 81.5l-80.5 84.5c-22.333 22.333 -40.5 41.166 -54.5 56.499s-24.333 28.666 -31 39.999s-10 22.666 -10 33.999s4.33301 21.5 13 30.5s23 13.5 43 13.5c12 0 22.667 -1.5 32 -4.5
s15.333 -5.16699 18 -6.5c2.66699 -3.33301 8.83398 -10.5 18.501 -21.5l35 -39.5l43.5 -50l46 -52l38.5 47l35.5 42.5l27.5 33c7.66699 9 12.5 14.833 14.5 17.5c10.667 11.333 21.334 19.833 32.001 25.5s23.334 8.5 38.001 8.5c18.667 0 34.667 -3.83301 48 -11.5
s21.666 -13.834 24.999 -18.501l-26.5 -30.5l-43.5 -51l-55.5 -65.5l-62.5 -74l71 -82l64.5 -74l51 -59c14.333 -16.667 24.166 -28.667 29.499 -36h-141l-59.5 69.5l-87.5 99.5l-82.5 -99.5c-25 -30.333 -43.5 -53.5 -55.5 -69.5h-134z" />
    <glyph glyph-name="y" unicode="y" horiz-adv-x="605" 
d="M58 449c0 18 5.33203 31.332 15.999 39.999s25.334 13 44.001 13c12 0 23.167 -1.5 33.5 -4.5s17.166 -5.16699 20.499 -6.5v-267c0 -39.333 10.5 -70.666 31.5 -93.999s53.5 -35 97.5 -35c40.667 0 72.667 11.833 96 35.5s35 58.5 35 104.5v214
c0 18 5.33301 31.333 16 40s25.334 13 44.001 13c12 0 23.167 -1.5 33.5 -4.5s17.166 -5.16699 20.499 -6.5v-438c0 -47.333 -6.33301 -87.5 -19 -120.5s-30.667 -60.167 -54 -81.5s-51.333 -36.833 -84 -46.5s-69 -14.5 -109 -14.5c-27.333 0 -52.333 1.5 -75 4.5
s-42.834 6.5 -60.501 10.5s-32.167 7.83301 -43.5 11.5s-19.333 6.5 -24 8.5c5.33301 14 10.333 28.167 15 42.5l14 42.5c4.66699 -2 12 -4.66699 22 -8s22 -6.5 36 -9.5s29.833 -5.5 47.5 -7.5s36.5 -3 56.5 -3c26 0 49.333 2.83301 70 8.5s38.167 15.5 52.5 29.5
s25.333 32.5 33 55.5s11.5 51.833 11.5 86.5c-13.333 -19.333 -34.166 -34.833 -62.499 -46.5s-59.5 -17.5 -93.5 -17.5c-32 0 -61.667 4.5 -89 13.5s-50.666 22 -69.999 39s-34.5 38.167 -45.5 63.5s-16.5 54.333 -16.5 87v248z" />
    <glyph glyph-name="z" unicode="z" horiz-adv-x="542" 
d="M25 99l77.501 68.499l90.5 82.5l88 81.5l69 66.5h-265c-22 0 -37.5 4.33301 -46.5 13s-13.5 21.334 -13.5 38.001c0 11.333 1.66699 22 5 32s6 17 8 21h407c19.333 0 34.666 -4.5 45.999 -13.5s17 -22.833 17 -41.5c0 -12.667 -3 -24.5 -9 -35.5
s-17.333 -24.833 -34 -41.5l-39.5 -38.5l-50.5 -47.5l-56 -51.5l-56 -51l-51 -45.5l-41 -36h338v-100h-484v99z" />
    <glyph glyph-name="braceleft" unicode="{" horiz-adv-x="363" 
d="M127 152c0 36 -8.33594 61.1689 -25.0029 75.502s-39.667 21.5 -69 21.5h-15v108h15c29.333 0 52.333 7.16699 69 21.5s25 39.5 25 75.5v108c0 27.333 2.5 51.666 7.5 72.999s13 39.5 24 54.5s25.5 26.5 43.5 34.5s40.333 12 67 12h70
c3.33301 -7.33301 6.16602 -16.166 8.49902 -26.499s3.5 -20.5 3.5 -30.5c0 -13.333 -2.83301 -24.666 -8.5 -33.999s-18.5 -14 -38.5 -14h-7c-22.667 0 -38 -5.66699 -46 -17s-12 -27 -12 -47v-126c0 -21.333 -1.83301 -39.333 -5.5 -54s-8.66699 -27.334 -15 -38.001
s-14.166 -19.5 -23.499 -26.5s-19.666 -13.167 -30.999 -18.5c12.667 -6.66699 23.834 -13.834 33.501 -21.501s17.5 -17.334 23.5 -29.001s10.5 -26 13.5 -43s4.5 -38.167 4.5 -63.5v-107c0 -18.667 3.83301 -34 11.5 -46s24.834 -18 51.501 -18h42v-105h-75
c-53.333 0 -90.333 14.667 -111 44s-31 72.333 -31 129v108z" />
    <glyph glyph-name="bar" unicode="|" horiz-adv-x="252" 
d="M73 689c0 16 5 28 15 36s23.667 12 41 12c12 0 22.333 -1.33301 31 -4s14.667 -4.66699 18 -6v-859h-105v821z" />
    <glyph glyph-name="braceright" unicode="}" horiz-adv-x="363" 
d="M18 -129v105h42c26.667 0 43.834 6 51.501 18s11.5 27.333 11.5 46v107c0 25.333 1.5 46.5 4.5 63.5s7.5 31.333 13.5 43s13.667 21.334 23 29.001s20.666 14.834 33.999 21.501c-11.333 5.33301 -21.666 11.5 -30.999 18.5s-17.333 15.833 -24 26.5
s-11.667 23.334 -15 38.001s-5 32.667 -5 54v126c0 20 -4 35.667 -12 47s-23.333 17 -46 17h-7c-20 0 -32.833 4.66699 -38.5 14s-8.5 20.666 -8.5 33.999c0 10 1.16699 20.167 3.5 30.5s5.16602 19.166 8.49902 26.499h70c52.667 0 89.5 -15.333 110.5 -46
s31.5 -73.334 31.5 -128.001v-108c0 -36 8.33301 -61.167 25 -75.5s39.667 -21.5 69 -21.5h15v-108h-15c-29.333 0 -52.333 -7.16699 -69 -21.5s-25 -39.5 -25 -75.5v-108c0 -56.667 -10.5 -99.667 -31.5 -129s-57.833 -44 -110.5 -44h-75z" />
    <glyph glyph-name="asciitilde" unicode="~" horiz-adv-x="627" 
d="M36 258c0.666992 28 4.99902 52.333 12.999 73s18.5 38 31.5 52s28.167 24.333 45.5 31s36 10 56 10c19.333 0 36.5 -1.5 51.5 -4.5s29.167 -6.83301 42.5 -11.5l75 -26c17.333 -6 31.833 -10.5 43.5 -13.5s24.167 -4.5 37.5 -4.5c18.667 0 32.5 5.5 41.5 16.5
s15.167 26.5 18.5 46.5h90c-1.33301 -24 -5 -46.333 -11 -67s-14.5 -38.5 -25.5 -53.5s-24.667 -26.667 -41 -35s-35.166 -12.5 -56.499 -12.5c-10.667 0 -22.5 0.833008 -35.5 2.5s-24.167 4.16699 -33.5 7.5l-107 34c-16.667 5.33301 -32 9.66602 -46 12.999
s-27.333 5 -40 5c-17.333 0 -31 -5.66699 -41 -17s-16 -26.666 -18 -45.999h-91z" />
    <glyph glyph-name="uni00A0" unicode="&#xa0;" horiz-adv-x="251" 
 />
    <glyph glyph-name="exclamdown" unicode="&#xa1;" horiz-adv-x="239" 
d="M63 458l114 0.000976562v-413c0 -18 -5.33301 -31.333 -16 -40s-25.334 -13 -44.001 -13c-12 0 -23.167 1.66699 -33.5 5s-17.166 5.66602 -20.499 6.99902v454zM119 696.001c21.333 0 39.5 -7.33301 54.5 -22s22.5 -32.334 22.5 -53.001c0 -20 -7.5 -37.5 -22.5 -52.5
s-33.167 -22.5 -54.5 -22.5c-20.667 0 -38.5 7.5 -53.5 22.5s-22.5 32.5 -22.5 52.5c0 20.667 7.5 38.334 22.5 53.001s32.833 22 53.5 22z" />
    <glyph glyph-name="cent" unicode="&#xa2;" horiz-adv-x="515" 
d="M272 80c-32 4 -61.8291 12.499 -89.4961 25.499s-51.834 30.5 -72.501 52.5s-36.834 48.333 -48.501 79s-17.5 65.334 -17.5 104.001c0 38 5.66699 72.333 17 103s27.166 57.167 47.499 79.5s44.333 40.333 72 54s58.167 22.5 91.5 26.5v95c0 10 3.16699 17.667 9.5 23
s15.166 8 26.499 8c8.66699 0 16.167 -0.833008 22.5 -2.5s10.166 -3.16699 11.499 -4.5v-116c30.667 -2 56.167 -5.83301 76.5 -11.5s36.333 -12.5 48 -20.5s19.834 -16.667 24.501 -26s7 -18 7 -26c0 -13.333 -4.5 -25.666 -13.5 -36.999s-17.5 -20 -25.5 -26
c-10 9.33301 -24.5 19 -43.5 29s-43.5 16 -73.5 18v-328c22 1.33301 42.333 5.5 61 12.5s34.667 14.167 48 21.5l48 -86c-13.333 -10 -33.333 -19.833 -60 -29.5s-59 -15.834 -97 -18.501v-115h-70v116zM272.004 500.999c-32.667 -8.66699 -59.167 -25.834 -79.5 -51.501
s-30.5 -61.167 -30.5 -106.5s10.333 -80.666 31 -105.999s47 -42.333 79 -51v315z" />
    <glyph glyph-name="sterling" unicode="&#xa3;" horiz-adv-x="622" 
d="M90 446c0 40.667 6.33594 76.998 19.0029 108.998s30.667 59 54 81s51.666 38.833 84.999 50.5s71 17.5 113 17.5c46.667 0 84.167 -4 112.5 -12s50.166 -17.333 65.499 -28s25.5 -21.667 30.5 -33s7.5 -20 7.5 -26c0 -16 -5.5 -29.833 -16.5 -41.5
s-20.833 -20.167 -29.5 -25.5c-14.667 14 -35.334 28 -62.001 42s-60.667 21 -102 21c-28 0 -52.167 -4.16699 -72.5 -12.5s-37 -19.666 -50 -33.999s-22.667 -31.5 -29 -51.5s-9.5 -41.667 -9.5 -65v-39h239c21.333 0 36.5 -4.5 45.5 -13.5s13.5 -22.167 13.5 -39.5
c0 -11.333 -1.83301 -22.166 -5.5 -32.499s-6.5 -17.5 -8.5 -21.5h-284v-186h377v-106h-493v446z" />
    <glyph glyph-name="currency" unicode="&#xa4;" horiz-adv-x="617" 
d="M51 150l64 65.001c-12.667 18.667 -22.5 38.667 -29.5 60s-10.5 44 -10.5 68s3.5 46.667 10.5 68s16.833 41.333 29.5 60l-64 65l70 72l66 -67c18 10.667 37.167 19 57.5 25s41.833 9 64.5 9c22 0 43.167 -3.16699 63.5 -9.5s39.5 -14.833 57.5 -25.5l66 68l70 -72
l-64 -65c12.667 -18.667 22.5 -38.667 29.5 -60s10.5 -44 10.5 -68c0 -23.333 -3.5 -45.833 -10.5 -67.5s-16.833 -41.834 -29.5 -60.501l64 -65l-70 -72l-65 68c-18 -11.333 -37 -20 -57 -26s-41.667 -9 -65 -9c-22.667 0 -44.167 3 -64.5 9s-39.5 14.667 -57.5 26l-66 -68
zM309 199.001c19.333 0 37.5 3.66699 54.5 11s31.667 17.5 44 30.5s22.166 28.333 29.499 46s11 36.5 11 56.5s-3.66699 38.667 -11 56s-17.166 32.5 -29.499 45.5s-27 23.333 -44 31s-35.167 11.5 -54.5 11.5s-37.5 -3.83301 -54.5 -11.5s-31.833 -18 -44.5 -31
s-22.667 -28.167 -30 -45.5s-11 -36 -11 -56s3.66699 -38.833 11 -56.5s17.333 -33 30 -46s27.5 -23.167 44.5 -30.5s35.167 -11 54.5 -11z" />
    <glyph glyph-name="yen" unicode="&#xa5;" horiz-adv-x="659" 
d="M264 152l-148.004 -0.00195312c-19.333 0 -32.333 3.66699 -39 11s-10 16.666 -10 27.999c0 10 1.66699 22.333 5 37h192v32l-31 46h-117c-19.333 0 -32.333 3.66699 -39 11s-10 16.666 -10 27.999c0 10 1.66699 22.333 5 37h115l-61 76.5
c-20 25.667 -37.667 49.834 -53 72.501s-27.833 43.167 -37.5 61.5s-14.5 32.5 -14.5 42.5c0 15.333 4.33301 27.5 13 36.5s22.334 13.5 41.001 13.5c12.667 0 23 -1.16699 31 -3.5s13.333 -4.16602 16 -5.49902l44 -67.5l50.5 -77l54 -79.5
c18.333 -26.667 36.5 -51.667 54.5 -75l37.5 55l41 63.5l40.5 64.5l37 59c10.667 17.333 23.334 32.5 38.001 45.5s33.667 19.5 57 19.5c16.667 0 30.334 -3.16699 41.001 -9.5s17.334 -10.833 20.001 -13.5c-10 -17.333 -21.833 -36.833 -35.5 -58.5l-44.5 -69l-50.5 -75
l-53.5 -76.5h80c19.333 0 32.333 -3.66699 39 -11s10 -16.666 10 -27.999c0 -10 -1.66699 -22.333 -5 -37h-163l-31 -46v-32h150c19.333 0 32.333 -3.66699 39 -11s10 -16.666 10 -27.999c0 -10 -1.66699 -22.333 -5 -37h-194v-152h-119v152z" />
    <glyph glyph-name="brokenbar" unicode="&#xa6;" horiz-adv-x="252" 
d="M73 157h105v-289h-105v289zM73 689c0 16 5 28 15 36s23.667 12 41 12c12 0 22.333 -1.33301 31 -4s14.667 -4.66699 18 -6v-281h-105v243z" />
    <glyph glyph-name="section" unicode="&#xa7;" horiz-adv-x="628" 
d="M165 275c0 -29.333 14.5 -53.665 43.5 -72.998s78.167 -29 147.5 -29c14.667 0 28.667 2.33301 42 7s25 11.167 35 19.5s18 18.5 24 30.5s9 25 9 39s-3 27.167 -9 39.5s-16.5 23.166 -31.5 32.499s-35 16.666 -60 21.999s-56.167 8 -93.5 8
c-30.667 0 -56.167 -9 -76.5 -27s-30.5 -41 -30.5 -69zM244 87.001c-58.667 8 -105.841 26.8379 -141.508 56.5049s-53.5 68.5 -53.5 116.5c0 32 7.83301 60.333 23.5 85s37.834 44 66.501 58c-30 14 -52.5 34.667 -67.5 62s-22.5 55.666 -22.5 84.999
c0 23.333 4.33301 46.166 13 68.499s22.834 42.333 42.501 60s45.667 31.834 78 42.501s72.5 16 120.5 16c79.333 0 139.5 -9.33301 180.5 -28s61.5 -40.667 61.5 -66c0 -8.66699 -1.5 -16.334 -4.5 -23.001s-6.66699 -12.5 -11 -17.5s-8.66602 -9 -12.999 -12
s-7.5 -4.83301 -9.5 -5.5c-2.66699 2.66699 -9 7.16699 -19 13.5s-23.5 12.666 -40.5 18.999s-37.167 12 -60.5 17s-49.666 7.5 -78.999 7.5c-43.333 0 -77 -7.5 -101 -22.5s-36 -36.833 -36 -65.5c0 -45.333 32 -72 96 -80l117 -16
c36.667 -5.33301 67.5 -12.833 92.5 -22.5s45.333 -21.667 61 -36s26.834 -30.666 33.501 -48.999s10 -38.166 10 -59.499c0 -20 -3.16699 -38.333 -9.5 -55s-14.166 -31.334 -23.499 -44.001s-19.5 -23.5 -30.5 -32.5s-21.5 -15.5 -31.5 -19.5
c28 -13.333 50.833 -31.833 68.5 -55.5s26.5 -53.5 26.5 -89.5c0 -28 -5.33301 -53.833 -16 -77.5s-26.834 -44.334 -48.501 -62.001s-48.667 -31.334 -81 -41.001s-70.166 -14.5 -113.499 -14.5c-42 0 -79.667 3.33301 -113 10s-61.833 14 -85.5 22
s-42.167 15.667 -55.5 23s-20.666 11.666 -21.999 12.999l24 43.5c8 14.333 15.667 28.833 23 43.5c2 -1.33301 8.66699 -5.16602 20 -11.499s26.833 -13 46.5 -20s42.834 -13.167 69.501 -18.5s56.667 -8 90 -8c40 0 73.5 7 100.5 21s40.5 36.333 40.5 67
c0 22.667 -8.16699 41.667 -24.5 57s-45.5 25.666 -87.5 30.999z" />
    <glyph glyph-name="dieresis" unicode="&#xa8;" horiz-adv-x="500" 
d="M89 634c0 8 1.66699 15.667 5 23s8 13.833 14 19.5s12.833 10.167 20.5 13.5s15.834 5 24.501 5c17.333 0 32.166 -6.33301 44.499 -19s18.5 -26.667 18.5 -42s-6.16699 -29.333 -18.5 -42s-27.166 -19 -44.499 -19c-8.66699 0 -16.834 1.66699 -24.501 5
s-14.5 7.83301 -20.5 13.5s-10.667 12.167 -14 19.5s-5 15 -5 23zM348 695c17.333 0 32 -6.33301 44 -19s18 -26.667 18 -42s-6 -29.333 -18 -42s-26.667 -19 -44 -19s-32.333 6.33301 -45 19s-19 26.667 -19 42s6.33301 29.333 19 42s27.667 19 45 19z" />
    <glyph glyph-name="copyright" unicode="&#xa9;" horiz-adv-x="809" 
d="M404 711c50.667 0 98.334 -9.66699 143.001 -29s83.667 -45.666 117 -78.999s59.666 -72.333 78.999 -117s29 -92.334 29 -143.001s-9.66699 -98.334 -29 -143.001s-45.666 -83.667 -78.999 -117s-72.333 -59.666 -117 -78.999s-92.334 -29 -143.001 -29
s-98.334 9.66699 -143.001 29s-83.667 45.666 -117 78.999s-59.666 72.333 -78.999 117s-29 92.334 -29 143.001s9.66699 98.334 29 143.001s45.666 83.667 78.999 117s72.333 59.666 117 78.999s92.334 29 143.001 29zM683 343c0 40 -7.33301 77.5 -22 112.5
s-34.5 65.5 -59.5 91.5s-54.5 46.5 -88.5 61.5s-70.333 22.5 -109 22.5s-74.834 -7.5 -108.501 -22.5s-63 -35.5 -88 -61.5s-44.833 -56.5 -59.5 -91.5s-22 -72.5 -22 -112.5s7.33301 -77.5 22 -112.5s34.5 -65.5 59.5 -91.5s54.333 -46.5 88 -61.5
s69.834 -22.5 108.501 -22.5s75 7.5 109 22.5s63.5 35.5 88.5 61.5s44.833 56.5 59.5 91.5s22 72.5 22 112.5zM562 176c-4.66699 -3.33301 -11 -7.33398 -19 -12.001s-18 -9.16699 -30 -13.5s-25.833 -8 -41.5 -11s-33.5 -4.5 -53.5 -4.5
c-28.667 0 -55.834 4.5 -81.501 13.5s-48.167 22.167 -67.5 39.5s-34.666 38.833 -45.999 64.5s-17 55.167 -17 88.5s5.66699 63 17 89s26.5 47.833 45.5 65.5s41.333 31.167 67 40.5s53.167 14 82.5 14c42 0 75.667 -7 101 -21s38 -29.333 38 -46c0 -12 -4 -23 -12 -33
s-15 -16.667 -21 -20c-8 8.66699 -21.667 17.5 -41 26.5s-40.666 13.5 -63.999 13.5c-34 0 -62.167 -11.167 -84.5 -33.5s-33.5 -54.166 -33.5 -95.499c0 -20.667 3.16699 -38.834 9.5 -54.501s15.166 -28.667 26.499 -39s24.666 -18.166 39.999 -23.499s32 -8 50 -8
c22.667 0 42.334 3.16699 59.001 9.5s29.667 12.5 39 18.5z" />
    <glyph glyph-name="ordfeminine" unicode="&#xaa;" horiz-adv-x="420" 
d="M373 330c-16 -2.66699 -38.834 -5.50391 -68.501 -8.50391s-60.834 -4.5 -93.501 -4.5c-40 0 -72.5 3.66699 -97.5 11s-44.167 16.833 -57.5 28.5s-22.333 24.834 -27 39.501s-7 29.334 -7 44.001c0 18 2.83301 34.5 8.5 49.5s15.5 27.667 29.5 38s32.5 18.333 55.5 24
s51.5 8.5 85.5 8.5c14.667 0 30 -0.666992 46 -2s29.333 -2.66602 40 -3.99902c0 15.333 -2.83301 28.166 -8.5 38.499s-13.167 18.5 -22.5 24.5s-20.5 10.333 -33.5 13s-26.5 4 -40.5 4c-28 0 -50.667 -3.66699 -68 -11s-28 -12.666 -32 -15.999
c-3.33301 2 -8.33301 7 -15 15s-10 16 -10 24c0 6 1.33301 12.333 4 19s8.33398 12.834 17.001 18.501s21.334 10.5 38.001 14.5s38.667 6 66 6c60.667 0 107.667 -12.5 141 -37.5s50 -64.5 50 -118.5v-218zM286.999 491.996c-5.33301 1.33301 -15.332 2.66699 -29.999 4
s-33.334 2 -56.001 2c-28.667 0 -51.167 -4.16699 -67.5 -12.5s-24.5 -23.5 -24.5 -45.5c0 -18.667 8 -32.5 24 -41.5s43 -13.5 81 -13.5c20 0 35.833 0.5 47.5 1.5s20.167 2.16699 25.5 3.5v102z" />
    <glyph glyph-name="guillemotleft" unicode="&#xab;" horiz-adv-x="572" 
d="M55 202c-6 6 -11.333 13.168 -16 21.501s-7 16.833 -7 25.5c0 8 1.66699 15.167 5 21.5s7.33301 12.166 12 17.499l170 186l67 -60l-139 -164l139 -160l-67 -60zM307 202.001c-5.33301 6 -10.167 13 -14.5 21s-6.5 16.333 -6.5 25c0 8 1.5 15.5 4.5 22.5
s6.5 12.833 10.5 17.5l170 186l68 -60l-140 -164l140 -160l-68 -60z" />
    <glyph glyph-name="logicalnot" unicode="&#xac;" horiz-adv-x="633" 
d="M519 475c19.333 0 33 -4.83105 41 -14.498s12 -23.167 12 -40.5v-239h-112v188h-358c-19.333 0 -33 5 -41 15s-12 23.667 -12 41c0 11.333 1.5 21.666 4.5 30.999s5.16699 15.666 6.5 18.999h459z" />
    <glyph glyph-name="uni00AD" unicode="&#xad;" horiz-adv-x="329" 
d="M244 328c19.333 0 33 -5.49707 41 -16.4971s12 -24.833 12 -41.5c0 -10.667 -1.33301 -20.834 -4 -30.501s-5 -16.834 -7 -21.501h-201c-19.333 0 -32.833 5.33301 -40.5 16s-11.5 24.667 -11.5 42c0 11.333 1.33301 21.666 4 30.999s5 16.333 7 21h200z" />
    <glyph glyph-name="registered" unicode="&#xae;" horiz-adv-x="809" 
d="M243 505c0 10 1.66602 18.167 4.99902 24.5s9.66602 11.333 18.999 15s22.666 6 39.999 7s40 1.5 68 1.5c63.333 0 110.5 -11.333 141.5 -34s46.5 -54.667 46.5 -96c0 -27.333 -6.33301 -49.833 -19 -67.5s-29.667 -31.5 -51 -41.5
c8 -11.333 15.833 -23.666 23.5 -36.999l23 -42c7.66699 -14.667 14.834 -29.167 21.501 -43.5l19 -40.5h-95l-13 28c-6 12.667 -12.667 26 -20 40l-22 41c-7.33301 13.333 -13.666 24 -18.999 32c-3.33301 -0.666992 -9 -1.16699 -17 -1.5s-15.667 -0.5 -23 -0.5
c-6.66699 0 -14.667 0.166992 -24 0.5s-16.666 1.16602 -21.999 2.49902v-142h-82v354zM324.999 364c4.66699 -0.666992 11 -1.16699 19 -1.5s20.667 -0.5 38 -0.5c32.667 0 56.167 5.33301 70.5 16s21.5 25.334 21.5 44.001c0 16.667 -7 31 -21 43s-39.667 18 -77 18
c-15.333 0 -26.833 -0.333008 -34.5 -1s-13.167 -1.33398 -16.5 -2.00098v-116zM403.999 711c50.667 0 98.334 -9.66699 143.001 -29s83.667 -45.666 117 -78.999s59.666 -72.333 78.999 -117s29 -92.334 29 -143.001s-9.66699 -98.334 -29 -143.001
s-45.666 -83.667 -78.999 -117s-72.333 -59.666 -117 -78.999s-92.334 -29 -143.001 -29s-98.334 9.66699 -143.001 29s-83.667 45.666 -117 78.999s-59.666 72.333 -78.999 117s-29 92.334 -29 143.001s9.66699 98.334 29 143.001s45.666 83.667 78.999 117
s72.333 59.666 117 78.999s92.334 29 143.001 29zM682.999 343c0 40 -7.33301 77.5 -22 112.5s-34.5 65.5 -59.5 91.5s-54.5 46.5 -88.5 61.5s-70.333 22.5 -109 22.5s-74.834 -7.5 -108.501 -22.5s-63 -35.5 -88 -61.5s-44.833 -56.5 -59.5 -91.5s-22 -72.5 -22 -112.5
s7.33301 -77.5 22 -112.5s34.5 -65.5 59.5 -91.5s54.333 -46.5 88 -61.5s69.834 -22.5 108.501 -22.5s75 7.5 109 22.5s63.5 35.5 88.5 61.5s44.833 56.5 59.5 91.5s22 72.5 22 112.5z" />
    <glyph glyph-name="macron" unicode="&#xaf;" horiz-adv-x="500" 
d="M371 676c15.333 0 25.833 -3.83105 31.5 -11.498s8.5 -17.5 8.5 -29.5c0 -9.33301 -1 -17.5 -3 -24.5s-3.66699 -11.5 -5 -13.5h-276c-14.667 0 -25 3.66699 -31 11s-9 17.333 -9 30c0 9.33301 1 17.166 3 23.499s3.66699 11.166 5 14.499h276z" />
    <glyph glyph-name="degree" unicode="&#xb0;" horiz-adv-x="409" 
d="M204 737c25.333 0 49.166 -4.66699 71.499 -14s41.666 -22 57.999 -38s29.333 -35 39 -57s14.5 -45.667 14.5 -71s-4.83301 -48.833 -14.5 -70.5s-22.667 -40.5 -39 -56.5s-35.666 -28.667 -57.999 -38s-46.166 -14 -71.499 -14s-49.166 4.66699 -71.499 14
s-41.666 22 -57.999 38s-29.333 34.833 -39 56.5s-14.5 45.167 -14.5 70.5s4.83301 49 14.5 71s22.667 41 39 57s35.666 28.667 57.999 38s46.166 14 71.499 14zM204 458c14 0 27 2.66699 39 8s22.5 12.5 31.5 21.5s16.167 19.5 21.5 31.5s8 24.667 8 38
c0 14 -2.66699 27.167 -8 39.5s-12.5 23 -21.5 32s-19.5 16.167 -31.5 21.5s-25 8 -39 8c-13.333 0 -25.833 -2.66699 -37.5 -8s-22 -12.5 -31 -21.5s-16.167 -19.667 -21.5 -32s-8 -25.5 -8 -39.5c0 -13.333 2.66699 -26 8 -38s12.5 -22.5 21.5 -31.5
s19.333 -16.167 31 -21.5s24.167 -8 37.5 -8z" />
    <glyph glyph-name="plusminus" unicode="&#xb1;" horiz-adv-x="633" 
d="M261 107v179.004h-153c-19.333 0 -33 5.16699 -41 15.5s-12 24.166 -12 41.499c0 11.333 1.5 21.666 4.5 30.999s5.16699 15.666 6.5 18.999h195v158c0 18 5.16699 31.333 15.5 40s24.833 13 43.5 13c12 0 23 -1.5 33 -4.5s16.667 -5.5 20 -7.5v-199h152
c19.333 0 33 -5 41 -15s12 -23.667 12 -41c0 -12 -1.5 -22.667 -4.5 -32s-5.16699 -15.666 -6.5 -18.999h-194v-179h152c19.333 0 33 -5 41 -15s12 -23.667 12 -41c0 -12 -1.5 -22.667 -4.5 -32s-5.16699 -15.666 -6.5 -18.999h-459c-19.333 0 -33 5.16699 -41 15.5
s-12 24.166 -12 41.499c0 11.333 1.5 21.666 4.5 30.999s5.16699 15.666 6.5 18.999h195z" />
    <glyph glyph-name="twosuperior" unicode="&#xb2;" 
d="M49 372l40.002 23.5l51 32c18 11.667 35.833 24.334 53.5 38.001s33.5 27.5 47.5 41.5s25.5 28.167 34.5 42.5s13.5 28.5 13.5 42.5c0 19.333 -6.33301 34.666 -19 45.999s-32 17 -58 17c-16 0 -30.333 -2.66699 -43 -8s-23.5 -11.5 -32.5 -18.5s-16 -13.833 -21 -20.5
s-7.83301 -11.334 -8.5 -14.001c-6 0.666992 -12.167 2.33398 -18.5 5.00098s-12.166 6.33398 -17.499 11.001s-9.83301 10.167 -13.5 16.5s-5.5 13.166 -5.5 20.499c0 6.66699 2.66699 15 8 25s14.5 19.833 27.5 29.5s30.167 18 51.5 25s47.666 10.5 78.999 10.5
c55.333 0 98.666 -12 129.999 -36s47 -57.667 47 -101c0 -27.333 -6.33301 -52 -19 -74s-28.334 -42 -47.001 -60s-39 -33.833 -61 -47.5l-60 -36.5h192v-84h-351v74z" />
    <glyph glyph-name="threesuperior" unicode="&#xb3;" 
d="M68 402c4 -2 10.335 -4.99512 19.002 -8.99512s19.334 -7.83301 32.001 -11.5s27 -6.83398 43 -9.50098s32.667 -4 50 -4c28.667 0 50.834 4.83301 66.501 14.5s23.5 23.5 23.5 41.5c0 17.333 -7.66699 30.666 -23 39.999s-39 14 -71 14h-42
c-2 2 -5.16699 6.83301 -9.5 14.5s-6.5 16.5 -6.5 26.5c0 12.667 3.5 21.5 10.5 26.5s17.167 7.5 30.5 7.5h18c28.667 0 50.167 4.66699 64.5 14s21.5 22.666 21.5 39.999c0 15.333 -6.83301 27.666 -20.5 36.999s-35.167 14 -64.5 14c-18 0 -33.833 -2 -47.5 -6
s-25.167 -8.83301 -34.5 -14.5s-16.5 -11.167 -21.5 -16.5s-7.83301 -9 -8.5 -11c-4.66699 0.666992 -9.66699 2.16699 -15 4.5s-10.5 5.16602 -15.5 8.49902s-9.16699 7.66602 -12.5 12.999s-5 11.333 -5 18c0 7.33301 1.5 14 4.5 20s7.16699 12 12.5 18
c3.33301 3.33301 8.66602 7.66602 15.999 12.999s17.166 10.333 29.499 15s27.166 8.66699 44.499 12s37.666 5 60.999 5c34 0 62.5 -3.66699 85.5 -11s41.833 -16.833 56.5 -28.5s25.167 -24.667 31.5 -39s9.5 -28.166 9.5 -41.499c0 -23.333 -6.33301 -43.333 -19 -60
s-29 -29.667 -49 -39c26.667 -9.33301 46 -22.833 58 -40.5s18 -38.167 18 -61.5c0 -36 -15.833 -66.5 -47.5 -91.5s-77.5 -37.5 -137.5 -37.5c-24.667 0 -47.5 1.66699 -68.5 5s-39.667 7.33301 -56 12s-30 9.33398 -41 14.001s-18.5 8 -22.5 10z" />
    <glyph glyph-name="acute" unicode="&#xb4;" horiz-adv-x="500" 
d="M140 618l109.001 79.001c10 7.33301 19.167 12.833 27.5 16.5s17.166 5.5 26.499 5.5c10.667 0 19.834 -2.5 27.501 -7.5s13.667 -11 18 -18s7.66602 -13.833 9.99902 -20.5s3.5 -11.334 3.5 -14.001l-185 -93z" />
    <glyph glyph-name="mu" unicode="&#xb5;" horiz-adv-x="602" 
d="M58 449c0 18.667 5.33398 32.167 16.001 40.5s25.667 12.5 45 12.5c12 0 23 -1.5 33 -4.5s16.667 -5.16699 20 -6.5v-270c0 -47.333 14.5 -82.333 43.5 -105s70.5 -34 124.5 -34c20.667 0 39.167 1.16699 55.5 3.5s27.5 4.16602 33.5 5.49902v358
c0 18.667 5.33301 32.167 16 40.5s25.334 12.5 44.001 12.5c12.667 0 24 -1.5 34 -4.5s16.667 -5.16699 20 -6.5v-491c-2.66699 -0.666992 -9.33398 -1.66699 -20.001 -3s-24.5 -2.83301 -41.5 -4.5s-36.167 -3.16699 -57.5 -4.5s-44 -2 -68 -2
c-52.667 0 -93.834 6.83301 -123.501 20.5s-50.167 27.834 -61.5 42.501v-249h-113v649z" />
    <glyph glyph-name="paragraph" unicode="&#xb6;" horiz-adv-x="622" 
d="M265 235c-36 2.66699 -67.5 10.5 -94.5 23.5s-49.5 29.5 -67.5 49.5s-31.5 43.333 -40.5 70s-13.5 55.667 -13.5 87c0 34.667 6.33301 66.334 19 95.001s30.834 53 54.501 73s52.5 35.5 86.5 46.5s72.333 16.5 115 16.5c48 0 85.833 -1.33301 113.5 -4
s46.5 -4.66699 56.5 -6c15.333 -2.66699 28.166 -8.83398 38.499 -18.501s15.5 -25.167 15.5 -46.5v-821h-88v808c-8.66699 1.33301 -23.5 2.5 -44.5 3.5s-41.833 1.5 -62.5 1.5v-813h-88v435z" />
    <glyph glyph-name="periodcentered" unicode="&#xb7;" horiz-adv-x="300" 
d="M73 343c0 10.667 1.99805 20.668 5.99805 30.001s9.5 17.5 16.5 24.5s15.333 12.5 25 16.5s19.834 6 30.501 6c21.333 0 39.5 -7.5 54.5 -22.5s22.5 -33.167 22.5 -54.5c0 -10.667 -2 -20.834 -6 -30.501s-9.5 -18 -16.5 -25s-15.167 -12.667 -24.5 -17
s-19.333 -6.5 -30 -6.5c-21.333 0 -39.666 7.83301 -54.999 23.5s-23 34.167 -23 55.5z" />
    <glyph glyph-name="cedilla" unicode="&#xb8;" horiz-adv-x="500" 
d="M160 -132c0.666992 -0.666992 3.33105 -1.99805 7.99805 -3.99805s10.5 -4.16699 17.5 -6.5s14.833 -4.33301 23.5 -6s18 -2.5 28 -2.5c14 0 24.833 2.33301 32.5 7s11.5 12.667 11.5 24c0 6.66699 -1.83301 12.167 -5.5 16.5s-8.33398 7.83301 -14.001 10.5
s-11.667 4.66699 -18 6s-12.166 2 -17.499 2l15 52c14 -0.666992 28.167 -2.66699 42.5 -6s27.5 -8.33301 39.5 -15s21.833 -15.334 29.5 -26.001s11.5 -23.334 11.5 -38.001c0 -28.667 -10.667 -51.334 -32 -68.001s-50 -25 -86 -25c-17.333 0 -32.666 1.16699 -45.999 3.5
s-24.666 5 -33.999 8s-16.5 5.83301 -21.5 8.5s-7.83301 4.33398 -8.5 5.00098z" />
    <glyph glyph-name="onesuperior" unicode="&#xb9;" 
d="M209 624l-94.999 -60c-2 0.666992 -5.66699 2.16699 -11 4.5s-10.5 5.5 -15.5 9.5s-9.5 8.83301 -13.5 14.5s-6 12.167 -6 19.5c0 10 2.66699 18.5 8 25.5s13.666 14.167 24.999 21.5l107 64c7.33301 4.66699 14.833 8.16699 22.5 10.5s16.167 3.5 25.5 3.5
c13.333 0 24.333 -2.33301 33 -7s15 -8.66699 19 -12v-420h-99v326z" />
    <glyph glyph-name="ordmasculine" unicode="&#xba;" horiz-adv-x="456" 
d="M228 704c28.667 0 55.167 -5 79.5 -15s45.5 -23.667 63.5 -41s32.167 -37.833 42.5 -61.5s15.5 -49.167 15.5 -76.5c0 -26.667 -5.16699 -51.667 -15.5 -75s-24.5 -43.833 -42.5 -61.5s-39.167 -31.5 -63.5 -41.5s-50.833 -15 -79.5 -15s-55.334 5 -80.001 15
s-46 23.833 -64 41.5s-32.167 38.167 -42.5 61.5s-15.5 48.333 -15.5 75c0 27.333 5.16699 52.833 15.5 76.5s24.5 44.167 42.5 61.5s39.333 31 64 41s51.334 15 80.001 15zM228 399c31.333 0 56.5 10.833 75.5 32.5s28.5 47.834 28.5 78.501c0 32 -9.5 58.833 -28.5 80.5
s-44.167 32.5 -75.5 32.5c-32 0 -57.333 -10.833 -76 -32.5s-28 -48.5 -28 -80.5c0 -30.667 9.5 -56.834 28.5 -78.501s44.167 -32.5 75.5 -32.5z" />
    <glyph glyph-name="guillemotright" unicode="&#xbb;" horiz-adv-x="572" 
d="M426 255l-139.999 158.999l68 60l164 -173c5.33301 -5.33301 10.166 -12.166 14.499 -20.499s6.5 -16.833 6.5 -25.5c0 -8 -1.5 -15.5 -4.5 -22.5s-6.5 -12.833 -10.5 -17.5l-170 -185l-68 60zM173.001 254.999l-139.999 159l68 60l164 -173
c5.33301 -5.33301 10.166 -12 14.499 -20s6.5 -16.333 6.5 -25c0 -8 -1.5 -15.5 -4.5 -22.5s-6.5 -12.833 -10.5 -17.5l-170 -186l-68 60z" />
    <glyph glyph-name="onequarter" unicode="&#xbc;" horiz-adv-x="945" 
d="M187 624l-94.999 -60c-2 0.666992 -5.66699 2.16699 -11 4.5s-10.5 5.5 -15.5 9.5s-9.5 8.83301 -13.5 14.5s-6 12.167 -6 19.5c0 10 2.66699 18.5 8 25.5s13.666 14.167 24.999 21.5l107 64c7.33301 4.66699 14.833 8.16699 22.5 10.5s16.167 3.5 25.5 3.5
c13.333 0 24.333 -2.33301 33 -7s15 -8.66699 19 -12v-420h-99v326zM588.001 698c6 10.667 12.833 19.833 20.5 27.5s20.5 11.5 38.5 11.5c15.333 0 28 -2.66699 38 -8s16.333 -9.33301 19 -12l-408 -717h-107zM754.001 101.999l-139 -0.000976562
c-34.667 0 -60.167 5.5 -76.5 16.5s-24.5 29.167 -24.5 54.5c0 20.667 5 41.834 15 63.501s23 42.667 39 63s34.167 39.333 54.5 57s40.666 33.167 60.999 46.5s39.833 23.833 58.5 31.5s34.667 11.5 48 11.5c16.667 0 29.834 -1.66699 39.501 -5s16.5 -6.33301 20.5 -9
v-255h20c24 0 36 -11.333 36 -34c0 -8.66699 -1.33301 -16.667 -4 -24s-5 -13 -7 -17h-45v-95h-96v95zM754.001 177.998l0.000976562 174c-15.333 -7.33301 -31.333 -17.333 -48 -30s-31.834 -26.167 -45.501 -40.5s-25 -29 -34 -44s-13.5 -28.5 -13.5 -40.5
c0 -8 3.16699 -13.167 9.5 -15.5s14.5 -3.5 24.5 -3.5h107z" />
    <glyph glyph-name="onehalf" unicode="&#xbd;" horiz-adv-x="960" 
d="M162 624l-94.999 -60c-2 0.666992 -5.66699 2.16699 -11 4.5s-10.5 5.5 -15.5 9.5s-9.5 8.83301 -13.5 14.5s-6 12.167 -6 19.5c0 10 2.66699 18.5 8 25.5s13.666 14.167 24.999 21.5l107 64c7.33301 4.66699 14.833 8.16699 22.5 10.5s16.167 3.5 25.5 3.5
c13.333 0 24.333 -2.33301 33 -7s15 -8.66699 19 -12v-420h-99v326zM553.001 698c6 10.667 12.833 19.833 20.5 27.5s20.5 11.5 38.5 11.5c15.333 0 28 -2.66699 38 -8s16.333 -9.33301 19 -12l-408 -717h-107zM537.001 80.999l40.002 23.5l51 32
c18 11.667 35.833 24.334 53.5 38.001s33.5 27.5 47.5 41.5s25.5 28.167 34.5 42.5s13.5 28.5 13.5 42.5c0 19.333 -6.33301 34.666 -19 45.999s-32 17 -58 17c-16 0 -30.333 -2.66699 -43 -8s-23.5 -11.5 -32.5 -18.5s-16 -13.833 -21 -20.5s-7.83301 -11.334 -8.5 -14.001
c-6 0.666992 -12.167 2.33398 -18.5 5.00098s-12.166 6.33398 -17.499 11.001s-9.83301 10.167 -13.5 16.5s-5.5 13.166 -5.5 20.499c0 6.66699 2.66699 15 8 25s14.5 19.833 27.5 29.5s30.167 18 51.5 25s47.666 10.5 78.999 10.5c55.333 0 98.666 -12 129.999 -36
s47 -57.667 47 -101c0 -27.333 -6.33301 -52 -19 -74s-28.334 -42 -47.001 -60s-39 -33.833 -61 -47.5l-60 -36.5h192v-84h-351v74z" />
    <glyph glyph-name="threequarters" unicode="&#xbe;" horiz-adv-x="1021" 
d="M71 402c4 -2 10.335 -4.99512 19.002 -8.99512s19.334 -7.83301 32.001 -11.5s27 -6.83398 43 -9.50098s32.667 -4 50 -4c28.667 0 50.834 4.83301 66.501 14.5s23.5 23.5 23.5 41.5c0 17.333 -7.66699 30.666 -23 39.999s-39 14 -71 14h-42
c-2 2 -5.16699 6.83301 -9.5 14.5s-6.5 16.5 -6.5 26.5c0 12.667 3.5 21.5 10.5 26.5s17.167 7.5 30.5 7.5h18c28.667 0 50.167 4.66699 64.5 14s21.5 22.666 21.5 39.999c0 15.333 -6.83301 27.666 -20.5 36.999s-35.167 14 -64.5 14c-18 0 -33.833 -2 -47.5 -6
s-25.167 -8.83301 -34.5 -14.5s-16.5 -11.167 -21.5 -16.5s-7.83301 -9 -8.5 -11c-4.66699 0.666992 -9.66699 2.16699 -15 4.5s-10.5 5.16602 -15.5 8.49902s-9.16699 7.66602 -12.5 12.999s-5 11.333 -5 18c0 7.33301 1.5 14 4.5 20s7.16699 12 12.5 18
c3.33301 3.33301 8.66602 7.66602 15.999 12.999s17.166 10.333 29.499 15s27.166 8.66699 44.499 12s37.666 5 60.999 5c34 0 62.5 -3.66699 85.5 -11s41.833 -16.833 56.5 -28.5s25.167 -24.667 31.5 -39s9.5 -28.166 9.5 -41.499c0 -23.333 -6.33301 -43.333 -19 -60
s-29 -29.667 -49 -39c26.667 -9.33301 46 -22.833 58 -40.5s18 -38.167 18 -61.5c0 -36 -15.833 -66.5 -47.5 -91.5s-77.5 -37.5 -137.5 -37.5c-24.667 0 -47.5 1.66699 -68.5 5s-39.667 7.33301 -56 12s-30 9.33398 -41 14.001s-18.5 8 -22.5 10zM664.002 698.005
c6 10.667 12.833 19.833 20.5 27.5s20.5 11.5 38.5 11.5c15.333 0 28 -2.66699 38 -8s16.333 -9.33301 19 -12l-408 -717h-107zM816.002 102.004l-139 -0.000976562c-34.667 0 -60.167 5.5 -76.5 16.5s-24.5 29.167 -24.5 54.5c0 20.667 5 41.834 15 63.501s23 42.667 39 63
s34.167 39.333 54.5 57s40.666 33.167 60.999 46.5s39.833 23.833 58.5 31.5s34.667 11.5 48 11.5c16.667 0 29.834 -1.66699 39.501 -5s16.5 -6.33301 20.5 -9v-255h20c24 0 36 -11.333 36 -34c0 -8.66699 -1.33301 -16.667 -4 -24s-5 -13 -7 -17h-45v-95h-96v95z
M816.002 178.003l0.000976562 174c-15.333 -7.33301 -31.333 -17.333 -48 -30s-31.834 -26.167 -45.501 -40.5s-25 -29 -34 -44s-13.5 -28.5 -13.5 -40.5c0 -8 3.16699 -13.167 9.5 -15.5s14.5 -3.5 24.5 -3.5h107z" />
    <glyph glyph-name="questiondown" unicode="&#xbf;" horiz-adv-x="540" 
d="M363 474c0 -20.667 -1.16797 -38.668 -3.50098 -54.001s-6.83301 -29.166 -13.5 -41.499s-15.5 -23.5 -26.5 -33.5s-24.833 -20 -41.5 -30c-38.667 -22 -67.5 -42.667 -86.5 -62s-28.5 -44 -28.5 -74c0 -28.667 10.667 -53.334 32 -74.001s56 -31 104 -31
c22 0 42 2.83301 60 8.5s33.667 12.834 47 21.501s24.333 18 33 28s15.334 19.667 20.001 29c18.667 -4.66699 32.834 -12.667 42.501 -24s14.5 -24.333 14.5 -39c0 -13.333 -4.5 -27.166 -13.5 -41.499s-22.833 -27.333 -41.5 -39s-42 -21.334 -70 -29.001
s-61 -11.5 -99 -11.5c-44 0 -81.667 5.5 -113 16.5s-57 25.5 -77 43.5s-34.5 38.667 -43.5 62s-13.5 47.333 -13.5 72c0 26 3.5 49 10.5 69s16.167 37.667 27.5 53s24.666 29 39.999 41s31 23 47 33c14.667 9.33301 27 17.833 37 25.5s18.167 15.5 24.5 23.5
s10.833 16.5 13.5 25.5s4 19.833 4 32.5h114zM229.999 621.999c0 20.667 7.5 38.167 22.5 52.5s32.833 21.5 53.5 21.5c21.333 0 39.5 -7.16699 54.5 -21.5s22.5 -31.833 22.5 -52.5c0 -20 -7.5 -37.5 -22.5 -52.5s-33.167 -22.5 -54.5 -22.5
c-20.667 0 -38.5 7.5 -53.5 22.5s-22.5 32.5 -22.5 52.5z" />
    <glyph glyph-name="Agrave" unicode="&#xc0;" horiz-adv-x="733" 
d="M5 0l56.002 144.501l65 159l70.5 165.5l72.5 164c12 26.667 25.667 45.167 41 55.5s34.666 15.5 57.999 15.5c8.66699 0 17.167 -1 25.5 -3s15.666 -4.33301 21.999 -7s11.666 -5.16699 15.999 -7.5s6.83301 -3.83301 7.5 -4.5c10.667 -18.667 24.5 -46.334 41.5 -83.001
l55 -123.5l60.5 -143l57.5 -141l46.5 -118l28 -73.5h-132c-3.33301 8 -7.66602 19.333 -12.999 34l-17.5 47.5l-19.5 51.5l-18 46h-335l-39.5 -101.5l-28.5 -77.5h-120zM488.002 284.001l-32 81.5l-35.5 87l-33 77.5c-10.333 23.333 -18.5 41 -24.5 53l-29 -63.5l-33 -75
l-34 -80.5l-32 -80h253zM240.002 829.001c0 3.33301 0.999023 8.66797 2.99902 16.001s5.5 14.666 10.5 21.999s11.5 13.833 19.5 19.5s18 8.5 30 8.5c18.667 0 39.334 -6.33301 62.001 -19l127 -74l-35 -59z" />
    <glyph glyph-name="Aacute" unicode="&#xc1;" horiz-adv-x="733" 
d="M5 0l56.002 144.501l65 159l70.5 165.5l72.5 164c12 26.667 25.667 45.167 41 55.5s34.666 15.5 57.999 15.5c8.66699 0 17.167 -1 25.5 -3s15.666 -4.33301 21.999 -7s11.666 -5.16699 15.999 -7.5s6.83301 -3.83301 7.5 -4.5c10.667 -18.667 24.5 -46.334 41.5 -83.001
l55 -123.5l60.5 -143l57.5 -141l46.5 -118l28 -73.5h-132c-3.33301 8 -7.66602 19.333 -12.999 34l-17.5 47.5l-19.5 51.5l-18 46h-335l-39.5 -101.5l-28.5 -77.5h-120zM488.002 284.001l-32 81.5l-35.5 87l-33 77.5c-10.333 23.333 -18.5 41 -24.5 53l-29 -63.5l-33 -75
l-34 -80.5l-32 -80h253zM248.002 802.001l126.999 73.998c11.333 6.66699 21.833 11.5 31.5 14.5s19.834 4.5 30.501 4.5c12 0 22 -2.83301 30 -8.5s14.5 -12.167 19.5 -19.5s8.5 -14.666 10.5 -21.999s3 -12.666 3 -15.999l-217 -86z" />
    <glyph glyph-name="Acircumflex" unicode="&#xc2;" horiz-adv-x="733" 
d="M5 0l56.002 144.501l65 159l70.5 165.5l72.5 164c12 26.667 25.667 45.167 41 55.5s34.666 15.5 57.999 15.5c8.66699 0 17.167 -1 25.5 -3s15.666 -4.33301 21.999 -7s11.666 -5.16699 15.999 -7.5s6.83301 -3.83301 7.5 -4.5c10.667 -18.667 24.5 -46.334 41.5 -83.001
l55 -123.5l60.5 -143l57.5 -141l46.5 -118l28 -73.5h-132c-3.33301 8 -7.66602 19.333 -12.999 34l-17.5 47.5l-19.5 51.5l-18 46h-335l-39.5 -101.5l-28.5 -77.5h-120zM488.002 284.001l-32 81.5l-35.5 87l-33 77.5c-10.333 23.333 -18.5 41 -24.5 53l-29 -63.5l-33 -75
l-34 -80.5l-32 -80h253zM192.002 790.001l104 74.999c9.33301 6.66699 20 13.334 32 20.001s24.667 10 38 10s27.666 -3.66699 42.999 -11s30.5 -16.5 45.5 -27.5s29.833 -22.5 44.5 -34.5s28.334 -22.667 41.001 -32l-47 -49l-127 69l-127 -69z" />
    <glyph glyph-name="Atilde" unicode="&#xc3;" horiz-adv-x="733" 
d="M5 0l56.002 144.501l65 159l70.5 165.5l72.5 164c12 26.667 25.667 45.167 41 55.5s34.666 15.5 57.999 15.5c8.66699 0 17.167 -1 25.5 -3s15.666 -4.33301 21.999 -7s11.666 -5.16699 15.999 -7.5s6.83301 -3.83301 7.5 -4.5c10.667 -18.667 24.5 -46.334 41.5 -83.001
l55 -123.5l60.5 -143l57.5 -141l46.5 -118l28 -73.5h-132c-3.33301 8 -7.66602 19.333 -12.999 34l-17.5 47.5l-19.5 51.5l-18 46h-335l-39.5 -101.5l-28.5 -77.5h-120zM488.002 284.001l-32 81.5l-35.5 87l-33 77.5c-10.333 23.333 -18.5 41 -24.5 53l-29 -63.5l-33 -75
l-34 -80.5l-32 -80h253zM186.002 765.001c2.66699 12.667 6.5 25.3311 11.5 37.998s11.833 24 20.5 34s19 18 31 24s26.333 9 43 9c14.667 0 28 -1.5 40 -4.5s23.5 -6.33301 34.5 -10s21.5 -7 31.5 -10s20.667 -4.5 32 -4.5c9.33301 0 16.5 2.83301 21.5 8.5
s9.16699 14.834 12.5 27.501l74 -13c-2.66699 -13.333 -6.5 -26.166 -11.5 -38.499s-11.833 -23.5 -20.5 -33.5s-19 -18 -31 -24s-26.333 -9 -43 -9c-15.333 0 -29 1.5 -41 4.5s-23.5 6.5 -34.5 10.5s-21.5 7.5 -31.5 10.5s-20.333 4.5 -31 4.5
c-9.33301 0 -16.333 -3 -21 -9s-8.66699 -15.667 -12 -29z" />
    <glyph glyph-name="Adieresis" unicode="&#xc4;" horiz-adv-x="733" 
d="M5 0l56.002 144.501l65 159l70.5 165.5l72.5 164c12 26.667 25.667 45.167 41 55.5s34.666 15.5 57.999 15.5c8.66699 0 17.167 -1 25.5 -3s15.666 -4.33301 21.999 -7s11.666 -5.16699 15.999 -7.5s6.83301 -3.83301 7.5 -4.5c10.667 -18.667 24.5 -46.334 41.5 -83.001
l55 -123.5l60.5 -143l57.5 -141l46.5 -118l28 -73.5h-132c-3.33301 8 -7.66602 19.333 -12.999 34l-17.5 47.5l-19.5 51.5l-18 46h-335l-39.5 -101.5l-28.5 -77.5h-120zM488.002 284.001l-32 81.5l-35.5 87l-33 77.5c-10.333 23.333 -18.5 41 -24.5 53l-29 -63.5l-33 -75
l-34 -80.5l-32 -80h253zM192.002 811.001c0 16 6.50098 30.499 19.501 43.499s28.167 19.5 45.5 19.5s32.5 -6.5 45.5 -19.5s19.5 -27.5 19.5 -43.5c0 -15.333 -6.5 -29.5 -19.5 -42.5s-28.167 -19.5 -45.5 -19.5c-8.66699 0 -16.834 1.83301 -24.501 5.5
s-14.5 8.33398 -20.5 14.001s-10.833 12.167 -14.5 19.5s-5.5 15 -5.5 23zM412.003 811c0 16 6.5 30.5 19.5 43.5s28.167 19.5 45.5 19.5s32.333 -6.5 45 -19.5s19 -27.5 19 -43.5c0 -15.333 -6.33301 -29.5 -19 -42.5s-27.667 -19.5 -45 -19.5s-32.5 6.5 -45.5 19.5
s-19.5 27.167 -19.5 42.5z" />
    <glyph glyph-name="Aring" unicode="&#xc5;" horiz-adv-x="733" 
d="M5 0l56 144.499l65 159l70.5 165.5l72.5 164c4.66699 10.667 9.66699 19.834 15 27.501s11 14.167 17 19.5c-11.333 9.33301 -20.5 20.666 -27.5 33.999s-10.5 27.666 -10.5 42.999c0 14 2.66699 27 8 39s12.666 22.667 21.999 32s20.333 16.666 33 21.999s26 8 40 8
s27.333 -2.66699 40 -8s23.667 -12.666 33 -21.999s16.666 -20 21.999 -32s8 -25 8 -39c0 -15.333 -3.16699 -29.5 -9.5 -42.5s-15.166 -24.167 -26.499 -33.5c4 -4 7.66699 -8.5 11 -13.5s6.33301 -10.167 9 -15.5c12 -23.333 26.5 -53.666 43.5 -90.999l53.5 -121.5
l56.5 -134.5l53 -130l42.5 -108c12 -31.333 20.333 -53.666 25 -66.999h-131c-3.33301 8 -7.66602 19.333 -12.999 34l-17.5 47.5l-19.5 51.5l-18 46h-335l-39.5 -101.5l-29.5 -77.5h-119zM488 283.999l-32 81.5l-35.5 87l-33 77.5c-10.333 23.333 -18.5 41 -24.5 53
l-29 -63.5l-33 -75l-34 -80.5l-32 -80h253zM366 706.999c15.333 0 27.333 4.66699 36 14s13 21.333 13 36s-4.33301 26.5 -13 35.5s-20.667 13.5 -36 13.5c-14 0 -25.333 -4.5 -34 -13.5s-13 -20.833 -13 -35.5s4.33301 -26.667 13 -36s20 -14 34 -14z" />
    <glyph glyph-name="AE" unicode="&#xc6;" horiz-adv-x="1087" 
d="M-1 0l101.502 171.998l102.5 165.5l94.5 148.5l78.5 121c10 16 19.667 29.167 29 39.5s18.666 18.333 27.999 24s19.166 9.66699 29.499 12s21.833 3.5 34.5 3.5h482c39.333 0 59 -18 59 -54c0 -12.667 -2 -24.167 -6 -34.5s-7 -17.166 -9 -20.499h-363v-172h304
c40 0 60 -18 60 -54c0 -12.667 -2 -24.167 -6 -34.5s-7.33301 -17.166 -10 -20.499h-348v-187h372v-109h-493v200h-293l-67.5 -112l-52.5 -88h-127zM539.002 306.998v269h-56l-31 -47l-48.5 -75l-52 -81.5l-42.5 -65.5h230z" />
    <glyph glyph-name="Ccedilla" unicode="&#xc7;" horiz-adv-x="664" 
d="M649 46c-7.33301 -5.33301 -17.501 -11.665 -30.501 -18.998s-29.333 -14.333 -49 -21s-42.834 -12.334 -69.501 -17.001s-57 -7 -91 -7c-49.333 0 -96 7.83301 -140 23.5s-82.833 38.5 -116.5 68.5s-60.334 67.333 -80.001 112s-29.5 96 -29.5 154
c0 57.333 9.5 108.666 28.5 153.999s45 83.5 78 114.5s71.5 54.667 115.5 71s91 24.5 141 24.5c48 0 87.333 -4 118 -12s54.834 -17.833 72.501 -29.5s30 -23.667 37 -36s10.5 -22.5 10.5 -30.5c0 -8.66699 -1.83301 -17 -5.5 -25s-8 -15.167 -13 -21.5
s-10.167 -11.833 -15.5 -16.5s-10 -8 -14 -10c-6.66699 7.33301 -15.834 15.333 -27.501 24s-25.5 16.667 -41.5 24s-34 13.5 -54 18.5s-41.667 7.5 -65 7.5c-34 0 -65.667 -5.83301 -95 -17.5s-54.666 -28.667 -75.999 -51s-38.166 -49.333 -50.499 -81
s-18.5 -67.5 -18.5 -107.5c0 -40.667 6.5 -76.5 19.5 -107.5s30.833 -57 53.5 -78s49.334 -36.833 80.001 -47.5s63.667 -16 99 -16c42 0 78.167 5.33301 108.5 16s52.5 20.667 66.5 30l53 -91h1zM258.999 -129.999c2 -1.33301 10.667 -4.99902 26 -10.999
s32.666 -9 51.999 -9c13.333 0 23.5 2 30.5 6s10.5 11.667 10.5 23c0 6 -1.83301 11.167 -5.5 15.5s-8.33398 7.66602 -14.001 9.99902s-11.667 4 -18 5s-12.166 1.5 -17.499 1.5l16 56c14 -0.666992 28.5 -2.66699 43.5 -6s28.5 -8.5 40.5 -15.5s22 -15.833 30 -26.5
s12 -23.334 12 -38.001c0 -29.333 -10.833 -52.5 -32.5 -69.5s-50.5 -25.5 -86.5 -25.5c-17.333 0 -32.666 1.33301 -45.999 4s-24.833 5.66699 -34.5 9s-17.167 6.33301 -22.5 9s-8.33301 4.33398 -9 5.00098z" />
    <glyph glyph-name="Egrave" unicode="&#xc8;" horiz-adv-x="638" 
d="M73 618c0 45.333 24.334 67.998 73.001 67.998h384c40 0 60 -18 60 -54c0 -12.667 -2 -24.167 -6 -34.5s-7 -17.166 -9 -20.499h-381v-172h322c39.333 0 59 -18 59 -54c0 -12.667 -1.83301 -24.167 -5.5 -34.5s-6.83398 -17.166 -9.50098 -20.499h-366v-187h390v-109
h-511v618zM200.001 828.998c0 3.33301 0.999023 8.66797 2.99902 16.001s5.5 14.666 10.5 21.999s11.5 13.833 19.5 19.5s18 8.5 30 8.5c18.667 0 39.334 -6.33301 62.001 -19l127 -74l-35 -59z" />
    <glyph glyph-name="Eacute" unicode="&#xc9;" horiz-adv-x="638" 
d="M73 618c0 45.333 24.334 67.998 73.001 67.998h384c40 0 60 -18 60 -54c0 -12.667 -2 -24.167 -6 -34.5s-7 -17.166 -9 -20.499h-381v-172h322c39.333 0 59 -18 59 -54c0 -12.667 -1.83301 -24.167 -5.5 -34.5s-6.83398 -17.166 -9.50098 -20.499h-366v-187h390v-109
h-511v618zM221.001 801.998l126.999 73.998c11.333 6.66699 21.833 11.5 31.5 14.5s19.834 4.5 30.501 4.5c12 0 22 -2.83301 30 -8.5s14.5 -12.167 19.5 -19.5s8.5 -14.666 10.5 -21.999s3 -12.666 3 -15.999l-217 -86z" />
    <glyph glyph-name="Ecircumflex" unicode="&#xca;" horiz-adv-x="638" 
d="M73 618c0 45.333 24.334 67.998 73.001 67.998h384c40 0 60 -18 60 -54c0 -12.667 -2 -24.167 -6 -34.5s-7 -17.166 -9 -20.499h-381v-172h322c39.333 0 59 -18 59 -54c0 -12.667 -1.83301 -24.167 -5.5 -34.5s-6.83398 -17.166 -9.50098 -20.499h-366v-187h390v-109
h-511v618zM169.001 789.998l104 74.999c9.33301 6.66699 20 13.334 32 20.001s24.667 10 38 10s27.666 -3.66699 42.999 -11s30.5 -16.5 45.5 -27.5s29.833 -22.5 44.5 -34.5s28.334 -22.667 41.001 -32l-47 -49l-127 69l-127 -69z" />
    <glyph glyph-name="Edieresis" unicode="&#xcb;" horiz-adv-x="638" 
d="M73 618c0 45.333 24.334 67.998 73.001 67.998h384c40 0 60 -18 60 -54c0 -12.667 -2 -24.167 -6 -34.5s-7 -17.166 -9 -20.499h-381v-172h322c39.333 0 59 -18 59 -54c0 -12.667 -1.83301 -24.167 -5.5 -34.5s-6.83398 -17.166 -9.50098 -20.499h-366v-187h390v-109
h-511v618zM164.001 810.998c0 16 6.50098 30.499 19.501 43.499s28.167 19.5 45.5 19.5s32.5 -6.5 45.5 -19.5s19.5 -27.5 19.5 -43.5c0 -15.333 -6.5 -29.5 -19.5 -42.5s-28.167 -19.5 -45.5 -19.5c-8.66699 0 -16.834 1.83301 -24.501 5.5s-14.5 8.33398 -20.5 14.001
s-10.833 12.167 -14.5 19.5s-5.5 15 -5.5 23zM384.002 810.997c0 16 6.5 30.5 19.5 43.5s28.167 19.5 45.5 19.5s32.333 -6.5 45 -19.5s19 -27.5 19 -43.5c0 -15.333 -6.33301 -29.5 -19 -42.5s-27.667 -19.5 -45 -19.5s-32.5 6.5 -45.5 19.5s-19.5 27.167 -19.5 42.5z" />
    <glyph glyph-name="Igrave" unicode="&#xcc;" horiz-adv-x="265" 
d="M73 631c0 18.667 5.66699 32.499 17 41.499s26.666 13.5 45.999 13.5c12.667 0 24.334 -1.66699 35.001 -5s17.667 -5.66602 21 -6.99902v-674h-119v631zM-2 828.999c0 3.33301 0.999023 8.66797 2.99902 16.001s5.5 14.666 10.5 21.999s11.5 13.833 19.5 19.5
s18 8.5 30 8.5c18.667 0 39.334 -6.33301 62.001 -19l127 -74l-35 -59z" />
    <glyph glyph-name="Iacute" unicode="&#xcd;" horiz-adv-x="265" 
d="M73 631c0 18.667 5.66699 32.499 17 41.499s26.666 13.5 45.999 13.5c12.667 0 24.334 -1.66699 35.001 -5s17.667 -5.66602 21 -6.99902v-674h-119v631zM35 801.999l126.999 73.998c11.333 6.66699 21.833 11.5 31.5 14.5s19.834 4.5 30.501 4.5
c12 0 22 -2.83301 30 -8.5s14.5 -12.167 19.5 -19.5s8.5 -14.666 10.5 -21.999s3 -12.666 3 -15.999l-217 -86z" />
    <glyph glyph-name="Icircumflex" unicode="&#xce;" horiz-adv-x="265" 
d="M73 631c0 18.667 5.66699 32.499 17 41.499s26.666 13.5 45.999 13.5c12.667 0 24.334 -1.66699 35.001 -5s17.667 -5.66602 21 -6.99902v-674h-119v631zM-34 789.999l104 74.999c9.33301 6.66699 20 13.334 32 20.001s24.667 10 38 10s27.666 -3.66699 42.999 -11
s30.5 -16.5 45.5 -27.5s29.833 -22.5 44.5 -34.5s28.334 -22.667 41.001 -32l-47 -49l-127 69l-127 -69z" />
    <glyph glyph-name="Idieresis" unicode="&#xcf;" horiz-adv-x="265" 
d="M73 631c0 18.667 5.66699 32.499 17 41.499s26.666 13.5 45.999 13.5c12.667 0 24.334 -1.66699 35.001 -5s17.667 -5.66602 21 -6.99902v-674h-119v631zM-35 810.999c0 16 6.50098 30.499 19.501 43.499s28.167 19.5 45.5 19.5s32.5 -6.5 45.5 -19.5
s19.5 -27.5 19.5 -43.5c0 -15.333 -6.5 -29.5 -19.5 -42.5s-28.167 -19.5 -45.5 -19.5c-8.66699 0 -16.834 1.83301 -24.501 5.5s-14.5 8.33398 -20.5 14.001s-10.833 12.167 -14.5 19.5s-5.5 15 -5.5 23zM185.001 810.998c0 16 6.5 30.5 19.5 43.5s28.167 19.5 45.5 19.5
s32.333 -6.5 45 -19.5s19 -27.5 19 -43.5c0 -15.333 -6.33301 -29.5 -19 -42.5s-27.667 -19.5 -45 -19.5s-32.5 6.5 -45.5 19.5s-19.5 27.167 -19.5 42.5z" />
    <glyph glyph-name="Eth" unicode="&#xd0;" horiz-adv-x="778" 
d="M105 304l-43.999 0.000976562c-16.667 0 -28.5 4.5 -35.5 13.5s-10.5 21.167 -10.5 36.5c0 10 1.33301 18.833 4 26.5s4.66699 13.167 6 16.5h80v224c0 17.333 3.33301 31 10 41s18.5 17.5 35.5 22.5s39.667 8.16699 68 9.5s64.5 2 108.5 2
c63.333 0 120.166 -8.16699 170.499 -24.5s93 -39.666 128 -69.999s61.833 -67.333 80.5 -111s28 -92.5 28 -146.5c0 -54.667 -9 -103.834 -27 -147.501s-44.5 -80.834 -79.5 -111.501s-78.333 -54.167 -130 -70.5s-111.167 -24.5 -178.5 -24.5c-71.333 0 -124 1.5 -158 4.5
s-52.667 4.83301 -56 5.5v304zM224.001 104.001c4 -1.33301 14.6689 -2.83105 32.002 -4.49805s41.666 -2.5 72.999 -2.5c90.667 0 160 21.5 208 64.5s72 103.833 72 182.5c0 36 -5.5 69.167 -16.5 99.5s-27.833 56.333 -50.5 78s-51.667 38.667 -87 51
s-77.333 18.5 -126 18.5c-32 0 -56.833 -0.833008 -74.5 -2.5s-27.834 -2.83398 -30.501 -3.50098v-188h128c17.333 0 29.333 -4.33301 36 -13s10 -20.667 10 -36c0 -10.667 -1.33301 -19.834 -4 -27.501s-4.66699 -13.167 -6 -16.5h-164v-200z" />
    <glyph glyph-name="Ntilde" unicode="&#xd1;" horiz-adv-x="735" 
d="M73 622c0 23.333 7.16992 39.833 21.5029 49.5s31.166 14.5 50.499 14.5c18.667 0 34 -3 46 -9s20.333 -10.667 25 -14c6.66699 -8 17.5 -22.167 32.5 -42.5l52 -72l63 -90l66.5 -96.5l62.5 -93l51.5 -79v441c0 18.667 5.33301 32.5 16 41.5s25.667 13.5 45 13.5
c13.333 0 25.166 -1.66699 35.499 -5s17.166 -6 20.499 -8v-673h-120l-43 66.5l-55.5 84l-63.5 94.5l-66 97.5l-64.5 93l-57.5 80.5v-516h-118v622zM207.003 765c2.66699 12.667 6.5 25.3311 11.5 37.998s11.833 24 20.5 34s19 18 31 24s26.333 9 43 9
c14.667 0 28 -1.5 40 -4.5s23.5 -6.33301 34.5 -10s21.5 -7 31.5 -10s20.667 -4.5 32 -4.5c9.33301 0 16.5 2.83301 21.5 8.5s9.16699 14.834 12.5 27.501l74 -13c-2.66699 -13.333 -6.5 -26.166 -11.5 -38.499s-11.833 -23.5 -20.5 -33.5s-19 -18 -31 -24
s-26.333 -9 -43 -9c-15.333 0 -29 1.5 -41 4.5s-23.5 6.5 -34.5 10.5s-21.5 7.5 -31.5 10.5s-20.333 4.5 -31 4.5c-9.33301 0 -16.333 -3 -21 -9s-8.66699 -15.667 -12 -29z" />
    <glyph glyph-name="Ograve" unicode="&#xd2;" horiz-adv-x="819" 
d="M409 704c52 0 100.167 -9.16699 144.5 -27.5s83 -43.666 116 -75.999s58.833 -70.5 77.5 -114.5s28 -91.667 28 -143s-9.33301 -99 -28 -143s-44.5 -82.167 -77.5 -114.5s-71.667 -57.666 -116 -75.999s-92.5 -27.5 -144.5 -27.5s-100.167 9.16699 -144.5 27.5
s-83 43.666 -116 75.999s-58.833 70.5 -77.5 114.5s-28 91.667 -28 143s9.33301 99 28 143s44.5 82.167 77.5 114.5s71.667 57.666 116 75.999s92.5 27.5 144.5 27.5zM409 91c34.667 0 66.667 6.33301 96 19s54.666 30.167 75.999 52.5s38.166 48.833 50.499 79.5
s18.5 64.334 18.5 101.001s-6.16699 70.5 -18.5 101.5s-29.166 57.667 -50.499 80s-46.666 39.666 -75.999 51.999s-61.333 18.5 -96 18.5s-66.667 -6.16699 -96 -18.5s-54.833 -29.666 -76.5 -51.999s-38.5 -49 -50.5 -80s-18 -64.833 -18 -101.5s6 -70.334 18 -101.001
s28.833 -57.167 50.5 -79.5s47.167 -39.833 76.5 -52.5s61.333 -19 96 -19zM283 829c0 3.33301 0.999023 8.66797 2.99902 16.001s5.5 14.666 10.5 21.999s11.5 13.833 19.5 19.5s18 8.5 30 8.5c18.667 0 39.334 -6.33301 62.001 -19l127 -74l-35 -59z" />
    <glyph glyph-name="Oacute" unicode="&#xd3;" horiz-adv-x="819" 
d="M409 704c52 0 100.167 -9.16699 144.5 -27.5s83 -43.666 116 -75.999s58.833 -70.5 77.5 -114.5s28 -91.667 28 -143s-9.33301 -99 -28 -143s-44.5 -82.167 -77.5 -114.5s-71.667 -57.666 -116 -75.999s-92.5 -27.5 -144.5 -27.5s-100.167 9.16699 -144.5 27.5
s-83 43.666 -116 75.999s-58.833 70.5 -77.5 114.5s-28 91.667 -28 143s9.33301 99 28 143s44.5 82.167 77.5 114.5s71.667 57.666 116 75.999s92.5 27.5 144.5 27.5zM409 91c34.667 0 66.667 6.33301 96 19s54.666 30.167 75.999 52.5s38.166 48.833 50.499 79.5
s18.5 64.334 18.5 101.001s-6.16699 70.5 -18.5 101.5s-29.166 57.667 -50.499 80s-46.666 39.666 -75.999 51.999s-61.333 18.5 -96 18.5s-66.667 -6.16699 -96 -18.5s-54.833 -29.666 -76.5 -51.999s-38.5 -49 -50.5 -80s-18 -64.833 -18 -101.5s6 -70.334 18 -101.001
s28.833 -57.167 50.5 -79.5s47.167 -39.833 76.5 -52.5s61.333 -19 96 -19zM283 802l126.999 73.998c11.333 6.66699 21.833 11.5 31.5 14.5s19.834 4.5 30.501 4.5c12 0 22 -2.83301 30 -8.5s14.5 -12.167 19.5 -19.5s8.5 -14.666 10.5 -21.999s3 -12.666 3 -15.999
l-217 -86z" />
    <glyph glyph-name="Ocircumflex" unicode="&#xd4;" horiz-adv-x="819" 
d="M409 704c52 0 100.167 -9.16699 144.5 -27.5s83 -43.666 116 -75.999s58.833 -70.5 77.5 -114.5s28 -91.667 28 -143s-9.33301 -99 -28 -143s-44.5 -82.167 -77.5 -114.5s-71.667 -57.666 -116 -75.999s-92.5 -27.5 -144.5 -27.5s-100.167 9.16699 -144.5 27.5
s-83 43.666 -116 75.999s-58.833 70.5 -77.5 114.5s-28 91.667 -28 143s9.33301 99 28 143s44.5 82.167 77.5 114.5s71.667 57.666 116 75.999s92.5 27.5 144.5 27.5zM409 91c34.667 0 66.667 6.33301 96 19s54.666 30.167 75.999 52.5s38.166 48.833 50.499 79.5
s18.5 64.334 18.5 101.001s-6.16699 70.5 -18.5 101.5s-29.166 57.667 -50.499 80s-46.666 39.666 -75.999 51.999s-61.333 18.5 -96 18.5s-66.667 -6.16699 -96 -18.5s-54.833 -29.666 -76.5 -51.999s-38.5 -49 -50.5 -80s-18 -64.833 -18 -101.5s6 -70.334 18 -101.001
s28.833 -57.167 50.5 -79.5s47.167 -39.833 76.5 -52.5s61.333 -19 96 -19zM235 790l104 74.999c9.33301 6.66699 20 13.334 32 20.001s24.667 10 38 10s27.666 -3.66699 42.999 -11s30.5 -16.5 45.5 -27.5s29.833 -22.5 44.5 -34.5s28.334 -22.667 41.001 -32l-47 -49
l-127 69l-127 -69z" />
    <glyph glyph-name="Otilde" unicode="&#xd5;" horiz-adv-x="819" 
d="M409 704c52 0 100.167 -9.16699 144.5 -27.5s83 -43.666 116 -75.999s58.833 -70.5 77.5 -114.5s28 -91.667 28 -143s-9.33301 -99 -28 -143s-44.5 -82.167 -77.5 -114.5s-71.667 -57.666 -116 -75.999s-92.5 -27.5 -144.5 -27.5s-100.167 9.16699 -144.5 27.5
s-83 43.666 -116 75.999s-58.833 70.5 -77.5 114.5s-28 91.667 -28 143s9.33301 99 28 143s44.5 82.167 77.5 114.5s71.667 57.666 116 75.999s92.5 27.5 144.5 27.5zM409 91c34.667 0 66.667 6.33301 96 19s54.666 30.167 75.999 52.5s38.166 48.833 50.499 79.5
s18.5 64.334 18.5 101.001s-6.16699 70.5 -18.5 101.5s-29.166 57.667 -50.499 80s-46.666 39.666 -75.999 51.999s-61.333 18.5 -96 18.5s-66.667 -6.16699 -96 -18.5s-54.833 -29.666 -76.5 -51.999s-38.5 -49 -50.5 -80s-18 -64.833 -18 -101.5s6 -70.334 18 -101.001
s28.833 -57.167 50.5 -79.5s47.167 -39.833 76.5 -52.5s61.333 -19 96 -19zM231 765c2.66699 12.667 6.5 25.3311 11.5 37.998s11.833 24 20.5 34s19 18 31 24s26.333 9 43 9c14.667 0 28 -1.5 40 -4.5s23.5 -6.33301 34.5 -10s21.5 -7 31.5 -10s20.667 -4.5 32 -4.5
c9.33301 0 16.5 2.83301 21.5 8.5s9.16699 14.834 12.5 27.501l74 -13c-2.66699 -13.333 -6.5 -26.166 -11.5 -38.499s-11.833 -23.5 -20.5 -33.5s-19 -18 -31 -24s-26.333 -9 -43 -9c-15.333 0 -29 1.5 -41 4.5s-23.5 6.5 -34.5 10.5s-21.5 7.5 -31.5 10.5
s-20.333 4.5 -31 4.5c-9.33301 0 -16.333 -3 -21 -9s-8.66699 -15.667 -12 -29z" />
    <glyph glyph-name="Odieresis" unicode="&#xd6;" horiz-adv-x="819" 
d="M409 704c52 0 100.167 -9.16699 144.5 -27.5s83 -43.666 116 -75.999s58.833 -70.5 77.5 -114.5s28 -91.667 28 -143s-9.33301 -99 -28 -143s-44.5 -82.167 -77.5 -114.5s-71.667 -57.666 -116 -75.999s-92.5 -27.5 -144.5 -27.5s-100.167 9.16699 -144.5 27.5
s-83 43.666 -116 75.999s-58.833 70.5 -77.5 114.5s-28 91.667 -28 143s9.33301 99 28 143s44.5 82.167 77.5 114.5s71.667 57.666 116 75.999s92.5 27.5 144.5 27.5zM409 91c34.667 0 66.667 6.33301 96 19s54.666 30.167 75.999 52.5s38.166 48.833 50.499 79.5
s18.5 64.334 18.5 101.001s-6.16699 70.5 -18.5 101.5s-29.166 57.667 -50.499 80s-46.666 39.666 -75.999 51.999s-61.333 18.5 -96 18.5s-66.667 -6.16699 -96 -18.5s-54.833 -29.666 -76.5 -51.999s-38.5 -49 -50.5 -80s-18 -64.833 -18 -101.5s6 -70.334 18 -101.001
s28.833 -57.167 50.5 -79.5s47.167 -39.833 76.5 -52.5s61.333 -19 96 -19zM235 811c0 16 6.50098 30.499 19.501 43.499s28.167 19.5 45.5 19.5s32.5 -6.5 45.5 -19.5s19.5 -27.5 19.5 -43.5c0 -15.333 -6.5 -29.5 -19.5 -42.5s-28.167 -19.5 -45.5 -19.5
c-8.66699 0 -16.834 1.83301 -24.501 5.5s-14.5 8.33398 -20.5 14.001s-10.833 12.167 -14.5 19.5s-5.5 15 -5.5 23zM455.001 810.999c0 16 6.5 30.5 19.5 43.5s28.167 19.5 45.5 19.5s32.333 -6.5 45 -19.5s19 -27.5 19 -43.5c0 -15.333 -6.33301 -29.5 -19 -42.5
s-27.667 -19.5 -45 -19.5s-32.5 6.5 -45.5 19.5s-19.5 27.167 -19.5 42.5z" />
    <glyph glyph-name="multiply" unicode="&#xd7;" horiz-adv-x="637" 
d="M242 341l-116.003 113.998c-12.667 12.667 -19 24.667 -19 36c0 8.66699 2.83301 17 8.5 25s12.334 15 20.001 21s15 11 22 15s11.833 6.66699 14.5 8l143 -146l116 118c12 12 24.333 18 37 18c8.66699 0 17 -2.83301 25 -8.5s15.167 -12.167 21.5 -19.5
s11.5 -14.666 15.5 -21.999s6.66699 -12.666 8 -15.999l-148 -145l117 -114c12 -11.333 18 -23.333 18 -36c0 -9.33301 -2.83301 -18 -8.5 -26s-12.167 -15 -19.5 -21s-14.5 -10.833 -21.5 -14.5l-14.5 -7.5l-144 146l-115 -118c-11.333 -11.333 -23.333 -17 -36 -17
c-9.33301 0 -18.166 2.83301 -26.499 8.5s-15.666 12.167 -21.999 19.5s-11.5 14.5 -15.5 21.5s-6.33301 12.167 -7 15.5z" />
    <glyph glyph-name="Oslash" unicode="&#xd8;" horiz-adv-x="819" 
d="M198 44c-48.667 32 -86.667 73.834 -114 125.501s-41 109.5 -41 173.5c0 51.333 9.33301 99 28 143s44.5 82.167 77.5 114.5s71.667 57.666 116 75.999s92.5 27.5 144.5 27.5c21.333 0 42.333 -1.83301 63 -5.5s40.667 -9.16699 60 -16.5l27 52
c7.33301 13.333 15 23.666 23 30.999s20.667 11 38 11c15.333 0 29 -3.16699 41 -9.5s19.333 -10.5 22 -12.5l-60 -115c46.667 -32.667 83.667 -74.5 111 -125.5s41 -107.833 41 -170.5c0 -51.333 -9.33301 -99 -28 -143s-44.5 -82.167 -77.5 -114.5
s-71.667 -57.666 -116 -75.999s-92.5 -27.5 -144.5 -27.5c-42 0 -82 6.66699 -120 20l-47 -90h-112zM482 581.001c-10 4.66699 -21.333 8.16602 -34 10.499s-25.667 3.5 -39 3.5c-34.667 0 -66.667 -6.16699 -96 -18.5s-54.833 -29.666 -76.5 -51.999s-38.5 -49 -50.5 -80
s-18 -64.833 -18 -101.5c0 -40 7.5 -76.667 22.5 -110s35.167 -61.333 60.5 -84zM340 103c9.33301 -4 20.335 -7.00098 33.002 -9.00098s24.667 -3 36 -3c34.667 0 66.667 6.33301 96 19s54.666 30.167 75.999 52.5s38.166 48.833 50.499 79.5s18.5 64.334 18.5 101.001
c0 40 -7.16699 76.333 -21.5 109s-33.833 60 -58.5 82z" />
    <glyph glyph-name="Ugrave" unicode="&#xd9;" horiz-adv-x="756" 
d="M66 631c0 18.667 5.5 32.5 16.5 41.5s26.167 13.5 45.5 13.5c13.333 0 25.333 -1.66699 36 -5s17.667 -6 21 -8v-355c0 -38 3.33301 -71.167 10 -99.5s17.5 -52 32.5 -71s34.833 -33.333 59.5 -43s55 -14.5 91 -14.5s66.333 4.83301 91 14.5s44.5 24 59.5 43
s25.833 42.667 32.5 71s10 61.5 10 99.5v313c0 18.667 5.5 32.5 16.5 41.5s26.167 13.5 45.5 13.5c13.333 0 25.333 -1.66699 36 -5s17.667 -6 21 -8v-365c0 -105.333 -26 -186 -78 -242s-130 -84 -234 -84s-182 28 -234 84s-78 136.667 -78 242v323zM259 829
c0 3.33301 0.999023 8.66797 2.99902 16.001s5.5 14.666 10.5 21.999s11.5 13.833 19.5 19.5s18 8.5 30 8.5c18.667 0 39.334 -6.33301 62.001 -19l127 -74l-35 -59z" />
    <glyph glyph-name="Uacute" unicode="&#xda;" horiz-adv-x="756" 
d="M66 631c0 18.667 5.5 32.5 16.5 41.5s26.167 13.5 45.5 13.5c13.333 0 25.333 -1.66699 36 -5s17.667 -6 21 -8v-355c0 -38 3.33301 -71.167 10 -99.5s17.5 -52 32.5 -71s34.833 -33.333 59.5 -43s55 -14.5 91 -14.5s66.333 4.83301 91 14.5s44.5 24 59.5 43
s25.833 42.667 32.5 71s10 61.5 10 99.5v313c0 18.667 5.5 32.5 16.5 41.5s26.167 13.5 45.5 13.5c13.333 0 25.333 -1.66699 36 -5s17.667 -6 21 -8v-365c0 -105.333 -26 -186 -78 -242s-130 -84 -234 -84s-182 28 -234 84s-78 136.667 -78 242v323zM282 802
l126.999 73.998c11.333 6.66699 21.833 11.5 31.5 14.5s19.834 4.5 30.501 4.5c12 0 22 -2.83301 30 -8.5s14.5 -12.167 19.5 -19.5s8.5 -14.666 10.5 -21.999s3 -12.666 3 -15.999l-217 -86z" />
    <glyph glyph-name="Ucircumflex" unicode="&#xdb;" horiz-adv-x="756" 
d="M66 631c0 18.667 5.5 32.5 16.5 41.5s26.167 13.5 45.5 13.5c13.333 0 25.333 -1.66699 36 -5s17.667 -6 21 -8v-355c0 -38 3.33301 -71.167 10 -99.5s17.5 -52 32.5 -71s34.833 -33.333 59.5 -43s55 -14.5 91 -14.5s66.333 4.83301 91 14.5s44.5 24 59.5 43
s25.833 42.667 32.5 71s10 61.5 10 99.5v313c0 18.667 5.5 32.5 16.5 41.5s26.167 13.5 45.5 13.5c13.333 0 25.333 -1.66699 36 -5s17.667 -6 21 -8v-365c0 -105.333 -26 -186 -78 -242s-130 -84 -234 -84s-182 28 -234 84s-78 136.667 -78 242v323zM216 790l104 74.999
c9.33301 6.66699 20 13.334 32 20.001s24.667 10 38 10s27.666 -3.66699 42.999 -11s30.5 -16.5 45.5 -27.5s29.833 -22.5 44.5 -34.5s28.334 -22.667 41.001 -32l-47 -49l-127 69l-127 -69z" />
    <glyph glyph-name="Udieresis" unicode="&#xdc;" horiz-adv-x="756" 
d="M66 631c0 18.667 5.5 32.5 16.5 41.5s26.167 13.5 45.5 13.5c13.333 0 25.333 -1.66699 36 -5s17.667 -6 21 -8v-355c0 -38 3.33301 -71.167 10 -99.5s17.5 -52 32.5 -71s34.833 -33.333 59.5 -43s55 -14.5 91 -14.5s66.333 4.83301 91 14.5s44.5 24 59.5 43
s25.833 42.667 32.5 71s10 61.5 10 99.5v313c0 18.667 5.5 32.5 16.5 41.5s26.167 13.5 45.5 13.5c13.333 0 25.333 -1.66699 36 -5s17.667 -6 21 -8v-365c0 -105.333 -26 -186 -78 -242s-130 -84 -234 -84s-182 28 -234 84s-78 136.667 -78 242v323zM213 811
c0 16 6.50098 30.499 19.501 43.499s28.167 19.5 45.5 19.5s32.5 -6.5 45.5 -19.5s19.5 -27.5 19.5 -43.5c0 -15.333 -6.5 -29.5 -19.5 -42.5s-28.167 -19.5 -45.5 -19.5c-8.66699 0 -16.834 1.83301 -24.501 5.5s-14.5 8.33398 -20.5 14.001s-10.833 12.167 -14.5 19.5
s-5.5 15 -5.5 23zM433.001 810.999c0 16 6.5 30.5 19.5 43.5s28.167 19.5 45.5 19.5s32.333 -6.5 45 -19.5s19 -27.5 19 -43.5c0 -15.333 -6.33301 -29.5 -19 -42.5s-27.667 -19.5 -45 -19.5s-32.5 6.5 -45.5 19.5s-19.5 27.167 -19.5 42.5z" />
    <glyph glyph-name="Yacute" unicode="&#xdd;" horiz-adv-x="666" 
d="M268 258c-16 18.667 -33.8311 40.999 -53.498 66.999l-59.5 78.5l-56 75l-42 58.5c-12 16.667 -23.667 33.834 -35 51.501s-17 33.5 -17 47.5c0 15.333 5 27.5 15 36.5s23.333 13.5 40 13.5c13.333 0 24.166 -1.66699 32.499 -5l17.5 -7l42 -62l58.5 -83.5l63.5 -88.5
l57 -76l49.5 68.5l50 73l47 71.5l40.5 63c7.33301 11.333 16.666 21.833 27.999 31.5s27.333 14.5 48 14.5c18 0 33 -3.5 45 -10.5s19.333 -11.833 22 -14.5c-6 -12 -15 -27.833 -27 -47.5l-41.5 -65l-50.5 -75l-54.5 -78l-53.5 -74l-47 -63.5v-258h-119v258z
M243.002 801.999l126.999 73.998c11.333 6.66699 21.833 11.5 31.5 14.5s19.834 4.5 30.501 4.5c12 0 22 -2.83301 30 -8.5s14.5 -12.167 19.5 -19.5s8.5 -14.666 10.5 -21.999s3 -12.666 3 -15.999l-217 -86z" />
    <glyph glyph-name="Thorn" unicode="&#xde;" horiz-adv-x="662" 
d="M73 631c0 18.667 5.5 32.501 16.5 41.501s26.167 13.5 45.5 13.5c12.667 0 24 -1.5 34 -4.5s16.667 -5.16699 20 -6.5v-104c7.33301 0.666992 21.5 1.5 42.5 2.5s45.833 1.5 74.5 1.5c106.667 0 186 -21 238 -63s78 -98 78 -168c0 -32.667 -5.5 -63.167 -16.5 -91.5
s-28.5 -52.833 -52.5 -73.5s-55.333 -36.834 -94 -48.501s-85.667 -17.5 -141 -17.5c-14 0 -28.167 0.5 -42.5 1.5s-27.5 2 -39.5 3s-22.333 2.16699 -31 3.5s-14 2 -16 2v-123h-116v631zM189 224.001l39 -5.50195c21.333 -3 48.666 -4.5 81.999 -4.5
c36.667 0 67.334 3.33301 92.001 10s44.167 16 58.5 28s24.5 25.833 30.5 41.5s9 32.5 9 50.5c0 16.667 -2.66699 32.834 -8 48.501s-15.333 29.5 -30 41.5s-34.834 21.667 -60.501 29s-58.5 11 -98.5 11c-32 0 -57.667 -0.666992 -77 -2s-31.666 -2.66602 -36.999 -3.99902
v-244z" />
    <glyph glyph-name="germandbls" unicode="&#xdf;" horiz-adv-x="630" 
d="M53 522c0 30.667 4.49707 59.1729 13.4971 85.5059s23.333 49 43 68s44.5 34 74.5 45s66 16.5 108 16.5s77.667 -5.5 107 -16.5s53 -25.167 71 -42.5s31 -36.333 39 -57s12 -41 12 -61c0 -17.333 -2.33301 -33.5 -7 -48.5s-10.834 -28.833 -18.501 -41.5
s-16.5 -23.5 -26.5 -32.5s-20.333 -15.833 -31 -20.5c21.333 -5.33301 41.333 -13.166 60 -23.499s35 -24 49 -41s25 -37.167 33 -60.5s12 -50.333 12 -81c0 -34.667 -6.16699 -65.834 -18.5 -93.501s-29.166 -51.334 -50.499 -71.001s-46.5 -34.667 -75.5 -45
s-60.167 -15.5 -93.5 -15.5s-61 3 -83 9s-35.333 10.333 -40 13l19 91c2 -1.33301 6 -2.83301 12 -4.5s13.167 -3.33398 21.5 -5.00098s17.333 -3.16699 27 -4.5s19.5 -2 29.5 -2c22.667 0 42.334 3.33301 59.001 10s30.5 16 41.5 28s19.167 26 24.5 42s8 33.333 8 52
c0 23.333 -3.83301 43.666 -11.5 60.999s-18.167 31.833 -31.5 43.5s-29.166 20.334 -47.499 26.001s-38.166 8.5 -59.499 8.5h-58v92h34c18 0 33.833 2.83301 47.5 8.5s25 13.167 34 22.5s15.667 20.166 20 32.499s6.5 25.5 6.5 39.5c0 28 -10.167 51.667 -30.5 71
s-49.166 29 -86.499 29c-23.333 0 -42.833 -3.33301 -58.5 -10s-28.334 -15.834 -38.001 -27.501s-16.667 -25.334 -21 -41.001s-6.5 -32.834 -6.5 -51.501v-519h-113v522z" />
    <glyph glyph-name="agrave" unicode="&#xe0;" horiz-adv-x="569" 
d="M510 2c-6.66699 -1.33301 -17.165 -2.8291 -31.498 -4.49609s-31.166 -3.33398 -50.499 -5.00098s-41 -3.16699 -65 -4.5s-49 -2 -75 -2c-52 0 -94.5 4.5 -127.5 13.5s-59 21 -78 36s-32 32.333 -39 52s-10.5 39.834 -10.5 60.501c0 27.333 4.16699 51.333 12.5 72
s22 38 41 52s43.833 24.5 74.5 31.5s68 10.5 112 10.5c25.333 0 49.333 -0.833008 72 -2.5s39.667 -3.16699 51 -4.5c0 23.333 -3.83301 42.666 -11.5 57.999s-18.167 27.333 -31.5 36s-29.333 14.667 -48 18s-39.334 5 -62.001 5c-38 0 -68.5 -4.33301 -91.5 -13
s-38.167 -16 -45.5 -22c-4 3.33301 -9.5 9.66602 -16.5 18.999s-10.5 20.666 -10.5 33.999c0 9.33301 2.5 18.5 7.5 27.5s13.833 17 26.5 24s29.667 12.5 51 16.5s48.333 6 81 6c39.333 0 75.166 -3.83301 107.499 -11.5s60.166 -19.834 83.499 -36.501
s41.5 -38.667 54.5 -66s19.5 -60.333 19.5 -99v-301zM397.002 224.004c-6.66699 1.33301 -19.166 3.33398 -37.499 6.00098s-45.833 4 -82.5 4c-45.333 0 -78.333 -6.83301 -99 -20.5s-31 -35.167 -31 -64.5c0 -12 2.16699 -23 6.5 -33s11.833 -18.5 22.5 -25.5
s25.167 -12.333 43.5 -16s41.166 -5.5 68.499 -5.5c30.667 0 55 1.16699 73 3.5s30 4.16602 36 5.49902v146zM177.003 659.005c0 2.66699 1.16992 7.33301 3.50293 14s5.66602 13.5 9.99902 20.5s10.166 13 17.499 18s16.666 7.5 27.999 7.5
c15.333 0 33.333 -7.33301 54 -22l109 -79l-37 -52z" />
    <glyph glyph-name="aacute" unicode="&#xe1;" horiz-adv-x="569" 
d="M510 2c-6.66699 -1.33301 -17.165 -2.8291 -31.498 -4.49609s-31.166 -3.33398 -50.499 -5.00098s-41 -3.16699 -65 -4.5s-49 -2 -75 -2c-52 0 -94.5 4.5 -127.5 13.5s-59 21 -78 36s-32 32.333 -39 52s-10.5 39.834 -10.5 60.501c0 27.333 4.16699 51.333 12.5 72
s22 38 41 52s43.833 24.5 74.5 31.5s68 10.5 112 10.5c25.333 0 49.333 -0.833008 72 -2.5s39.667 -3.16699 51 -4.5c0 23.333 -3.83301 42.666 -11.5 57.999s-18.167 27.333 -31.5 36s-29.333 14.667 -48 18s-39.334 5 -62.001 5c-38 0 -68.5 -4.33301 -91.5 -13
s-38.167 -16 -45.5 -22c-4 3.33301 -9.5 9.66602 -16.5 18.999s-10.5 20.666 -10.5 33.999c0 9.33301 2.5 18.5 7.5 27.5s13.833 17 26.5 24s29.667 12.5 51 16.5s48.333 6 81 6c39.333 0 75.166 -3.83301 107.499 -11.5s60.166 -19.834 83.499 -36.501
s41.5 -38.667 54.5 -66s19.5 -60.333 19.5 -99v-301zM397.002 224.004c-6.66699 1.33301 -19.166 3.33398 -37.499 6.00098s-45.833 4 -82.5 4c-45.333 0 -78.333 -6.83301 -99 -20.5s-31 -35.167 -31 -64.5c0 -12 2.16699 -23 6.5 -33s11.833 -18.5 22.5 -25.5
s25.167 -12.333 43.5 -16s41.166 -5.5 68.499 -5.5c30.667 0 55 1.16699 73 3.5s30 4.16602 36 5.49902v146zM200.003 618.005l109.001 79.001c10 7.33301 19.167 12.833 27.5 16.5s17.166 5.5 26.499 5.5c10.667 0 19.834 -2.5 27.501 -7.5s13.667 -11 18 -18
s7.66602 -13.833 9.99902 -20.5s3.5 -11.334 3.5 -14.001l-185 -93z" />
    <glyph glyph-name="acircumflex" unicode="&#xe2;" horiz-adv-x="569" 
d="M510 2c-6.66699 -1.33301 -17.165 -2.8291 -31.498 -4.49609s-31.166 -3.33398 -50.499 -5.00098s-41 -3.16699 -65 -4.5s-49 -2 -75 -2c-52 0 -94.5 4.5 -127.5 13.5s-59 21 -78 36s-32 32.333 -39 52s-10.5 39.834 -10.5 60.501c0 27.333 4.16699 51.333 12.5 72
s22 38 41 52s43.833 24.5 74.5 31.5s68 10.5 112 10.5c25.333 0 49.333 -0.833008 72 -2.5s39.667 -3.16699 51 -4.5c0 23.333 -3.83301 42.666 -11.5 57.999s-18.167 27.333 -31.5 36s-29.333 14.667 -48 18s-39.334 5 -62.001 5c-38 0 -68.5 -4.33301 -91.5 -13
s-38.167 -16 -45.5 -22c-4 3.33301 -9.5 9.66602 -16.5 18.999s-10.5 20.666 -10.5 33.999c0 9.33301 2.5 18.5 7.5 27.5s13.833 17 26.5 24s29.667 12.5 51 16.5s48.333 6 81 6c39.333 0 75.166 -3.83301 107.499 -11.5s60.166 -19.834 83.499 -36.501
s41.5 -38.667 54.5 -66s19.5 -60.333 19.5 -99v-301zM397.002 224.004c-6.66699 1.33301 -19.166 3.33398 -37.499 6.00098s-45.833 4 -82.5 4c-45.333 0 -78.333 -6.83301 -99 -20.5s-31 -35.167 -31 -64.5c0 -12 2.16699 -23 6.5 -33s11.833 -18.5 22.5 -25.5
s25.167 -12.333 43.5 -16s41.166 -5.5 68.499 -5.5c30.667 0 55 1.16699 73 3.5s30 4.16602 36 5.49902v146zM128.003 614.005l94 75c9.33301 7.33301 19.333 14.5 30 21.5s22 10.5 34 10.5s23.5 -3.33301 34.5 -10s21.167 -13.667 30.5 -21l93 -76l-41 -48l-117 72
l-117 -72z" />
    <glyph glyph-name="atilde" unicode="&#xe3;" horiz-adv-x="569" 
d="M510 2c-6.66699 -1.33301 -17.165 -2.8291 -31.498 -4.49609s-31.166 -3.33398 -50.499 -5.00098s-41 -3.16699 -65 -4.5s-49 -2 -75 -2c-52 0 -94.5 4.5 -127.5 13.5s-59 21 -78 36s-32 32.333 -39 52s-10.5 39.834 -10.5 60.501c0 27.333 4.16699 51.333 12.5 72
s22 38 41 52s43.833 24.5 74.5 31.5s68 10.5 112 10.5c25.333 0 49.333 -0.833008 72 -2.5s39.667 -3.16699 51 -4.5c0 23.333 -3.83301 42.666 -11.5 57.999s-18.167 27.333 -31.5 36s-29.333 14.667 -48 18s-39.334 5 -62.001 5c-38 0 -68.5 -4.33301 -91.5 -13
s-38.167 -16 -45.5 -22c-4 3.33301 -9.5 9.66602 -16.5 18.999s-10.5 20.666 -10.5 33.999c0 9.33301 2.5 18.5 7.5 27.5s13.833 17 26.5 24s29.667 12.5 51 16.5s48.333 6 81 6c39.333 0 75.166 -3.83301 107.499 -11.5s60.166 -19.834 83.499 -36.501
s41.5 -38.667 54.5 -66s19.5 -60.333 19.5 -99v-301zM397.002 224.004c-6.66699 1.33301 -19.166 3.33398 -37.499 6.00098s-45.833 4 -82.5 4c-45.333 0 -78.333 -6.83301 -99 -20.5s-31 -35.167 -31 -64.5c0 -12 2.16699 -23 6.5 -33s11.833 -18.5 22.5 -25.5
s25.167 -12.333 43.5 -16s41.166 -5.5 68.499 -5.5c30.667 0 55 1.16699 73 3.5s30 4.16602 36 5.49902v146zM123.003 587.005c2.66699 12.667 6.5 24.999 11.5 36.999s11.667 22.833 20 32.5s18.5 17.5 30.5 23.5s26.333 9 43 9c16 0 29.5 -1.5 40.5 -4.5l30.5 -8.5l24 -7
l20.5 -6c7 -2 14.5 -3 22.5 -3c10 0 17.833 2.83301 23.5 8.5s10.167 14.834 13.5 27.501l70 -13c-2.66699 -12.667 -6.5 -25 -11.5 -37s-11.667 -22.833 -20 -32.5s-18.5 -17.5 -30.5 -23.5s-26.333 -9 -43 -9c-14 0 -26.833 1.5 -38.5 4.5s-23.167 6.16699 -34.5 9.5
l-24 8c-14.667 5.33301 -28.334 8 -41.001 8c-10 0 -17.667 -3 -23 -9s-9.66602 -15.667 -12.999 -29z" />
    <glyph glyph-name="adieresis" unicode="&#xe4;" horiz-adv-x="569" 
d="M510 2c-6.66699 -1.33301 -17.165 -2.8291 -31.498 -4.49609s-31.166 -3.33398 -50.499 -5.00098s-41 -3.16699 -65 -4.5s-49 -2 -75 -2c-52 0 -94.5 4.5 -127.5 13.5s-59 21 -78 36s-32 32.333 -39 52s-10.5 39.834 -10.5 60.501c0 27.333 4.16699 51.333 12.5 72
s22 38 41 52s43.833 24.5 74.5 31.5s68 10.5 112 10.5c25.333 0 49.333 -0.833008 72 -2.5s39.667 -3.16699 51 -4.5c0 23.333 -3.83301 42.666 -11.5 57.999s-18.167 27.333 -31.5 36s-29.333 14.667 -48 18s-39.334 5 -62.001 5c-38 0 -68.5 -4.33301 -91.5 -13
s-38.167 -16 -45.5 -22c-4 3.33301 -9.5 9.66602 -16.5 18.999s-10.5 20.666 -10.5 33.999c0 9.33301 2.5 18.5 7.5 27.5s13.833 17 26.5 24s29.667 12.5 51 16.5s48.333 6 81 6c39.333 0 75.166 -3.83301 107.499 -11.5s60.166 -19.834 83.499 -36.501
s41.5 -38.667 54.5 -66s19.5 -60.333 19.5 -99v-301zM397.002 224.004c-6.66699 1.33301 -19.166 3.33398 -37.499 6.00098s-45.833 4 -82.5 4c-45.333 0 -78.333 -6.83301 -99 -20.5s-31 -35.167 -31 -64.5c0 -12 2.16699 -23 6.5 -33s11.833 -18.5 22.5 -25.5
s25.167 -12.333 43.5 -16s41.166 -5.5 68.499 -5.5c30.667 0 55 1.16699 73 3.5s30 4.16602 36 5.49902v146zM135.003 634.005c0 8 1.66699 15.667 5 23s8 13.833 14 19.5s12.833 10.167 20.5 13.5s15.834 5 24.501 5c17.333 0 32.166 -6.33301 44.499 -19
s18.5 -26.667 18.5 -42s-6.16699 -29.333 -18.5 -42s-27.166 -19 -44.499 -19c-8.66699 0 -16.834 1.66699 -24.501 5s-14.5 7.83301 -20.5 13.5s-10.667 12.167 -14 19.5s-5 15 -5 23zM394.003 695.005c17.333 0 32 -6.33301 44 -19s18 -26.667 18 -42s-6 -29.333 -18 -42
s-26.667 -19 -44 -19s-32.333 6.33301 -45 19s-19 26.667 -19 42s6.33301 29.333 19 42s27.667 19 45 19z" />
    <glyph glyph-name="aring" unicode="&#xe5;" horiz-adv-x="569" 
d="M510 2c-6.66699 -1.33301 -17.165 -2.8291 -31.498 -4.49609s-31.166 -3.33398 -50.499 -5.00098s-41 -3.16699 -65 -4.5s-49 -2 -75 -2c-52 0 -94.5 4.5 -127.5 13.5s-59 21 -78 36s-32 32.333 -39 52s-10.5 39.834 -10.5 60.501c0 27.333 4.16699 51.333 12.5 72
s22 38 41 52s43.833 24.5 74.5 31.5s68 10.5 112 10.5c25.333 0 49.333 -0.833008 72 -2.5s39.667 -3.16699 51 -4.5c0 23.333 -3.83301 42.666 -11.5 57.999s-18.167 27.333 -31.5 36s-29.333 14.667 -48 18s-39.334 5 -62.001 5c-38 0 -68.5 -4.33301 -91.5 -13
s-38.167 -16 -45.5 -22c-4 3.33301 -9.5 9.66602 -16.5 18.999s-10.5 20.666 -10.5 33.999c0 9.33301 2.5 18.5 7.5 27.5s13.833 17 26.5 24s29.667 12.5 51 16.5s48.333 6 81 6c39.333 0 75.166 -3.83301 107.499 -11.5s60.166 -19.834 83.499 -36.501
s41.5 -38.667 54.5 -66s19.5 -60.333 19.5 -99v-301zM397.002 224.004c-6.66699 1.33301 -19.166 3.33398 -37.499 6.00098s-45.833 4 -82.5 4c-45.333 0 -78.333 -6.83301 -99 -20.5s-31 -35.167 -31 -64.5c0 -12 2.16699 -23 6.5 -33s11.833 -18.5 22.5 -25.5
s25.167 -12.333 43.5 -16s41.166 -5.5 68.499 -5.5c30.667 0 55 1.16699 73 3.5s30 4.16602 36 5.49902v146zM287.003 761.005c14 0 27.333 -2.66699 40 -8s23.667 -12.666 33 -21.999s16.666 -20 21.999 -32s8 -25 8 -39s-2.66699 -27 -8 -39s-12.666 -22.667 -21.999 -32
s-20.333 -16.666 -33 -21.999s-26 -8 -40 -8s-27.333 2.66699 -40 8s-23.667 12.666 -33 21.999s-16.666 20 -21.999 32s-8 25 -8 39s2.66699 27 8 39s12.666 22.667 21.999 32s20.333 16.666 33 21.999s26 8 40 8zM336.003 660.005c0 14.667 -4.5 26.834 -13.5 36.501
s-20.833 14.5 -35.5 14.5s-26.5 -4.83301 -35.5 -14.5s-13.5 -21.834 -13.5 -36.501c0 -15.333 4.5 -27.833 13.5 -37.5s20.833 -14.5 35.5 -14.5s26.5 4.83301 35.5 14.5s13.5 22.167 13.5 37.5z" />
    <glyph glyph-name="ae" unicode="&#xe6;" horiz-adv-x="907" 
d="M426 110c-5.33301 9.33301 -11.8311 24.6689 -19.498 46.002s-11.834 44.333 -12.501 69c-6.66699 1.33301 -20.334 3.16602 -41.001 5.49902s-46 3.5 -76 3.5c-45.333 0 -78.333 -6.83301 -99 -20.5s-31 -35.167 -31 -64.5c0 -24 9.33301 -43.333 28 -58
s52.667 -22 102 -22c21.333 0 40.833 2 58.5 6s33 8.33301 46 13s23.333 9.16699 31 13.5s12.167 7.16602 13.5 8.49902zM861.002 37.0029c-5.33301 -3.33301 -13.668 -7.83105 -25.001 -13.498s-25 -11.167 -41 -16.5s-34.333 -10 -55 -14s-43.334 -6 -68.001 -6
c-42.667 0 -80.834 6.16699 -114.501 18.5s-58.834 25.166 -75.501 38.499c-1.33301 -1.33301 -7.16602 -5.16602 -17.499 -11.499s-24.666 -13 -42.999 -20s-40.333 -13.167 -66 -18.5s-54.834 -8 -87.501 -8c-46.667 0 -85.167 4.5 -115.5 13.5s-54.333 21 -72 36
s-30 32.333 -37 52s-10.5 39.834 -10.5 60.501c0 27.333 4.16699 51.333 12.5 72s21.833 38 40.5 52s42.834 24.667 72.501 32s65.834 11 108.501 11c13.333 0 27.166 -0.5 41.499 -1.5s27.5 -2 39.5 -3s22.5 -2 31.5 -3s14.833 -1.83301 17.5 -2.5
c0 22.667 -3.83301 41.667 -11.5 57s-18.167 27.666 -31.5 36.999s-29.5 16 -48.5 20s-39.833 6 -62.5 6c-40 0 -71 -4.5 -93 -13.5s-36.667 -16.5 -44 -22.5c-4 3.33301 -9.5 9.66602 -16.5 18.999s-10.5 20.666 -10.5 33.999c0 10 2.66699 19.5 8 28.5
s14.333 16.833 27 23.5s29.667 12 51 16s48 6 80 6c63.333 0 113.166 -9.16699 149.499 -27.5s60.5 -39.833 72.5 -64.5c8 10.667 18.667 21.5 32 32.5s28.833 21 46.5 30s37.334 16.167 59.001 21.5s44.5 8 68.5 8c33.333 0 62.833 -4.33301 88.5 -13
s47.334 -20.5 65.001 -35.5s31 -32.5 40 -52.5s13.5 -41.667 13.5 -65s-4.33301 -44.333 -13 -63s-23.167 -34.667 -43.5 -48s-47.333 -23.666 -81 -30.999s-75.167 -11 -124.5 -11c-22 0 -43.333 0.666992 -64 2s-34 2.66602 -40 3.99902c4 -36.667 20.167 -66 48.5 -88
s68.5 -33 120.5 -33c17.333 0 33.333 1.33301 48 4s27.834 6 39.501 10s21.5 8 29.5 12l18 9zM510 280.005c5.33301 -0.666992 15.501 -1.49902 30.501 -2.49902s28.833 -1.5 41.5 -1.5c40 0 72.333 2 97 6s43.667 9.5 57 16.5s22.166 15.167 26.499 24.5s6.5 19 6.5 29
c0 25.333 -10.333 44.333 -31 57s-46 19 -76 19c-24 0 -45.5 -4.16699 -64.5 -12.5s-35 -19.5 -48 -33.5s-22.833 -29.833 -29.5 -47.5s-10 -35.834 -10 -54.501z" />
    <glyph glyph-name="ccedilla" unicode="&#xe7;" horiz-adv-x="501" 
d="M494 36c-8 -5.33301 -17.8311 -10.834 -29.498 -16.501s-25 -11 -40 -16s-32 -9.16699 -51 -12.5s-40.5 -5 -64.5 -5c-37.333 0 -72.333 5.66699 -105 17s-61.334 28.166 -86.001 50.499s-44.167 49.833 -58.5 82.5s-21.5 70.334 -21.5 113.001s7 80.667 21 114
s33.333 61.333 58 84s53.834 39.834 87.501 51.501s69.834 17.5 108.501 17.5c32.667 0 60.5 -2.66699 83.5 -8s41.667 -12 56 -20s24.666 -17 30.999 -27s9.5 -20 9.5 -30c0 -13.333 -4.5 -25.666 -13.5 -36.999s-17.5 -20 -25.5 -26c-12 11.333 -29.333 22.166 -52 32.499
s-50.667 15.5 -84 15.5c-22.667 0 -43.834 -3.33301 -63.501 -10s-36.667 -16.834 -51 -30.501s-25.666 -30.667 -33.999 -51s-12.5 -44.5 -12.5 -72.5c0 -29.333 4.33301 -54.333 13 -75s20.667 -37.667 36 -51s33 -23.166 53 -29.499s41.667 -9.5 65 -9.5
c33.333 0 60.166 4.5 80.499 13.5s34.166 15.833 41.499 20.5zM173.002 -132.001c0.666992 -0.666992 3.33105 -1.99805 7.99805 -3.99805s10.5 -4.16699 17.5 -6.5s14.833 -4.33301 23.5 -6s18 -2.5 28 -2.5c14 0 24.833 2.33301 32.5 7s11.5 12.667 11.5 24
c0 6.66699 -1.83301 12.167 -5.5 16.5s-8.33398 7.83301 -14.001 10.5s-11.667 4.66699 -18 6s-12.166 2 -17.499 2l15 52c14 -0.666992 28.167 -2.66699 42.5 -6s27.5 -8.33301 39.5 -15s21.833 -15.334 29.5 -26.001s11.5 -23.334 11.5 -38.001
c0 -28.667 -10.667 -51.334 -32 -68.001s-50 -25 -86 -25c-17.333 0 -32.666 1.16699 -45.999 3.5s-24.666 5 -33.999 8s-16.5 5.83301 -21.5 8.5s-7.83301 4.33398 -8.5 5.00098z" />
    <glyph glyph-name="egrave" unicode="&#xe8;" horiz-adv-x="551" 
d="M505 37c-5.33301 -3.33301 -13.6709 -7.99707 -25.0039 -13.9971s-25.5 -11.667 -42.5 -17s-36.667 -10 -59 -14s-46.833 -6 -73.5 -6c-37.333 0 -72.166 5.66699 -104.499 17s-60.666 28.166 -84.999 50.499s-43.5 49.666 -57.5 81.999s-21 69.5 -21 111.5
c0 40 6.83301 76.5 20.5 109.5s32.667 61.333 57 85s53 42 86 55s69.167 19.5 108.5 19.5c34.667 0 65.334 -4.5 92.001 -13.5s49.167 -21 67.5 -36s32.166 -32.5 41.499 -52.5s14 -41.333 14 -64c0 -23.333 -4.33301 -44.5 -13 -63.5s-24 -35.333 -46 -49
s-51.667 -24.334 -89 -32.001s-84.666 -11.5 -141.999 -11.5c-13.333 0 -25.833 0.166992 -37.5 0.5s-24.167 0.833008 -37.5 1.5c5.33301 -34 21.833 -61.5 49.5 -82.5s67.167 -31.5 118.5 -31.5c17.333 0 33.333 1.33301 48 4s27.834 6 39.501 10s21.667 8 30 12l18.5 9z
M153.995 274.003c15.333 -0.666992 30 -0.999023 44 -0.999023h42c36.667 0 66.334 2.33301 89.001 7s40.334 10.667 53.001 18s21 15.666 25 24.999s6 19 6 29c0 25.333 -10.167 44.333 -30.5 57s-45.5 19 -75.5 19c-24.667 0 -46.334 -4.33301 -65.001 -13
s-34.334 -20.167 -47.001 -34.5s-22.5 -30.833 -29.5 -49.5s-10.833 -37.667 -11.5 -57zM190.995 659.004c0 2.66699 1.16992 7.33301 3.50293 14s5.66602 13.5 9.99902 20.5s10.166 13 17.499 18s16.666 7.5 27.999 7.5c15.333 0 33.333 -7.33301 54 -22l109 -79l-37 -52z
" />
    <glyph glyph-name="eacute" unicode="&#xe9;" horiz-adv-x="551" 
d="M505 37c-5.33301 -3.33301 -13.6709 -7.99707 -25.0039 -13.9971s-25.5 -11.667 -42.5 -17s-36.667 -10 -59 -14s-46.833 -6 -73.5 -6c-37.333 0 -72.166 5.66699 -104.499 17s-60.666 28.166 -84.999 50.499s-43.5 49.666 -57.5 81.999s-21 69.5 -21 111.5
c0 40 6.83301 76.5 20.5 109.5s32.667 61.333 57 85s53 42 86 55s69.167 19.5 108.5 19.5c34.667 0 65.334 -4.5 92.001 -13.5s49.167 -21 67.5 -36s32.166 -32.5 41.499 -52.5s14 -41.333 14 -64c0 -23.333 -4.33301 -44.5 -13 -63.5s-24 -35.333 -46 -49
s-51.667 -24.334 -89 -32.001s-84.666 -11.5 -141.999 -11.5c-13.333 0 -25.833 0.166992 -37.5 0.5s-24.167 0.833008 -37.5 1.5c5.33301 -34 21.833 -61.5 49.5 -82.5s67.167 -31.5 118.5 -31.5c17.333 0 33.333 1.33301 48 4s27.834 6 39.501 10s21.667 8 30 12l18.5 9z
M153.995 274.003c15.333 -0.666992 30 -0.999023 44 -0.999023h42c36.667 0 66.334 2.33301 89.001 7s40.334 10.667 53.001 18s21 15.666 25 24.999s6 19 6 29c0 25.333 -10.167 44.333 -30.5 57s-45.5 19 -75.5 19c-24.667 0 -46.334 -4.33301 -65.001 -13
s-34.334 -20.167 -47.001 -34.5s-22.5 -30.833 -29.5 -49.5s-10.833 -37.667 -11.5 -57zM218.995 618.004l109.001 79.001c10 7.33301 19.167 12.833 27.5 16.5s17.166 5.5 26.499 5.5c10.667 0 19.834 -2.5 27.501 -7.5s13.667 -11 18 -18s7.66602 -13.833 9.99902 -20.5
s3.5 -11.334 3.5 -14.001l-185 -93z" />
    <glyph glyph-name="ecircumflex" unicode="&#xea;" horiz-adv-x="551" 
d="M505 37c-5.33301 -3.33301 -13.6709 -7.99707 -25.0039 -13.9971s-25.5 -11.667 -42.5 -17s-36.667 -10 -59 -14s-46.833 -6 -73.5 -6c-37.333 0 -72.166 5.66699 -104.499 17s-60.666 28.166 -84.999 50.499s-43.5 49.666 -57.5 81.999s-21 69.5 -21 111.5
c0 40 6.83301 76.5 20.5 109.5s32.667 61.333 57 85s53 42 86 55s69.167 19.5 108.5 19.5c34.667 0 65.334 -4.5 92.001 -13.5s49.167 -21 67.5 -36s32.166 -32.5 41.499 -52.5s14 -41.333 14 -64c0 -23.333 -4.33301 -44.5 -13 -63.5s-24 -35.333 -46 -49
s-51.667 -24.334 -89 -32.001s-84.666 -11.5 -141.999 -11.5c-13.333 0 -25.833 0.166992 -37.5 0.5s-24.167 0.833008 -37.5 1.5c5.33301 -34 21.833 -61.5 49.5 -82.5s67.167 -31.5 118.5 -31.5c17.333 0 33.333 1.33301 48 4s27.834 6 39.501 10s21.667 8 30 12l18.5 9z
M153.995 274.003c15.333 -0.666992 30 -0.999023 44 -0.999023h42c36.667 0 66.334 2.33301 89.001 7s40.334 10.667 53.001 18s21 15.666 25 24.999s6 19 6 29c0 25.333 -10.167 44.333 -30.5 57s-45.5 19 -75.5 19c-24.667 0 -46.334 -4.33301 -65.001 -13
s-34.334 -20.167 -47.001 -34.5s-22.5 -30.833 -29.5 -49.5s-10.833 -37.667 -11.5 -57zM147.995 614.004l94 75c9.33301 7.33301 19.333 14.5 30 21.5s22 10.5 34 10.5s23.5 -3.33301 34.5 -10s21.167 -13.667 30.5 -21l93 -76l-41 -48l-117 72l-117 -72z" />
    <glyph glyph-name="edieresis" unicode="&#xeb;" horiz-adv-x="551" 
d="M505 37c-5.33301 -3.33301 -13.6709 -7.99707 -25.0039 -13.9971s-25.5 -11.667 -42.5 -17s-36.667 -10 -59 -14s-46.833 -6 -73.5 -6c-37.333 0 -72.166 5.66699 -104.499 17s-60.666 28.166 -84.999 50.499s-43.5 49.666 -57.5 81.999s-21 69.5 -21 111.5
c0 40 6.83301 76.5 20.5 109.5s32.667 61.333 57 85s53 42 86 55s69.167 19.5 108.5 19.5c34.667 0 65.334 -4.5 92.001 -13.5s49.167 -21 67.5 -36s32.166 -32.5 41.499 -52.5s14 -41.333 14 -64c0 -23.333 -4.33301 -44.5 -13 -63.5s-24 -35.333 -46 -49
s-51.667 -24.334 -89 -32.001s-84.666 -11.5 -141.999 -11.5c-13.333 0 -25.833 0.166992 -37.5 0.5s-24.167 0.833008 -37.5 1.5c5.33301 -34 21.833 -61.5 49.5 -82.5s67.167 -31.5 118.5 -31.5c17.333 0 33.333 1.33301 48 4s27.834 6 39.501 10s21.667 8 30 12l18.5 9z
M153.995 274.003c15.333 -0.666992 30 -0.999023 44 -0.999023h42c36.667 0 66.334 2.33301 89.001 7s40.334 10.667 53.001 18s21 15.666 25 24.999s6 19 6 29c0 25.333 -10.167 44.333 -30.5 57s-45.5 19 -75.5 19c-24.667 0 -46.334 -4.33301 -65.001 -13
s-34.334 -20.167 -47.001 -34.5s-22.5 -30.833 -29.5 -49.5s-10.833 -37.667 -11.5 -57zM142.995 634.004c0 8 1.66699 15.667 5 23s8 13.833 14 19.5s12.833 10.167 20.5 13.5s15.834 5 24.501 5c17.333 0 32.166 -6.33301 44.499 -19s18.5 -26.667 18.5 -42
s-6.16699 -29.333 -18.5 -42s-27.166 -19 -44.499 -19c-8.66699 0 -16.834 1.66699 -24.501 5s-14.5 7.83301 -20.5 13.5s-10.667 12.167 -14 19.5s-5 15 -5 23zM401.995 695.004c17.333 0 32 -6.33301 44 -19s18 -26.667 18 -42s-6 -29.333 -18 -42s-26.667 -19 -44 -19
s-32.333 6.33301 -45 19s-19 26.667 -19 42s6.33301 29.333 19 42s27.667 19 45 19z" />
    <glyph glyph-name="igrave" unicode="&#xec;" horiz-adv-x="241" 
d="M63 449c0 18.667 5.33301 32.167 16 40.5s25.667 12.5 45 12.5c12 0 23 -1.5 33 -4.5s16.667 -5.16699 20 -6.5v-491h-114v449zM6 659c0 2.66699 1.16992 7.33301 3.50293 14s5.66602 13.5 9.99902 20.5s10.166 13 17.499 18s16.666 7.5 27.999 7.5
c15.333 0 33.333 -7.33301 54 -22l109 -79l-37 -52z" />
    <glyph glyph-name="iacute" unicode="&#xed;" horiz-adv-x="241" 
d="M63 449c0 18.667 5.33301 32.167 16 40.5s25.667 12.5 45 12.5c12 0 23 -1.5 33 -4.5s16.667 -5.16699 20 -6.5v-491h-114v449zM27 618l109.001 79.001c10 7.33301 19.167 12.833 27.5 16.5s17.166 5.5 26.499 5.5c10.667 0 19.834 -2.5 27.501 -7.5s13.667 -11 18 -18
s7.66602 -13.833 9.99902 -20.5s3.5 -11.334 3.5 -14.001l-185 -93z" />
    <glyph glyph-name="icircumflex" unicode="&#xee;" horiz-adv-x="241" 
d="M63 449c0 18.667 5.33301 32.167 16 40.5s25.667 12.5 45 12.5c12 0 23 -1.5 33 -4.5s16.667 -5.16699 20 -6.5v-491h-114v449zM-30 614l94 75c9.33301 7.33301 19.333 14.5 30 21.5s22 10.5 34 10.5s23.5 -3.33301 34.5 -10s21.167 -13.667 30.5 -21l93 -76l-41 -48
l-117 72l-117 -72z" />
    <glyph glyph-name="idieresis" unicode="&#xef;" horiz-adv-x="241" 
d="M63 449c0 18.667 5.33301 32.167 16 40.5s25.667 12.5 45 12.5c12 0 23 -1.5 33 -4.5s16.667 -5.16699 20 -6.5v-491h-114v449zM-33 634c0 8 1.66699 15.667 5 23s8 13.833 14 19.5s12.833 10.167 20.5 13.5s15.834 5 24.501 5c17.333 0 32.166 -6.33301 44.499 -19
s18.5 -26.667 18.5 -42s-6.16699 -29.333 -18.5 -42s-27.166 -19 -44.499 -19c-8.66699 0 -16.834 1.66699 -24.501 5s-14.5 7.83301 -20.5 13.5s-10.667 12.167 -14 19.5s-5 15 -5 23zM226 695c17.333 0 32 -6.33301 44 -19s18 -26.667 18 -42s-6 -29.333 -18 -42
s-26.667 -19 -44 -19s-32.333 6.33301 -45 19s-19 26.667 -19 42s6.33301 29.333 19 42s27.667 19 45 19z" />
    <glyph glyph-name="eth" unicode="&#xf0;" horiz-adv-x="626" 
d="M154 569l107.997 59c-13.333 7.33301 -26.833 14 -40.5 20s-27.834 11.667 -42.501 17l33 72c50.667 -16 97.334 -36 140.001 -60l110 60l32 -59l-81 -44c54.667 -44 97.5 -96.333 128.5 -157s46.5 -128.334 46.5 -203.001c0 -48 -6.66699 -90 -20 -126s-32 -66 -56 -90
s-53 -42 -87 -54s-71.333 -18 -112 -18s-77.834 5.83301 -111.501 17.5s-62.667 28.334 -87 50.001s-43.166 47.5 -56.499 77.5s-20 63.333 -20 100s6.66699 70 20 100s31.166 55.5 53.499 76.5s48.5 37.333 78.5 49s62 17.5 96 17.5c20.667 0 39.834 -1.83301 57.501 -5.5
s33.334 -8.5 47.001 -14.5s25.334 -12.5 35.001 -19.5s17.167 -13.833 22.5 -20.5c-6 24 -19.167 51.667 -39.5 83s-48.166 61 -83.499 89l-138 -76zM312.997 79c23.333 0 44.6641 3.83301 63.9971 11.5s35.833 18.167 49.5 31.5s24.167 29.333 31.5 48s11 39 11 61
s-3.66699 42.333 -11 61s-17.833 34.834 -31.5 48.501s-30.167 24.167 -49.5 31.5s-40.666 11 -63.999 11s-44.666 -3.66699 -63.999 -11s-35.833 -17.833 -49.5 -31.5s-24.167 -29.834 -31.5 -48.501s-11 -39 -11 -61s3.83301 -42.333 11.5 -61s18.334 -34.667 32.001 -48
s30 -23.833 49 -31.5s40.167 -11.5 63.5 -11.5z" />
    <glyph glyph-name="ntilde" unicode="&#xf1;" horiz-adv-x="604" 
d="M58 303c0 33.333 6.16602 63.166 18.499 89.499s29.333 48.666 51 66.999s47.334 32.333 77.001 42s62.167 14.5 97.5 14.5s68 -4.83301 98 -14.5s55.833 -23.667 77.5 -42s38.5 -40.666 50.5 -66.999s18 -56.166 18 -89.499v-303h-114v274
c0 45.333 -11 79.833 -33 103.5s-54.333 35.5 -97 35.5c-43.333 0 -75.833 -11.833 -97.5 -35.5s-32.5 -58.167 -32.5 -103.5v-274h-114v303zM126.999 587c2.66699 12.667 6.5 24.999 11.5 36.999s11.667 22.833 20 32.5s18.5 17.5 30.5 23.5s26.333 9 43 9
c16 0 29.5 -1.5 40.5 -4.5l30.5 -8.5l24 -7l20.5 -6c7 -2 14.5 -3 22.5 -3c10 0 17.833 2.83301 23.5 8.5s10.167 14.834 13.5 27.501l70 -13c-2.66699 -12.667 -6.5 -25 -11.5 -37s-11.667 -22.833 -20 -32.5s-18.5 -17.5 -30.5 -23.5s-26.333 -9 -43 -9
c-14 0 -26.833 1.5 -38.5 4.5s-23.167 6.16699 -34.5 9.5l-24 8c-14.667 5.33301 -28.334 8 -41.001 8c-10 0 -17.667 -3 -23 -9s-9.66602 -15.667 -12.999 -29z" />
    <glyph glyph-name="ograve" unicode="&#xf2;" horiz-adv-x="626" 
d="M313 516c38.667 0 74.834 -6.66699 108.501 -20s62.834 -31.833 87.501 -55.5s44 -51.667 58 -84s21 -67.5 21 -105.5c0 -37.333 -7 -72.166 -21 -104.499s-33.333 -60.333 -58 -84s-53.834 -42.334 -87.501 -56.001s-69.834 -20.5 -108.501 -20.5
s-74.834 6.83301 -108.501 20.5s-62.834 32.334 -87.501 56.001s-44 51.667 -58 84s-21 67.166 -21 104.499c0 38 7 73.167 21 105.5s33.333 60.333 58 84s53.834 42.167 87.501 55.5s69.834 20 108.501 20zM313 87c22.667 0 43.667 4.16699 63 12.5s35.833 20 49.5 35
s24.334 32.333 32.001 52s11.5 41.167 11.5 64.5s-3.83301 45.166 -11.5 65.499s-18.334 37.833 -32.001 52.5s-30.167 26.167 -49.5 34.5s-40.333 12.5 -63 12.5c-23.333 0 -44.5 -4.16699 -63.5 -12.5s-35.333 -19.833 -49 -34.5s-24.334 -32.167 -32.001 -52.5
s-11.5 -42.166 -11.5 -65.499s3.83301 -44.833 11.5 -64.5s18.334 -37 32.001 -52s30 -26.667 49 -35s40.167 -12.5 63.5 -12.5zM190 659c0 2.66699 1.16992 7.33301 3.50293 14s5.66602 13.5 9.99902 20.5s10.166 13 17.499 18s16.666 7.5 27.999 7.5
c15.333 0 33.333 -7.33301 54 -22l109 -79l-37 -52z" />
    <glyph glyph-name="oacute" unicode="&#xf3;" horiz-adv-x="626" 
d="M313 516c38.667 0 74.834 -6.66699 108.501 -20s62.834 -31.833 87.501 -55.5s44 -51.667 58 -84s21 -67.5 21 -105.5c0 -37.333 -7 -72.166 -21 -104.499s-33.333 -60.333 -58 -84s-53.834 -42.334 -87.501 -56.001s-69.834 -20.5 -108.501 -20.5
s-74.834 6.83301 -108.501 20.5s-62.834 32.334 -87.501 56.001s-44 51.667 -58 84s-21 67.166 -21 104.499c0 38 7 73.167 21 105.5s33.333 60.333 58 84s53.834 42.167 87.501 55.5s69.834 20 108.501 20zM313 87c22.667 0 43.667 4.16699 63 12.5s35.833 20 49.5 35
s24.334 32.333 32.001 52s11.5 41.167 11.5 64.5s-3.83301 45.166 -11.5 65.499s-18.334 37.833 -32.001 52.5s-30.167 26.167 -49.5 34.5s-40.333 12.5 -63 12.5c-23.333 0 -44.5 -4.16699 -63.5 -12.5s-35.333 -19.833 -49 -34.5s-24.334 -32.167 -32.001 -52.5
s-11.5 -42.166 -11.5 -65.499s3.83301 -44.833 11.5 -64.5s18.334 -37 32.001 -52s30 -26.667 49 -35s40.167 -12.5 63.5 -12.5zM223 618l109.001 79.001c10 7.33301 19.167 12.833 27.5 16.5s17.166 5.5 26.499 5.5c10.667 0 19.834 -2.5 27.501 -7.5s13.667 -11 18 -18
s7.66602 -13.833 9.99902 -20.5s3.5 -11.334 3.5 -14.001l-185 -93z" />
    <glyph glyph-name="ocircumflex" unicode="&#xf4;" horiz-adv-x="626" 
d="M313 516c38.667 0 74.834 -6.66699 108.501 -20s62.834 -31.833 87.501 -55.5s44 -51.667 58 -84s21 -67.5 21 -105.5c0 -37.333 -7 -72.166 -21 -104.499s-33.333 -60.333 -58 -84s-53.834 -42.334 -87.501 -56.001s-69.834 -20.5 -108.501 -20.5
s-74.834 6.83301 -108.501 20.5s-62.834 32.334 -87.501 56.001s-44 51.667 -58 84s-21 67.166 -21 104.499c0 38 7 73.167 21 105.5s33.333 60.333 58 84s53.834 42.167 87.501 55.5s69.834 20 108.501 20zM313 87c22.667 0 43.667 4.16699 63 12.5s35.833 20 49.5 35
s24.334 32.333 32.001 52s11.5 41.167 11.5 64.5s-3.83301 45.166 -11.5 65.499s-18.334 37.833 -32.001 52.5s-30.167 26.167 -49.5 34.5s-40.333 12.5 -63 12.5c-23.333 0 -44.5 -4.16699 -63.5 -12.5s-35.333 -19.833 -49 -34.5s-24.334 -32.167 -32.001 -52.5
s-11.5 -42.166 -11.5 -65.499s3.83301 -44.833 11.5 -64.5s18.334 -37 32.001 -52s30 -26.667 49 -35s40.167 -12.5 63.5 -12.5zM155 614l94 75c9.33301 7.33301 19.333 14.5 30 21.5s22 10.5 34 10.5s23.5 -3.33301 34.5 -10s21.167 -13.667 30.5 -21l93 -76l-41 -48
l-117 72l-117 -72z" />
    <glyph glyph-name="otilde" unicode="&#xf5;" horiz-adv-x="626" 
d="M313 516c38.667 0 74.834 -6.66699 108.501 -20s62.834 -31.833 87.501 -55.5s44 -51.667 58 -84s21 -67.5 21 -105.5c0 -37.333 -7 -72.166 -21 -104.499s-33.333 -60.333 -58 -84s-53.834 -42.334 -87.501 -56.001s-69.834 -20.5 -108.501 -20.5
s-74.834 6.83301 -108.501 20.5s-62.834 32.334 -87.501 56.001s-44 51.667 -58 84s-21 67.166 -21 104.499c0 38 7 73.167 21 105.5s33.333 60.333 58 84s53.834 42.167 87.501 55.5s69.834 20 108.501 20zM313 87c22.667 0 43.667 4.16699 63 12.5s35.833 20 49.5 35
s24.334 32.333 32.001 52s11.5 41.167 11.5 64.5s-3.83301 45.166 -11.5 65.499s-18.334 37.833 -32.001 52.5s-30.167 26.167 -49.5 34.5s-40.333 12.5 -63 12.5c-23.333 0 -44.5 -4.16699 -63.5 -12.5s-35.333 -19.833 -49 -34.5s-24.334 -32.167 -32.001 -52.5
s-11.5 -42.166 -11.5 -65.499s3.83301 -44.833 11.5 -64.5s18.334 -37 32.001 -52s30 -26.667 49 -35s40.167 -12.5 63.5 -12.5zM138 587c2.66699 12.667 6.5 24.999 11.5 36.999s11.667 22.833 20 32.5s18.5 17.5 30.5 23.5s26.333 9 43 9c16 0 29.5 -1.5 40.5 -4.5
l30.5 -8.5l24 -7l20.5 -6c7 -2 14.5 -3 22.5 -3c10 0 17.833 2.83301 23.5 8.5s10.167 14.834 13.5 27.501l70 -13c-2.66699 -12.667 -6.5 -25 -11.5 -37s-11.667 -22.833 -20 -32.5s-18.5 -17.5 -30.5 -23.5s-26.333 -9 -43 -9c-14 0 -26.833 1.5 -38.5 4.5
s-23.167 6.16699 -34.5 9.5l-24 8c-14.667 5.33301 -28.334 8 -41.001 8c-10 0 -17.667 -3 -23 -9s-9.66602 -15.667 -12.999 -29z" />
    <glyph glyph-name="odieresis" unicode="&#xf6;" horiz-adv-x="626" 
d="M313 516c38.667 0 74.834 -6.66699 108.501 -20s62.834 -31.833 87.501 -55.5s44 -51.667 58 -84s21 -67.5 21 -105.5c0 -37.333 -7 -72.166 -21 -104.499s-33.333 -60.333 -58 -84s-53.834 -42.334 -87.501 -56.001s-69.834 -20.5 -108.501 -20.5
s-74.834 6.83301 -108.501 20.5s-62.834 32.334 -87.501 56.001s-44 51.667 -58 84s-21 67.166 -21 104.499c0 38 7 73.167 21 105.5s33.333 60.333 58 84s53.834 42.167 87.501 55.5s69.834 20 108.501 20zM313 87c22.667 0 43.667 4.16699 63 12.5s35.833 20 49.5 35
s24.334 32.333 32.001 52s11.5 41.167 11.5 64.5s-3.83301 45.166 -11.5 65.499s-18.334 37.833 -32.001 52.5s-30.167 26.167 -49.5 34.5s-40.333 12.5 -63 12.5c-23.333 0 -44.5 -4.16699 -63.5 -12.5s-35.333 -19.833 -49 -34.5s-24.334 -32.167 -32.001 -52.5
s-11.5 -42.166 -11.5 -65.499s3.83301 -44.833 11.5 -64.5s18.334 -37 32.001 -52s30 -26.667 49 -35s40.167 -12.5 63.5 -12.5zM152 634c0 8 1.66699 15.667 5 23s8 13.833 14 19.5s12.833 10.167 20.5 13.5s15.834 5 24.501 5c17.333 0 32.166 -6.33301 44.499 -19
s18.5 -26.667 18.5 -42s-6.16699 -29.333 -18.5 -42s-27.166 -19 -44.499 -19c-8.66699 0 -16.834 1.66699 -24.501 5s-14.5 7.83301 -20.5 13.5s-10.667 12.167 -14 19.5s-5 15 -5 23zM411 695c17.333 0 32 -6.33301 44 -19s18 -26.667 18 -42s-6 -29.333 -18 -42
s-26.667 -19 -44 -19s-32.333 6.33301 -45 19s-19 26.667 -19 42s6.33301 29.333 19 42s27.667 19 45 19z" />
    <glyph glyph-name="divide" unicode="&#xf7;" horiz-adv-x="633" 
d="M525 393c19.333 0 33 -4.99805 41 -14.998s12 -23.667 12 -41c0 -12 -1.5 -22.667 -4.5 -32s-5.16699 -15.666 -6.5 -18.999h-459c-19.333 0 -33 5.16699 -41 15.5s-12 24.166 -12 41.499c0 11.333 1.5 21.666 4.5 30.999s5.16699 15.666 6.5 18.999h459zM318 607.002
c20.667 0 38.167 -7.16699 52.5 -21.5s21.5 -31.833 21.5 -52.5s-7.16699 -38.334 -21.5 -53.001s-31.833 -22 -52.5 -22c-21.333 0 -39.166 7.33301 -53.499 22s-21.5 32.334 -21.5 53.001s7.16699 38.167 21.5 52.5s32.166 21.5 53.499 21.5zM318 221.002
c20.667 0 38.167 -7.33301 52.5 -22s21.5 -32.334 21.5 -53.001s-7.16699 -38.167 -21.5 -52.5s-31.833 -21.5 -52.5 -21.5c-21.333 0 -39.166 7.16699 -53.499 21.5s-21.5 31.833 -21.5 52.5s7.16699 38.334 21.5 53.001s32.166 22 53.499 22z" />
    <glyph glyph-name="oslash" unicode="&#xf8;" horiz-adv-x="626" 
d="M156 31c-36 24 -64.667 55 -86 93s-32 80.333 -32 127c0 38 7 73.167 21 105.5s33.333 60.333 58 84s53.834 42.167 87.501 55.5s69.834 20 108.501 20c31.333 0 62.333 -5.33301 93 -16l20 40c5.33301 10 11.333 17.833 18 23.5s15.667 8.5 27 8.5
c12 0 22.5 -2.33301 31.5 -7s14.5 -8 16.5 -10l-47 -86c36 -24 64.333 -54.833 85 -92.5s31 -79.5 31 -125.5c0 -37.333 -7 -72.166 -21 -104.499s-33.333 -60.333 -58 -84s-53.834 -42.334 -87.501 -56.001s-69.834 -20.5 -108.501 -20.5c-30.667 0 -60.667 4.66699 -90 14
l-37 -69h-82zM358 409c-14 5.33301 -29.002 7.99902 -45.002 7.99902c-23.333 0 -44.666 -4.16699 -63.999 -12.5s-36 -20 -50 -35s-24.833 -32.667 -32.5 -53s-11.5 -42.166 -11.5 -65.499c0 -25.333 4.33301 -48.5 13 -69.5s21.334 -39.167 38.001 -54.5zM269.998 91.999
c6 -2 12.833 -3.66895 20.5 -5.00195s15.167 -2 22.5 -2c23.333 0 44.666 4.33301 63.999 13s36 20.5 50 35.5s24.833 32.5 32.5 52.5s11.5 41.667 11.5 65c0 24.667 -4.16699 47.334 -12.5 68.001s-20.166 38.334 -35.499 53.001z" />
    <glyph glyph-name="ugrave" unicode="&#xf9;" horiz-adv-x="605" 
d="M58 449c0 18.667 5.33301 32.167 16 40.5s25.667 12.5 45 12.5c12 0 23 -1.5 33 -4.5s16.667 -5.16699 20 -6.5v-263c0 -45.333 10.667 -79.833 32 -103.5s54 -35.5 98 -35.5s76.667 11.833 98 35.5s32 58.167 32 103.5v221c0 18.667 5.33301 32.167 16 40.5
s25.334 12.5 44.001 12.5c12.667 0 24 -1.5 34 -4.5s16.667 -5.16699 20 -6.5v-288c0 -34 -5.83301 -64.5 -17.5 -91.5s-28.334 -49.833 -50.001 -68.5s-47.5 -32.834 -77.5 -42.501s-63 -14.5 -99 -14.5s-69 4.83301 -99 14.5s-55.667 23.834 -77 42.501s-38 41.5 -50 68.5
s-18 57.5 -18 91.5v246zM167 659c0 2.66699 1.16992 7.33301 3.50293 14s5.66602 13.5 9.99902 20.5s10.166 13 17.499 18s16.666 7.5 27.999 7.5c15.333 0 33.333 -7.33301 54 -22l109 -79l-37 -52z" />
    <glyph glyph-name="uacute" unicode="&#xfa;" horiz-adv-x="605" 
d="M58 449c0 18.667 5.33301 32.167 16 40.5s25.667 12.5 45 12.5c12 0 23 -1.5 33 -4.5s16.667 -5.16699 20 -6.5v-263c0 -45.333 10.667 -79.833 32 -103.5s54 -35.5 98 -35.5s76.667 11.833 98 35.5s32 58.167 32 103.5v221c0 18.667 5.33301 32.167 16 40.5
s25.334 12.5 44.001 12.5c12.667 0 24 -1.5 34 -4.5s16.667 -5.16699 20 -6.5v-288c0 -34 -5.83301 -64.5 -17.5 -91.5s-28.334 -49.833 -50.001 -68.5s-47.5 -32.834 -77.5 -42.501s-63 -14.5 -99 -14.5s-69 4.83301 -99 14.5s-55.667 23.834 -77 42.501s-38 41.5 -50 68.5
s-18 57.5 -18 91.5v246zM231 618l109.001 79.001c10 7.33301 19.167 12.833 27.5 16.5s17.166 5.5 26.499 5.5c10.667 0 19.834 -2.5 27.501 -7.5s13.667 -11 18 -18s7.66602 -13.833 9.99902 -20.5s3.5 -11.334 3.5 -14.001l-185 -93z" />
    <glyph glyph-name="ucircumflex" unicode="&#xfb;" horiz-adv-x="605" 
d="M58 449c0 18.667 5.33301 32.167 16 40.5s25.667 12.5 45 12.5c12 0 23 -1.5 33 -4.5s16.667 -5.16699 20 -6.5v-263c0 -45.333 10.667 -79.833 32 -103.5s54 -35.5 98 -35.5s76.667 11.833 98 35.5s32 58.167 32 103.5v221c0 18.667 5.33301 32.167 16 40.5
s25.334 12.5 44.001 12.5c12.667 0 24 -1.5 34 -4.5s16.667 -5.16699 20 -6.5v-288c0 -34 -5.83301 -64.5 -17.5 -91.5s-28.334 -49.833 -50.001 -68.5s-47.5 -32.834 -77.5 -42.501s-63 -14.5 -99 -14.5s-69 4.83301 -99 14.5s-55.667 23.834 -77 42.501s-38 41.5 -50 68.5
s-18 57.5 -18 91.5v246zM151 614l94 75c9.33301 7.33301 19.333 14.5 30 21.5s22 10.5 34 10.5s23.5 -3.33301 34.5 -10s21.167 -13.667 30.5 -21l93 -76l-41 -48l-117 72l-117 -72z" />
    <glyph glyph-name="udieresis" unicode="&#xfc;" horiz-adv-x="605" 
d="M58 449c0 18.667 5.33301 32.167 16 40.5s25.667 12.5 45 12.5c12 0 23 -1.5 33 -4.5s16.667 -5.16699 20 -6.5v-263c0 -45.333 10.667 -79.833 32 -103.5s54 -35.5 98 -35.5s76.667 11.833 98 35.5s32 58.167 32 103.5v221c0 18.667 5.33301 32.167 16 40.5
s25.334 12.5 44.001 12.5c12.667 0 24 -1.5 34 -4.5s16.667 -5.16699 20 -6.5v-288c0 -34 -5.83301 -64.5 -17.5 -91.5s-28.334 -49.833 -50.001 -68.5s-47.5 -32.834 -77.5 -42.501s-63 -14.5 -99 -14.5s-69 4.83301 -99 14.5s-55.667 23.834 -77 42.501s-38 41.5 -50 68.5
s-18 57.5 -18 91.5v246zM148 634c0 8 1.66699 15.667 5 23s8 13.833 14 19.5s12.833 10.167 20.5 13.5s15.834 5 24.501 5c17.333 0 32.166 -6.33301 44.499 -19s18.5 -26.667 18.5 -42s-6.16699 -29.333 -18.5 -42s-27.166 -19 -44.499 -19
c-8.66699 0 -16.834 1.66699 -24.501 5s-14.5 7.83301 -20.5 13.5s-10.667 12.167 -14 19.5s-5 15 -5 23zM407 695c17.333 0 32 -6.33301 44 -19s18 -26.667 18 -42s-6 -29.333 -18 -42s-26.667 -19 -44 -19s-32.333 6.33301 -45 19s-19 26.667 -19 42s6.33301 29.333 19 42
s27.667 19 45 19z" />
    <glyph glyph-name="yacute" unicode="&#xfd;" horiz-adv-x="605" 
d="M58 449c0 18 5.33203 31.332 15.999 39.999s25.334 13 44.001 13c12 0 23.167 -1.5 33.5 -4.5s17.166 -5.16699 20.499 -6.5v-267c0 -39.333 10.5 -70.666 31.5 -93.999s53.5 -35 97.5 -35c40.667 0 72.667 11.833 96 35.5s35 58.5 35 104.5v214
c0 18 5.33301 31.333 16 40s25.334 13 44.001 13c12 0 23.167 -1.5 33.5 -4.5s17.166 -5.16699 20.499 -6.5v-438c0 -47.333 -6.33301 -87.5 -19 -120.5s-30.667 -60.167 -54 -81.5s-51.333 -36.833 -84 -46.5s-69 -14.5 -109 -14.5c-27.333 0 -52.333 1.5 -75 4.5
s-42.834 6.5 -60.501 10.5s-32.167 7.83301 -43.5 11.5s-19.333 6.5 -24 8.5c5.33301 14 10.333 28.167 15 42.5l14 42.5c4.66699 -2 12 -4.66699 22 -8s22 -6.5 36 -9.5s29.833 -5.5 47.5 -7.5s36.5 -3 56.5 -3c26 0 49.333 2.83301 70 8.5s38.167 15.5 52.5 29.5
s25.333 32.5 33 55.5s11.5 51.833 11.5 86.5c-13.333 -19.333 -34.166 -34.833 -62.499 -46.5s-59.5 -17.5 -93.5 -17.5c-32 0 -61.667 4.5 -89 13.5s-50.666 22 -69.999 39s-34.5 38.167 -45.5 63.5s-16.5 54.333 -16.5 87v248zM229.999 617.999l109.001 79.001
c10 7.33301 19.167 12.833 27.5 16.5s17.166 5.5 26.499 5.5c10.667 0 19.834 -2.5 27.501 -7.5s13.667 -11 18 -18s7.66602 -13.833 9.99902 -20.5s3.5 -11.334 3.5 -14.001l-185 -93z" />
    <glyph glyph-name="thorn" unicode="&#xfe;" horiz-adv-x="625" 
d="M46 684c0 18 5.50098 31.3291 16.501 39.9961s25.833 13 44.5 13c12 0 23 -1.5 33 -4.5s16.667 -5.16699 20 -6.5v-287c4 4.66699 10.667 11.334 20 20.001s21.166 17.334 35.499 26.001s31 16 50 22s40.5 9 64.5 9c36.667 0 70.5 -6.5 101.5 -19.5s58 -31.333 81 -55
s41 -51.667 54 -84s19.5 -67.5 19.5 -105.5c0 -39.333 -6.5 -75.166 -19.5 -107.499s-31 -60.166 -54 -83.499s-50 -41.5 -81 -54.5s-64.833 -19.5 -101.5 -19.5c-38 0 -71.667 7.33301 -101 22s-52.333 32.667 -69 54v-263h-114v884zM314.001 87.9961
c22.667 0 43.501 4.16699 62.501 12.5s35.333 19.833 49 34.5s24.167 32 31.5 52s11 41.667 11 65c0 22.667 -3.66699 43.834 -11 63.501s-17.833 36.667 -31.5 51s-30 25.666 -49 33.999s-39.833 12.5 -62.5 12.5s-43.5 -4 -62.5 -12s-35.333 -19 -49 -33
s-24.334 -30.833 -32.001 -50.5s-11.5 -41.5 -11.5 -65.5c0 -23.333 3.83301 -45 11.5 -65s18.167 -37.333 31.5 -52s29.5 -26.167 48.5 -34.5s40.167 -12.5 63.5 -12.5z" />
    <glyph glyph-name="ydieresis" unicode="&#xff;" horiz-adv-x="605" 
d="M58 449c0 18 5.33203 31.332 15.999 39.999s25.334 13 44.001 13c12 0 23.167 -1.5 33.5 -4.5s17.166 -5.16699 20.499 -6.5v-267c0 -39.333 10.5 -70.666 31.5 -93.999s53.5 -35 97.5 -35c40.667 0 72.667 11.833 96 35.5s35 58.5 35 104.5v214
c0 18 5.33301 31.333 16 40s25.334 13 44.001 13c12 0 23.167 -1.5 33.5 -4.5s17.166 -5.16699 20.499 -6.5v-438c0 -47.333 -6.33301 -87.5 -19 -120.5s-30.667 -60.167 -54 -81.5s-51.333 -36.833 -84 -46.5s-69 -14.5 -109 -14.5c-27.333 0 -52.333 1.5 -75 4.5
s-42.834 6.5 -60.501 10.5s-32.167 7.83301 -43.5 11.5s-19.333 6.5 -24 8.5c5.33301 14 10.333 28.167 15 42.5l14 42.5c4.66699 -2 12 -4.66699 22 -8s22 -6.5 36 -9.5s29.833 -5.5 47.5 -7.5s36.5 -3 56.5 -3c26 0 49.333 2.83301 70 8.5s38.167 15.5 52.5 29.5
s25.333 32.5 33 55.5s11.5 51.833 11.5 86.5c-13.333 -19.333 -34.166 -34.833 -62.499 -46.5s-59.5 -17.5 -93.5 -17.5c-32 0 -61.667 4.5 -89 13.5s-50.666 22 -69.999 39s-34.5 38.167 -45.5 63.5s-16.5 54.333 -16.5 87v248zM144.999 633.999c0 8 1.66699 15.667 5 23
s8 13.833 14 19.5s12.833 10.167 20.5 13.5s15.834 5 24.501 5c17.333 0 32.166 -6.33301 44.499 -19s18.5 -26.667 18.5 -42s-6.16699 -29.333 -18.5 -42s-27.166 -19 -44.499 -19c-8.66699 0 -16.834 1.66699 -24.501 5s-14.5 7.83301 -20.5 13.5s-10.667 12.167 -14 19.5
s-5 15 -5 23zM403.999 694.999c17.333 0 32 -6.33301 44 -19s18 -26.667 18 -42s-6 -29.333 -18 -42s-26.667 -19 -44 -19s-32.333 6.33301 -45 19s-19 26.667 -19 42s6.33301 29.333 19 42s27.667 19 45 19z" />
    <glyph glyph-name="Amacron" unicode="&#x100;" horiz-adv-x="733" 
d="M5 0l56.002 144.501l65 159l70.5 165.5l72.5 164c12 26.667 25.667 45.167 41 55.5s34.666 15.5 57.999 15.5c8.66699 0 17.167 -1 25.5 -3s15.666 -4.33301 21.999 -7s11.666 -5.16699 15.999 -7.5s6.83301 -3.83301 7.5 -4.5c10.667 -18.667 24.5 -46.334 41.5 -83.001
l55 -123.5l60.5 -143l57.5 -141l46.5 -118l28 -73.5h-132c-3.33301 8 -7.66602 19.333 -12.999 34l-17.5 47.5l-19.5 51.5l-18 46h-335l-39.5 -101.5l-28.5 -77.5h-120zM488.002 284.001l-32 81.5l-35.5 87l-33 77.5c-10.333 23.333 -18.5 41 -24.5 53l-29 -63.5l-33 -75
l-34 -80.5l-32 -80h253zM492.002 855.001c17.333 0 28.999 -4.16797 34.999 -12.501s9 -19.166 9 -32.499c0 -10 -1.16699 -18.333 -3.5 -25s-4.16602 -11.667 -5.49902 -15h-295c-15.333 0 -26.5 4 -33.5 12s-10.5 18.333 -10.5 31c0 10.667 1 19 3 25s3.66699 11.667 5 17
h296z" />
    <glyph glyph-name="amacron" unicode="&#x101;" horiz-adv-x="569" 
d="M510 2c-6.66699 -1.33301 -17.165 -2.8291 -31.498 -4.49609s-31.166 -3.33398 -50.499 -5.00098s-41 -3.16699 -65 -4.5s-49 -2 -75 -2c-52 0 -94.5 4.5 -127.5 13.5s-59 21 -78 36s-32 32.333 -39 52s-10.5 39.834 -10.5 60.501c0 27.333 4.16699 51.333 12.5 72
s22 38 41 52s43.833 24.5 74.5 31.5s68 10.5 112 10.5c25.333 0 49.333 -0.833008 72 -2.5s39.667 -3.16699 51 -4.5c0 23.333 -3.83301 42.666 -11.5 57.999s-18.167 27.333 -31.5 36s-29.333 14.667 -48 18s-39.334 5 -62.001 5c-38 0 -68.5 -4.33301 -91.5 -13
s-38.167 -16 -45.5 -22c-4 3.33301 -9.5 9.66602 -16.5 18.999s-10.5 20.666 -10.5 33.999c0 9.33301 2.5 18.5 7.5 27.5s13.833 17 26.5 24s29.667 12.5 51 16.5s48.333 6 81 6c39.333 0 75.166 -3.83301 107.499 -11.5s60.166 -19.834 83.499 -36.501
s41.5 -38.667 54.5 -66s19.5 -60.333 19.5 -99v-301zM397.002 224.004c-6.66699 1.33301 -19.166 3.33398 -37.499 6.00098s-45.833 4 -82.5 4c-45.333 0 -78.333 -6.83301 -99 -20.5s-31 -35.167 -31 -64.5c0 -12 2.16699 -23 6.5 -33s11.833 -18.5 22.5 -25.5
s25.167 -12.333 43.5 -16s41.166 -5.5 68.499 -5.5c30.667 0 55 1.16699 73 3.5s30 4.16602 36 5.49902v146zM416.003 676.005c15.333 0 25.833 -3.83105 31.5 -11.498s8.5 -17.5 8.5 -29.5c0 -9.33301 -1 -17.5 -3 -24.5s-3.66699 -11.5 -5 -13.5h-276
c-14.667 0 -25 3.66699 -31 11s-9 17.333 -9 30c0 9.33301 1 17.166 3 23.499s3.66699 11.166 5 14.499h276z" />
    <glyph glyph-name="Abreve" unicode="&#x102;" horiz-adv-x="733" 
d="M5 0l56.002 144.501l65 159l70.5 165.5l72.5 164c12 26.667 25.667 45.167 41 55.5s34.666 15.5 57.999 15.5c8.66699 0 17.167 -1 25.5 -3s15.666 -4.33301 21.999 -7s11.666 -5.16699 15.999 -7.5s6.83301 -3.83301 7.5 -4.5c10.667 -18.667 24.5 -46.334 41.5 -83.001
l55 -123.5l60.5 -143l57.5 -141l46.5 -118l28 -73.5h-132c-3.33301 8 -7.66602 19.333 -12.999 34l-17.5 47.5l-19.5 51.5l-18 46h-335l-39.5 -101.5l-28.5 -77.5h-120zM488.002 284.001l-32 81.5l-35.5 87l-33 77.5c-10.333 23.333 -18.5 41 -24.5 53l-29 -63.5l-33 -75
l-34 -80.5l-32 -80h253zM265.002 896.001c7.33301 -23.333 19.3369 -41.166 36.0039 -53.499s37.667 -18.5 63 -18.5s46.5 6.16699 63.5 18.5s29.167 30.166 36.5 53.499l66 -7c-0.666992 -13.333 -3.83398 -28.166 -9.50098 -44.499s-14.834 -31.666 -27.501 -45.999
s-29.5 -26.5 -50.5 -36.5s-47.167 -15 -78.5 -15s-57.5 5 -78.5 15s-37.833 22.167 -50.5 36.5s-21.834 29.666 -27.501 45.999s-8.83398 31.166 -9.50098 44.499z" />
    <glyph glyph-name="abreve" unicode="&#x103;" horiz-adv-x="569" 
d="M510 2c-6.66699 -1.33301 -17.165 -2.8291 -31.498 -4.49609s-31.166 -3.33398 -50.499 -5.00098s-41 -3.16699 -65 -4.5s-49 -2 -75 -2c-52 0 -94.5 4.5 -127.5 13.5s-59 21 -78 36s-32 32.333 -39 52s-10.5 39.834 -10.5 60.501c0 27.333 4.16699 51.333 12.5 72
s22 38 41 52s43.833 24.5 74.5 31.5s68 10.5 112 10.5c25.333 0 49.333 -0.833008 72 -2.5s39.667 -3.16699 51 -4.5c0 23.333 -3.83301 42.666 -11.5 57.999s-18.167 27.333 -31.5 36s-29.333 14.667 -48 18s-39.334 5 -62.001 5c-38 0 -68.5 -4.33301 -91.5 -13
s-38.167 -16 -45.5 -22c-4 3.33301 -9.5 9.66602 -16.5 18.999s-10.5 20.666 -10.5 33.999c0 9.33301 2.5 18.5 7.5 27.5s13.833 17 26.5 24s29.667 12.5 51 16.5s48.333 6 81 6c39.333 0 75.166 -3.83301 107.499 -11.5s60.166 -19.834 83.499 -36.501
s41.5 -38.667 54.5 -66s19.5 -60.333 19.5 -99v-301zM397.002 224.004c-6.66699 1.33301 -19.166 3.33398 -37.499 6.00098s-45.833 4 -82.5 4c-45.333 0 -78.333 -6.83301 -99 -20.5s-31 -35.167 -31 -64.5c0 -12 2.16699 -23 6.5 -33s11.833 -18.5 22.5 -25.5
s25.167 -12.333 43.5 -16s41.166 -5.5 68.499 -5.5c30.667 0 55 1.16699 73 3.5s30 4.16602 36 5.49902v146zM206.003 715.005c5.33301 -22.667 15.3369 -40.167 30.0039 -52.5s33.667 -18.5 57 -18.5s42.5 6.16699 57.5 18.5s25.167 29.833 30.5 52.5l54 -7
c-0.666992 -12.667 -3.33398 -26.834 -8.00098 -42.501s-12.334 -30.5 -23.001 -44.5s-25 -25.833 -43 -35.5s-40.667 -14.5 -68 -14.5s-50 4.83301 -68 14.5s-32.333 21.5 -43 35.5s-18.334 28.833 -23.001 44.5s-7.33398 29.834 -8.00098 42.501z" />
    <glyph glyph-name="Aogonek" unicode="&#x104;" horiz-adv-x="733" 
d="M5 0l56.0029 144.503l65 159l70.5 165.5l72.5 164c12 26.667 25.667 45.167 41 55.5s34.666 15.5 57.999 15.5c8.66699 0 17.167 -1 25.5 -3s15.666 -4.33301 21.999 -7s11.666 -5.16699 15.999 -7.5s6.83301 -3.83301 7.5 -4.5
c10.667 -18.667 24.5 -46.334 41.5 -83.001l55 -123.5l60.5 -143l57.5 -141l46.5 -118l28 -73.5h-47c-10 -2.66699 -19.833 -6.16699 -29.5 -10.5s-18.334 -9.5 -26.001 -15.5s-13.834 -12.833 -18.501 -20.5s-7 -16.167 -7 -25.5c0 -12.667 4.5 -21.5 13.5 -26.5
s19.5 -7.5 31.5 -7.5c16.667 0 31 2.66699 43 8s19 8.66602 21 9.99902l25 -57c-7.33301 -4 -20.166 -9.16699 -38.499 -15.5s-41.166 -9.5 -68.499 -9.5c-32.667 0 -59.334 6.33301 -80.001 19s-31 33.667 -31 63c0 16.667 3.33301 30.667 10 42
s14.334 20.666 23.001 27.999s17.167 12.833 25.5 16.5s14.5 6.16699 18.5 7.5l-13 36l-17 46l-18.5 48l-16.5 43h-335l-39.5 -101.5l-28.5 -77.5h-120zM488.003 284.003l-32 81.5l-35.5 87l-33 77.5c-10.333 23.333 -18.5 41 -24.5 53l-29 -63.5l-33 -75l-34 -80.5l-32 -80
h253z" />
    <glyph glyph-name="aogonek" unicode="&#x105;" horiz-adv-x="569" 
d="M510 2c-5.33301 -1.33301 -12.8311 -2.49707 -22.498 -3.49707l-34.5 -3.5c-19.333 -5.33301 -37 -14 -53 -26s-24 -27.333 -24 -46c0 -14 4.66699 -23.667 14 -29s20.666 -8 33.999 -8c16.667 0 30.834 2.5 42.501 7.5s18.5 8.16699 20.5 9.5l23 -53
c-7.33301 -4 -19.833 -9 -37.5 -15s-40.167 -9 -67.5 -9c-32 0 -58.167 6.16699 -78.5 18.5s-30.5 32.833 -30.5 61.5c0 21.333 5.33301 38.5 16 51.5s21.667 22.833 33 29.5c-9.33301 0 -18.666 -0.166992 -27.999 -0.5s-19 -0.5 -29 -0.5c-52 0 -94.5 4.5 -127.5 13.5
s-59 21 -78 36s-32 32.333 -39 52s-10.5 39.834 -10.5 60.501c0 27.333 4.16699 51.333 12.5 72s22 38 41 52s43.833 24.5 74.5 31.5s68 10.5 112 10.5c25.333 0 49.333 -0.833008 72 -2.5s39.667 -3.16699 51 -4.5c0 23.333 -3.83301 42.666 -11.5 57.999
s-18.167 27.333 -31.5 36s-29.333 14.667 -48 18s-39.334 5 -62.001 5c-38 0 -68.5 -4.33301 -91.5 -13s-38.167 -16 -45.5 -22c-4 3.33301 -9.5 9.66602 -16.5 18.999s-10.5 20.666 -10.5 33.999c0 9.33301 2.5 18.5 7.5 27.5s13.833 17 26.5 24s29.667 12.5 51 16.5
s48.333 6 81 6c39.333 0 75.166 -3.83301 107.499 -11.5s60.166 -19.834 83.499 -36.501s41.5 -38.667 54.5 -66s19.5 -60.333 19.5 -99v-301zM397.002 224.003c-6.66699 1.33301 -19.166 3.33398 -37.499 6.00098s-45.833 4 -82.5 4c-45.333 0 -78.333 -6.83301 -99 -20.5
s-31 -35.167 -31 -64.5c0 -12 2.16699 -23 6.5 -33s11.833 -18.5 22.5 -25.5s25.167 -12.333 43.5 -16s41.166 -5.5 68.499 -5.5c30.667 0 55 1.16699 73 3.5s30 4.16602 36 5.49902v146z" />
    <glyph glyph-name="Cacute" unicode="&#x106;" horiz-adv-x="664" 
d="M649 46c-7.33301 -5.33301 -17.501 -11.665 -30.501 -18.998s-29.333 -14.333 -49 -21s-42.834 -12.334 -69.501 -17.001s-57 -7 -91 -7c-49.333 0 -96 7.83301 -140 23.5s-82.833 38.5 -116.5 68.5s-60.334 67.333 -80.001 112s-29.5 96 -29.5 154
c0 57.333 9.5 108.666 28.5 153.999s45 83.5 78 114.5s71.5 54.667 115.5 71s91 24.5 141 24.5c48 0 87.333 -4 118 -12s54.834 -17.833 72.501 -29.5s30 -23.667 37 -36s10.5 -22.5 10.5 -30.5c0 -8.66699 -1.83301 -17 -5.5 -25s-8 -15.167 -13 -21.5
s-10.167 -11.833 -15.5 -16.5s-10 -8 -14 -10c-6.66699 7.33301 -15.834 15.333 -27.501 24s-25.5 16.667 -41.5 24s-34 13.5 -54 18.5s-41.667 7.5 -65 7.5c-34 0 -65.667 -5.83301 -95 -17.5s-54.666 -28.667 -75.999 -51s-38.166 -49.333 -50.499 -81
s-18.5 -67.5 -18.5 -107.5c0 -40.667 6.5 -76.5 19.5 -107.5s30.833 -57 53.5 -78s49.334 -36.833 80.001 -47.5s63.667 -16 99 -16c42 0 78.167 5.33301 108.5 16s52.5 20.667 66.5 30l53 -91h1zM294.999 802.001l126.999 73.998c11.333 6.66699 21.833 11.5 31.5 14.5
s19.834 4.5 30.501 4.5c12 0 22 -2.83301 30 -8.5s14.5 -12.167 19.5 -19.5s8.5 -14.666 10.5 -21.999s3 -12.666 3 -15.999l-217 -86z" />
    <glyph glyph-name="cacute" unicode="&#x107;" horiz-adv-x="501" 
d="M494 36c-8 -5.33301 -17.8311 -10.834 -29.498 -16.501s-25 -11 -40 -16s-32 -9.16699 -51 -12.5s-40.5 -5 -64.5 -5c-37.333 0 -72.333 5.66699 -105 17s-61.334 28.166 -86.001 50.499s-44.167 49.833 -58.5 82.5s-21.5 70.334 -21.5 113.001s7 80.667 21 114
s33.333 61.333 58 84s53.834 39.834 87.501 51.501s69.834 17.5 108.501 17.5c32.667 0 60.5 -2.66699 83.5 -8s41.667 -12 56 -20s24.666 -17 30.999 -27s9.5 -20 9.5 -30c0 -13.333 -4.5 -25.666 -13.5 -36.999s-17.5 -20 -25.5 -26c-12 11.333 -29.333 22.166 -52 32.499
s-50.667 15.5 -84 15.5c-22.667 0 -43.834 -3.33301 -63.501 -10s-36.667 -16.834 -51 -30.501s-25.666 -30.667 -33.999 -51s-12.5 -44.5 -12.5 -72.5c0 -29.333 4.33301 -54.333 13 -75s20.667 -37.667 36 -51s33 -23.166 53 -29.499s41.667 -9.5 65 -9.5
c33.333 0 60.166 4.5 80.499 13.5s34.166 15.833 41.499 20.5zM214.002 617.999l109.001 79.001c10 7.33301 19.167 12.833 27.5 16.5s17.166 5.5 26.499 5.5c10.667 0 19.834 -2.5 27.501 -7.5s13.667 -11 18 -18s7.66602 -13.833 9.99902 -20.5s3.5 -11.334 3.5 -14.001
l-185 -93z" />
    <glyph glyph-name="Ccircumflex" unicode="&#x108;" horiz-adv-x="664" 
d="M649 46c-7.33301 -5.33301 -17.501 -11.665 -30.501 -18.998s-29.333 -14.333 -49 -21s-42.834 -12.334 -69.501 -17.001s-57 -7 -91 -7c-49.333 0 -96 7.83301 -140 23.5s-82.833 38.5 -116.5 68.5s-60.334 67.333 -80.001 112s-29.5 96 -29.5 154
c0 57.333 9.5 108.666 28.5 153.999s45 83.5 78 114.5s71.5 54.667 115.5 71s91 24.5 141 24.5c48 0 87.333 -4 118 -12s54.834 -17.833 72.501 -29.5s30 -23.667 37 -36s10.5 -22.5 10.5 -30.5c0 -8.66699 -1.83301 -17 -5.5 -25s-8 -15.167 -13 -21.5
s-10.167 -11.833 -15.5 -16.5s-10 -8 -14 -10c-6.66699 7.33301 -15.834 15.333 -27.501 24s-25.5 16.667 -41.5 24s-34 13.5 -54 18.5s-41.667 7.5 -65 7.5c-34 0 -65.667 -5.83301 -95 -17.5s-54.666 -28.667 -75.999 -51s-38.166 -49.333 -50.499 -81
s-18.5 -67.5 -18.5 -107.5c0 -40.667 6.5 -76.5 19.5 -107.5s30.833 -57 53.5 -78s49.334 -36.833 80.001 -47.5s63.667 -16 99 -16c42 0 78.167 5.33301 108.5 16s52.5 20.667 66.5 30l53 -91h1zM231.999 790.001l104 74.999c9.33301 6.66699 20 13.334 32 20.001
s24.667 10 38 10s27.666 -3.66699 42.999 -11s30.5 -16.5 45.5 -27.5s29.833 -22.5 44.5 -34.5s28.334 -22.667 41.001 -32l-47 -49l-127 69l-127 -69z" />
    <glyph glyph-name="ccircumflex" unicode="&#x109;" horiz-adv-x="501" 
d="M494 36c-8 -5.33301 -17.8311 -10.834 -29.498 -16.501s-25 -11 -40 -16s-32 -9.16699 -51 -12.5s-40.5 -5 -64.5 -5c-37.333 0 -72.333 5.66699 -105 17s-61.334 28.166 -86.001 50.499s-44.167 49.833 -58.5 82.5s-21.5 70.334 -21.5 113.001s7 80.667 21 114
s33.333 61.333 58 84s53.834 39.834 87.501 51.501s69.834 17.5 108.501 17.5c32.667 0 60.5 -2.66699 83.5 -8s41.667 -12 56 -20s24.666 -17 30.999 -27s9.5 -20 9.5 -30c0 -13.333 -4.5 -25.666 -13.5 -36.999s-17.5 -20 -25.5 -26c-12 11.333 -29.333 22.166 -52 32.499
s-50.667 15.5 -84 15.5c-22.667 0 -43.834 -3.33301 -63.501 -10s-36.667 -16.834 -51 -30.501s-25.666 -30.667 -33.999 -51s-12.5 -44.5 -12.5 -72.5c0 -29.333 4.33301 -54.333 13 -75s20.667 -37.667 36 -51s33 -23.166 53 -29.499s41.667 -9.5 65 -9.5
c33.333 0 60.166 4.5 80.499 13.5s34.166 15.833 41.499 20.5zM141.002 613.999l94 75c9.33301 7.33301 19.333 14.5 30 21.5s22 10.5 34 10.5s23.5 -3.33301 34.5 -10s21.167 -13.667 30.5 -21l93 -76l-41 -48l-117 72l-117 -72z" />
    <glyph glyph-name="Cdotaccent" unicode="&#x10a;" horiz-adv-x="664" 
d="M649 46c-7.33301 -5.33301 -17.501 -11.665 -30.501 -18.998s-29.333 -14.333 -49 -21s-42.834 -12.334 -69.501 -17.001s-57 -7 -91 -7c-49.333 0 -96 7.83301 -140 23.5s-82.833 38.5 -116.5 68.5s-60.334 67.333 -80.001 112s-29.5 96 -29.5 154
c0 57.333 9.5 108.666 28.5 153.999s45 83.5 78 114.5s71.5 54.667 115.5 71s91 24.5 141 24.5c48 0 87.333 -4 118 -12s54.834 -17.833 72.501 -29.5s30 -23.667 37 -36s10.5 -22.5 10.5 -30.5c0 -8.66699 -1.83301 -17 -5.5 -25s-8 -15.167 -13 -21.5
s-10.167 -11.833 -15.5 -16.5s-10 -8 -14 -10c-6.66699 7.33301 -15.834 15.333 -27.501 24s-25.5 16.667 -41.5 24s-34 13.5 -54 18.5s-41.667 7.5 -65 7.5c-34 0 -65.667 -5.83301 -95 -17.5s-54.666 -28.667 -75.999 -51s-38.166 -49.333 -50.499 -81
s-18.5 -67.5 -18.5 -107.5c0 -40.667 6.5 -76.5 19.5 -107.5s30.833 -57 53.5 -78s49.334 -36.833 80.001 -47.5s63.667 -16 99 -16c42 0 78.167 5.33301 108.5 16s52.5 20.667 66.5 30l53 -91h1zM339.999 811.001c0 16 6.66602 30.501 19.999 43.501
s28.666 19.5 45.999 19.5c16.667 0 31.334 -6.5 44.001 -19.5s19 -27.5 19 -43.5c0 -8 -1.66699 -15.667 -5 -23s-8 -13.833 -14 -19.5s-12.833 -10.334 -20.5 -14.001s-15.5 -5.5 -23.5 -5.5c-17.333 0 -32.666 6.5 -45.999 19.5s-20 27.167 -20 42.5z" />
    <glyph glyph-name="cdotaccent" unicode="&#x10b;" horiz-adv-x="501" 
d="M494 36c-8 -5.33301 -17.8311 -10.834 -29.498 -16.501s-25 -11 -40 -16s-32 -9.16699 -51 -12.5s-40.5 -5 -64.5 -5c-37.333 0 -72.333 5.66699 -105 17s-61.334 28.166 -86.001 50.499s-44.167 49.833 -58.5 82.5s-21.5 70.334 -21.5 113.001s7 80.667 21 114
s33.333 61.333 58 84s53.834 39.834 87.501 51.501s69.834 17.5 108.501 17.5c32.667 0 60.5 -2.66699 83.5 -8s41.667 -12 56 -20s24.666 -17 30.999 -27s9.5 -20 9.5 -30c0 -13.333 -4.5 -25.666 -13.5 -36.999s-17.5 -20 -25.5 -26c-12 11.333 -29.333 22.166 -52 32.499
s-50.667 15.5 -84 15.5c-22.667 0 -43.834 -3.33301 -63.501 -10s-36.667 -16.834 -51 -30.501s-25.666 -30.667 -33.999 -51s-12.5 -44.5 -12.5 -72.5c0 -29.333 4.33301 -54.333 13 -75s20.667 -37.667 36 -51s33 -23.166 53 -29.499s41.667 -9.5 65 -9.5
c33.333 0 60.166 4.5 80.499 13.5s34.166 15.833 41.499 20.5zM311.002 694.999c16.667 0 31.167 -6.33301 43.5 -19s18.5 -26.667 18.5 -42s-6.16699 -29.333 -18.5 -42s-26.833 -19 -43.5 -19c-8.66699 0 -16.834 1.66699 -24.501 5s-14.5 7.83301 -20.5 13.5
s-10.667 12.167 -14 19.5s-5 15 -5 23s1.66699 15.667 5 23s8 13.833 14 19.5s12.833 10.167 20.5 13.5s15.834 5 24.501 5z" />
    <glyph glyph-name="Ccaron" unicode="&#x10c;" horiz-adv-x="664" 
d="M649 46c-7.33301 -5.33301 -17.501 -11.665 -30.501 -18.998s-29.333 -14.333 -49 -21s-42.834 -12.334 -69.501 -17.001s-57 -7 -91 -7c-49.333 0 -96 7.83301 -140 23.5s-82.833 38.5 -116.5 68.5s-60.334 67.333 -80.001 112s-29.5 96 -29.5 154
c0 57.333 9.5 108.666 28.5 153.999s45 83.5 78 114.5s71.5 54.667 115.5 71s91 24.5 141 24.5c48 0 87.333 -4 118 -12s54.834 -17.833 72.501 -29.5s30 -23.667 37 -36s10.5 -22.5 10.5 -30.5c0 -8.66699 -1.83301 -17 -5.5 -25s-8 -15.167 -13 -21.5
s-10.167 -11.833 -15.5 -16.5s-10 -8 -14 -10c-6.66699 7.33301 -15.834 15.333 -27.501 24s-25.5 16.667 -41.5 24s-34 13.5 -54 18.5s-41.667 7.5 -65 7.5c-34 0 -65.667 -5.83301 -95 -17.5s-54.666 -28.667 -75.999 -51s-38.166 -49.333 -50.499 -81
s-18.5 -67.5 -18.5 -107.5c0 -40.667 6.5 -76.5 19.5 -107.5s30.833 -57 53.5 -78s49.334 -36.833 80.001 -47.5s63.667 -16 99 -16c42 0 78.167 5.33301 108.5 16s52.5 20.667 66.5 30l53 -91h1zM267.999 895.001l128 -69l64.5 34.5l63.5 34.5l45 -48l-103 -75
c-10 -7.33301 -20.833 -14 -32.5 -20s-24.167 -9 -37.5 -9s-26 3 -38 9s-22.667 12.667 -32 20l-103 75z" />
    <glyph glyph-name="ccaron" unicode="&#x10d;" horiz-adv-x="501" 
d="M494 36c-8 -5.33301 -17.8311 -10.834 -29.498 -16.501s-25 -11 -40 -16s-32 -9.16699 -51 -12.5s-40.5 -5 -64.5 -5c-37.333 0 -72.333 5.66699 -105 17s-61.334 28.166 -86.001 50.499s-44.167 49.833 -58.5 82.5s-21.5 70.334 -21.5 113.001s7 80.667 21 114
s33.333 61.333 58 84s53.834 39.834 87.501 51.501s69.834 17.5 108.501 17.5c32.667 0 60.5 -2.66699 83.5 -8s41.667 -12 56 -20s24.666 -17 30.999 -27s9.5 -20 9.5 -30c0 -13.333 -4.5 -25.666 -13.5 -36.999s-17.5 -20 -25.5 -26c-12 11.333 -29.333 22.166 -52 32.499
s-50.667 15.5 -84 15.5c-22.667 0 -43.834 -3.33301 -63.501 -10s-36.667 -16.834 -51 -30.501s-25.666 -30.667 -33.999 -51s-12.5 -44.5 -12.5 -72.5c0 -29.333 4.33301 -54.333 13 -75s20.667 -37.667 36 -51s33 -23.166 53 -29.499s41.667 -9.5 65 -9.5
c33.333 0 60.166 4.5 80.499 13.5s34.166 15.833 41.499 20.5zM190.002 720.999l118 -72l118 72l39 -48l-93 -76c-9.33301 -7.33301 -19.333 -14.333 -30 -21s-22 -10 -34 -10s-23.333 3.33301 -34 10s-20.667 13.667 -30 21l-93 76z" />
    <glyph glyph-name="Dcaron" unicode="&#x10e;" horiz-adv-x="746" 
d="M192 104c4 -1.33301 14.6689 -2.83203 32.002 -4.49902s41.666 -2.5 72.999 -2.5c90.667 0 160 21.5 208 64.5s72 103.833 72 182.5c0 36 -5.5 69.167 -16.5 99.5s-27.833 56.333 -50.5 78s-51.667 38.667 -87 51s-77.333 18.5 -126 18.5
c-32 0 -56.833 -0.833008 -74.5 -2.5s-27.834 -2.83398 -30.501 -3.50098v-481zM73.002 621.001c0 17.333 3.33398 31.001 10.001 41.001s18.5 17.5 35.5 22.5s39.667 8.16699 68 9.5s64.5 2 108.5 2c63.333 0 120.166 -8.16699 170.499 -24.5s93 -39.666 128 -69.999
s61.833 -67.333 80.5 -111s28 -92.5 28 -146.5c0 -54.667 -9 -103.834 -27 -147.501s-44.5 -80.834 -79.5 -111.501s-78.333 -54.167 -130 -70.5s-111.167 -24.5 -178.5 -24.5c-71.333 0 -124 1.5 -158 4.5s-52.667 4.83301 -56 5.5v621zM213.003 895.002l128 -69l64.5 34.5
l63.5 34.5l45 -48l-103 -75c-10 -7.33301 -20.833 -14 -32.5 -20s-24.167 -9 -37.5 -9s-26 3 -38 9s-22.667 12.667 -32 20l-103 75z" />
    <glyph glyph-name="dcaron" unicode="&#x10f;" horiz-adv-x="625" 
d="M465 684c0 18 5.16895 31.334 15.502 40.001s25.166 13 44.499 13c12 0 23 -1.5 33 -4.5s16.667 -5.16699 20 -6.5v-451c0 -48.667 -6.83301 -91 -20.5 -127s-32.5 -66 -56.5 -90s-52.333 -42 -85 -54s-68.334 -18 -107.001 -18c-39.333 0 -75.5 6.66699 -108.5 20
s-61.5 31.666 -85.5 54.999s-42.833 51.333 -56.5 84s-20.5 68 -20.5 106c0 38.667 6.5 74.167 19.5 106.5s31 60.333 54 84s50 42 81 55s64.833 19.5 101.5 19.5c38.667 0 72.667 -7.5 102 -22.5s52.333 -33.167 69 -54.5v245zM465.002 251.001
c0 22.667 -3.83301 43.998 -11.5 63.998s-18.167 37.333 -31.5 52s-29.5 26.167 -48.5 34.5s-39.833 12.5 -62.5 12.5c-23.333 0 -44.333 -4.16699 -63 -12.5s-34.834 -19.666 -48.501 -33.999s-24.167 -31.5 -31.5 -51.5s-11 -41.667 -11 -65s3.66699 -44.833 11 -64.5
s17.833 -36.667 31.5 -51s29.834 -25.666 48.501 -33.999s39.667 -12.5 63 -12.5c22.667 0 43.5 4 62.5 12s35.167 19 48.5 33s23.833 31 31.5 51s11.5 42 11.5 66zM666.002 515.999v159c0 19.333 4.83301 34.5 14.5 45.5s26.167 16.5 49.5 16.5
c13.333 0 22.333 -1.33301 27 -4l-23 -217h-68z" />
    <glyph glyph-name="Dcroat" unicode="&#x110;" horiz-adv-x="746" 
d="M80 304l-43.999 0.000976562c-16.667 0 -28.5 4.5 -35.5 13.5s-10.5 21.167 -10.5 36.5c0 10 1.33301 18.833 4 26.5s4.66699 13.167 6 16.5h80v224c0 17.333 3.33301 31 10 41s18.5 17.5 35.5 22.5s39.667 8.16699 68 9.5s64.5 2 108.5 2
c63.333 0 120.166 -8.16699 170.499 -24.5s93 -39.666 128 -69.999s61.833 -67.333 80.5 -111s28 -92.5 28 -146.5c0 -54.667 -9 -103.834 -27 -147.501s-44.5 -80.834 -79.5 -111.501s-78.333 -54.167 -130 -70.5s-111.167 -24.5 -178.5 -24.5c-71.333 0 -124 1.5 -158 4.5
s-52.667 4.83301 -56 5.5v304zM199.001 104.001c4 -1.33301 14.6689 -2.83105 32.002 -4.49805s41.666 -2.5 72.999 -2.5c90.667 0 160 21.5 208 64.5s72 103.833 72 182.5c0 36 -5.5 69.167 -16.5 99.5s-27.833 56.333 -50.5 78s-51.667 38.667 -87 51
s-77.333 18.5 -126 18.5c-32 0 -56.833 -0.833008 -74.5 -2.5s-27.834 -2.83398 -30.501 -3.50098v-188h128c17.333 0 29.333 -4.33301 36 -13s10 -20.667 10 -36c0 -10.667 -1.33301 -19.834 -4 -27.501s-4.66699 -13.167 -6 -16.5h-164v-200z" />
    <glyph glyph-name="dcroat" unicode="&#x111;" horiz-adv-x="625" 
d="M465 560l-122.998 -0.000976562c-16.667 0 -28.5 4.33301 -35.5 13s-10.5 20 -10.5 34c0 10 1.33301 18.333 4 25l6 15h159v37c0 18 5.16699 31.333 15.5 40s25.166 13 44.499 13c12 0 23 -1.5 33 -4.5s16.667 -5.16699 20 -6.5v-79h45c17.333 0 29.333 -4.33301 36 -13
s10 -19.667 10 -33c0 -10.667 -1.33301 -19.334 -4 -26.001l-6 -15h-81v-285c0 -48.667 -6.83301 -91 -20.5 -127s-32.5 -66 -56.5 -90s-52.333 -42 -85 -54s-68.334 -18 -107.001 -18c-39.333 0 -75.5 6.5 -108.5 19.5s-61.5 31 -85.5 54s-42.833 50.667 -56.5 83
s-20.5 67.5 -20.5 105.5c0 38.667 6.5 73.834 19.5 105.501s31 58.834 54 81.501s50 40.167 81 52.5s64.833 18.5 101.5 18.5c38.667 0 72.667 -7.5 102 -22.5s52.333 -33.167 69 -54.5v131zM311.002 88.999c22.667 0 43.499 4.00098 62.499 12.001s35.167 19 48.5 33
s23.833 31 31.5 51s11.5 42 11.5 66c0 22.667 -3.83301 43.5 -11.5 62.5s-18.5 35.167 -32.5 48.5s-30.5 23.666 -49.5 30.999s-39.833 11 -62.5 11c-46 0 -82.833 -14.333 -110.5 -43s-41.5 -66.334 -41.5 -113.001c0 -23.333 3.66699 -44.666 11 -63.999
s17.833 -36 31.5 -50s29.834 -25 48.501 -33s39.667 -12 63 -12z" />
    <glyph glyph-name="Emacron" unicode="&#x112;" horiz-adv-x="638" 
d="M73 618c0 45.333 24.334 67.998 73.001 67.998h384c40 0 60 -18 60 -54c0 -12.667 -2 -24.167 -6 -34.5s-7 -17.166 -9 -20.499h-381v-172h322c39.333 0 59 -18 59 -54c0 -12.667 -1.83301 -24.167 -5.5 -34.5s-6.83398 -17.166 -9.50098 -20.499h-366v-187h390v-109
h-511v618zM491.001 854.998c17.333 0 28.999 -4.16797 34.999 -12.501s9 -19.166 9 -32.499c0 -10 -1.16699 -18.333 -3.5 -25s-4.16602 -11.667 -5.49902 -15h-295c-15.333 0 -26.5 4 -33.5 12s-10.5 18.333 -10.5 31c0 10.667 1 19 3 25s3.66699 11.667 5 17h296z" />
    <glyph glyph-name="emacron" unicode="&#x113;" horiz-adv-x="551" 
d="M505 37c-5.33301 -3.33301 -13.6709 -7.99707 -25.0039 -13.9971s-25.5 -11.667 -42.5 -17s-36.667 -10 -59 -14s-46.833 -6 -73.5 -6c-37.333 0 -72.166 5.66699 -104.499 17s-60.666 28.166 -84.999 50.499s-43.5 49.666 -57.5 81.999s-21 69.5 -21 111.5
c0 40 6.83301 76.5 20.5 109.5s32.667 61.333 57 85s53 42 86 55s69.167 19.5 108.5 19.5c34.667 0 65.334 -4.5 92.001 -13.5s49.167 -21 67.5 -36s32.166 -32.5 41.499 -52.5s14 -41.333 14 -64c0 -23.333 -4.33301 -44.5 -13 -63.5s-24 -35.333 -46 -49
s-51.667 -24.334 -89 -32.001s-84.666 -11.5 -141.999 -11.5c-13.333 0 -25.833 0.166992 -37.5 0.5s-24.167 0.833008 -37.5 1.5c5.33301 -34 21.833 -61.5 49.5 -82.5s67.167 -31.5 118.5 -31.5c17.333 0 33.333 1.33301 48 4s27.834 6 39.501 10s21.667 8 30 12l18.5 9z
M153.995 274.003c15.333 -0.666992 30 -0.999023 44 -0.999023h42c36.667 0 66.334 2.33301 89.001 7s40.334 10.667 53.001 18s21 15.666 25 24.999s6 19 6 29c0 25.333 -10.167 44.333 -30.5 57s-45.5 19 -75.5 19c-24.667 0 -46.334 -4.33301 -65.001 -13
s-34.334 -20.167 -47.001 -34.5s-22.5 -30.833 -29.5 -49.5s-10.833 -37.667 -11.5 -57zM424.995 676.004c15.333 0 25.833 -3.83105 31.5 -11.498s8.5 -17.5 8.5 -29.5c0 -9.33301 -1 -17.5 -3 -24.5s-3.66699 -11.5 -5 -13.5h-276c-14.667 0 -25 3.66699 -31 11
s-9 17.333 -9 30c0 9.33301 1 17.166 3 23.499s3.66699 11.166 5 14.499h276z" />
    <glyph glyph-name="Ebreve" unicode="&#x114;" horiz-adv-x="638" 
d="M73 618c0 45.333 24.334 67.998 73.001 67.998h384c40 0 60 -18 60 -54c0 -12.667 -2 -24.167 -6 -34.5s-7 -17.166 -9 -20.499h-381v-172h322c39.333 0 59 -18 59 -54c0 -12.667 -1.83301 -24.167 -5.5 -34.5s-6.83398 -17.166 -9.50098 -20.499h-366v-187h390v-109
h-511v618zM242.001 895.998c7.33301 -23.333 19.3369 -41.166 36.0039 -53.499s37.667 -18.5 63 -18.5s46.5 6.16699 63.5 18.5s29.167 30.166 36.5 53.499l66 -7c-0.666992 -13.333 -3.83398 -28.166 -9.50098 -44.499s-14.834 -31.666 -27.501 -45.999
s-29.5 -26.5 -50.5 -36.5s-47.167 -15 -78.5 -15s-57.5 5 -78.5 15s-37.833 22.167 -50.5 36.5s-21.834 29.666 -27.501 45.999s-8.83398 31.166 -9.50098 44.499z" />
    <glyph glyph-name="ebreve" unicode="&#x115;" horiz-adv-x="551" 
d="M505 37c-5.33301 -3.33301 -13.6709 -7.99707 -25.0039 -13.9971s-25.5 -11.667 -42.5 -17s-36.667 -10 -59 -14s-46.833 -6 -73.5 -6c-37.333 0 -72.166 5.66699 -104.499 17s-60.666 28.166 -84.999 50.499s-43.5 49.666 -57.5 81.999s-21 69.5 -21 111.5
c0 40 6.83301 76.5 20.5 109.5s32.667 61.333 57 85s53 42 86 55s69.167 19.5 108.5 19.5c34.667 0 65.334 -4.5 92.001 -13.5s49.167 -21 67.5 -36s32.166 -32.5 41.499 -52.5s14 -41.333 14 -64c0 -23.333 -4.33301 -44.5 -13 -63.5s-24 -35.333 -46 -49
s-51.667 -24.334 -89 -32.001s-84.666 -11.5 -141.999 -11.5c-13.333 0 -25.833 0.166992 -37.5 0.5s-24.167 0.833008 -37.5 1.5c5.33301 -34 21.833 -61.5 49.5 -82.5s67.167 -31.5 118.5 -31.5c17.333 0 33.333 1.33301 48 4s27.834 6 39.501 10s21.667 8 30 12l18.5 9z
M153.995 274.003c15.333 -0.666992 30 -0.999023 44 -0.999023h42c36.667 0 66.334 2.33301 89.001 7s40.334 10.667 53.001 18s21 15.666 25 24.999s6 19 6 29c0 25.333 -10.167 44.333 -30.5 57s-45.5 19 -75.5 19c-24.667 0 -46.334 -4.33301 -65.001 -13
s-34.334 -20.167 -47.001 -34.5s-22.5 -30.833 -29.5 -49.5s-10.833 -37.667 -11.5 -57zM222.995 715.004c5.33301 -22.667 15.3369 -40.167 30.0039 -52.5s33.667 -18.5 57 -18.5s42.5 6.16699 57.5 18.5s25.167 29.833 30.5 52.5l54 -7
c-0.666992 -12.667 -3.33398 -26.834 -8.00098 -42.501s-12.334 -30.5 -23.001 -44.5s-25 -25.833 -43 -35.5s-40.667 -14.5 -68 -14.5s-50 4.83301 -68 14.5s-32.333 21.5 -43 35.5s-18.334 28.833 -23.001 44.5s-7.33398 29.834 -8.00098 42.501z" />
    <glyph glyph-name="Edotaccent" unicode="&#x116;" horiz-adv-x="638" 
d="M73 618c0 45.333 24.334 67.998 73.001 67.998h384c40 0 60 -18 60 -54c0 -12.667 -2 -24.167 -6 -34.5s-7 -17.166 -9 -20.499h-381v-172h322c39.333 0 59 -18 59 -54c0 -12.667 -1.83301 -24.167 -5.5 -34.5s-6.83398 -17.166 -9.50098 -20.499h-366v-187h390v-109
h-511v618zM279.001 810.998c0 16 6.66602 30.501 19.999 43.501s28.666 19.5 45.999 19.5c16.667 0 31.334 -6.5 44.001 -19.5s19 -27.5 19 -43.5c0 -8 -1.66699 -15.667 -5 -23s-8 -13.833 -14 -19.5s-12.833 -10.334 -20.5 -14.001s-15.5 -5.5 -23.5 -5.5
c-17.333 0 -32.666 6.5 -45.999 19.5s-20 27.167 -20 42.5z" />
    <glyph glyph-name="edotaccent" unicode="&#x117;" horiz-adv-x="551" 
d="M505 37c-5.33301 -3.33301 -13.6709 -7.99707 -25.0039 -13.9971s-25.5 -11.667 -42.5 -17s-36.667 -10 -59 -14s-46.833 -6 -73.5 -6c-37.333 0 -72.166 5.66699 -104.499 17s-60.666 28.166 -84.999 50.499s-43.5 49.666 -57.5 81.999s-21 69.5 -21 111.5
c0 40 6.83301 76.5 20.5 109.5s32.667 61.333 57 85s53 42 86 55s69.167 19.5 108.5 19.5c34.667 0 65.334 -4.5 92.001 -13.5s49.167 -21 67.5 -36s32.166 -32.5 41.499 -52.5s14 -41.333 14 -64c0 -23.333 -4.33301 -44.5 -13 -63.5s-24 -35.333 -46 -49
s-51.667 -24.334 -89 -32.001s-84.666 -11.5 -141.999 -11.5c-13.333 0 -25.833 0.166992 -37.5 0.5s-24.167 0.833008 -37.5 1.5c5.33301 -34 21.833 -61.5 49.5 -82.5s67.167 -31.5 118.5 -31.5c17.333 0 33.333 1.33301 48 4s27.834 6 39.501 10s21.667 8 30 12l18.5 9z
M153.995 274.003c15.333 -0.666992 30 -0.999023 44 -0.999023h42c36.667 0 66.334 2.33301 89.001 7s40.334 10.667 53.001 18s21 15.666 25 24.999s6 19 6 29c0 25.333 -10.167 44.333 -30.5 57s-45.5 19 -75.5 19c-24.667 0 -46.334 -4.33301 -65.001 -13
s-34.334 -20.167 -47.001 -34.5s-22.5 -30.833 -29.5 -49.5s-10.833 -37.667 -11.5 -57zM306.995 695.004c16.667 0 31.167 -6.33301 43.5 -19s18.5 -26.667 18.5 -42s-6.16699 -29.333 -18.5 -42s-26.833 -19 -43.5 -19c-8.66699 0 -16.834 1.66699 -24.501 5
s-14.5 7.83301 -20.5 13.5s-10.667 12.167 -14 19.5s-5 15 -5 23s1.66699 15.667 5 23s8 13.833 14 19.5s12.833 10.167 20.5 13.5s15.834 5 24.501 5z" />
    <glyph glyph-name="Eogonek" unicode="&#x118;" horiz-adv-x="638" 
d="M73 618c0 45.333 24.335 67.9971 73.002 67.9971h384c40 0 60 -18 60 -54c0 -12.667 -2 -24.167 -6 -34.5s-7 -17.166 -9 -20.499h-381v-172h322c39.333 0 59 -18 59 -54c0 -12.667 -1.83301 -24.167 -5.5 -34.5s-6.83398 -17.166 -9.50098 -20.499h-366v-187h390v-109
h-53c-10 -2.66699 -19.833 -6.16699 -29.5 -10.5s-18.334 -9.5 -26.001 -15.5s-13.834 -12.833 -18.501 -20.5s-7 -16.167 -7 -25.5c0 -12.667 4.5 -21.5 13.5 -26.5s19.5 -7.5 31.5 -7.5c16.667 0 31 2.66699 43 8s19 8.66602 21 9.99902l25 -57
c-7.33301 -4 -20.166 -9.16699 -38.499 -15.5s-41.166 -9.5 -68.499 -9.5c-32.667 0 -59.334 6.33301 -80.001 19s-31 33.667 -31 63c0 12.667 2 23.834 6 33.501s9.16699 18.167 15.5 25.5s13 13.333 20 18s13.5 8.33398 19.5 11.001h-354v618z" />
    <glyph glyph-name="eogonek" unicode="&#x119;" horiz-adv-x="551" 
d="M505 37c-7.33301 -5.33301 -20.002 -12.166 -38.002 -20.499s-41 -15.166 -69 -20.499c-18 -6.66699 -34.167 -15.667 -48.5 -27s-21.5 -25.666 -21.5 -42.999c0 -14 4.66699 -23.667 14 -29s20.666 -8 33.999 -8c16.667 0 30.834 2.5 42.501 7.5s18.5 8.16699 20.5 9.5
l23 -53c-7.33301 -4 -19.833 -9 -37.5 -15s-40.167 -9 -67.5 -9c-32 0 -58.167 6.16699 -78.5 18.5s-30.5 32.833 -30.5 61.5c0 19.333 4.5 35.166 13.5 47.499s18.833 22.166 29.5 29.499c-35.333 1.33301 -68.5 8.16602 -99.5 20.499s-58 29.5 -81 51.5
s-41 48.833 -54 80.5s-19.5 67.834 -19.5 108.501c0 40 6.83301 76.5 20.5 109.5s32.667 61.333 57 85s53 42 86 55s69.167 19.5 108.5 19.5c34.667 0 65.334 -4.5 92.001 -13.5s49.167 -21 67.5 -36s32.166 -32.5 41.499 -52.5s14 -41.333 14 -64
c0 -23.333 -4.33301 -44.5 -13 -63.5s-24 -35.333 -46 -49s-51.667 -24.334 -89 -32.001s-84.666 -11.5 -141.999 -11.5c-13.333 0 -25.833 0.166992 -37.5 0.5s-24.167 0.833008 -37.5 1.5c5.33301 -34 21.833 -61.5 49.5 -82.5s67.167 -31.5 118.5 -31.5
c17.333 0 33.333 1.33301 48 4s27.834 6 39.501 10s21.667 8 30 12l18.5 9zM153.998 274c15.333 -0.666992 30 -0.999023 44 -0.999023h42c36.667 0 66.334 2.33301 89.001 7s40.334 10.667 53.001 18s21 15.666 25 24.999s6 19 6 29c0 25.333 -10.167 44.333 -30.5 57
s-45.5 19 -75.5 19c-24.667 0 -46.334 -4.33301 -65.001 -13s-34.334 -20.167 -47.001 -34.5s-22.5 -30.833 -29.5 -49.5s-10.833 -37.667 -11.5 -57z" />
    <glyph glyph-name="Ecaron" unicode="&#x11a;" horiz-adv-x="638" 
d="M73 618c0 45.333 24.334 67.998 73.001 67.998h384c40 0 60 -18 60 -54c0 -12.667 -2 -24.167 -6 -34.5s-7 -17.166 -9 -20.499h-381v-172h322c39.333 0 59 -18 59 -54c0 -12.667 -1.83301 -24.167 -5.5 -34.5s-6.83398 -17.166 -9.50098 -20.499h-366v-187h390v-109
h-511v618zM216.001 894.998l128 -69l64.5 34.5l63.5 34.5l45 -48l-103 -75c-10 -7.33301 -20.833 -14 -32.5 -20s-24.167 -9 -37.5 -9s-26 3 -38 9s-22.667 12.667 -32 20l-103 75z" />
    <glyph glyph-name="ecaron" unicode="&#x11b;" horiz-adv-x="551" 
d="M505 37c-5.33301 -3.33301 -13.6709 -7.99707 -25.0039 -13.9971s-25.5 -11.667 -42.5 -17s-36.667 -10 -59 -14s-46.833 -6 -73.5 -6c-37.333 0 -72.166 5.66699 -104.499 17s-60.666 28.166 -84.999 50.499s-43.5 49.666 -57.5 81.999s-21 69.5 -21 111.5
c0 40 6.83301 76.5 20.5 109.5s32.667 61.333 57 85s53 42 86 55s69.167 19.5 108.5 19.5c34.667 0 65.334 -4.5 92.001 -13.5s49.167 -21 67.5 -36s32.166 -32.5 41.499 -52.5s14 -41.333 14 -64c0 -23.333 -4.33301 -44.5 -13 -63.5s-24 -35.333 -46 -49
s-51.667 -24.334 -89 -32.001s-84.666 -11.5 -141.999 -11.5c-13.333 0 -25.833 0.166992 -37.5 0.5s-24.167 0.833008 -37.5 1.5c5.33301 -34 21.833 -61.5 49.5 -82.5s67.167 -31.5 118.5 -31.5c17.333 0 33.333 1.33301 48 4s27.834 6 39.501 10s21.667 8 30 12l18.5 9z
M153.995 274.003c15.333 -0.666992 30 -0.999023 44 -0.999023h42c36.667 0 66.334 2.33301 89.001 7s40.334 10.667 53.001 18s21 15.666 25 24.999s6 19 6 29c0 25.333 -10.167 44.333 -30.5 57s-45.5 19 -75.5 19c-24.667 0 -46.334 -4.33301 -65.001 -13
s-34.334 -20.167 -47.001 -34.5s-22.5 -30.833 -29.5 -49.5s-10.833 -37.667 -11.5 -57zM188.995 721.004l118 -72l118 72l39 -48l-93 -76c-9.33301 -7.33301 -19.333 -14.333 -30 -21s-22 -10 -34 -10s-23.333 3.33301 -34 10s-20.667 13.667 -30 21l-93 76z" />
    <glyph glyph-name="Gcircumflex" unicode="&#x11c;" horiz-adv-x="719" 
d="M543 276l-117.003 0.00390625c-39.333 0 -59 17.333 -59 52c0 13.333 1.83301 25 5.5 35s6.83398 16.667 9.50098 20h207c47.333 0 71 -22.667 71 -68v-316c-5.33301 -1.33301 -15 -2.83301 -29 -4.5s-30.833 -3.5 -50.5 -5.5s-41.5 -3.66699 -65.5 -5s-49 -2 -75 -2
c-58 0 -111.333 7.66699 -160 23s-90.5 38 -125.5 68s-62.333 67.5 -82 112.5s-29.5 97.167 -29.5 156.5c0 56 9.66699 106.333 29 151s46 82.667 80 114s74.167 55.333 120.5 72s96.5 25 150.5 25c27.333 0 52 -1.66699 74 -5s41.333 -7.5 58 -12.5
s30.834 -10.167 42.501 -15.5s20.834 -10.333 27.501 -15c12 -8 20.833 -16.5 26.5 -25.5s8.5 -18.167 8.5 -27.5c0 -8.66699 -1.83301 -16.834 -5.5 -24.501s-8 -14.667 -13 -21s-10.167 -11.833 -15.5 -16.5s-10 -8.33398 -14 -11.001
c-7.33301 7.33301 -16.833 15 -28.5 23s-25.667 15.167 -42 21.5s-34.5 11.666 -54.5 15.999s-42 6.5 -66 6.5c-37.333 0 -71.333 -5.83301 -102 -17.5s-57.334 -28.5 -80.001 -50.5s-40.167 -48.833 -52.5 -80.5s-18.5 -67.167 -18.5 -106.5c0 -44 6.66699 -82 20 -114
s32.333 -58.167 57 -78.5s53.834 -35.5 87.501 -45.5s71.167 -15 112.5 -15c24.667 0 46 0.666992 64 2s29.333 2.66602 34 3.99902v181zM242.997 790.004l104 74.999c9.33301 6.66699 20 13.334 32 20.001s24.667 10 38 10s27.666 -3.66699 42.999 -11
s30.5 -16.5 45.5 -27.5s29.833 -22.5 44.5 -34.5s28.334 -22.667 41.001 -32l-47 -49l-127 69l-127 -69z" />
    <glyph glyph-name="gcircumflex" unicode="&#x11d;" horiz-adv-x="625" 
d="M121 -86c2.66699 -1.33301 8.49609 -3.82715 17.4961 -7.49414s20.333 -7.33398 34 -11.001s29.667 -6.83398 48 -9.50098s38.166 -4 59.499 -4c22.667 0 45 2.5 67 7.5s41.667 14 59 27s31.5 31.167 42.5 54.5s16.5 53.333 16.5 90v12c-15.333 -18 -37.5 -35 -66.5 -51
s-63.833 -24 -104.5 -24c-37.333 0 -71.666 6.16699 -102.999 18.5s-58.333 29.666 -81 51.999s-40.334 49.166 -53.001 80.499s-19 66 -19 104s6.83301 73 20.5 105s32.5 59.667 56.5 83s52.833 41.666 86.5 54.999s70.5 20 110.5 20c38 0 73.167 -5.66699 105.5 -17
s60.5 -28.666 84.5 -51.999s42.667 -53 56 -89s20 -78.333 20 -127v-144c0 -52.667 -7.16699 -97.834 -21.5 -135.501s-34.166 -68.5 -59.499 -92.5s-55.5 -41.5 -90.5 -52.5s-73.167 -16.5 -114.5 -16.5c-27.333 0 -52.166 1.5 -74.499 4.5s-42.166 6.66699 -59.499 11
s-31.666 8.66602 -42.999 12.999s-19.666 7.83301 -24.999 10.5zM310.996 94.0059c22.667 0 43.333 4 62 12s34.667 19 48 33s23.833 30.667 31.5 50s11.5 40.666 11.5 63.999c0 22.667 -3.83301 43.834 -11.5 63.501s-18.167 36.667 -31.5 51s-29.333 25.5 -48 33.5
s-39.334 12 -62.001 12c-23.333 0 -44.5 -4.16699 -63.5 -12.5s-35.167 -19.833 -48.5 -34.5s-23.666 -31.667 -30.999 -51s-11 -40 -11 -62c0 -48 14 -86.5 42 -115.5s65.333 -43.5 112 -43.5zM159.995 614.006l94 75c9.33301 7.33301 19.333 14.5 30 21.5s22 10.5 34 10.5
s23.5 -3.33301 34.5 -10s21.167 -13.667 30.5 -21l93 -76l-41 -48l-117 72l-117 -72z" />
    <glyph glyph-name="Gbreve" unicode="&#x11e;" horiz-adv-x="719" 
d="M543 276l-117.003 0.00390625c-39.333 0 -59 17.333 -59 52c0 13.333 1.83301 25 5.5 35s6.83398 16.667 9.50098 20h207c47.333 0 71 -22.667 71 -68v-316c-5.33301 -1.33301 -15 -2.83301 -29 -4.5s-30.833 -3.5 -50.5 -5.5s-41.5 -3.66699 -65.5 -5s-49 -2 -75 -2
c-58 0 -111.333 7.66699 -160 23s-90.5 38 -125.5 68s-62.333 67.5 -82 112.5s-29.5 97.167 -29.5 156.5c0 56 9.66699 106.333 29 151s46 82.667 80 114s74.167 55.333 120.5 72s96.5 25 150.5 25c27.333 0 52 -1.66699 74 -5s41.333 -7.5 58 -12.5
s30.834 -10.167 42.501 -15.5s20.834 -10.333 27.501 -15c12 -8 20.833 -16.5 26.5 -25.5s8.5 -18.167 8.5 -27.5c0 -8.66699 -1.83301 -16.834 -5.5 -24.501s-8 -14.667 -13 -21s-10.167 -11.833 -15.5 -16.5s-10 -8.33398 -14 -11.001
c-7.33301 7.33301 -16.833 15 -28.5 23s-25.667 15.167 -42 21.5s-34.5 11.666 -54.5 15.999s-42 6.5 -66 6.5c-37.333 0 -71.333 -5.83301 -102 -17.5s-57.334 -28.5 -80.001 -50.5s-40.167 -48.833 -52.5 -80.5s-18.5 -67.167 -18.5 -106.5c0 -44 6.66699 -82 20 -114
s32.333 -58.167 57 -78.5s53.834 -35.5 87.501 -45.5s71.167 -15 112.5 -15c24.667 0 46 0.666992 64 2s29.333 2.66602 34 3.99902v181zM321.997 896.004c7.33301 -23.333 19.3369 -41.166 36.0039 -53.499s37.667 -18.5 63 -18.5s46.5 6.16699 63.5 18.5
s29.167 30.166 36.5 53.499l66 -7c-0.666992 -13.333 -3.83398 -28.166 -9.50098 -44.499s-14.834 -31.666 -27.501 -45.999s-29.5 -26.5 -50.5 -36.5s-47.167 -15 -78.5 -15s-57.5 5 -78.5 15s-37.833 22.167 -50.5 36.5s-21.834 29.666 -27.501 45.999
s-8.83398 31.166 -9.50098 44.499z" />
    <glyph glyph-name="gbreve" unicode="&#x11f;" horiz-adv-x="625" 
d="M121 -86c2.66699 -1.33301 8.49609 -3.82715 17.4961 -7.49414s20.333 -7.33398 34 -11.001s29.667 -6.83398 48 -9.50098s38.166 -4 59.499 -4c22.667 0 45 2.5 67 7.5s41.667 14 59 27s31.5 31.167 42.5 54.5s16.5 53.333 16.5 90v12c-15.333 -18 -37.5 -35 -66.5 -51
s-63.833 -24 -104.5 -24c-37.333 0 -71.666 6.16699 -102.999 18.5s-58.333 29.666 -81 51.999s-40.334 49.166 -53.001 80.499s-19 66 -19 104s6.83301 73 20.5 105s32.5 59.667 56.5 83s52.833 41.666 86.5 54.999s70.5 20 110.5 20c38 0 73.167 -5.66699 105.5 -17
s60.5 -28.666 84.5 -51.999s42.667 -53 56 -89s20 -78.333 20 -127v-144c0 -52.667 -7.16699 -97.834 -21.5 -135.501s-34.166 -68.5 -59.499 -92.5s-55.5 -41.5 -90.5 -52.5s-73.167 -16.5 -114.5 -16.5c-27.333 0 -52.166 1.5 -74.499 4.5s-42.166 6.66699 -59.499 11
s-31.666 8.66602 -42.999 12.999s-19.666 7.83301 -24.999 10.5zM310.996 94.0059c22.667 0 43.333 4 62 12s34.667 19 48 33s23.833 30.667 31.5 50s11.5 40.666 11.5 63.999c0 22.667 -3.83301 43.834 -11.5 63.501s-18.167 36.667 -31.5 51s-29.333 25.5 -48 33.5
s-39.334 12 -62.001 12c-23.333 0 -44.5 -4.16699 -63.5 -12.5s-35.167 -19.833 -48.5 -34.5s-23.666 -31.667 -30.999 -51s-11 -40 -11 -62c0 -48 14 -86.5 42 -115.5s65.333 -43.5 112 -43.5zM231.995 715.006c5.33301 -22.667 15.3369 -40.167 30.0039 -52.5
s33.667 -18.5 57 -18.5s42.5 6.16699 57.5 18.5s25.167 29.833 30.5 52.5l54 -7c-0.666992 -12.667 -3.33398 -26.834 -8.00098 -42.501s-12.334 -30.5 -23.001 -44.5s-25 -25.833 -43 -35.5s-40.667 -14.5 -68 -14.5s-50 4.83301 -68 14.5s-32.333 21.5 -43 35.5
s-18.334 28.833 -23.001 44.5s-7.33398 29.834 -8.00098 42.501z" />
    <glyph glyph-name="Gdotaccent" unicode="&#x120;" horiz-adv-x="719" 
d="M543 276l-117.003 0.00390625c-39.333 0 -59 17.333 -59 52c0 13.333 1.83301 25 5.5 35s6.83398 16.667 9.50098 20h207c47.333 0 71 -22.667 71 -68v-316c-5.33301 -1.33301 -15 -2.83301 -29 -4.5s-30.833 -3.5 -50.5 -5.5s-41.5 -3.66699 -65.5 -5s-49 -2 -75 -2
c-58 0 -111.333 7.66699 -160 23s-90.5 38 -125.5 68s-62.333 67.5 -82 112.5s-29.5 97.167 -29.5 156.5c0 56 9.66699 106.333 29 151s46 82.667 80 114s74.167 55.333 120.5 72s96.5 25 150.5 25c27.333 0 52 -1.66699 74 -5s41.333 -7.5 58 -12.5
s30.834 -10.167 42.501 -15.5s20.834 -10.333 27.501 -15c12 -8 20.833 -16.5 26.5 -25.5s8.5 -18.167 8.5 -27.5c0 -8.66699 -1.83301 -16.834 -5.5 -24.501s-8 -14.667 -13 -21s-10.167 -11.833 -15.5 -16.5s-10 -8.33398 -14 -11.001
c-7.33301 7.33301 -16.833 15 -28.5 23s-25.667 15.167 -42 21.5s-34.5 11.666 -54.5 15.999s-42 6.5 -66 6.5c-37.333 0 -71.333 -5.83301 -102 -17.5s-57.334 -28.5 -80.001 -50.5s-40.167 -48.833 -52.5 -80.5s-18.5 -67.167 -18.5 -106.5c0 -44 6.66699 -82 20 -114
s32.333 -58.167 57 -78.5s53.834 -35.5 87.501 -45.5s71.167 -15 112.5 -15c24.667 0 46 0.666992 64 2s29.333 2.66602 34 3.99902v181zM350.997 811.004c0 16 6.66602 30.501 19.999 43.501s28.666 19.5 45.999 19.5c16.667 0 31.334 -6.5 44.001 -19.5s19 -27.5 19 -43.5
c0 -8 -1.66699 -15.667 -5 -23s-8 -13.833 -14 -19.5s-12.833 -10.334 -20.5 -14.001s-15.5 -5.5 -23.5 -5.5c-17.333 0 -32.666 6.5 -45.999 19.5s-20 27.167 -20 42.5z" />
    <glyph glyph-name="gdotaccent" unicode="&#x121;" horiz-adv-x="625" 
d="M121 -86c2.66699 -1.33301 8.49609 -3.82715 17.4961 -7.49414s20.333 -7.33398 34 -11.001s29.667 -6.83398 48 -9.50098s38.166 -4 59.499 -4c22.667 0 45 2.5 67 7.5s41.667 14 59 27s31.5 31.167 42.5 54.5s16.5 53.333 16.5 90v12c-15.333 -18 -37.5 -35 -66.5 -51
s-63.833 -24 -104.5 -24c-37.333 0 -71.666 6.16699 -102.999 18.5s-58.333 29.666 -81 51.999s-40.334 49.166 -53.001 80.499s-19 66 -19 104s6.83301 73 20.5 105s32.5 59.667 56.5 83s52.833 41.666 86.5 54.999s70.5 20 110.5 20c38 0 73.167 -5.66699 105.5 -17
s60.5 -28.666 84.5 -51.999s42.667 -53 56 -89s20 -78.333 20 -127v-144c0 -52.667 -7.16699 -97.834 -21.5 -135.501s-34.166 -68.5 -59.499 -92.5s-55.5 -41.5 -90.5 -52.5s-73.167 -16.5 -114.5 -16.5c-27.333 0 -52.166 1.5 -74.499 4.5s-42.166 6.66699 -59.499 11
s-31.666 8.66602 -42.999 12.999s-19.666 7.83301 -24.999 10.5zM310.996 94.0059c22.667 0 43.333 4 62 12s34.667 19 48 33s23.833 30.667 31.5 50s11.5 40.666 11.5 63.999c0 22.667 -3.83301 43.834 -11.5 63.501s-18.167 36.667 -31.5 51s-29.333 25.5 -48 33.5
s-39.334 12 -62.001 12c-23.333 0 -44.5 -4.16699 -63.5 -12.5s-35.167 -19.833 -48.5 -34.5s-23.666 -31.667 -30.999 -51s-11 -40 -11 -62c0 -48 14 -86.5 42 -115.5s65.333 -43.5 112 -43.5zM323.995 695.006c16.667 0 31.167 -6.33301 43.5 -19s18.5 -26.667 18.5 -42
s-6.16699 -29.333 -18.5 -42s-26.833 -19 -43.5 -19c-8.66699 0 -16.834 1.66699 -24.501 5s-14.5 7.83301 -20.5 13.5s-10.667 12.167 -14 19.5s-5 15 -5 23s1.66699 15.667 5 23s8 13.833 14 19.5s12.833 10.167 20.5 13.5s15.834 5 24.501 5z" />
    <glyph glyph-name="Gcommaaccent" unicode="&#x122;" horiz-adv-x="719" 
d="M543 276l-117.003 0.00390625c-39.333 0 -59 17.333 -59 52c0 13.333 1.83301 25 5.5 35s6.83398 16.667 9.50098 20h207c47.333 0 71 -22.667 71 -68v-316c-5.33301 -1.33301 -15 -2.83301 -29 -4.5s-30.833 -3.5 -50.5 -5.5s-41.5 -3.66699 -65.5 -5s-49 -2 -75 -2
c-58 0 -111.333 7.66699 -160 23s-90.5 38 -125.5 68s-62.333 67.5 -82 112.5s-29.5 97.167 -29.5 156.5c0 56 9.66699 106.333 29 151s46 82.667 80 114s74.167 55.333 120.5 72s96.5 25 150.5 25c27.333 0 52 -1.66699 74 -5s41.333 -7.5 58 -12.5
s30.834 -10.167 42.501 -15.5s20.834 -10.333 27.501 -15c12 -8 20.833 -16.5 26.5 -25.5s8.5 -18.167 8.5 -27.5c0 -8.66699 -1.83301 -16.834 -5.5 -24.501s-8 -14.667 -13 -21s-10.167 -11.833 -15.5 -16.5s-10 -8.33398 -14 -11.001
c-7.33301 7.33301 -16.833 15 -28.5 23s-25.667 15.167 -42 21.5s-34.5 11.666 -54.5 15.999s-42 6.5 -66 6.5c-37.333 0 -71.333 -5.83301 -102 -17.5s-57.334 -28.5 -80.001 -50.5s-40.167 -48.833 -52.5 -80.5s-18.5 -67.167 -18.5 -106.5c0 -44 6.66699 -82 20 -114
s32.333 -58.167 57 -78.5s53.834 -35.5 87.501 -45.5s71.167 -15 112.5 -15c24.667 0 46 0.666992 64 2s29.333 2.66602 34 3.99902v181zM350.997 -122.996c2 20.667 7.5 37 16.5 49s23.167 18 42.5 18c13.333 0 24.833 -2.5 34.5 -7.5s16.167 -8.83301 19.5 -11.5l-60 -178
l-66 12z" />
    <glyph glyph-name="gcommaaccent" unicode="&#x123;" horiz-adv-x="625" 
d="M121 -86c2.66699 -1.33301 8.49609 -3.82715 17.4961 -7.49414s20.333 -7.33398 34 -11.001s29.667 -6.83398 48 -9.50098s38.166 -4 59.499 -4c22.667 0 45 2.5 67 7.5s41.667 14 59 27s31.5 31.167 42.5 54.5s16.5 53.333 16.5 90v12c-15.333 -18 -37.5 -35 -66.5 -51
s-63.833 -24 -104.5 -24c-37.333 0 -71.666 6.16699 -102.999 18.5s-58.333 29.666 -81 51.999s-40.334 49.166 -53.001 80.499s-19 66 -19 104s6.83301 73 20.5 105s32.5 59.667 56.5 83s52.833 41.666 86.5 54.999s70.5 20 110.5 20c38 0 73.167 -5.66699 105.5 -17
s60.5 -28.666 84.5 -51.999s42.667 -53 56 -89s20 -78.333 20 -127v-144c0 -52.667 -7.16699 -97.834 -21.5 -135.501s-34.166 -68.5 -59.499 -92.5s-55.5 -41.5 -90.5 -52.5s-73.167 -16.5 -114.5 -16.5c-27.333 0 -52.166 1.5 -74.499 4.5s-42.166 6.66699 -59.499 11
s-31.666 8.66602 -42.999 12.999s-19.666 7.83301 -24.999 10.5zM310.996 94.0059c22.667 0 43.333 4 62 12s34.667 19 48 33s23.833 30.667 31.5 50s11.5 40.666 11.5 63.999c0 22.667 -3.83301 43.834 -11.5 63.501s-18.167 36.667 -31.5 51s-29.333 25.5 -48 33.5
s-39.334 12 -62.001 12c-23.333 0 -44.5 -4.16699 -63.5 -12.5s-35.167 -19.833 -48.5 -34.5s-23.666 -31.667 -30.999 -51s-11 -40 -11 -62c0 -48 14 -86.5 42 -115.5s65.333 -43.5 112 -43.5zM364.995 633.006c-2.66699 -20.667 -8.5 -37 -17.5 -49s-22.833 -18 -41.5 -18
c-13.333 0 -24.833 2.5 -34.5 7.5s-16.167 8.83301 -19.5 11.5l60 178l66 -12z" />
    <glyph glyph-name="Hcircumflex" unicode="&#x124;" horiz-adv-x="736" 
d="M73 631c0 18.667 5.66699 32.499 17 41.499s26.666 13.5 45.999 13.5c12.667 0 24.334 -1.66699 35.001 -5s17.667 -5.66602 21 -6.99902v-263h352v220c0 18.667 5.5 32.5 16.5 41.5s26.167 13.5 45.5 13.5c13.333 0 25.333 -1.66699 36 -5s17.667 -6 21 -8v-673h-119
v302h-352v-302h-119v631zM204 789.999l104 74.999c9.33301 6.66699 20 13.334 32 20.001s24.667 10 38 10s27.666 -3.66699 42.999 -11s30.5 -16.5 45.5 -27.5s29.833 -22.5 44.5 -34.5s28.334 -22.667 41.001 -32l-47 -49l-127 69l-127 -69z" />
    </font>
</defs>
</svg>
