<?xml version="1.0" standalone="no"?>
<!DOCTYPE svg PUBLIC "-//W3C//DTD SVG 1.1//EN" "http://www.w3.org/Graphics/SVG/1.1/DTD/svg11.dtd" >
<svg xmlns="http://www.w3.org/2000/svg" xmlns:xlink="http://www.w3.org/1999/xlink" version="1.1">
<metadata>
Created by FontForge 20150715 at Mon Dec  7 13:58:50 2015
 By Jimmy Wärting
Copyright 2004, SUDTIPOS. Disenada por Alejandro Paul y Alfredo Graziani. Todos los derechos reservados.
</metadata>
<defs>
<font id="Politica" horiz-adv-x="403" >
  <font-face 
    font-family="Politica"
    font-weight="400"
    font-stretch="normal"
    units-per-em="1000"
    panose-1="2 0 5 6 6 0 0 2 0 4"
    ascent="800"
    descent="-200"
    x-height="558"
    cap-height="800"
    bbox="-90 -257 1000 1016"
    underline-thickness="20"
    underline-position="-133"
    unicode-range="U+0020-FB02"
  />
<missing-glyph horiz-adv-x="182" 
d="M91 470q-11 0 -11 11t11 11t11 -11t-11 -11zM91 0q-11 0 -11 11t11 11t11 -11t-11 -11z" />
    <glyph glyph-name="fi" unicode="fi" horiz-adv-x="424" 
d="M343 659h-50v106h50v-106zM135 560h208v-474q0 -7 6.5 -15.5t16 -15t21.5 -11t22 -4.5v-50q-20 0 -40.5 7.5t-37.5 20.5t-27.5 30.5t-10.5 37.5v425h-158v-570q0 -20 -10.5 -37.5t-27.5 -30.5t-37.5 -20.5t-40.5 -7.5v50q9 0 20 4t21.5 10.5t17.5 14.5t7 17v570h-80v49
h80v109q0 20 10.5 37.5t27.5 30.5t37.5 20.5t40.5 7.5v-50q-9 0 -20 -4t-21.5 -10.5t-17.5 -14.5t-7 -17v-109z" />
    <glyph glyph-name="fl" unicode="fl" horiz-adv-x="424" 
d="M343 765v-679q0 -7 6.5 -15.5t16 -15t21.5 -11t22 -4.5v-50q-20 0 -40.5 7.5t-37.5 20.5t-27.5 30.5t-10.5 37.5v629h-92q-9 0 -20 -4t-21.5 -10.5t-17.5 -14.5t-7 -17v-109h107v-49h-107v-570q0 -20 -10.5 -37.5t-27.5 -30.5t-37.5 -20.5t-40.5 -7.5v50q9 0 20 4
t21.5 10.5t17.5 14.5t7 17v570h-80v49h80v109q0 20 10.5 37.5t27.5 30.5t37.5 20.5t40.5 7.5h142z" />
    <glyph glyph-name=".notdef" horiz-adv-x="182" 
d="M91 470q-11 0 -11 11t11 11t11 -11t-11 -11zM91 0q-11 0 -11 11t11 11t11 -11t-11 -11z" />
    <glyph glyph-name="NUL" horiz-adv-x="182" 
d="M91 470q-11 0 -11 11t11 11t11 -11t-11 -11zM91 0q-11 0 -11 11t11 11t11 -11t-11 -11z" />
    <glyph glyph-name="nonmarkingreturn" horiz-adv-x="500" 
 />
    <glyph glyph-name="space" unicode=" " horiz-adv-x="160" 
 />
    <glyph glyph-name="space" unicode="&#xa0;" horiz-adv-x="160" 
 />
    <glyph glyph-name="Yacute" unicode="&#xdd;" horiz-adv-x="424" 
d="M211 834h-58l101 131h57zM364 800h50l-141 -546q-2 -11 -12 -21t-24 -13v-220h-50v221q-14 3 -23 12.5t-11 20.5l-143 546h50l139 -517q0 -3 2 -6q2 -2 3.5 -4.5t4.5 -2.5h8q6 0 7.5 5t2.5 8z" />
    <glyph glyph-name="yacute" unicode="&#xfd;" horiz-adv-x="335" 
d="M200 634h-58l101 131h57zM10 558h50l94 -505q0 -3 2 -6q2 -2 3.5 -4.5t4.5 -2.5h16l95 517h50l-131 -715h-50l27 148h-20q-16 0 -28.5 10.5t-14.5 23.5z" />
    <glyph glyph-name="HT" horiz-adv-x="500" 
 />
    <glyph glyph-name="LF" horiz-adv-x="500" 
 />
    <glyph glyph-name="Thorn" unicode="&#xde;" horiz-adv-x="404" 
d="M120 591v-358h110q20 0 37 7.5t29.5 20t20 30t7.5 36.5v176q0 38 -27.5 63t-66.5 25h-110zM70 790h50v-149h110q30 0 56.5 -10.5t46 -28.5t30.5 -43.5t11 -55.5v-176q0 -30 -11 -56t-30.5 -45.5t-46 -31t-56.5 -11.5h-110v-183h-50v790z" />
    <glyph glyph-name="thorn" unicode="&#xfe;" horiz-adv-x="398" 
d="M105 123q0 -35 24 -59t59 -24h22q35 0 59 24t24 59v351q0 21 -14.5 33.5t-31.5 12.5q-20 0 -44.5 -12.5t-46.5 -28.5q-26 -18 -51 -41v-315zM343 123q0 -27 -10.5 -51.5t-28.5 -42.5t-42 -28.5t-52 -10.5h-22q-48 0 -83 29v-163h-50v909h50v-267q25 20 51 36
q22 14 46.5 25t44.5 11q40 0 68 -28t28 -68v-351z" />
    <glyph glyph-name="Scaron" unicode="&#x160;" horiz-adv-x="394" 
d="M197 877h3l77 98h50l-124 -148h-9l-124 148h50zM349 134q0 -30 -11 -56t-30.5 -45.5t-46 -31t-56.5 -11.5h-16q-30 0 -56 11.5t-45.5 31t-31 45.5t-11.5 56v148h50v-148q0 -19 7.5 -36.5t20 -30t30 -20t36.5 -7.5h16q20 0 37 7.5t29.5 20t20 30t7.5 36.5v77q0 45 -12 78
t-32.5 58.5t-47.5 44.5t-57 37q-52 32 -78.5 73t-26.5 105v55q0 30 11.5 56.5t31 46t45.5 30.5t56 11h16q30 0 56.5 -11t46 -30.5t30.5 -46t11 -56.5h-50q0 20 -7.5 37t-20 29.5t-29.5 20t-37 7.5h-16q-19 0 -36.5 -7.5t-30 -20t-20 -29.5t-7.5 -37v-55q0 -28 10 -51
t27.5 -42.5t40.5 -36t49 -32.5q29 -17 52 -37.5t40 -48t26 -63.5t9 -85v-77z" />
    <glyph glyph-name="Zcaron" unicode="&#x17d;" horiz-adv-x="360" 
d="M180 877h3l77 98h50l-124 -148h-9l-124 148h50zM15 0l261 750h-261v50h330l-260 -750h260v-50h-330z" />
    <glyph glyph-name="zcaron" unicode="&#x17e;" horiz-adv-x="334" 
d="M172 657h3l77 98h50l-124 -148h-9l-124 148h50zM309 0h-284v50l231 464h-229v50h279v-50l-232 -465h235v-49z" />
    <glyph glyph-name="DLE" horiz-adv-x="500" 
 />
    <glyph glyph-name="DC1" horiz-adv-x="500" 
 />
    <glyph glyph-name="DC2" horiz-adv-x="500" 
 />
    <glyph glyph-name="DC3" horiz-adv-x="500" 
 />
    <glyph glyph-name="DC4" horiz-adv-x="500" 
 />
    <glyph glyph-name="onehalf" unicode="&#xbd;" horiz-adv-x="585" 
d="M190 0h-50l252 798h50zM525 50v-50h-166v50q0 27 3.5 45.5t10.5 32.5t17.5 25.5t23.5 25.5q32 33 46.5 66t14.5 68v22q0 14 -7.5 20t-18.5 6h-9q-11 0 -18.5 -6t-7.5 -20h-50q0 32 22 54t54 22h9q32 0 54 -22t22 -54v-22q0 -54 -20 -92t-51 -72q-13 -15 -22 -25
t-13.5 -20.5t-6.5 -23t-2 -30.5h115zM164 360h-50v355h-39v50h89v-405z" />
    <glyph glyph-name="brokenbar" unicode="&#xa6;" horiz-adv-x="170" 
d="M110 -50h-50v390h50v-390zM110 460h-50v390h50v-390z" />
    <glyph glyph-name="RS" horiz-adv-x="500" 
 />
    <glyph glyph-name="US" horiz-adv-x="500" 
 />
    <glyph glyph-name="scaron" unicode="&#x161;" horiz-adv-x="368" 
d="M181 647h3l77 98h50l-124 -148h-9l-124 148h50zM90 417q0 -17 18 -36.5t40 -36.5q26 -19 57 -39q35 -20 62 -44q23 -20 42 -47t19 -57v-34q0 -27 -10.5 -51.5t-28.5 -42.5t-42 -28.5t-52 -10.5h-22q-28 0 -52 10.5t-42 28.5t-28.5 42.5t-10.5 51.5v89h50v-89
q0 -35 24 -59t59 -24h22q35 0 59 24t24 59v34q0 17 -18 37.5t-41 37.5q-26 20 -59 41q-34 19 -60 42q-23 20 -41.5 46t-18.5 56v20q0 28 10.5 52t28.5 42t42 28.5t52 10.5h22q28 0 52 -10.5t42 -28.5t28.5 -42t10.5 -52v-20h-50v20q0 35 -24 59t-59 24h-22q-35 0 -59 -24
t-24 -59v-20z" />
    <glyph glyph-name="exclam" unicode="!" horiz-adv-x="272" 
d="M160 206h-50v590h50v-590zM160 0h-50v106h50v-106z" />
    <glyph glyph-name="numbersign" unicode="#" horiz-adv-x="586" 
d="M200 324h141l42 133h-141zM432 457l-42 -133h115v-49h-130l-55 -175h-50l55 175h-140l-55 -175h-50l55 175h-70v49h86l42 133h-93v49h108l52 164h50l-52 -164h140l52 164h50l-52 -164h92v-49h-108z" />
    <glyph glyph-name="dollar" unicode="$" horiz-adv-x="368" 
d="M90 527q0 -20 22 -42.5t47 -39.5v184q-30 -5 -49.5 -28t-19.5 -54v-20zM278 267q0 20 -22 42t-47 41v-199q29 5 49 28t20 54v34zM159 770h50v-91q25 -3 47 -14t38 -28.5t25 -40.5t9 -49v-20h-50v20q0 31 -20 54t-49 28v-216q8 -4 27.5 -17.5t39.5 -33t36 -44t16 -51.5
v-34q0 -26 -9 -49t-25 -40.5t-38 -28.5t-47 -14v-101h-50v101q-25 3 -47 14t-38 28.5t-25 40.5t-9 49v89h50v-89q0 -31 19.5 -54t49.5 -28v232q-3 2 -22 14t-40.5 31t-39 44.5t-17.5 54.5v20q0 26 9 49t25 40.5t38 28.5t47 14v91z" />
    <glyph glyph-name="percent" unicode="%" horiz-adv-x="675" 
d="M240 0h-50l252 798h50zM615 123q0 -27 -9 -51.5t-24 -42.5t-35.5 -28.5t-44.5 -10.5h-10q-24 0 -44.5 10.5t-35.5 28.5t-24 42.5t-9 51.5v149q0 28 9 52t24 42t35.5 28.5t44.5 10.5h10q24 0 44.5 -10.5t35.5 -28.5t24 -42t9 -52v-149zM565 272q0 35 -18.5 59t-44.5 24
h-10q-26 0 -44.5 -24t-18.5 -59v-149q0 -35 18.5 -59t44.5 -24h10q26 0 44.5 24t18.5 59v149zM296 496q0 -27 -9 -51.5t-24 -42.5t-35.5 -28.5t-44.5 -10.5h-10q-24 0 -44.5 10.5t-35.5 28.5t-24 42.5t-9 51.5v149q0 28 9 52t24 42t35.5 28.5t44.5 10.5h10q24 0 44.5 -10.5
t35.5 -28.5t24 -42t9 -52v-149zM246 645q0 35 -18.5 59t-44.5 24h-10q-26 0 -44.5 -24t-18.5 -59v-149q0 -35 18.5 -59t44.5 -24h10q26 0 44.5 24t18.5 59v149z" />
    <glyph glyph-name="ampersand" unicode="&#x26;" horiz-adv-x="514" 
d="M248 359h-64q-12 0 -26.5 -10.5t-27.5 -25t-21.5 -31t-8.5 -28.5v-149q0 -39 26.5 -54.5t65.5 -15.5h16q39 0 59 15.5t20 54.5v329h50v-36h127v-50h-127v-243q0 -60 -34.5 -90t-94.5 -30h-17q-60 0 -100.5 30t-40.5 90v149q0 39 23.5 72.5t60.5 47.5q-34 15 -55.5 47
t-21.5 71v144q0 60 37.5 90.5t97.5 30.5h16q60 0 94.5 -30.5t34.5 -90.5v-79h-50v79q0 39 -20 55t-59 16h-16q-39 0 -62 -16t-23 -55v-144q0 -12 7.5 -28t19 -30.5t25 -24.5t25.5 -10h64v-50z" />
    <glyph glyph-name="parenleft" unicode="(" horiz-adv-x="295" 
d="M255 842q-78 -97 -123 -213.5t-45 -248.5t45 -248.5t123 -213.5h-58q-72 92 -114.5 204t-42.5 258t42.5 258.5t114.5 203.5h58z" />
    <glyph glyph-name="plus" unicode="+" horiz-adv-x="430" 
d="M40 327v49h150v139h49v-139h151v-49h-151v-162h-49v162h-150z" />
    <glyph glyph-name="comma" unicode="," horiz-adv-x="206" 
d="M136 -156h-50v311h50v-311z" />
    <glyph glyph-name="hyphen" unicode="-" horiz-adv-x="300" 
d="M40 327v49h220v-49h-220z" />
    <glyph glyph-name="slash" unicode="/" horiz-adv-x="320" 
d="M40 -60h-50l290 920h50z" />
    <glyph glyph-name="zero" unicode="0" horiz-adv-x="398" 
d="M343 123q0 -27 -10.5 -51.5t-28.5 -42.5t-42 -28.5t-52 -10.5h-22q-28 0 -52 10.5t-42 28.5t-28.5 42.5t-10.5 51.5v519q0 28 10.5 52t28.5 42t42 28.5t52 10.5h22q28 0 52 -10.5t42 -28.5t28.5 -42t10.5 -52v-519zM293 642q0 35 -24 59t-59 24h-22q-35 0 -59 -24
t-24 -59v-519q0 -35 24 -59t59 -24h22q35 0 59 24t24 59v519z" />
    <glyph glyph-name="one" unicode="1" horiz-adv-x="219" 
d="M154 0h-50v715h-39v50h89v-765z" />
    <glyph glyph-name="two" unicode="2" horiz-adv-x="349" 
d="M334 50v-50h-304v50q0 53 6 90.5t19.5 67.5t36 57t55.5 57q30 28 55.5 55t43.5 58.5t28 69t10 86.5v41q0 20 -7.5 37t-20 29.5t-29.5 20t-37 7.5h-16q-19 0 -36.5 -7.5t-30 -20t-20 -29.5t-7.5 -37h-50q0 30 11.5 56.5t31 46t45.5 30.5t56 11h16q30 0 56.5 -11t46 -30.5
t30.5 -46t11 -56.5v-41q0 -52 -11.5 -95.5t-32 -80t-47.5 -67t-57 -58.5q-33 -30 -53.5 -53t-32.5 -48.5t-16 -57.5t-4 -81h254z" />
    <glyph glyph-name="three" unicode="3" horiz-adv-x="391" 
d="M279 653q0 39 -26.5 54.5t-65.5 15.5h-16q-39 0 -59 -15.5t-20 -54.5v-20h-50v20q0 60 34.5 90t94.5 30h17q60 0 100.5 -30t40.5 -90v-116q0 -39 -21.5 -71t-55.5 -47q37 -14 60.5 -47.5t23.5 -72.5v-184q0 -60 -40.5 -90t-100.5 -30h-17q-60 0 -94.5 30t-34.5 90v167h50
v-167q0 -39 20 -54.5t59 -15.5h16q39 0 65.5 15.5t26.5 54.5v184q0 12 -8.5 28.5t-21.5 31t-27.5 25t-26.5 10.5h-44v50h44q12 0 25.5 10t25 24.5t19 30.5t7.5 28v116z" />
    <glyph glyph-name="four" unicode="4" horiz-adv-x="413" 
d="M281 204v511h-10l-196 -511h206zM331 765v-561h52v-50h-52v-160h-50v160h-281l244 611h87z" />
    <glyph glyph-name="five" unicode="5" horiz-adv-x="367" 
d="M61 394v370h266v-49h-216v-271h82q28 0 52 -10.5t42 -28.5t28.5 -42t10.5 -52v-196q0 -60 -40.5 -90t-100.5 -30h-17q-60 0 -94.5 30t-34.5 90v167h50v-167q0 -39 20 -54.5t59 -15.5h16q39 0 65.5 15.5t26.5 54.5v196q0 35 -24 59t-59 24h-132z" />
    <glyph glyph-name="seven" unicode="7" horiz-adv-x="305" 
d="M30 0l197 720h-227v50h290l-210 -770h-50z" />
    <glyph glyph-name="colon" unicode=":" horiz-adv-x="159" 
d="M79 0q-12 0 -20.5 8.5t-8.5 20.5t8.5 21t20.5 9t21 -9t9 -21t-9 -20.5t-21 -8.5zM79 434q-12 0 -20.5 8.5t-8.5 20.5t8.5 21t20.5 9t21 -9t9 -21t-9 -20.5t-21 -8.5z" />
    <glyph glyph-name="less" unicode="&#x3c;" horiz-adv-x="308" 
d="M217 657l33 -32l-162 -210l170 -218l-32 -33l-196 251z" />
    <glyph glyph-name="equal" unicode="=" horiz-adv-x="430" 
d="M40 235v50h350v-50h-350zM40 416v50h350v-50h-350z" />
    <glyph glyph-name="question" unicode="?" horiz-adv-x="388" 
d="M186 106h-50v-106h50v106zM136 195v183q0 26 9 47t25 36.5t37 24t45 8.5q13 0 21.5 7t14 17.5t8 22t2.5 19.5v113q0 35 -24 59t-59 24h-42q-35 0 -59 -24t-24 -59v-104h-50v104q0 28 10.5 52t28.5 42t42 28.5t52 10.5h42q28 0 52 -10.5t42 -28.5t28.5 -42t10.5 -52v-113
q0 -19 -5 -40t-16.5 -37.5t-30 -27.5t-44.5 -11q-8 0 -19.5 -3t-22 -10.5t-17.5 -20t-7 -32.5v-183h-50z" />
    <glyph glyph-name="at" unicode="@" horiz-adv-x="669" 
d="M187 375q0 27 10.5 51.5t28.5 42.5t42 28.5t52 10.5h22q28 0 52 -10.5t42 -28.5t28.5 -42.5t10.5 -51.5v-242h31q8 0 20.5 2.5t24 9.5t20 20.5t8.5 35.5v213q0 34 -14 64.5t-37.5 54t-54 37.5t-64.5 14h-149q-34 0 -64.5 -14t-54 -37.5t-37.5 -54t-14 -64.5v-258
q0 -34 14 -64.5t37.5 -54t54 -37.5t64.5 -14h107v-50h-107q-45 0 -85 17t-70 47t-47.5 70t-17.5 86v258q0 46 17 86t47 70t70 47t86 17h149q45 0 85 -17t70 -47t47.5 -70t17.5 -86v-213q0 -24 -9.5 -45.5t-25.5 -37.5t-38 -25.5t-46 -9.5h-85v57q-25 -20 -51 -36
q-22 -14 -46.5 -25t-44.5 -11q-40 0 -68 28t-28 68v211zM237 164q0 -17 5.5 -26.5t13 -14t15 -5t12.5 -0.5q20 0 44.5 11.5t46.5 25.5q26 17 51 37v183q0 42 -24 62.5t-59 20.5h-22q-35 0 -59 -24t-24 -59v-211z" />
    <glyph glyph-name="A" unicode="A" horiz-adv-x="421" 
d="M108 264h204l-89 479q0 4 -2 7q-4 6 -8 6h-8q-6 0 -7.5 -5t-2.5 -8zM361 0l-40 214h-222l-39 -214h-50l139 772q2 12 14.5 23t28.5 11h34q16 0 28.5 -10.5t14.5 -23.5l142 -772h-50z" />
    <glyph glyph-name="B" unicode="B" horiz-adv-x="428" 
d="M251 800q25 0 46.5 -9.5t38 -26t26 -38t9.5 -46.5v-144q0 -39 -21.5 -71t-55.5 -47q37 -14 60.5 -46t23.5 -74v-178q0 -25 -9.5 -46.5t-26 -38t-38 -26t-46.5 -9.5h-188v800h181zM246 443q10 5 23 12t24 18.5t19 26.5t8 34v146q0 27 -20 49t-49 22h-131v-308h126z
M328 298q0 21 -9 37t-22 27t-27.5 19t-24.5 12h-125v-343h137q30 0 50.5 20.5t20.5 49.5v178z" />
    <glyph glyph-name="C" unicode="C" horiz-adv-x="413" 
d="M313 292h50v-158q0 -30 -11 -56t-30.5 -45.5t-46 -31t-56.5 -11.5h-20q-30 0 -56 11.5t-45.5 31t-31 45.5t-11.5 56v528q0 30 11.5 56.5t31 46t45.5 30.5t56 11h20q30 0 56.5 -11t46 -30.5t30.5 -46t11 -56.5v-126h-50v126q0 20 -7.5 37t-20 29.5t-29.5 20t-37 7.5h-20
q-19 0 -36.5 -7.5t-30 -20t-20 -29.5t-7.5 -37v-528q0 -19 7.5 -36.5t20 -30t30 -20t36.5 -7.5h20q39 0 65.5 27.5t26.5 66.5v158h2z" />
    <glyph glyph-name="D" unicode="D" horiz-adv-x="433" 
d="M70 800h164q30 0 56.5 -10.5t46 -28.5t30.5 -43.5t11 -55.5v-518q0 -30 -11 -56t-30.5 -45.5t-46 -31t-56.5 -11.5h-164v800zM120 750v-700h114q20 0 37 7.5t29.5 20t20 30t7.5 36.5v518q0 38 -27.5 63t-66.5 25h-114z" />
    <glyph glyph-name="E" unicode="E" horiz-adv-x="338" 
d="M120 750v-284h171v-50h-171v-366h198v-50h-248v800h248v-50h-198z" />
    <glyph glyph-name="F" unicode="F" horiz-adv-x="329" 
d="M319 800v-50h-199v-284h171v-50h-171v-416h-50v800h249z" />
    <glyph glyph-name="G" unicode="G" horiz-adv-x="409" 
d="M215 40q20 0 37 7.5t29.5 20t20 30t7.5 36.5v208h-102v50h152v-258q0 -30 -11 -56t-30.5 -45.5t-46 -31t-56.5 -11.5h-16q-30 0 -56 11.5t-45.5 31t-31 45.5t-11.5 56v528q0 30 11.5 56.5t31 46t45.5 30.5t56 11h16q30 0 56.5 -11t46 -30.5t30.5 -46t11 -56.5v-126h-50
v126q0 20 -7.5 37t-20 29.5t-29.5 20t-37 7.5h-16q-19 0 -36.5 -7.5t-30 -20t-20 -29.5t-7.5 -37v-528q0 -19 7.5 -36.5t20 -30t30 -20t36.5 -7.5h16z" />
    <glyph glyph-name="H" unicode="H" horiz-adv-x="445" 
d="M375 800v-800h-50v417h-205v-417h-50v800h50v-334h205v334h50z" />
    <glyph glyph-name="I" unicode="I" horiz-adv-x="200" 
d="M125 0h-50v800h50v-800z" />
    <glyph glyph-name="J" unicode="J" horiz-adv-x="389" 
d="M334 800v-666q0 -30 -11 -56t-30.5 -45.5t-46 -31t-56.5 -11.5h-16q-30 0 -56 11.5t-45.5 31t-31 45.5t-11.5 56v158h50v-158q0 -19 7.5 -36.5t20 -30t30 -20t36.5 -7.5h16q20 0 37 7.5t29.5 20t20 30t7.5 36.5v666h50z" />
    <glyph glyph-name="K" unicode="K" horiz-adv-x="446" 
d="M119 0h-49v800h49v-334h75l188 334h54l-197 -354v-9l197 -437h-54l-188 417h-75v-417z" />
    <glyph glyph-name="L" unicode="L" horiz-adv-x="298" 
d="M100 50h198v-50h-247v800h49v-750z" />
    <glyph glyph-name="M" unicode="M" horiz-adv-x="614" 
d="M524 800l30 -800h-50l-29 750h-20l-123 -740h-50l-122 740h-20l-30 -750h-50l31 800h109l107 -690l109 690h108z" />
    <glyph glyph-name="N" unicode="N" horiz-adv-x="485" 
d="M307 0l-167 750h-20v-750h-50v800h110l165 -750h20v750h50v-800h-108z" />
    <glyph glyph-name="O" unicode="O" horiz-adv-x="418" 
d="M363 134q0 -30 -11 -56t-30.5 -45.5t-46 -31t-56.5 -11.5h-20q-30 0 -56 11.5t-45.5 31t-31 45.5t-11.5 56v528q0 30 11.5 56.5t31 46t45.5 30.5t56 11h20q30 0 56.5 -11t46 -30.5t30.5 -46t11 -56.5v-528zM313 662q0 20 -7.5 37t-20 29.5t-29.5 20t-37 7.5h-20
q-19 0 -36.5 -7.5t-30 -20t-20 -29.5t-7.5 -37v-528q0 -19 7.5 -36.5t20 -30t30 -20t36.5 -7.5h20q20 0 37 7.5t29.5 20t20 30t7.5 36.5v528z" />
    <glyph glyph-name="P" unicode="P" horiz-adv-x="404" 
d="M70 800h160q30 0 56.5 -10.5t46 -28.5t30.5 -43.5t11 -55.5v-176q0 -30 -11 -56t-30.5 -45.5t-46 -31t-56.5 -11.5h-110v-342h-50v800zM120 750v-358h110q20 0 37 7.5t29.5 20t20 30t7.5 36.5v176q0 38 -27.5 63t-66.5 25h-110z" />
    <glyph glyph-name="Q" unicode="Q" horiz-adv-x="418" 
d="M234 134v-93q34 5 56.5 31.5t22.5 61.5v528q0 20 -7.5 37t-20 29.5t-29.5 20t-37 7.5h-20q-19 0 -36.5 -7.5t-30 -20t-20 -29.5t-7.5 -37v-528q0 -35 22.5 -61.5t56.5 -31.5v93h50zM363 134q0 -28 -10 -53t-27 -44t-41 -31t-51 -15v-141h-50v141q-27 3 -51 15t-41 31
t-27 44t-10 53v528q0 30 11.5 56.5t31 46t45.5 30.5t56 11h20q30 0 56.5 -11t46 -30.5t30.5 -46t11 -56.5v-528z" />
    <glyph glyph-name="R" unicode="R" horiz-adv-x="418" 
d="M246 443q10 5 23 12t24 18.5t19 26.5t8 34v146q0 27 -20 49t-49 22h-131v-308h126zM328 0v298q0 21 -9 37t-22 27t-27.5 19t-24.5 12h-125v-393h-50v800h181q25 0 46.5 -9.5t38 -26t26 -38t9.5 -46.5v-144q0 -39 -21.5 -71t-55.5 -47q37 -14 60.5 -46t23.5 -74v-298h-50z
" />
    <glyph glyph-name="S" unicode="S" horiz-adv-x="394" 
d="M349 134q0 -30 -11 -56t-30.5 -45.5t-46 -31t-56.5 -11.5h-16q-30 0 -56 11.5t-45.5 31t-31 45.5t-11.5 56v148h50v-148q0 -19 7.5 -36.5t20 -30t30 -20t36.5 -7.5h16q20 0 37 7.5t29.5 20t20 30t7.5 36.5v77q0 45 -12 78t-32.5 58.5t-47.5 44.5t-57 37q-52 32 -78.5 73
t-26.5 105v55q0 30 11.5 56.5t31 46t45.5 30.5t56 11h16q30 0 56.5 -11t46 -30.5t30.5 -46t11 -56.5h-50q0 20 -7.5 37t-20 29.5t-29.5 20t-37 7.5h-16q-19 0 -36.5 -7.5t-30 -20t-20 -29.5t-7.5 -37v-55q0 -28 10 -51t27.5 -42.5t40.5 -36t49 -32.5q29 -17 52 -37.5t40 -48
t26 -63.5t9 -85v-77z" />
    <glyph glyph-name="T" unicode="T" horiz-adv-x="330" 
d="M190 750v-750h-50v750h-140v50h330v-50h-140z" />
    <glyph glyph-name="U" unicode="U" horiz-adv-x="428" 
d="M318 800h50v-666q0 -30 -11 -56t-30.5 -45.5t-46 -31t-56.5 -11.5h-20q-30 0 -56 11.5t-45.5 31t-31 45.5t-11.5 56v666h50v-666q0 -19 7.5 -36.5t20 -30t30 -20t36.5 -7.5h20q20 0 37 7.5t29.5 20t20 30t7.5 36.5v666z" />
    <glyph glyph-name="V" unicode="V" horiz-adv-x="424" 
d="M364 800h50l-141 -776q-2 -12 -14.5 -23t-28.5 -11h-34q-16 0 -28.5 10.5t-14.5 23.5l-143 776h50l139 -747q0 -3 2 -6q2 -2 3.5 -4.5t4.5 -2.5h8q6 0 7.5 5t2.5 8z" />
    <glyph glyph-name="W" unicode="W" horiz-adv-x="718" 
d="M658 800v-666q0 -30 -11 -56t-30.5 -45.5t-46 -31t-56.5 -11.5h-16q-51 0 -88.5 29.5t-50.5 75.5q-13 -46 -50.5 -75.5t-88.5 -29.5h-16q-30 0 -56 11.5t-45.5 31t-31 45.5t-11.5 56v666h50v-666q0 -19 7.5 -36.5t20 -30t30 -20t36.5 -7.5h16q25 0 46 15t36 37.5
t23.5 47.5t8.5 44v616h50v-616q0 -19 8.5 -44t23.5 -47.5t36 -37.5t46 -15h16q20 0 37 7.5t29.5 20t20 30t7.5 36.5v666h50z" />
    <glyph glyph-name="X" unicode="X" horiz-adv-x="400" 
d="M292 800h51l-118 -345l155 -455h-51l-129 399l-129 -399h-51l154 455l-116 345h51l91 -289z" />
    <glyph glyph-name="Y" unicode="Y" horiz-adv-x="424" 
d="M364 800h50l-141 -546q-2 -11 -12 -21t-24 -13v-220h-50v221q-14 3 -23 12.5t-11 20.5l-143 546h50l139 -517q0 -3 2 -6q2 -2 3.5 -4.5t4.5 -2.5h8q6 0 7.5 5t2.5 8z" />
    <glyph glyph-name="Z" unicode="Z" horiz-adv-x="360" 
d="M15 0l261 750h-261v50h330l-260 -750h260v-50h-330z" />
    <glyph glyph-name="bracketleft" unicode="[" horiz-adv-x="281" 
d="M281 870v-50h-171v-840h171v-50h-221v940h221z" />
    <glyph glyph-name="backslash" unicode="\" horiz-adv-x="259" 
d="M259 0h-50l-209 800h49z" />
    <glyph glyph-name="bracketright" unicode="]" horiz-adv-x="281" 
d="M221 870v-940h-221v50h171v840h-171v50h221z" />
    <glyph glyph-name="underscore" unicode="_" horiz-adv-x="350" 
d="M0 -73v49h350v-49h-350z" />
    <glyph glyph-name="grave" unicode="`" horiz-adv-x="299" 
d="M30 765h57l101 -131h-57z" />
    <glyph glyph-name="a" unicode="a" horiz-adv-x="373" 
d="M268 437q0 39 -22 61t-61 22t-61 -24t-22 -59v-20h-50v20q0 30 10.5 54.5t28.5 42t42 27t52 9.5t52 -9.5t42 -27t28.5 -42t10.5 -54.5v-437h-50v62q-25 -20 -51 -36q-22 -14 -46.5 -25t-44.5 -11q-40 0 -68 28t-28 68v69q0 53 28 90.5t71 54.5l139 44v93zM80 86
q0 -17 14.5 -31.5t31.5 -14.5q20 0 44.5 13t46.5 29q26 18 51 41v169l-118 -37q-35 -14 -52.5 -40.5t-17.5 -59.5v-69z" />
    <glyph glyph-name="b" unicode="b" 
d="M298 474q0 21 -14.5 33.5t-31.5 12.5q-20 0 -44.5 -12.5t-46.5 -28.5q-26 -18 -51 -41v-315q0 -35 24 -59t59 -24h22q35 0 59 24t24 59v351zM348 123q0 -27 -10.5 -51.5t-28.5 -42.5t-42 -28.5t-52 -10.5h-22q-28 0 -52 10.5t-42 28.5t-28.5 42.5t-10.5 51.5v642h50v-267
q25 20 51 36q22 14 46.5 25t44.5 11q40 0 68 -28t28 -68v-351z" />
    <glyph glyph-name="c" unicode="c" horiz-adv-x="363" 
d="M288 195h50v-72q0 -27 -10.5 -51.5t-28.5 -42.5t-42 -28.5t-52 -10.5h-22q-28 0 -52 10.5t-42 28.5t-28.5 42.5t-10.5 51.5v314q0 28 10.5 52t28.5 42t42 28.5t52 10.5h22q28 0 52 -10.5t42 -28.5t28.5 -42t10.5 -52v-75h-50v75q0 35 -24 59t-59 24h-22q-35 0 -59 -24
t-24 -59v-314q0 -35 24 -59t59 -24h22q35 0 59 24t24 59v72z" />
    <glyph glyph-name="d" unicode="d" 
d="M343 0h-50v62q-25 -20 -51 -36q-22 -14 -46.5 -25t-44.5 -11q-40 0 -68 28t-28 68v352q0 27 10.5 51.5t28.5 42.5t42 28.5t52 10.5h22q26 0 47.5 -9t35.5 -20v222h50v-764zM293 443q0 16 -6.5 30.5t-18 25t-26.5 16.5t-32 6h-22q-35 0 -59 -24t-24 -59v-352
q0 -21 14.5 -33.5t31.5 -12.5q20 0 44.5 13t46.5 29q26 18 51 41v320z" />
    <glyph glyph-name="e" unicode="e" horiz-adv-x="373" 
d="M205 40q35 0 59 24t24 59v72h50v-72q0 -28 -10.5 -52t-28.5 -42t-42 -28.5t-52 -10.5h-22q-28 0 -52 10.5t-42 28.5t-28.5 42t-10.5 52v314q0 28 10.5 52t28.5 42t42 28.5t52 10.5h22q28 0 52 -10.5t42 -28.5t28.5 -42t10.5 -52v-129h-238v-185q0 -35 24 -59t59 -24h22z
M288 357v80q0 35 -24 59t-59 24h-22q-35 0 -59 -24t-24 -59v-80h188z" />
    <glyph glyph-name="f" unicode="f" horiz-adv-x="242" 
d="M242 515h-107v-574q0 -20 -10.5 -37.5t-27.5 -30.5t-37.5 -20.5t-40.5 -7.5v50q9 0 20 4t21.5 10.5t17.5 14.5t7 17v574h-80v49h80v105q0 20 10.5 37.5t27.5 30.5t37.5 20.5t40.5 7.5v-50q-9 0 -20 -4t-21.5 -10.5t-17.5 -14.5t-7 -17v-105h107v-49z" />
    <glyph glyph-name="g" unicode="g" horiz-adv-x="388" 
d="M289 121q-26 -21 -52 -38q-22 -14 -46.5 -26t-44.5 -12q-40 0 -68 28t-28 68v297q0 27 10.5 51.5t28.5 42.5t42 28.5t52 10.5h22q28 0 52 -10.5t42 -28.5t28.5 -42.5t10.5 -51.5v-472q0 -28 -10 -52t-28 -41.5t-42 -27.5t-52 -10h-22q-28 0 -52 10.5t-42 28.5t-28.5 42
t-10.5 52v22h50v-22q0 -35 24 -59t59 -24h22q35 0 59 24t24 59v153zM100 141q0 -21 14.5 -33.5t31.5 -12.5q20 0 44.5 13t46.5 29q26 18 51 41v260q0 35 -24 59t-59 24h-22q-35 0 -59 -24t-24 -59v-297z" />
    <glyph glyph-name="h" unicode="h" 
d="M60 0v765h50v-267q25 20 51 36q22 14 46.5 25t44.5 11q40 0 68 -28t28 -68v-474h-50v474q0 21 -14.5 33.5t-31.5 12.5q-20 0 -44.5 -12.5t-46.5 -28.5q-26 -18 -51 -41v-438h-50z" />
    <glyph glyph-name="i" unicode="i" horiz-adv-x="196" 
d="M115 659h-50v106h50v-106zM65 560h50v-474q0 -7 6.5 -15.5t16 -15t21.5 -11t22 -4.5v-50q-20 0 -40.5 7.5t-37.5 20.5t-27.5 30.5t-10.5 37.5v474z" />
    <glyph glyph-name="j" unicode="j" horiz-adv-x="182" 
d="M117 659h-50v106h50v-106zM66 560h50v-619q0 -20 -10.5 -37.5t-27.5 -30.5t-37.5 -20.5t-40.5 -7.5v50q9 0 20 4t21.5 10.5t17.5 14.5t7 17v619z" />
    <glyph glyph-name="k" unicode="k" horiz-adv-x="351" 
d="M109 0h-49v765h49v-439h25l138 234h54l-147 -254v-9l197 -297h-54l-188 277h-25v-277z" />
    <glyph glyph-name="l" unicode="l" horiz-adv-x="196" 
d="M65 764h50v-678q0 -7 6.5 -15.5t16 -15t21.5 -11t22 -4.5v-50q-20 0 -40.5 7.5t-37.5 20.5t-27.5 30.5t-10.5 37.5v678z" />
    <glyph glyph-name="m" unicode="m" horiz-adv-x="681" 
d="M318 0v474q0 21 -14.5 33.5t-31.5 12.5q-20 0 -47.5 -12.5t-53.5 -28.5q-30 -18 -61 -41v-438h-50v560h50v-62q31 20 61 36q26 14 53.5 25t47.5 11q34 0 59.5 -20.5t33.5 -51.5h3q31 20 61 36q26 14 53.5 25t47.5 11q40 0 68 -28t28 -68v-474h-50v474q0 21 -14.5 33.5
t-31.5 12.5q-20 0 -47.5 -12.5t-53.5 -28.5q-30 -18 -61 -41v-438h-50z" />
    <glyph glyph-name="n" unicode="n" 
d="M60 0v560h50v-62q25 20 51 36q22 14 46.5 25t44.5 11q40 0 68 -28t28 -68v-474h-50v474q0 21 -14.5 33.5t-31.5 12.5q-20 0 -44.5 -12.5t-46.5 -28.5q-26 -18 -51 -41v-438h-50z" />
    <glyph glyph-name="o" unicode="o" horiz-adv-x="388" 
d="M338 123q0 -27 -10.5 -51.5t-28.5 -42.5t-42 -28.5t-52 -10.5h-22q-28 0 -52 10.5t-42 28.5t-28.5 42.5t-10.5 51.5v314q0 28 10.5 52t28.5 42t42 28.5t52 10.5h22q28 0 52 -10.5t42 -28.5t28.5 -42t10.5 -52v-314zM288 437q0 35 -24 59t-59 24h-22q-35 0 -59 -24
t-24 -59v-314q0 -35 24 -59t59 -24h22q35 0 59 24t24 59v314z" />
    <glyph glyph-name="p" unicode="p" horiz-adv-x="398" 
d="M105 123q0 -35 24 -59t59 -24h22q35 0 59 24t24 59v351q0 21 -14.5 33.5t-31.5 12.5q-20 0 -44.5 -12.5t-46.5 -28.5q-26 -18 -51 -41v-315zM343 123q0 -27 -10.5 -51.5t-28.5 -42.5t-42 -28.5t-52 -10.5h-22q-48 0 -83 29v-175h-50v716h50v-62q25 20 51 36
q22 14 46.5 25t44.5 11q40 0 68 -28t28 -68v-351z" />
    <glyph glyph-name="q" unicode="q" horiz-adv-x="393" 
d="M338 -156h-50v219q-25 -20 -51 -36q-22 -14 -46.5 -25t-44.5 -11q-40 0 -68 28t-28 68v351q0 27 10.5 51.5t28.5 42.5t42 28.5t52 10.5h22q28 0 52 -10.5t42 -28.5t28.5 -42.5t10.5 -51.5v-594zM100 87q0 -21 14.5 -33.5t31.5 -12.5q20 0 44.5 13t46.5 29q26 18 51 41
v314q0 35 -24 59t-59 24h-22q-35 0 -59 -24t-24 -59v-351z" />
    <glyph glyph-name="r" unicode="r" horiz-adv-x="363" 
d="M60 0v560h50v-62q25 20 51 36q22 14 46.5 25t44.5 11q40 0 68 -28t28 -68v-101h-50v101q0 21 -14.5 33.5t-31.5 12.5q-20 0 -44.5 -12.5t-46.5 -28.5q-26 -18 -51 -41v-438h-50z" />
    <glyph glyph-name="s" unicode="s" horiz-adv-x="368" 
d="M90 417q0 -17 18 -36.5t40 -36.5q26 -19 57 -39q35 -20 62 -44q23 -20 42 -47t19 -57v-34q0 -27 -10.5 -51.5t-28.5 -42.5t-42 -28.5t-52 -10.5h-22q-28 0 -52 10.5t-42 28.5t-28.5 42.5t-10.5 51.5v89h50v-89q0 -35 24 -59t59 -24h22q35 0 59 24t24 59v34q0 17 -18 37.5
t-41 37.5q-26 20 -59 41q-34 19 -60 42q-23 20 -41.5 46t-18.5 56v20q0 28 10.5 52t28.5 42t42 28.5t52 10.5h22q28 0 52 -10.5t42 -28.5t28.5 -42t10.5 -52v-20h-50v20q0 35 -24 59t-59 24h-22q-35 0 -59 -24t-24 -59v-20z" />
    <glyph glyph-name="t" unicode="t" horiz-adv-x="237" 
d="M0 511v49h80v145h50v-145h107v-49h-107v-425q0 -7 6.5 -15.5t16 -15t21.5 -11t22 -4.5v-50q-20 0 -40.5 7.5t-37.5 20.5t-27.5 30.5t-10.5 37.5v425h-80z" />
    <glyph glyph-name="u" unicode="u" 
d="M343 560v-560h-50v62q-25 -20 -51 -36q-22 -14 -46.5 -25t-44.5 -11q-40 0 -68 28t-28 68v474h50v-474q0 -21 14.5 -33.5t31.5 -12.5q20 0 44.5 12.5t46.5 28.5q26 18 51 41v438h50z" />
    <glyph glyph-name="v" unicode="v" horiz-adv-x="345" 
d="M280 558h50l-97 -534q-2 -12 -14.5 -23t-28.5 -11h-34q-16 0 -28.5 10.5t-14.5 23.5l-98 534h50l94 -505q0 -3 2 -6q2 -2 3.5 -4.5t4.5 -2.5h8q6 0 7.5 5t2.5 8z" />
    <glyph glyph-name="w" unicode="w" horiz-adv-x="676" 
d="M621 560v-426q0 -30 -9.5 -56t-27 -45.5t-42 -31t-54.5 -11.5h-22q-45 0 -80 26t-48 72q-13 -46 -48 -72t-80 -26h-22q-30 0 -54.5 11.5t-42 31t-27 45.5t-9.5 56v426h50v-426q0 -39 22 -66.5t61 -27.5h22q26 0 45 13t32 33.5t19.5 46.5t6.5 51v376h50v-376
q0 -25 6.5 -51t19.5 -46.5t32.5 -33.5t44.5 -13h22q39 0 61 27.5t22 66.5v426h50z" />
    <glyph glyph-name="x" unicode="x" horiz-adv-x="339" 
d="M321 560l-123 -265l131 -295h-50l-106 245l-113 -245h-50l138 295l-115 265h50l90 -216l98 216h50z" />
    <glyph glyph-name="y" unicode="y" horiz-adv-x="335" 
d="M10 558h50l94 -505q0 -3 2 -6q2 -2 3.5 -4.5t4.5 -2.5h16l95 517h50l-131 -715h-50l27 148h-20q-16 0 -28.5 10.5t-14.5 23.5z" />
    <glyph glyph-name="z" unicode="z" horiz-adv-x="334" 
d="M309 0h-284v50l231 464h-229v50h279v-50l-232 -465h235v-49z" />
    <glyph glyph-name="braceleft" unicode="{" horiz-adv-x="229" 
d="M189 810q-19 -5 -30 -23.5t-11 -59.5v-188q0 -37 -5 -62t-14.5 -40t-24 -21.5t-34.5 -7.5v-16q20 -1 35 -7t24.5 -21t14 -40t4.5 -63v-188q0 -44 11 -61t30 -22v-50q-42 5 -66.5 36t-24.5 97v188q0 37 -4.5 57.5t-14.5 30t-24.5 11.5t-34.5 2v76q20 0 34.5 2t24.5 11.5
t14.5 30t4.5 57.5v188q0 66 24.5 97t66.5 36v-50z" />
    <glyph glyph-name="bar" unicode="|" horiz-adv-x="170" 
d="M110 -50h-50v900h50v-900z" />
    <glyph glyph-name="DEL" horiz-adv-x="500" 
 />
    <glyph glyph-name="dagger" unicode="&#x2020;" horiz-adv-x="317" 
d="M-10 607v49h150v139h49v-139h151v-49h-151v-602h-49v602h-150z" />
    <glyph glyph-name="degree" unicode="&#xb0;" horiz-adv-x="282" 
d="M242 618q0 -19 -7.5 -36t-20 -29.5t-29.5 -20t-36 -7.5h-16q-19 0 -36 7.5t-29.5 20t-20 29.5t-7.5 36v24q0 20 7.5 36.5t20 29.5t29.5 20t36 7h16q19 0 36 -7t29.5 -20t20 -29.5t7.5 -36.5v-24zM192 642q0 18 -12.5 30.5t-30.5 12.5h-16q-18 0 -30.5 -12.5t-12.5 -30.5
v-24q0 -18 12.5 -30.5t30.5 -12.5h16q18 0 30.5 12.5t12.5 30.5v24z" />
    <glyph glyph-name="cent" unicode="&#xa2;" horiz-adv-x="363" 
d="M100 231q0 -31 19.5 -54t49.5 -28v478q-30 -5 -49.5 -28t-19.5 -54v-314zM288 303h50v-72q0 -26 -9 -49t-25 -40.5t-38 -28.5t-47 -14v-99h-50v99q-25 3 -47 14t-38 28.5t-25 40.5t-9 49v314q0 26 9 49t25 40.5t38 28.5t47 14v88h50v-88q25 -3 47 -14t38 -28.5t25 -40.5
t9 -49v-75h-50v75q0 31 -20 54t-49 28v-478q29 5 49 28t20 54v72z" />
    <glyph glyph-name="sterling" unicode="&#xa3;" horiz-adv-x="450" 
d="M15 50h140q-24 12 -38.5 34.5t-14.5 51.5v245h-87v50h87v201q0 30 11.5 56.5t31 46t45.5 30.5t56 11h16q30 0 56.5 -11t46 -30.5t30.5 -46t11 -56.5v-96h-50v96q0 20 -7.5 37t-20 29.5t-29.5 20t-37 7.5h-16q-19 0 -36.5 -7.5t-30 -20t-20 -29.5t-7.5 -37v-201h88v-50
h-88v-245q0 -14 8 -27t19.5 -24t25.5 -20t26 -15h179v-50h-395v50z" />
    <glyph glyph-name="section" unicode="&#xa7;" horiz-adv-x="368" 
d="M90 422q0 -17 18 -36.5t40 -36.5q26 -19 57 -39q12 -6 23 -14q10 -7 22.5 -17t24.5 -22q3 9 3 20v34q0 17 -18 37.5t-41 37.5q-26 20 -59 41q-9 5 -20 12q-9 6 -21 14.5t-24 19.5q-5 -17 -5 -31v-20zM328 128q0 -27 -10.5 -51.5t-28.5 -42.5t-42 -28.5t-52 -10.5h-22
q-28 0 -52 10.5t-42 28.5t-28.5 42.5t-10.5 51.5v89h50v-89q0 -35 24 -59t59 -24h22q35 0 59 24t24 59v34q0 17 -18 37.5t-41 37.5q-26 20 -59 41q-34 19 -60 42q-23 20 -41.5 46t-18.5 56v20q0 39 20 70q-9 14 -14.5 28.5t-5.5 30.5v20q0 28 10.5 52t28.5 42t42 28.5
t52 10.5h22q28 0 52 -10.5t42 -28.5t28.5 -42t10.5 -52v-20h-50v20q0 35 -24 59t-59 24h-22q-35 0 -59 -24t-24 -59v-20q0 -17 18 -36.5t40 -36.5q26 -19 57 -39q35 -20 62 -44q23 -20 42 -47t19 -57v-34q0 -34 -16 -64q16 -26 16 -51v-34z" />
    <glyph glyph-name="bullet" unicode="&#x2022;" horiz-adv-x="234" 
d="M179 269q0 -23 -17 -40t-40 -17t-40 17t-17 40t17 40t40 17t40 -17t17 -40z" />
    <glyph glyph-name="paragraph" unicode="&#xb6;" horiz-adv-x="480" 
d="M215 751h-42q-35 0 -59 -24.5t-24 -59.5v-314q0 -35 24 -59t59 -24h42v481zM40 667q0 28 10.5 52t28.5 42t42 28.5t52 10.5h232v-950h-50v901h-90v-901h-50v370h-42q-28 0 -52 10.5t-42 28.5t-28.5 42.5t-10.5 51.5v314z" />
    <glyph glyph-name="germandbls" unicode="&#xdf;" horiz-adv-x="413" 
d="M121 -60q0 -20 -10.5 -37.5t-27.5 -30.5t-37.5 -20.5t-40.5 -7.5v50q9 0 20 4t21.5 10.5t17.5 14.5t7 17v713q0 60 34.5 90.5t94.5 30.5h16q60 0 97.5 -30.5t37.5 -90.5v-116q0 -39 -21.5 -71t-55.5 -47q37 -14 60.5 -47.5t23.5 -72.5v-189q0 -60 -40.5 -90t-100.5 -30
h-17v50h16q39 0 65.5 15.5t26.5 54.5v189q0 12 -8.5 28.5t-21.5 31t-27.5 25t-26.5 10.5h-44v50h44q12 0 25.5 10t25 24.5t19 30.5t7.5 28v116q0 39 -23 55t-62 16h-16q-39 0 -59 -16t-20 -55v-713z" />
    <glyph glyph-name="registered" unicode="&#xae;" horiz-adv-x="450" 
d="M161 376v320h77q20 0 37 -14t17 -34v-58q0 -15 -8.5 -28t-22.5 -19q14 -5 23.5 -18t9.5 -30v-119h-40v119q0 14 -9.5 21t-23.5 7h-20v-147h-40zM221 563q13 0 21.5 5.5t8.5 21.5v48q0 18 -30 18h-20v-93h20zM340 647q0 25 -10.5 44.5t-26.5 33t-35 20.5t-36 7h-16
q-17 0 -36 -7t-35 -20.5t-26.5 -33t-10.5 -44.5v-232q0 -25 10.5 -44.5t26.5 -33t35 -20.5t36 -7h16q17 0 36 7t35 20.5t26.5 33t10.5 44.5v232zM380 415q0 -30 -11.5 -56.5t-31.5 -46t-47 -31t-58 -11.5h-16q-31 0 -58 11.5t-47 31t-31.5 46t-11.5 56.5v232q0 30 11.5 56.5
t31.5 46t47 31t58 11.5h16q31 0 58 -11.5t47 -31t31.5 -46t11.5 -56.5v-232z" />
    <glyph glyph-name="copyright" unicode="&#xa9;" horiz-adv-x="528" 
d="M408 204v-54q0 -21 -10.5 -39t-28.5 -31.5t-42 -21.5t-52 -8h-22q-28 0 -52 8t-42 21.5t-28.5 31.5t-10.5 39v258q0 21 10.5 39t28.5 31.5t42 21.5t52 8h22q28 0 52 -8t42 -21.5t28.5 -31.5t10.5 -39v-56h-40v56q0 26 -26.5 43t-66.5 17h-22q-36 0 -64.5 -15t-28.5 -45
v-258q0 -26 26.5 -43t66.5 -17h22q40 0 66.5 17t26.5 43v54h40zM428 408q0 27 -12.5 49.5t-33.5 38t-48.5 24t-58.5 8.5h-22q-34 0 -62.5 -10t-48.5 -26.5t-31 -38t-11 -45.5v-258q0 -24 11 -45.5t31 -38t48.5 -26.5t62.5 -10h22q35 0 63 10t48 26.5t31 38t11 45.5v258z
M468 150q0 -33 -15 -62.5t-41 -51t-61 -34t-76 -12.5h-22q-40 0 -75.5 12.5t-61.5 34t-41 51t-15 62.5v258q0 33 15 62.5t41 51t61.5 34t75.5 12.5h22q41 0 76 -12.5t61 -34t41 -51t15 -62.5v-258z" />
    <glyph glyph-name="trademark" unicode="&#x2122;" horiz-adv-x="524" 
d="M147 760v-360h-39v360h-63v40h165v-40h-63zM320 410l-30 350h-20v-360h-40v400h98l26 -350l27 350h98v-400h-40v360h-20l-31 -350h-68z" />
    <glyph glyph-name="acute" unicode="&#xb4;" horiz-adv-x="299" 
d="M188 634h-58l101 131h57z" />
    <glyph glyph-name="dieresis" unicode="&#xa8;" horiz-adv-x="252" 
d="M188 631q-12 0 -21 8.5t-9 20.5t9 21t21 9t20.5 -9t8.5 -21t-8.5 -20.5t-20.5 -8.5zM66 631q-12 0 -20.5 8.5t-8.5 20.5t8.5 21t20.5 9t21 -9t9 -21t-9 -20.5t-21 -8.5z" />
    <glyph glyph-name="AE" unicode="&#xc6;" horiz-adv-x="513" 
d="M108 264h137v492h-40q-6 0 -7.5 -5t-2.5 -8zM295 756v-290h171v-50h-171v-366h198v-50h-248v214h-146l-39 -214h-50l139 772q2 12 14.5 23t28.5 11h301v-50h-198z" />
    <glyph glyph-name="yen" unicode="&#xa5;" horiz-adv-x="424" 
d="M46 245h141v76q-14 3 -23 12.5t-11 20.5l-143 412h50l139 -383q0 -3 2 -6q2 -2 3.5 -4.5t4.5 -2.5h8q6 0 7.5 5t2.5 8l137 383h50l-141 -412q-2 -11 -12 -21t-24 -13v-75h135v-50h-135v-36h135v-50h-135v-109h-50v109h-141v50h141v36h-141v50z" />
    <glyph glyph-name="ordfeminine" unicode="&#xaa;" horiz-adv-x="263" 
d="M35 330v39h193v-39h-193zM85 484q0 -4 2.5 -11t15.5 -7q11 0 24 6t24 14q13 9 27 20v97l-69 -22q-14 -5 -19 -15.5t-5 -22.5v-59zM178 694q0 40 -40 40t-40 -40v-12h-40v12q0 34 23.5 57t56.5 23t56.5 -23t23.5 -57v-262h-40v30q-14 -10 -27 -18q-11 -7 -24 -12.5
t-24 -5.5q-24 0 -41 17t-17 41v59q0 20 4.5 32.5t12 20.5t18 13.5t23.5 10.5l75 24v50z" />
    <glyph glyph-name="ordmasculine" unicode="&#xba;" horiz-adv-x="284" 
d="M45 330v39h194v-39h-194zM228 506q0 -33 -23.5 -56.5t-56.5 -23.5h-13q-34 0 -57 23.5t-23 56.5v188q0 34 23 57t57 23h13q33 0 56.5 -23t23.5 -57v-188zM188 694q0 22 -13 31t-27 9h-13q-14 0 -27 -9t-13 -31v-188q0 -22 13 -31t27 -9h13q14 0 27 9t13 31v188z" />
    <glyph glyph-name="ae" unicode="&#xe6;" horiz-adv-x="591" 
d="M506 357v80q0 35 -24 59t-59 24h-22q-39 0 -61 -24.5t-22 -58.5v-80h188zM80 86q0 -17 14.5 -31.5t31.5 -14.5q20 0 44.5 13t46.5 29q26 18 51 41v169l-118 -37q-35 -14 -52.5 -40.5t-17.5 -59.5v-69zM423 40q35 0 59 24t24 59v72h50v-72q0 -28 -10.5 -52t-28.5 -42
t-42 -28.5t-52 -10.5h-22q-42 0 -74.5 22t-47.5 58l-11 -8q-25 -20 -51 -36q-22 -14 -46.5 -25t-44.5 -11q-40 0 -68 28t-28 68v69q0 53 28 90.5t71 54.5l139 44v93q0 39 -22 61t-61 22t-61 -24t-22 -59v-20h-50v20q0 30 10.5 54.5t28.5 42t42 27t52 9.5q34 0 62.5 -14
t46.5 -40q18 25 46 39.5t61 14.5h22q28 0 52 -10.5t42 -28.5t28.5 -42t10.5 -52v-129h-238v-185q0 -35 24 -59t59 -24h22z" />
    <glyph glyph-name="oslash" unicode="&#xf8;" horiz-adv-x="408" 
d="M193 520q-35 0 -59 -24t-24 -59v-320l159 382q-23 21 -54 21h-22zM298 437q0 6 -1 9l-160 -385q23 -21 56 -21h22q35 0 59 24t24 59v314zM100 -27h-50l32 76q-22 33 -22 74v314q0 28 10.5 52t28.5 42t42 28.5t52 10.5h22q42 0 74 -23l19 44h50l-33 -79q11 -17 17 -35.5
t6 -39.5v-314q0 -27 -10.5 -51.5t-28.5 -42.5t-42 -28.5t-52 -10.5h-22q-22 0 -41 6.5t-35 17.5z" />
    <glyph glyph-name="questiondown" unicode="&#xbf;" horiz-adv-x="388" 
d="M202 640h50v-106h-50v106zM252 445v-183q0 -25 -9 -46.5t-25 -37t-37 -24t-45 -8.5q-13 0 -21.5 -7t-14 -17.5t-8 -22t-2.5 -19.5v-113q0 -35 24 -59t59 -24h42q35 0 59 24t24 59v104h50v-104q0 -28 -10.5 -52t-28.5 -42t-42 -28.5t-52 -10.5h-42q-28 0 -52 10.5
t-42 28.5t-28.5 42t-10.5 52v113q0 20 5 40.5t16.5 37t30 27.5t44.5 11q8 0 19.5 3t22 10.5t17.5 20.5t7 32v183h50z" />
    <glyph glyph-name="exclamdown" unicode="&#xa1;" horiz-adv-x="272" 
d="M110 433h50v-590h-50v590zM110 639h50v-106h-50v106z" />
    <glyph glyph-name="logicalnot" unicode="&#xac;" horiz-adv-x="420" 
d="M40 307v49h340v-181h-49v132h-291z" />
    <glyph glyph-name="guillemotright" unicode="&#xbb;" horiz-adv-x="464" 
d="M50 352l33 34l201 -147l-201 -147l-33 34l158 113zM200 352l33 34l201 -147l-201 -147l-33 34l158 113z" />
    <glyph glyph-name="Agrave" unicode="&#xc0;" horiz-adv-x="421" 
d="M95 965h57l101 -131h-57zM108 264h204l-89 479q0 4 -2 7q-4 6 -8 6h-8q-6 0 -7.5 -5t-2.5 -8zM361 0l-40 214h-222l-39 -214h-50l139 772q2 12 14.5 23t28.5 11h34q16 0 28.5 -10.5t14.5 -23.5l142 -772h-50z" />
    <glyph glyph-name="Atilde" unicode="&#xc3;" horiz-adv-x="421" 
d="M80 895q8 9 23.5 20t38.5 11q18 0 35.5 -5.5t34 -12t33.5 -12t34 -5.5q20 0 32.5 8.5t23.5 19.5l5 -46q-8 -9 -23 -20.5t-38 -11.5q-18 0 -35.5 5.5t-34 12t-33.5 12t-34 5.5q-20 0 -33 -8t-24 -19zM108 264h204l-89 479q0 4 -2 7q-4 6 -8 6h-8q-6 0 -7.5 -5t-2.5 -8z
M361 0l-40 214h-222l-39 -214h-50l139 772q2 12 14.5 23t28.5 11h34q16 0 28.5 -10.5t14.5 -23.5l142 -772h-50z" />
    <glyph glyph-name="Otilde" unicode="&#xd5;" horiz-adv-x="418" 
d="M77 895q8 9 23.5 20t38.5 11q18 0 35.5 -5.5t34 -12t33.5 -12t34 -5.5q20 0 32.5 8.5t23.5 19.5l5 -46q-8 -9 -23 -20.5t-38 -11.5q-18 0 -35.5 5.5t-34 12t-33.5 12t-34 5.5q-20 0 -33 -8t-24 -19zM363 662q0 30 -11 56.5t-30.5 46t-46 30.5t-56.5 11h-20q-30 0 -56 -11
t-45.5 -30.5t-31 -46t-11.5 -56.5v-528q0 -30 11.5 -56t31 -45.5t45.5 -31t56 -11.5h20q30 0 56.5 11.5t46 31t30.5 45.5t11 56v528zM313 134q0 -19 -7.5 -36.5t-20 -30t-29.5 -20t-37 -7.5h-20q-19 0 -36.5 7.5t-30 20t-20 30t-7.5 36.5v528q0 20 7.5 37t20 29.5t30 20
t36.5 7.5h20q20 0 37 -7.5t29.5 -20t20 -29.5t7.5 -37v-528z" />
    <glyph glyph-name="OE" unicode="&#x152;" horiz-adv-x="581" 
d="M199 756q-19 0 -36.5 -7.5t-30 -20t-20 -29.5t-7.5 -37v-528q0 -19 7.5 -36.5t20 -30t30 -20t36.5 -7.5h20q20 0 37 7.5t29.5 20t20 30t7.5 36.5v532q0 19 -7.5 35.5t-20.5 28.5t-30 19t-36 7h-20zM363 750v-284h171v-50h-171v-366h198v-50h-248v24q-19 -16 -43 -25
t-51 -9h-20q-30 0 -56 11.5t-45.5 31t-31 45.5t-11.5 56v528q0 30 11.5 56.5t31 46t45.5 30.5t56 11h20q27 0 51 -9t43 -26v29h248v-50h-198z" />
    <glyph glyph-name="oe" unicode="&#x153;" horiz-adv-x="611" 
d="M526 357v80q0 35 -24 59t-59 24h-22q-35 0 -59 -24t-24 -59v-80h188zM183 520q-35 0 -59 -24t-24 -59v-314q0 -35 24 -59t59 -24h22q34 0 58.5 23t24.5 56v318q0 35 -24 59t-59 24h-22zM443 40q35 0 59 24t24 59v72h50v-72q0 -28 -10.5 -52t-28.5 -42t-42 -28.5
t-52 -10.5h-22q-34 0 -62 14.5t-46 40.5q-18 -26 -46.5 -40.5t-61.5 -14.5h-22q-28 0 -52 10.5t-42 28.5t-28.5 42.5t-10.5 51.5v314q0 28 10.5 52t28.5 42t42 28.5t52 10.5h22q33 0 61.5 -14.5t46.5 -40.5q18 26 46 40.5t62 14.5h22q28 0 52 -10.5t42 -28.5t28.5 -42
t10.5 -52v-129h-238v-185q0 -35 24 -59t59 -24h22z" />
    <glyph glyph-name="quotedblright" unicode="&#x201d;" horiz-adv-x="287" 
d="M186 593l-44 16l29 76q3 11 3 22q0 20 -9.5 31.5t-34.5 20.5l16 44q42 -15 59 -39t17 -58q0 -19 -7 -38zM86 593l-44 16l29 76q3 11 3 22q0 20 -9.5 31.5t-34.5 20.5l16 44q42 -15 59 -39t17 -58q0 -19 -7 -38z" />
    <glyph glyph-name="ydieresis" unicode="&#xff;" horiz-adv-x="335" 
d="M229 631q-12 0 -21 8.5t-9 20.5t9 21t21 9t20.5 -9t8.5 -21t-8.5 -20.5t-20.5 -8.5zM107 631q-12 0 -20.5 8.5t-8.5 20.5t8.5 21t20.5 9t21 -9t9 -21t-9 -20.5t-21 -8.5zM108 24q2 -13 14.5 -23.5t28.5 -10.5h20l-27 -148h50l131 715h-50l-95 -517h-16q-3 0 -4.5 2.5
t-3.5 4.5q-2 3 -2 6l-94 505h-50z" />
    <glyph glyph-name="Ydieresis" unicode="&#x178;" horiz-adv-x="424" 
d="M270 831q-12 0 -21 8.5t-9 20.5t9 21t21 9t20.5 -9t8.5 -21t-8.5 -20.5t-20.5 -8.5zM148 831q-12 0 -20.5 8.5t-8.5 20.5t8.5 21t20.5 9t21 -9t9 -21t-9 -20.5t-21 -8.5zM364 800h50l-141 -546q-2 -11 -12 -21t-24 -13v-220h-50v221q-14 3 -23 12.5t-11 20.5l-143 546h50
l139 -517q0 -3 2 -6q2 -2 3.5 -4.5t4.5 -2.5h8q6 0 7.5 5t2.5 8z" />
    <glyph glyph-name="fraction" unicode="&#x2044;" horiz-adv-x="302" 
d="M50 0h-50l252 798h50z" />
    <glyph glyph-name="guilsinglright" unicode="&#x203a;" horiz-adv-x="314" 
d="M50 352l33 34l201 -147l-201 -147l-33 34l158 113z" />
    <glyph glyph-name="periodcentered" unicode="&#xb7;" horiz-adv-x="159" 
d="M79 260q-12 0 -20.5 8.5t-8.5 20.5t8.5 21t20.5 9t21 -9t9 -21t-9 -20.5t-21 -8.5z" />
    <glyph glyph-name="Acircumflex" unicode="&#xc2;" horiz-adv-x="421" 
d="M210 935h-3l-77 -98h-50l124 148h9l124 -148h-50zM108 264h204l-89 479q0 4 -2 7q-4 6 -8 6h-8q-6 0 -7.5 -5t-2.5 -8zM361 0l-40 214h-222l-39 -214h-50l139 772q2 12 14.5 23t28.5 11h34q16 0 28.5 -10.5t14.5 -23.5l142 -772h-50z" />
    <glyph glyph-name="Ecircumflex" unicode="&#xca;" horiz-adv-x="347" 
d="M200 935h-3l-77 -98h-50l124 148h9l124 -148h-50zM126 750v-284h171v-50h-171v-366h198v-50h-248v800h248v-50h-198z" />
    <glyph glyph-name="Aacute" unicode="&#xc1;" horiz-adv-x="421" 
d="M233 834h-58l101 131h57zM108 264h204l-89 479q0 4 -2 7q-4 6 -8 6h-8q-6 0 -7.5 -5t-2.5 -8zM361 0l-40 214h-222l-39 -214h-50l139 772q2 12 14.5 23t28.5 11h34q16 0 28.5 -10.5t14.5 -23.5l142 -772h-50z" />
    <glyph glyph-name="Edieresis" unicode="&#xcb;" horiz-adv-x="338" 
d="M255 831q-12 0 -21 8.5t-9 20.5t9 21t21 9t20.5 -9t8.5 -21t-8.5 -20.5t-20.5 -8.5zM133 831q-12 0 -20.5 8.5t-8.5 20.5t8.5 21t20.5 9t21 -9t9 -21t-9 -20.5t-21 -8.5zM120 750v-284h171v-50h-171v-366h198v-50h-248v800h248v-50h-198z" />
    <glyph glyph-name="Egrave" unicode="&#xc8;" horiz-adv-x="338" 
d="M87 965h57l101 -131h-57zM120 750v-284h171v-50h-171v-366h198v-50h-248v800h248v-50h-198z" />
    <glyph glyph-name="Iacute" unicode="&#xcd;" horiz-adv-x="208" 
d="M103 834h-58l101 131h57zM125 0h-50v800h50v-800z" />
    <glyph glyph-name="Icircumflex" unicode="&#xce;" horiz-adv-x="200" 
d="M102 935h-3l-77 -98h-50l124 148h9l124 -148h-50zM125 0h-50v800h50v-800z" />
    <glyph glyph-name="Idieresis" unicode="&#xcf;" horiz-adv-x="196" 
d="M159 831q-12 0 -21 8.5t-9 20.5t9 21t21 9t20.5 -9t8.5 -21t-8.5 -20.5t-20.5 -8.5zM37 831q-12 0 -20.5 8.5t-8.5 20.5t8.5 21t20.5 9t21 -9t9 -21t-9 -20.5t-21 -8.5zM125 800h-50v-800h50v800z" />
    <glyph glyph-name="Igrave" unicode="&#xcc;" horiz-adv-x="208" 
d="M0 965h57l101 -131h-57zM125 800h-50v-800h50v800z" />
    <glyph glyph-name="Oacute" unicode="&#xd3;" horiz-adv-x="418" 
d="M238 834h-58l101 131h57zM363 134q0 -30 -11 -56t-30.5 -45.5t-46 -31t-56.5 -11.5h-20q-30 0 -56 11.5t-45.5 31t-31 45.5t-11.5 56v528q0 30 11.5 56.5t31 46t45.5 30.5t56 11h20q30 0 56.5 -11t46 -30.5t30.5 -46t11 -56.5v-528zM313 662q0 20 -7.5 37t-20 29.5
t-29.5 20t-37 7.5h-20q-19 0 -36.5 -7.5t-30 -20t-20 -29.5t-7.5 -37v-528q0 -19 7.5 -36.5t20 -30t30 -20t36.5 -7.5h20q20 0 37 7.5t29.5 20t20 30t7.5 36.5v528z" />
    <glyph glyph-name="Ocircumflex" unicode="&#xd4;" horiz-adv-x="418" 
d="M208 935h-3l-77 -98h-50l124 148h9l124 -148h-50zM363 134q0 -30 -11 -56t-30.5 -45.5t-46 -31t-56.5 -11.5h-20q-30 0 -56 11.5t-45.5 31t-31 45.5t-11.5 56v528q0 30 11.5 56.5t31 46t45.5 30.5t56 11h20q30 0 56.5 -11t46 -30.5t30.5 -46t11 -56.5v-528zM313 662
q0 20 -7.5 37t-20 29.5t-29.5 20t-37 7.5h-20q-19 0 -36.5 -7.5t-30 -20t-20 -29.5t-7.5 -37v-528q0 -19 7.5 -36.5t20 -30t30 -20t36.5 -7.5h20q20 0 37 7.5t29.5 20t20 30t7.5 36.5v528z" />
    <glyph glyph-name="Ograve" unicode="&#xd2;" horiz-adv-x="418" 
d="M112 965h57l101 -131h-57zM363 662q0 30 -11 56.5t-30.5 46t-46 30.5t-56.5 11h-20q-30 0 -56 -11t-45.5 -30.5t-31 -46t-11.5 -56.5v-528q0 -30 11.5 -56t31 -45.5t45.5 -31t56 -11.5h20q30 0 56.5 11.5t46 31t30.5 45.5t11 56v528zM313 134q0 -19 -7.5 -36.5t-20 -30
t-29.5 -20t-37 -7.5h-20q-19 0 -36.5 7.5t-30 20t-20 30t-7.5 36.5v528q0 20 7.5 37t20 29.5t30 20t36.5 7.5h20q20 0 37 -7.5t29.5 -20t20 -29.5t7.5 -37v-528z" />
    <glyph glyph-name="Uacute" unicode="&#xda;" horiz-adv-x="428" 
d="M243 834h-58l101 131h57zM318 800h50v-666q0 -30 -11 -56t-30.5 -45.5t-46 -31t-56.5 -11.5h-20q-30 0 -56 11.5t-45.5 31t-31 45.5t-11.5 56v666h50v-666q0 -19 7.5 -36.5t20 -30t30 -20t36.5 -7.5h20q20 0 37 7.5t29.5 20t20 30t7.5 36.5v666z" />
    <glyph glyph-name="Ucircumflex" unicode="&#xdb;" horiz-adv-x="428" 
d="M216 935h-3l-77 -98h-50l124 148h9l124 -148h-50zM318 800h50v-666q0 -30 -11 -56t-30.5 -45.5t-46 -31t-56.5 -11.5h-20q-30 0 -56 11.5t-45.5 31t-31 45.5t-11.5 56v666h50v-666q0 -19 7.5 -36.5t20 -30t30 -20t36.5 -7.5h20q20 0 37 7.5t29.5 20t20 30t7.5 36.5v666z
" />
    <glyph glyph-name="Ugrave" unicode="&#xd9;" horiz-adv-x="428" 
d="M117 965h57l101 -131h-57zM318 134q0 -19 -7.5 -36.5t-20 -30t-29.5 -20t-37 -7.5h-20q-19 0 -36.5 7.5t-30 20t-20 30t-7.5 36.5v666h-50v-666q0 -30 11.5 -56t31 -45.5t45.5 -31t56 -11.5h20q30 0 56.5 11.5t46 31t30.5 45.5t11 56v666h-50v-666z" />
    <glyph glyph-name="circumflex" unicode="&#x2c6;" horiz-adv-x="310" 
d="M161 735h-3l-77 -98h-50l124 148h9l124 -148h-50z" />
    <glyph glyph-name="tilde" unicode="&#x2dc;" horiz-adv-x="307" 
d="M24 695q8 9 23.5 20t38.5 11q18 0 35.5 -5.5t34 -12t33.5 -12t34 -5.5q20 0 32.5 8.5t23.5 19.5l5 -46q-8 -9 -23 -20.5t-38 -11.5q-18 0 -35.5 5.5t-34 12t-33.5 12t-34 5.5q-20 0 -33 -8t-24 -19z" />
    <glyph glyph-name="macron" unicode="&#xaf;" horiz-adv-x="300" 
d="M40 647v49h220v-49h-220z" />
    <glyph glyph-name="breve" unicode="&#x2d8;" horiz-adv-x="232" 
d="M212 750q0 -40 -28 -68t-68 -28t-68 28t-28 68h50q0 -20 13 -33t33 -13t33 13t13 33h50z" />
    <glyph glyph-name="ring" unicode="&#x2da;" horiz-adv-x="232" 
d="M212 710q0 -40 -28 -68t-68 -28t-68 28t-28 68t28 68t68 28t68 -28t28 -68zM162 710q0 19 -13.5 32.5t-32.5 13.5t-32.5 -13.5t-13.5 -32.5t13.5 -32.5t32.5 -13.5t32.5 13.5t13.5 32.5z" />
    <glyph glyph-name="cedilla" unicode="&#xb8;" horiz-adv-x="421" 
d="M172 -192q17 -8 26.5 -11.5t20.5 -3.5q34 0 55 19.5t21 46.5q0 25 -18 45.5t-47 20.5h-33l17 102h52l-12 -54q40 -9 65.5 -41.5t25.5 -72.5q0 -24 -9 -45t-25.5 -37t-40 -25t-51.5 -9q-18 0 -37 6.5t-45 23.5z" />
    <glyph glyph-name="caron" unicode="&#x2c7;" horiz-adv-x="396" 
d="M198 677h3l77 98h50l-124 -148h-9l-124 148h50z" />
    <glyph glyph-name="y_alt" unicode="&#x220f;" 
d="M55 -105h155q35 0 59 24t24 59v84q-25 -20 -51 -36q-22 -14 -46.5 -25t-44.5 -11q-40 0 -68 28t-28 68v474h50v-474q0 -21 14.5 -33.5t31.5 -12.5q20 0 44.5 12.5t46.5 28.5q26 18 51 41v438h50v-584q0 -28 -10.5 -52t-28.5 -41.5t-42 -27.5t-52 -10h-155v50z" />
    <glyph glyph-name="aacute" unicode="&#xe1;" horiz-adv-x="373" 
d="M199 634h-58l101 131h57zM268 437q0 39 -22 61t-61 22t-61 -24t-22 -59v-20h-50v20q0 30 10.5 54.5t28.5 42t42 27t52 9.5t52 -9.5t42 -27t28.5 -42t10.5 -54.5v-437h-50v62q-25 -20 -51 -36q-22 -14 -46.5 -25t-44.5 -11q-40 0 -68 28t-28 68v69q0 53 28 90.5t71 54.5
l139 44v93zM80 86q0 -17 14.5 -31.5t31.5 -14.5q20 0 44.5 13t46.5 29q26 18 51 41v169l-118 -37q-35 -14 -52.5 -40.5t-17.5 -59.5v-69z" />
    <glyph glyph-name="eacute" unicode="&#xe9;" horiz-adv-x="373" 
d="M197 634h-58l101 131h57zM205 40q35 0 59 24t24 59v72h50v-72q0 -28 -10.5 -52t-28.5 -42t-42 -28.5t-52 -10.5h-22q-28 0 -52 10.5t-42 28.5t-28.5 42t-10.5 52v314q0 28 10.5 52t28.5 42t42 28.5t52 10.5h22q28 0 52 -10.5t42 -28.5t28.5 -42t10.5 -52v-129h-238v-185
q0 -35 24 -59t59 -24h22zM288 357v80q0 35 -24 59t-59 24h-22q-35 0 -59 -24t-24 -59v-80h188z" />
    <glyph glyph-name="oacute" unicode="&#xf3;" horiz-adv-x="388" 
d="M207 634h-58l101 131h57zM338 123q0 -27 -10.5 -51.5t-28.5 -42.5t-42 -28.5t-52 -10.5h-22q-28 0 -52 10.5t-42 28.5t-28.5 42.5t-10.5 51.5v314q0 28 10.5 52t28.5 42t42 28.5t52 10.5h22q28 0 52 -10.5t42 -28.5t28.5 -42t10.5 -52v-314zM288 437q0 35 -24 59t-59 24
h-22q-35 0 -59 -24t-24 -59v-314q0 -35 24 -59t59 -24h22q35 0 59 24t24 59v314z" />
    <glyph glyph-name="uacute" unicode="&#xfa;" 
d="M237 634h-58l101 131h57zM343 560v-560h-50v62q-25 -20 -51 -36q-22 -14 -46.5 -25t-44.5 -11q-40 0 -68 28t-28 68v474h50v-474q0 -21 14.5 -33.5t31.5 -12.5q20 0 44.5 12.5t46.5 28.5q26 18 51 41v438h50z" />
    <glyph glyph-name="atilde" unicode="&#xe3;" horiz-adv-x="373" 
d="M46 695q8 9 23.5 20t38.5 11q18 0 35.5 -5.5t34 -12t33.5 -12t34 -5.5q20 0 32.5 8.5t23.5 19.5l5 -46q-8 -9 -23 -20.5t-38 -11.5q-18 0 -35.5 5.5t-34 12t-33.5 12t-34 5.5q-20 0 -33 -8t-24 -19zM268 344l-139 -44q-43 -17 -71 -54.5t-28 -90.5v-69q0 -40 28 -68
t68 -28q20 0 44.5 11t46.5 25q26 16 51 36v-62h50v437q0 30 -10.5 54.5t-28.5 42t-42 27t-52 9.5t-52 -9.5t-42 -27t-28.5 -42t-10.5 -54.5v-20h50v20q0 35 22 59t61 24t61 -22t22 -61v-93zM80 155q0 33 17.5 59.5t52.5 40.5l118 37v-169q-25 -23 -51 -41q-22 -16 -46.5 -29
t-44.5 -13q-17 0 -31.5 14.5t-14.5 31.5v69z" />
    <glyph glyph-name="otilde" unicode="&#xf5;" horiz-adv-x="388" 
d="M64 695q8 9 23.5 20t38.5 11q18 0 35.5 -5.5t34 -12t33.5 -12t34 -5.5q20 0 32.5 8.5t23.5 19.5l5 -46q-8 -9 -23 -20.5t-38 -11.5q-18 0 -35.5 5.5t-34 12t-33.5 12t-34 5.5q-20 0 -33 -8t-24 -19zM338 437q0 28 -10.5 52t-28.5 42t-42 28.5t-52 10.5h-22
q-28 0 -52 -10.5t-42 -28.5t-28.5 -42t-10.5 -52v-314q0 -27 10.5 -51.5t28.5 -42.5t42 -28.5t52 -10.5h22q28 0 52 10.5t42 28.5t28.5 42.5t10.5 51.5v314zM288 123q0 -35 -24 -59t-59 -24h-22q-35 0 -59 24t-24 59v314q0 35 24 59t59 24h22q35 0 59 -24t24 -59v-314z" />
    <glyph glyph-name="acircumflex" unicode="&#xe2;" horiz-adv-x="374" 
d="M192 735h-3l-77 -98h-50l124 148h9l124 -148h-50zM268 437q0 39 -22 61t-61 22t-61 -24t-22 -59v-20h-50v20q0 30 10.5 54.5t28.5 42t42 27t52 9.5t52 -9.5t42 -27t28.5 -42t10.5 -54.5v-437h-50v62q-25 -20 -51 -36q-22 -14 -46.5 -25t-44.5 -11q-40 0 -68 28t-28 68v69
q0 53 28 90.5t71 54.5l139 44v93zM80 86q0 -17 14.5 -31.5t31.5 -14.5q20 0 44.5 13t46.5 29q26 18 51 41v169l-118 -37q-35 -14 -52.5 -40.5t-17.5 -59.5v-69z" />
    <glyph glyph-name="adieresis" unicode="&#xe4;" horiz-adv-x="373" 
d="M241 631q-12 0 -21 8.5t-9 20.5t9 21t21 9t20.5 -9t8.5 -21t-8.5 -20.5t-20.5 -8.5zM119 631q-12 0 -20.5 8.5t-8.5 20.5t8.5 21t20.5 9t21 -9t9 -21t-9 -20.5t-21 -8.5zM268 344l-139 -44q-43 -17 -71 -54.5t-28 -90.5v-69q0 -40 28 -68t68 -28q20 0 44.5 11t46.5 25
q26 16 51 36v-62h50v437q0 30 -10.5 54.5t-28.5 42t-42 27t-52 9.5t-52 -9.5t-42 -27t-28.5 -42t-10.5 -54.5v-20h50v20q0 35 22 59t61 24t61 -22t22 -61v-93zM80 155q0 33 17.5 59.5t52.5 40.5l118 37v-169q-25 -23 -51 -41q-22 -16 -46.5 -29t-44.5 -13q-17 0 -31.5 14.5
t-14.5 31.5v69z" />
    <glyph glyph-name="aring" unicode="&#xe5;" horiz-adv-x="373" 
d="M274 710q0 -40 -28 -68t-68 -28t-68 28t-28 68t28 68t68 28t68 -28t28 -68zM224 710q0 19 -13.5 32.5t-32.5 13.5t-32.5 -13.5t-13.5 -32.5t13.5 -32.5t32.5 -13.5t32.5 13.5t13.5 32.5zM268 437q0 39 -22 61t-61 22t-61 -24t-22 -59v-20h-50v20q0 30 10.5 54.5t28.5 42
t42 27t52 9.5t52 -9.5t42 -27t28.5 -42t10.5 -54.5v-437h-50v62q-25 -20 -51 -36q-22 -14 -46.5 -25t-44.5 -11q-40 0 -68 28t-28 68v69q0 53 28 90.5t71 54.5l139 44v93zM80 86q0 -17 14.5 -31.5t31.5 -14.5q20 0 44.5 13t46.5 29q26 18 51 41v169l-118 -37
q-35 -14 -52.5 -40.5t-17.5 -59.5v-69z" />
    <glyph glyph-name="ecircumflex" unicode="&#xea;" horiz-adv-x="373" 
d="M195 735h-3l-77 -98h-50l124 148h9l124 -148h-50zM205 40q35 0 59 24t24 59v72h50v-72q0 -28 -10.5 -52t-28.5 -42t-42 -28.5t-52 -10.5h-22q-28 0 -52 10.5t-42 28.5t-28.5 42t-10.5 52v314q0 28 10.5 52t28.5 42t42 28.5t52 10.5h22q28 0 52 -10.5t42 -28.5t28.5 -42
t10.5 -52v-129h-238v-185q0 -35 24 -59t59 -24h22zM288 357v80q0 35 -24 59t-59 24h-22q-35 0 -59 -24t-24 -59v-80h188z" />
    <glyph glyph-name="edieresis" unicode="&#xeb;" horiz-adv-x="373" 
d="M253 631q-12 0 -21 8.5t-9 20.5t9 21t21 9t20.5 -9t8.5 -21t-8.5 -20.5t-20.5 -8.5zM131 631q-12 0 -20.5 8.5t-8.5 20.5t8.5 21t20.5 9t21 -9t9 -21t-9 -20.5t-21 -8.5zM183 40q-35 0 -59 24t-24 59v185h238v129q0 28 -10.5 52t-28.5 42t-42 28.5t-52 10.5h-22
q-28 0 -52 -10.5t-42 -28.5t-28.5 -42t-10.5 -52v-314q0 -28 10.5 -52t28.5 -42t42 -28.5t52 -10.5h22q28 0 52 10.5t42 28.5t28.5 42t10.5 52v72h-50v-72q0 -35 -24 -59t-59 -24h-22zM100 357v80q0 35 24 59t59 24h22q35 0 59 -24t24 -59v-80h-188z" />
    <glyph glyph-name="agrave" unicode="&#xe0;" horiz-adv-x="373" 
d="M111 765h57l101 -131h-57zM268 344l-139 -44q-43 -17 -71 -54.5t-28 -90.5v-69q0 -40 28 -68t68 -28q20 0 44.5 11t46.5 25q26 16 51 36v-62h50v437q0 30 -10.5 54.5t-28.5 42t-42 27t-52 9.5t-52 -9.5t-42 -27t-28.5 -42t-10.5 -54.5v-20h50v20q0 35 22 59t61 24t61 -22
t22 -61v-93zM80 155q0 33 17.5 59.5t52.5 40.5l118 37v-169q-25 -23 -51 -41q-22 -16 -46.5 -29t-44.5 -13q-17 0 -31.5 14.5t-14.5 31.5v69z" />
    <glyph glyph-name="egrave" unicode="&#xe8;" horiz-adv-x="373" 
d="M119 765h57l101 -131h-57zM183 40q-35 0 -59 24t-24 59v185h238v129q0 28 -10.5 52t-28.5 42t-42 28.5t-52 10.5h-22q-28 0 -52 -10.5t-42 -28.5t-28.5 -42t-10.5 -52v-314q0 -28 10.5 -52t28.5 -42t42 -28.5t52 -10.5h22q28 0 52 10.5t42 28.5t28.5 42t10.5 52v72h-50
v-72q0 -35 -24 -59t-59 -24h-22zM100 357v80q0 35 24 59t59 24h22q35 0 59 -24t24 -59v-80h-188z" />
    <glyph glyph-name="Adieresis" unicode="&#xc4;" horiz-adv-x="421" 
d="M268 831q-12 0 -21 8.5t-9 20.5t9 21t21 9t20.5 -9t8.5 -21t-8.5 -20.5t-20.5 -8.5zM146 831q-12 0 -20.5 8.5t-8.5 20.5t8.5 21t20.5 9t21 -9t9 -21t-9 -20.5t-21 -8.5zM108 264h204l-89 479q0 4 -2 7q-4 6 -8 6h-8q-6 0 -7.5 -5t-2.5 -8zM361 0l-40 214h-222l-39 -214
h-50l139 772q2 12 14.5 23t28.5 11h34q16 0 28.5 -10.5t14.5 -23.5l142 -772h-50z" />
    <glyph glyph-name="Odieresis" unicode="&#xd6;" horiz-adv-x="418" 
d="M266 831q-12 0 -21 8.5t-9 20.5t9 21t21 9t20.5 -9t8.5 -21t-8.5 -20.5t-20.5 -8.5zM144 831q-12 0 -20.5 8.5t-8.5 20.5t8.5 21t20.5 9t21 -9t9 -21t-9 -20.5t-21 -8.5zM363 662q0 30 -11 56.5t-30.5 46t-46 30.5t-56.5 11h-20q-30 0 -56 -11t-45.5 -30.5t-31 -46
t-11.5 -56.5v-528q0 -30 11.5 -56t31 -45.5t45.5 -31t56 -11.5h20q30 0 56.5 11.5t46 31t30.5 45.5t11 56v528zM313 134q0 -19 -7.5 -36.5t-20 -30t-29.5 -20t-37 -7.5h-20q-19 0 -36.5 7.5t-30 20t-20 30t-7.5 36.5v528q0 20 7.5 37t20 29.5t30 20t36.5 7.5h20
q20 0 37 -7.5t29.5 -20t20 -29.5t7.5 -37v-528z" />
    <glyph glyph-name="Aring" unicode="&#xc5;" horiz-adv-x="421" 
d="M305 920q0 -40 -28 -68t-68 -28t-68 28t-28 68t28 68t68 28t68 -28t28 -68zM255 920q0 19 -13.5 32.5t-32.5 13.5t-32.5 -13.5t-13.5 -32.5t13.5 -32.5t32.5 -13.5t32.5 13.5t13.5 32.5zM108 264h204l-89 479q0 4 -2 7q-4 6 -8 6h-8q-6 0 -7.5 -5t-2.5 -8zM361 0l-40 214
h-222l-39 -214h-50l139 772q2 12 14.5 23t28.5 11h34q16 0 28.5 -10.5t14.5 -23.5l142 -772h-50z" />
    <glyph glyph-name="Eacute" unicode="&#xc9;" horiz-adv-x="338" 
d="M185 834h-58l101 131h57zM120 750v-284h171v-50h-171v-366h198v-50h-248v800h248v-50h-198z" />
    <glyph glyph-name="Ntilde" unicode="&#xd1;" horiz-adv-x="485" 
d="M107 895q8 9 23.5 20t38.5 11q18 0 35.5 -5.5t34 -12t33.5 -12t34 -5.5q20 0 32.5 8.5t23.5 19.5l5 -46q-8 -9 -23 -20.5t-38 -11.5q-18 0 -35.5 5.5t-34 12t-33.5 12t-34 5.5q-20 0 -33 -8t-24 -19zM415 0v800h-50v-750h-20l-165 750h-110v-800h50v750h20l167 -750h108z
" />
    <glyph glyph-name="ntilde" unicode="&#xf1;" 
d="M71 695q8 9 23.5 20t38.5 11q18 0 35.5 -5.5t34 -12t33.5 -12t34 -5.5q20 0 32.5 8.5t23.5 19.5l5 -46q-8 -9 -23 -20.5t-38 -11.5q-18 0 -35.5 5.5t-34 12t-33.5 12t-34 5.5q-20 0 -33 -8t-24 -19zM110 0v438q25 23 51 41q22 16 46.5 28.5t44.5 12.5q17 0 31.5 -12.5
t14.5 -33.5v-474h50v474q0 40 -28 68t-68 28q-20 0 -44.5 -11t-46.5 -25q-26 -16 -51 -36v62h-50v-560h50z" />
    <glyph glyph-name="iacute" unicode="&#xed;" horiz-adv-x="206" 
d="M91 634h-58l101 131h57zM65 560h50v-474q0 -7 6.5 -15.5t16 -15t21.5 -11t22 -4.5v-50q-20 0 -40.5 7.5t-37.5 20.5t-27.5 30.5t-10.5 37.5v474z" />
    <glyph glyph-name="igrave" unicode="&#xec;" horiz-adv-x="207" 
d="M-3 765h57l101 -131h-57zM75 86q0 -20 10.5 -37.5t27.5 -30.5t37.5 -20.5t40.5 -7.5v50q-10 0 -22 4.5t-21.5 11t-16 15t-6.5 15.5v474h-50v-474z" />
    <glyph glyph-name="idieresis" unicode="&#xef;" horiz-adv-x="197" 
d="M150 631q-12 0 -21 8.5t-9 20.5t9 21t21 9t20.5 -9t8.5 -21t-8.5 -20.5t-20.5 -8.5zM28 631q-12 0 -20.5 8.5t-8.5 20.5t8.5 21t20.5 9t21 -9t9 -21t-9 -20.5t-21 -8.5zM65 86q0 -20 10.5 -37.5t27.5 -30.5t37.5 -20.5t40.5 -7.5v50q-10 0 -22 4.5t-21.5 11t-16 15
t-6.5 15.5v474h-50v-474z" />
    <glyph glyph-name="icircumflex" unicode="&#xee;" horiz-adv-x="217" 
d="M93 735h-3l-77 -98h-50l124 148h9l124 -148h-50zM66 560h50v-474q0 -7 6.5 -15.5t16 -15t21.5 -11t22 -4.5v-50q-20 0 -40.5 7.5t-37.5 20.5t-27.5 30.5t-10.5 37.5v474z" />
    <glyph glyph-name="Udieresis" unicode="&#xdc;" horiz-adv-x="428" 
d="M272 831q-12 0 -21 8.5t-9 20.5t9 21t21 9t20.5 -9t8.5 -21t-8.5 -20.5t-20.5 -8.5zM150 831q-12 0 -20.5 8.5t-8.5 20.5t8.5 21t20.5 9t21 -9t9 -21t-9 -20.5t-21 -8.5zM318 134q0 -19 -7.5 -36.5t-20 -30t-29.5 -20t-37 -7.5h-20q-19 0 -36.5 7.5t-30 20t-20 30
t-7.5 36.5v666h-50v-666q0 -30 11.5 -56t31 -45.5t45.5 -31t56 -11.5h20q30 0 56.5 11.5t46 31t30.5 45.5t11 56v666h-50v-666z" />
    <glyph glyph-name="ugrave" unicode="&#xf9;" 
d="M106 765h57l101 -131h-57zM293 560v-438q-25 -23 -51 -41q-22 -16 -46.5 -28.5t-44.5 -12.5q-17 0 -31.5 12.5t-14.5 33.5v474h-50v-474q0 -40 28 -68t68 -28q20 0 44.5 11t46.5 25q26 16 51 36v-62h50v560h-50z" />
    <glyph glyph-name="udieresis" unicode="&#xfc;" 
d="M260 631q-12 0 -21 8.5t-9 20.5t9 21t21 9t20.5 -9t8.5 -21t-8.5 -20.5t-20.5 -8.5zM138 631q-12 0 -20.5 8.5t-8.5 20.5t8.5 21t20.5 9t21 -9t9 -21t-9 -20.5t-21 -8.5zM293 560v-438q-25 -23 -51 -41q-22 -16 -46.5 -28.5t-44.5 -12.5q-17 0 -31.5 12.5t-14.5 33.5v474
h-50v-474q0 -40 28 -68t68 -28q20 0 44.5 11t46.5 25q26 16 51 36v-62h50v560h-50z" />
    <glyph glyph-name="ograve" unicode="&#xf2;" horiz-adv-x="388" 
d="M109 765h57l101 -131h-57zM338 437q0 28 -10.5 52t-28.5 42t-42 28.5t-52 10.5h-22q-28 0 -52 -10.5t-42 -28.5t-28.5 -42t-10.5 -52v-314q0 -27 10.5 -51.5t28.5 -42.5t42 -28.5t52 -10.5h22q28 0 52 10.5t42 28.5t28.5 42.5t10.5 51.5v314zM288 123q0 -35 -24 -59
t-59 -24h-22q-35 0 -59 24t-24 59v314q0 35 24 59t59 24h22q35 0 59 -24t24 -59v-314z" />
    <glyph glyph-name="ocircumflex" unicode="&#xf4;" horiz-adv-x="388" 
d="M195 735h-3l-77 -98h-50l124 148h9l124 -148h-50zM338 123q0 -27 -10.5 -51.5t-28.5 -42.5t-42 -28.5t-52 -10.5h-22q-28 0 -52 10.5t-42 28.5t-28.5 42.5t-10.5 51.5v314q0 28 10.5 52t28.5 42t42 28.5t52 10.5h22q28 0 52 -10.5t42 -28.5t28.5 -42t10.5 -52v-314z
M288 437q0 35 -24 59t-59 24h-22q-35 0 -59 -24t-24 -59v-314q0 -35 24 -59t59 -24h22q35 0 59 24t24 59v314z" />
    <glyph glyph-name="odieresis" unicode="&#xf6;" horiz-adv-x="388" 
d="M253 631q-12 0 -21 8.5t-9 20.5t9 21t21 9t20.5 -9t8.5 -21t-8.5 -20.5t-20.5 -8.5zM131 631q-12 0 -20.5 8.5t-8.5 20.5t8.5 21t20.5 9t21 -9t9 -21t-9 -20.5t-21 -8.5zM338 437q0 28 -10.5 52t-28.5 42t-42 28.5t-52 10.5h-22q-28 0 -52 -10.5t-42 -28.5t-28.5 -42
t-10.5 -52v-314q0 -27 10.5 -51.5t28.5 -42.5t42 -28.5t52 -10.5h22q28 0 52 10.5t42 28.5t28.5 42.5t10.5 51.5v314zM288 123q0 -35 -24 -59t-59 -24h-22q-35 0 -59 24t-24 59v314q0 35 24 59t59 24h22q35 0 59 -24t24 -59v-314z" />
    <glyph glyph-name="ucircumflex" unicode="&#xfb;" 
d="M196 735h-3l-77 -98h-50l124 148h9l124 -148h-50zM343 560v-560h-50v62q-25 -20 -51 -36q-22 -14 -46.5 -25t-44.5 -11q-40 0 -68 28t-28 68v474h50v-474q0 -21 14.5 -33.5t31.5 -12.5q20 0 44.5 12.5t46.5 28.5q26 18 51 41v438h50z" />
    <glyph glyph-name="Oslash" unicode="&#xd8;" horiz-adv-x="450" 
d="M217 756q-19 0 -36.5 -7.5t-30 -20t-20 -29.5t-7.5 -37v-507l180 573q-13 13 -29.5 20.5t-36.5 7.5h-20zM237 40q20 0 37 7.5t29.5 20t20 30t7.5 36.5v523l-185 -586q13 -14 31.5 -22.5t39.5 -8.5h20zM105 -60h-50l38 120q-20 34 -20 74v528q0 30 11.5 56.5t31 46
t45.5 30.5t56 11h20q23 0 44 -7t39 -19l25 80h50l-38 -119q11 -17 17.5 -37t6.5 -42v-528q0 -30 -11 -56t-30.5 -45.5t-46 -31t-56.5 -11.5h-20q-50 0 -87 29z" />
    <glyph glyph-name="Ccedilla" unicode="&#xc7;" horiz-adv-x="413" 
d="M116 -192q17 -8 26.5 -11.5t20.5 -3.5q34 0 55 19.5t21 46.5q0 25 -18 45.5t-47 20.5h-33l12 73q-43 14 -70.5 51t-27.5 85v528q0 30 11.5 56.5t31 46t45.5 30.5t56 11h20q30 0 56.5 -11t46 -30.5t30.5 -46t11 -56.5v-126h-50v126q0 20 -7.5 37t-20 29.5t-29.5 20
t-37 7.5h-20q-19 0 -36.5 -7.5t-30 -20t-20 -29.5t-7.5 -37v-528q0 -19 7.5 -36.5t20 -30t30 -20t36.5 -7.5h20q39 0 65.5 27.5t26.5 66.5v158h52v-158q0 -30 -11 -56t-30.5 -45.5t-46 -31t-56.5 -11.5h-17l-4 -17q40 -9 65.5 -41.5t25.5 -72.5q0 -24 -9 -45t-25.5 -37
t-40 -25t-51.5 -9q-18 0 -37 6.5t-45 23.5z" />
    <glyph glyph-name="ccedilla" unicode="&#xe7;" horiz-adv-x="363" 
d="M116 -192q17 -8 26.5 -11.5t20.5 -3.5q34 0 55 19.5t21 46.5q0 25 -18 45.5t-47 20.5h-33l11 69q-45 10 -73.5 45.5t-28.5 83.5v314q0 28 10.5 52t28.5 42t42 28.5t52 10.5h22q28 0 52 -10.5t42 -28.5t28.5 -42t10.5 -52v-75h-50v75q0 35 -24 59t-59 24h-22
q-35 0 -59 -24t-24 -59v-314q0 -35 24 -59t59 -24h22q35 0 59 24t24 59v72h50v-72q0 -27 -10.5 -51.5t-28.5 -42.5t-42 -28.5t-52 -10.5h-3l-4 -17q40 -9 65.5 -41.5t25.5 -72.5q0 -24 -9 -45t-25.5 -37t-40 -25t-51.5 -9q-18 0 -37 6.5t-45 23.5z" />
    <glyph glyph-name="Euro" unicode="&#x20ac;" horiz-adv-x="448" 
d="M346 292h52v-158q0 -30 -11 -56t-30.5 -45.5t-46 -31t-56.5 -11.5h-20q-30 0 -56 11.5t-45.5 31t-31 45.5t-11.5 56v196h-55v50h55v36h-55v50h55v166q0 30 11.5 56.5t31 46t45.5 30.5t56 11h20q30 0 56.5 -11t46 -30.5t30.5 -46t11 -56.5v-126h-50v126q0 20 -7.5 37
t-20 29.5t-29.5 20t-37 7.5h-20q-19 0 -36.5 -7.5t-30 -20t-20 -29.5t-7.5 -37v-166h171v-50h-171v-36h171v-50h-171v-196q0 -19 7.5 -36.5t20 -30t30 -20t36.5 -7.5h20q39 0 65.5 27.5t26.5 66.5v158z" />
    <glyph glyph-name="perthousand" unicode="&#x2030;" horiz-adv-x="955" 
d="M895 123q0 -27 -9 -51.5t-24 -42.5t-35.5 -28.5t-44.5 -10.5h-10q-24 0 -44.5 10.5t-35.5 28.5t-24 42.5t-9 51.5v149q0 28 9 52t24 42t35.5 28.5t44.5 10.5h10q24 0 44.5 -10.5t35.5 -28.5t24 -42t9 -52v-149zM845 272q0 35 -18.5 59t-44.5 24h-10q-26 0 -44.5 -24
t-18.5 -59v-149q0 -35 18.5 -59t44.5 -24h10q26 0 44.5 24t18.5 59v149zM240 0h-50l252 798h50zM615 123q0 -27 -9 -51.5t-24 -42.5t-35.5 -28.5t-44.5 -10.5h-10q-24 0 -44.5 10.5t-35.5 28.5t-24 42.5t-9 51.5v149q0 28 9 52t24 42t35.5 28.5t44.5 10.5h10
q24 0 44.5 -10.5t35.5 -28.5t24 -42t9 -52v-149zM565 272q0 35 -18.5 59t-44.5 24h-10q-26 0 -44.5 -24t-18.5 -59v-149q0 -35 18.5 -59t44.5 -24h10q26 0 44.5 24t18.5 59v149zM296 496q0 -27 -9 -51.5t-24 -42.5t-35.5 -28.5t-44.5 -10.5h-10q-24 0 -44.5 10.5t-35.5 28.5
t-24 42.5t-9 51.5v149q0 28 9 52t24 42t35.5 28.5t44.5 10.5h10q24 0 44.5 -10.5t35.5 -28.5t24 -42t9 -52v-149zM246 645q0 35 -18.5 59t-44.5 24h-10q-26 0 -44.5 -24t-18.5 -59v-149q0 -35 18.5 -59t44.5 -24h10q26 0 44.5 24t18.5 59v149z" />
    <glyph glyph-name="eth" unicode="&#xf0;" horiz-adv-x="363" 
d="M278 554v112q0 14 -6 26.5t-16 22t-22.5 15.5t-26.5 6h-21q-17 0 -34 -8t-30.5 -21.5t-21.5 -30.5t-8 -34v-78h-50v78q0 30 11.5 56.5t31 46t45.5 30.5t56 11h22q25 0 46.5 -9.5t38 -26t26 -38t9.5 -46.5v-112h50v-49h-50v-381q0 -27 -10.5 -51.5t-28.5 -42.5t-42 -28.5
t-52 -10.5h-22q-28 0 -52 10.5t-42 28.5t-28.5 42.5t-10.5 51.5v177q0 27 10.5 51.5t28.5 42.5t42 28.5t52 10.5h22q19 0 34 -4.5t26 -10t17 -10.5l6 -5v101h-84v49h84zM278 306q0 33 -24.5 55.5t-58.5 22.5h-22q-35 0 -59 -24t-24 -59v-177q0 -35 24 -59t59 -24h22
q35 0 59 24t24 59v182z" />
    <glyph glyph-name="parenright" unicode=")" horiz-adv-x="295" 
d="M98 842q72 -91 114.5 -203.5t42.5 -258.5t-42.5 -258t-114.5 -204h-58q78 97 123 213.5t45 248.5t-45 248.5t-123 213.5h58z" />
    <glyph glyph-name="braceright" unicode="}" horiz-adv-x="229" 
d="M40 860q42 -5 66.5 -36t24.5 -97v-188q0 -37 4.5 -57.5t14.5 -30t24.5 -11.5t34.5 -2v-76q-20 0 -34.5 -2t-24.5 -11.5t-14.5 -30t-4.5 -57.5v-188q0 -66 -24.5 -97t-66.5 -36v50q19 5 30 22t11 61v188q0 38 4.5 63t14 40t24.5 21t35 7v16q-19 1 -34 7.5t-24.5 21.5
t-14.5 40t-5 62v188q0 41 -11 59.5t-30 23.5v50z" />
    <glyph glyph-name="onesuperior" unicode="&#xb9;" horiz-adv-x="239" 
d="M164 360h-50v355h-39v50h89v-405z" />
    <glyph glyph-name="onequarter" unicode="&#xbc;" horiz-adv-x="581" 
d="M461 145v215h-10l-62 -215h72zM511 408v-263h20v-50h-20v-95h-50v95h-148l110 313h88zM190 0h-50l252 798h50zM164 360h-50v355h-39v50h89v-405z" />
    <glyph glyph-name="twosuperior" unicode="&#xb2;" horiz-adv-x="286" 
d="M226 410v-50h-166v50q0 27 3.5 45.5t10.5 32.5t17.5 25.5t23.5 25.5q32 33 46.5 66t14.5 68v22q0 14 -7.5 20t-18.5 6h-9q-11 0 -18.5 -6t-7.5 -20h-50q0 32 22 54t54 22h9q32 0 54 -22t22 -54v-22q0 -54 -20 -92t-51 -72q-13 -15 -22 -25t-13.5 -20.5t-6.5 -23t-2 -30.5
h115z" />
    <glyph glyph-name="threesuperior" unicode="&#xb3;" horiz-adv-x="281" 
d="M167 702q0 4 -4.5 11t-15.5 7h-21q-11 0 -15.5 -7t-4.5 -11v-7h-50v12q0 26 22 44.5t48 18.5h21q26 0 48 -18.5t22 -44.5v-62q0 -20 -9.5 -37t-26.5 -25q20 -8 30 -25t10 -39v-100q0 -26 -22 -44.5t-48 -18.5h-21q-26 0 -48 18.5t-22 44.5v91h50v-86q0 -4 4.5 -11
t15.5 -7h21q11 0 15.5 7t4.5 11v95q0 11 -5 19t-12.5 13.5t-16.5 8.5t-16 3h-32v40h32q12 1 23 5q9 4 16 12.5t7 24.5v57z" />
    <glyph glyph-name="threequarters" unicode="&#xbe;" horiz-adv-x="565" 
d="M435 145v215h-10l-62 -215h72zM485 408v-263h20v-50h-20v-95h-50v95h-148l110 313h88zM194 0h-50l252 798h50zM167 702q0 4 -4.5 11t-15.5 7h-21q-11 0 -15.5 -7t-4.5 -11v-7h-50v12q0 26 22 44.5t48 18.5h21q26 0 48 -18.5t22 -44.5v-62q0 -20 -9.5 -37t-26.5 -25
q20 -8 30 -25t10 -39v-100q0 -26 -22 -44.5t-48 -18.5h-21q-26 0 -48 18.5t-22 44.5v91h50v-86q0 -4 4.5 -11t15.5 -7h21q11 0 15.5 7t4.5 11v95q0 11 -5 19t-12.5 13.5t-16.5 8.5t-16 3h-32v40h32q12 1 23 5q9 4 16 12.5t7 24.5v57z" />
    <glyph glyph-name="Lslash" unicode="&#x141;" horiz-adv-x="358" 
d="M246 458l-96 -49v-359h198v-50h-247v384l-51 -26v49l51 26v367h49v-342l96 49v-49z" />
    <glyph glyph-name="period" unicode="." horiz-adv-x="159" 
d="M79 0q-12 0 -20.5 8.5t-8.5 20.5t8.5 21t20.5 9t21 -9t9 -21t-9 -20.5t-21 -8.5z" />
    <glyph glyph-name="ellipsis" unicode="&#x2026;" horiz-adv-x="519" 
d="M409 0q-12 0 -20.5 8.5t-8.5 20.5t8.5 21t20.5 9t21 -9t9 -21t-9 -20.5t-21 -8.5zM259 0q-12 0 -20.5 8.5t-8.5 20.5t8.5 21t20.5 9t21 -9t9 -21t-9 -20.5t-21 -8.5zM109 0q-12 0 -20.5 8.5t-8.5 20.5t8.5 21t20.5 9t21 -9t9 -21t-9 -20.5t-21 -8.5z" />
    <glyph glyph-name="minus" unicode="&#x2212;" horiz-adv-x="430" 
d="M40 327v49h350v-49h-350z" />
    <glyph glyph-name="multiply" unicode="&#xd7;" horiz-adv-x="458" 
d="M96 455l35 34l106 -106l98 98l35 -34l-99 -99l107 -106l-34 -35l-107 107l-115 -115l-34 35l114 114z" />
    <glyph glyph-name="lslash" unicode="&#x142;" horiz-adv-x="226" 
d="M221 458l-76 -39v-333q0 -7 6.5 -15.5t16 -15t21.5 -11t22 -4.5v-50q-20 0 -40.5 7.5t-37.5 20.5t-27.5 30.5t-10.5 37.5v307l-70 -35v49l70 35v322h50v-296l76 39v-49z" />
    <glyph glyph-name="asterisk" unicode="*" horiz-adv-x="436" 
d="M243 775v-134l133 32v-47l-123 -34l107 -106l-36 -31l-106 106l-106 -106l-36 31l107 106l-123 34v47l133 -32v134h50z" />
    <glyph glyph-name="semicolon" unicode=";" horiz-adv-x="203" 
d="M133 155h-50v-311h50v311zM109 434q-12 0 -20.5 8.5t-8.5 20.5t8.5 21t20.5 9t21 -9t9 -21t-9 -20.5t-21 -8.5z" />
    <glyph glyph-name="greater" unicode="&#x3e;" horiz-adv-x="308" 
d="M278 415l-196 -251l-32 33l170 218l-162 210l33 32z" />
    <glyph glyph-name="quotesingle" unicode="'" horiz-adv-x="180" 
d="M115 506h-50v258h50v-258z" />
    <glyph glyph-name="quotedbl" unicode="&#x22;" horiz-adv-x="280" 
d="M215 506h-50v258h50v-258zM115 506h-50v258h50v-258z" />
    <glyph glyph-name="guilsinglleft" unicode="&#x2039;" horiz-adv-x="314" 
d="M106 239l158 -113l-33 -34l-201 147l201 147l33 -34z" />
    <glyph glyph-name="guillemotleft" unicode="&#xab;" horiz-adv-x="464" 
d="M256 239l158 -113l-33 -34l-201 147l201 147l33 -34zM106 239l158 -113l-33 -34l-201 147l201 147l33 -34z" />
    <glyph glyph-name="quotedblleft" unicode="&#x201c;" horiz-adv-x="287" 
d="M101 799l44 -16l-29 -76q-3 -10 -3 -22q0 -20 9.5 -31.5t34.5 -20.5l-16 -44q-42 15 -59 39t-17 58q0 19 7 38zM201 799l44 -16l-29 -76q-3 -10 -3 -22q0 -20 9.5 -31.5t34.5 -20.5l-16 -44q-42 15 -59 39t-17 58q0 19 7 38z" />
    <glyph glyph-name="quoteleft" unicode="&#x2018;" horiz-adv-x="187" 
d="M101 799l44 -16l-29 -76q-3 -10 -3 -22q0 -20 9.5 -31.5t34.5 -20.5l-16 -44q-42 15 -59 39t-17 58q0 19 7 38z" />
    <glyph glyph-name="quoteright" unicode="&#x2019;" horiz-adv-x="187" 
d="M86 593l-44 16l29 76q3 11 3 22q0 20 -9.5 31.5t-34.5 20.5l16 44q42 -15 59 -39t17 -58q0 -19 -7 -38z" />
    <glyph glyph-name="emdash" unicode="&#x2014;" horiz-adv-x="566" 
d="M0 327v49h566v-49h-566z" />
    <glyph glyph-name="endash" unicode="&#x2013;" horiz-adv-x="288" 
d="M0 327v49h288v-49h-288z" />
    <glyph glyph-name="florin" unicode="&#x192;" horiz-adv-x="242" 
d="M135 -59q0 -20 -10.5 -37.5t-27.5 -30.5t-37.5 -20.5t-40.5 -7.5v50q9 0 20 4t21.5 10.5t17.5 14.5t7 17v444h-80v49h80v235q0 20 10.5 37.5t27.5 30.5t37.5 20.5t40.5 7.5v-50q-9 0 -20 -4t-21.5 -10.5t-17.5 -14.5t-7 -17v-235h107v-49h-107v-444z" />
    <glyph glyph-name="plusminus" unicode="&#xb1;" horiz-adv-x="430" 
d="M40 147v49h350v-49h-350zM40 387v49h150v139h49v-139h151v-49h-151v-162h-49v162h-150z" />
    <glyph glyph-name="lessequal" unicode="&#x2264;" horiz-adv-x="440" 
d="M40 417l360 199v-49l-271 -150l271 -150v-49zM50 147v49h350v-49h-350z" />
    <glyph glyph-name="greaterequal" unicode="&#x2265;" horiz-adv-x="440" 
d="M40 218v49l271 150l-271 150v49l360 -199zM40 147v49h350v-49h-350z" />
    <glyph glyph-name="daggerdbl" unicode="&#x2021;" horiz-adv-x="317" 
d="M-10 147v49h149v411h-149v49h149v139h50v-139h151v-49h-151v-411h151v-49h-151v-142h-50v142h-149z" />
    <glyph glyph-name="dotaccent" unicode="&#x2d9;" horiz-adv-x="159" 
d="M79 616q-12 0 -20.5 8.5t-8.5 20.5t8.5 21t20.5 9t21 -9t9 -21t-9 -20.5t-21 -8.5z" />
    <glyph glyph-name="divide" unicode="&#xf7;" horiz-adv-x="430" 
d="M214 442q-12 0 -20.5 8.5t-8.5 20.5t8.5 21t20.5 9t21 -9t9 -21t-9 -20.5t-21 -8.5zM214 204q-12 0 -20.5 8.5t-8.5 20.5t8.5 21t20.5 9t21 -9t9 -21t-9 -20.5t-21 -8.5zM390 327v49h-350v-49h350z" />
    <glyph glyph-name="quotesinglbase" unicode="&#x201a;" horiz-adv-x="187" 
d="M86 -158l-44 16l29 76q3 10 3 22q0 20 -9.5 31.5t-34.5 20.5l16 44q42 -15 59 -39t17 -58q0 -19 -7 -38z" />
    <glyph glyph-name="quotedblbase" unicode="&#x201e;" horiz-adv-x="287" 
d="M186 -158l-44 16l29 76q3 10 3 22q0 20 -9.5 31.5t-34.5 20.5l16 44q42 -15 59 -39t17 -58q0 -19 -7 -38zM86 -158l-44 16l29 76q3 10 3 22q0 20 -9.5 31.5t-34.5 20.5l16 44q42 -15 59 -39t17 -58q0 -19 -7 -38z" />
    <glyph glyph-name="hungarumlaut" unicode="&#x2dd;" horiz-adv-x="319" 
d="M108 634h-58l101 131h57zM208 634h-58l101 131h57z" />
    <glyph glyph-name="ogonek" unicode="&#x2db;" horiz-adv-x="535" 
d="M211 -15q-24 -11 -36.5 -28.5t-12.5 -33.5q0 -26 18 -43.5t44 -17.5q16 0 36.5 11t32.5 33l43 -16q-9 -18 -22.5 -31.5t-29 -23.5t-31.5 -15t-29 -5q-23 0 -43 8.5t-34.5 23.5t-23 34.5t-8.5 42.5q0 29 19 57.5t57 47.5z" />
    <glyph glyph-name="g_alt" unicode="&#x2202;" horiz-adv-x="393" 
d="M205 120q-36 -1 -44 -1.5t-8 -6.5q0 -14 13.5 -23.5t38.5 -9.5q28 0 52 -8t42 -23t28.5 -36t10.5 -46v-12q0 -51 -36.5 -82t-96.5 -31h-22q-60 0 -96.5 31t-36.5 82v12q0 21 6.5 37.5t17 29t23.5 21.5t26 13q-22 19 -22 44q0 15 7 26q-20 11 -31.5 27.5t-17.5 34.5
t-7.5 37.5t-1.5 36.5v164q0 28 10.5 52t28.5 42t42 28.5t52 10.5h175v-49h-50q30 -36 30 -84v-164q0 -17 -2 -43t-15 -50.5t-39.5 -42t-76.5 -17.5zM293 -34q0 18 -7.5 31.5t-20 22.5t-28.5 14t-32 5h-22q-16 0 -32 -5t-28.5 -14t-20 -22.5t-7.5 -31.5v-12q0 -18 7.5 -30.5
t20 -21t28.5 -12.5t32 -4h22q16 0 32 4t28.5 12.5t20 21t7.5 30.5v12zM288 437q0 35 -22 59t-56 24h-27q-36 0 -59.5 -23.5t-23.5 -59.5v-164q0 -22 3 -40.5t12 -32.5t25 -22t43 -8h22q51 0 67 26t16 77v164z" />
    <glyph glyph-name="apple" unicode="&#xf8ff;" horiz-adv-x="632" 
d="M458 204q0 -28 -13 -48.5t-34.5 -33.5t-49.5 -19.5t-58 -6.5q-36 0 -68.5 12.5t-60.5 26.5l9 47q35 -22 68 -31.5t60 -9.5q41 0 65.5 16.5t24.5 42.5q0 21 -16 36.5t-40.5 29.5t-52.5 27.5t-52.5 30t-40.5 37t-16 48.5q0 30 12.5 49.5t31.5 31.5t42.5 17t44.5 5t39 -5
t33 -12t27.5 -14t21.5 -12l-11 -43q-25 22 -53 32t-54 10q-36 0 -58 -15.5t-22 -39.5q0 -21 16.5 -35.5t41 -26.5t53 -24t53 -28t41 -39t16.5 -56zM586 304q0 56 -21 105.5t-58 86t-86 58t-105 21.5t-105.5 -21.5t-86 -58t-58 -86t-21.5 -105.5t21.5 -105.5t58 -86t86 -58
t105.5 -21.5t105 21.5t86 58t58 86t21 105.5zM632 304q0 -65 -25 -122.5t-68 -100.5t-100.5 -68t-122.5 -25q-66 0 -123.5 25t-100 68t-67.5 100.5t-25 122.5t25 122.5t67.5 100.5t100 68t123.5 25q65 0 122.5 -25t100.5 -68t68 -100.5t25 -122.5zM344 653q-7 1 -14 1h-14
h-14.5t-13.5 -1l-90 85h59l58 -61l59 61h60z" />
    <glyph glyph-name="dotlessi" unicode="&#x131;" horiz-adv-x="196" 
d="M65 560h50v-474q0 -7 6.5 -15.5t16 -15t21.5 -11t22 -4.5v-50q-20 0 -40.5 7.5t-37.5 20.5t-27.5 30.5t-10.5 37.5v474z" />
    <glyph glyph-name="asciitilde" unicode="~" horiz-adv-x="307" 
d="M24 695q8 9 23.5 20t38.5 11q18 0 35.5 -5.5t34 -12t33.5 -12t34 -5.5q20 0 32.5 8.5t23.5 19.5l5 -46q-8 -9 -23 -20.5t-38 -11.5q-18 0 -35.5 5.5t-34 12t-33.5 12t-34 5.5q-20 0 -33 -8t-24 -19z" />
    <glyph glyph-name="eight" unicode="8" horiz-adv-x="390" 
d="M57 642q0 27 10.5 51.5t28.5 42.5t42 28.5t52 10.5h10q28 0 52 -10.5t42 -28.5t28.5 -42.5t10.5 -51.5v-106q0 -42 -21.5 -72.5t-55.5 -45.5q37 -14 60.5 -46t23.5 -74v-174q0 -27 -10.5 -51.5t-28.5 -42.5t-42 -28.5t-52 -10.5h-24q-28 0 -52 10.5t-42 28.5t-28.5 42.5
t-10.5 51.5v174q0 42 23.5 74t60.5 46q-34 15 -55.5 45.5t-21.5 72.5v106zM107 536q0 -35 23.5 -61.5t58.5 -26.5h12q14 0 28.5 7.5t26.5 19.5t19.5 28t7.5 33v106q0 35 -24 59t-59 24h-10q-35 0 -59 -24t-24 -59v-106zM290 298q0 17 -6.5 33.5t-18 29t-27 20t-32.5 7.5h-22
q-17 0 -32.5 -7.5t-27 -20t-18 -29t-6.5 -33.5v-174q0 -35 24 -59t59 -24h24q35 0 59 24t24 59v174z" />
    <glyph glyph-name="nine" unicode="9" horiz-adv-x="393" 
d="M102 112q0 -39 22 -54.5t61 -15.5h22q39 0 60 15.5t21 54.5v252q-10 -8 -23 -15q-11 -6 -26 -10.5t-34 -4.5h-22q-28 0 -52 10.5t-42 28.5t-28.5 42.5t-10.5 51.5v177q0 27 10.5 51.5t28.5 42.5t42 28.5t52 10.5h22q28 0 52 -10.5t42 -28.5t28.5 -42.5t10.5 -51.5v-532
q0 -60 -35.5 -90t-95.5 -30h-22q-60 0 -96.5 30t-36.5 90v89h50v-89zM288 644q0 35 -24 59t-59 24h-22q-35 0 -59 -24t-24 -59v-177q0 -35 24 -59t59 -24h22q35 0 59 23.5t24 58.5v178z" />
    <glyph glyph-name="six" unicode="6" horiz-adv-x="393" 
d="M291 656q0 39 -22 54.5t-61 15.5h-22q-39 0 -60 -15.5t-21 -54.5v-252q10 8 23 15q11 6 26.5 10.5t33.5 4.5h22q28 0 52 -10.5t42 -28.5t28.5 -42.5t10.5 -51.5v-177q0 -27 -10.5 -51.5t-28.5 -42.5t-42 -28.5t-52 -10.5h-22q-28 0 -52 10.5t-42 28.5t-28.5 42.5
t-10.5 51.5v532q0 60 35.5 90t95.5 30h22q60 0 96.5 -30t36.5 -90v-89h-50v89zM105 124q0 -35 24 -59t59 -24h22q35 0 59 24t24 59v177q0 35 -24 59t-59 24h-22q-35 0 -59 -23.5t-24 -58.5v-178z" />
    <glyph glyph-name="asciicircum" unicode="^" horiz-adv-x="310" 
d="M161 735h-3l-77 -98h-50l124 148h9l124 -148h-50z" />
    <glyph glyph-name="notequal" unicode="&#x2260;" horiz-adv-x="430" 
d="M172 164h-41l23 71h-114v49h129l42 133h-171v49h186l20 59h40l-19 -59h123v-49h-139l-41 -133h180v-49h-196z" />
    <glyph glyph-name="a_alt" unicode="&#x2211;" horiz-adv-x="404" 
d="M100 86q0 -21 14.5 -33.5t31.5 -12.5q20 0 44.5 13t46.5 29q26 18 51 41v315q0 35 -24 59t-59 24h-22q-35 0 -59 -24t-24 -59v-352zM289 66q-26 -21 -52 -38q-22 -14 -46.5 -26t-44.5 -12q-40 0 -68 28t-28 68v352q0 27 10.5 51.5t28.5 42.5t42 28.5t52 10.5h22
q28 0 52 -10.5t42 -28.5t28.5 -42.5t10.5 -51.5v-352q0 -7 6.5 -15.5t16 -15t21.5 -11t22 -4.5v-50q-18 0 -36 6t-34 16.5t-27.5 24.5t-16.5 31z" />
    <glyph glyph-name="Eth" unicode="&#xd0;" horiz-adv-x="463" 
d="M150 750v-293h96v-49h-96v-358h114q20 0 37 7.5t29.5 20t20 30t7.5 36.5v518q0 38 -27.5 63t-66.5 25h-114zM50 408v49h50v343h164q30 0 56.5 -10.5t46 -28.5t30.5 -43.5t11 -55.5v-518q0 -30 -11 -56t-30.5 -45.5t-46 -31t-56.5 -11.5h-164v408h-50z" />
    <glyph glyph-name="afii10017" unicode="&#x410;" horiz-adv-x="421" 
d="M108 264h204l-89 479q0 4 -2 7q-4 6 -8 6h-8q-6 0 -7.5 -5t-2.5 -8zM361 0l-40 214h-222l-39 -214h-50l139 772q2 12 14.5 23t28.5 11h34q16 0 28.5 -10.5t14.5 -23.5l142 -772h-50z" />
    <glyph glyph-name="afii10019" unicode="&#x412;" horiz-adv-x="428" 
d="M251 800q25 0 46.5 -9.5t38 -26t26 -38t9.5 -46.5v-144q0 -39 -21.5 -71t-55.5 -47q37 -14 60.5 -46t23.5 -74v-178q0 -25 -9.5 -46.5t-26 -38t-38 -26t-46.5 -9.5h-188v800h181zM246 443q10 5 23 12t24 18.5t19 26.5t8 34v146q0 27 -20 49t-49 22h-131v-308h126z
M328 298q0 21 -9 37t-22 27t-27.5 19t-24.5 12h-125v-343h137q30 0 50.5 20.5t20.5 49.5v178z" />
    <glyph glyph-name="afii10022" unicode="&#x415;" horiz-adv-x="338" 
d="M120 750v-284h171v-50h-171v-366h198v-50h-248v800h248v-50h-198z" />
    <glyph glyph-name="afii10028" unicode="&#x41a;" horiz-adv-x="436" 
d="M239 446v-9l197 -437h-54l-188 417h-75v-417h-49v800h49v-334h75l155 292q2 4 9 11t17 14t23 12t28 5v-51q-17 0 -28.5 -11t-16.5 -20z" />
    <glyph glyph-name="afii10031" unicode="&#x41d;" horiz-adv-x="445" 
d="M375 800v-800h-50v417h-205v-417h-50v800h50v-334h205v334h50z" />
    <glyph glyph-name="afii10030" unicode="&#x41c;" horiz-adv-x="614" 
d="M524 800l30 -800h-50l-29 750h-20l-123 -740h-50l-122 740h-20l-30 -750h-50l31 800h109l107 -690l109 690h108z" />
    <glyph glyph-name="afii10032" unicode="&#x41e;" horiz-adv-x="418" 
d="M363 134q0 -30 -11 -56t-30.5 -45.5t-46 -31t-56.5 -11.5h-20q-30 0 -56 11.5t-45.5 31t-31 45.5t-11.5 56v528q0 30 11.5 56.5t31 46t45.5 30.5t56 11h20q30 0 56.5 -11t46 -30.5t30.5 -46t11 -56.5v-528zM313 662q0 20 -7.5 37t-20 29.5t-29.5 20t-37 7.5h-20
q-19 0 -36.5 -7.5t-30 -20t-20 -29.5t-7.5 -37v-528q0 -19 7.5 -36.5t20 -30t30 -20t36.5 -7.5h20q20 0 37 7.5t29.5 20t20 30t7.5 36.5v528z" />
    <glyph glyph-name="afii10034" unicode="&#x420;" horiz-adv-x="404" 
d="M70 800h160q30 0 56.5 -10.5t46 -28.5t30.5 -43.5t11 -55.5v-176q0 -30 -11 -56t-30.5 -45.5t-46 -31t-56.5 -11.5h-110v-342h-50v800zM120 750v-358h110q20 0 37 7.5t29.5 20t20 30t7.5 36.5v176q0 38 -27.5 63t-66.5 25h-110z" />
    <glyph glyph-name="afii10035" unicode="&#x421;" horiz-adv-x="413" 
d="M313 292h50v-158q0 -30 -11 -56t-30.5 -45.5t-46 -31t-56.5 -11.5h-20q-30 0 -56 11.5t-45.5 31t-31 45.5t-11.5 56v528q0 30 11.5 56.5t31 46t45.5 30.5t56 11h20q30 0 56.5 -11t46 -30.5t30.5 -46t11 -56.5v-126h-50v126q0 20 -7.5 37t-20 29.5t-29.5 20t-37 7.5h-20
q-19 0 -36.5 -7.5t-30 -20t-20 -29.5t-7.5 -37v-528q0 -19 7.5 -36.5t20 -30t30 -20t36.5 -7.5h20q39 0 65.5 27.5t26.5 66.5v158h2z" />
    <glyph glyph-name="afii10036" unicode="&#x422;" horiz-adv-x="330" 
d="M190 750v-750h-50v750h-140v50h330v-50h-140z" />
    <glyph glyph-name="afii10039" unicode="&#x425;" horiz-adv-x="400" 
d="M292 800h51l-118 -345l155 -455h-51l-129 399l-129 -399h-51l154 455l-116 345h51l91 -289z" />
    <glyph glyph-name="afii10054" unicode="&#x405;" horiz-adv-x="394" 
d="M349 134q0 -30 -11 -56t-30.5 -45.5t-46 -31t-56.5 -11.5h-16q-30 0 -56 11.5t-45.5 31t-31 45.5t-11.5 56v148h50v-148q0 -19 7.5 -36.5t20 -30t30 -20t36.5 -7.5h16q20 0 37 7.5t29.5 20t20 30t7.5 36.5v77q0 45 -12 78t-32.5 58.5t-47.5 44.5t-57 37q-52 32 -78.5 73
t-26.5 105v55q0 30 11.5 56.5t31 46t45.5 30.5t56 11h16q30 0 56.5 -11t46 -30.5t30.5 -46t11 -56.5h-50q0 20 -7.5 37t-20 29.5t-29.5 20t-37 7.5h-16q-19 0 -36.5 -7.5t-30 -20t-20 -29.5t-7.5 -37v-55q0 -28 10 -51t27.5 -42.5t40.5 -36t49 -32.5q29 -17 52 -37.5t40 -48
t26 -63.5t9 -85v-77z" />
    <glyph glyph-name="afii10057" unicode="&#x408;" horiz-adv-x="389" 
d="M334 800v-666q0 -30 -11 -56t-30.5 -45.5t-46 -31t-56.5 -11.5h-16q-30 0 -56 11.5t-45.5 31t-31 45.5t-11.5 56v158h50v-158q0 -19 7.5 -36.5t20 -30t30 -20t36.5 -7.5h16q20 0 37 7.5t29.5 20t20 30t7.5 36.5v666h50z" />
    <glyph glyph-name="afii10020" unicode="&#x413;" horiz-adv-x="319" 
d="M319 800v-50h-199v-750h-50v800h249z" />
    <glyph glyph-name="afii10033" unicode="&#x41f;" horiz-adv-x="445" 
d="M375 800v-800h-50v751h-205v-751h-50v800h305z" />
    <glyph glyph-name="afii10055" unicode="&#x406;" horiz-adv-x="200" 
d="M125 0h-50v800h50v-800z" />
    <glyph glyph-name="afii10029" unicode="&#x41b;" horiz-adv-x="502" 
d="M11 41q26 0 46 9.5t33 23.5t20 29.5t8 27.5l27 670h287v-801h-50v751h-188l-26 -620q-1 -30 -14.5 -55.5t-35 -44.5t-49.5 -29.5t-58 -10.5h-11v50h11z" />
    <glyph glyph-name="afii10023" unicode="&#x401;" horiz-adv-x="338" 
d="M255 831q-12 0 -21 8.5t-9 20.5t9 21t21 9t20.5 -9t8.5 -21t-8.5 -20.5t-20.5 -8.5zM133 831q-12 0 -20.5 8.5t-8.5 20.5t8.5 21t20.5 9t21 -9t9 -21t-9 -20.5t-21 -8.5zM120 750v-284h171v-50h-171v-366h198v-50h-248v800h248v-50h-198z" />
    <glyph glyph-name="afii10056" unicode="&#x407;" horiz-adv-x="196" 
d="M159 831q-12 0 -21 8.5t-9 20.5t9 21t21 9t20.5 -9t8.5 -21t-8.5 -20.5t-20.5 -8.5zM37 831q-12 0 -20.5 8.5t-8.5 20.5t8.5 21t20.5 9t21 -9t9 -21t-9 -20.5t-21 -8.5zM125 800h-50v-800h50v800z" />
    <glyph glyph-name="afii10046" unicode="&#x42c;" 
d="M298 454q0 21 -14.5 33.5t-31.5 12.5q-20 0 -44.5 -12.5t-46.5 -28.5q-26 -18 -51 -41v-295q0 -35 24 -59t59 -24h22q35 0 59 24t24 59v331zM348 123q0 -27 -10.5 -51.5t-28.5 -42.5t-42 -28.5t-52 -10.5h-22q-28 0 -52 10.5t-42 28.5t-28.5 42.5t-10.5 51.5v678h50v-323
q25 20 51 36q22 14 46.5 25t44.5 11q40 0 68 -28t28 -68v-331z" />
    <glyph glyph-name="afii10045" unicode="&#x42b;" horiz-adv-x="575" 
d="M506 0h-50v800h50v-800zM298 454q0 21 -14.5 33.5t-31.5 12.5q-20 0 -44.5 -12.5t-46.5 -28.5q-26 -18 -51 -41v-295q0 -35 24 -59t59 -24h22q35 0 59 24t24 59v331zM348 123q0 -27 -10.5 -51.5t-28.5 -42.5t-42 -28.5t-52 -10.5h-22q-28 0 -52 10.5t-42 28.5t-28.5 42.5
t-10.5 51.5v678h50v-323q25 20 51 36q22 14 46.5 25t44.5 11q40 0 68 -28t28 -68v-331z" />
    <glyph glyph-name="afii10018" unicode="&#x411;" 
d="M298 454q0 21 -14.5 33.5t-31.5 12.5q-20 0 -44.5 -12.5t-46.5 -28.5q-26 -18 -51 -41v-295q0 -35 24 -59t59 -24h22q35 0 59 24t24 59v331zM60 801h249v-50h-199v-273q25 20 51 36q22 14 46.5 25t44.5 11q40 0 68 -28t28 -68v-331q0 -27 -10.5 -51.5t-28.5 -42.5
t-42 -28.5t-52 -10.5h-22q-28 0 -52 10.5t-42 28.5t-28.5 42.5t-10.5 51.5v678z" />
    <glyph glyph-name="afii10044" unicode="&#x42a;" horiz-adv-x="584" 
d="M479 454q0 21 -14.5 33.5t-31.5 12.5q-20 0 -44.5 -12.5t-46.5 -28.5q-26 -18 -51 -41v-295q0 -35 24 -59t59 -24h22q35 0 59 24t24 59v331zM529 123q0 -27 -10.5 -51.5t-28.5 -42.5t-42 -28.5t-52 -10.5h-22q-28 0 -52 10.5t-42 28.5t-28.5 42.5t-10.5 51.5v628h-241v50
h291v-323q25 20 51 36q22 14 46.5 25t44.5 11q40 0 68 -28t28 -68v-331z" />
    <glyph glyph-name="afii10058" unicode="&#x409;" horiz-adv-x="723" 
d="M618 454q0 21 -14.5 33.5t-31.5 12.5q-20 0 -44.5 -12.5t-46.5 -28.5q-26 -18 -51 -41v-295q0 -35 24 -59t59 -24h22q35 0 59 24t24 59v331zM194 751l-26 -620q-1 -30 -14.5 -55.5t-35 -44.5t-49.5 -29.5t-58 -10.5h-11v50h11q26 0 46 9.5t33 23.5t20 29.5t8 27.5l27 670
h285v-323q25 20 51 36q22 14 46.5 25t44.5 11q40 0 68 -28t28 -68v-331q0 -27 -10.5 -51.5t-28.5 -42.5t-42 -28.5t-52 -10.5h-22q-28 0 -52 10.5t-42 28.5t-28.5 42.5t-10.5 51.5v628h-186z" />
    <glyph glyph-name="afii10038" unicode="&#x424;" horiz-adv-x="468" 
d="M363 562q0 20 -7.5 37t-20 29.5t-29.5 20t-37 7.5h-9v-516h9q20 0 37 7.5t29.5 20t20 30t7.5 36.5v328zM105 234q0 -39 27.5 -66.5t66.5 -27.5h11v516h-11q-19 0 -36.5 -7.5t-30 -20t-20 -29.5t-7.5 -37v-328zM260 0h-50v90h-11q-30 0 -56 11.5t-45.5 31t-31 45.5
t-11.5 56v328q0 30 11.5 56.5t31 46t45.5 30.5t56 11h11v94h50v-94h9q30 0 56.5 -11t46 -30.5t30.5 -46t11 -56.5v-328q0 -30 -11 -56t-30.5 -45.5t-46 -31t-56.5 -11.5h-9v-90z" />
    <glyph glyph-name="afii10048" unicode="&#x42e;" horiz-adv-x="570" 
d="M465 662q0 20 -7.5 37t-20 29.5t-29.5 20t-37 7.5h-20q-19 0 -36.5 -7.5t-30 -20t-20 -29.5t-7.5 -37v-528q0 -19 7.5 -36.5t20 -30t30 -20t36.5 -7.5h20q20 0 37 7.5t29.5 20t20 30t7.5 36.5v528zM515 134q0 -30 -11 -56t-30.5 -45.5t-46 -31t-56.5 -11.5h-20
q-30 0 -56 11.5t-45.5 31t-31 45.5t-11.5 56v283h-87v-417h-50v800h50v-334h87v196q0 30 11.5 56.5t31 46t45.5 30.5t56 11h20q30 0 56.5 -11t46 -30.5t30.5 -46t11 -56.5v-528z" />
    <glyph glyph-name="afii10041" unicode="&#x427;" horiz-adv-x="448" 
d="M373 799v-808h-50v410q-33 -20 -64 -36q-26 -14 -54.5 -25t-48.5 -11q-40 0 -68 28t-28 68v374h50v-374q0 -21 14.5 -33.5t31.5 -12.5q20 0 48.5 12.5t54.5 28.5q31 18 64 41v338h50z" />
    <glyph glyph-name="afii10026" unicode="&#x418;" horiz-adv-x="445" 
d="M325 0v628l-205 -595v-33h-50v800h50v-627l205 595v32h50v-800h-50z" />
    <glyph glyph-name="afii10049" unicode="&#x42f;" horiz-adv-x="431" 
d="M201 750q-39 0 -66.5 -25t-27.5 -63v-106q0 -19 7.5 -36.5t20 -30t30 -20t36.5 -7.5h110v288h-110zM361 0h-50v412h-53l-168 -412h-50l168 412h-7q-30 0 -56 11.5t-45.5 31t-31 45.5t-11.5 56v106q0 30 11.5 55.5t31 43.5t45.5 28.5t56 10.5h160v-800z" />
    <glyph glyph-name="afii10021" unicode="&#x414;" horiz-adv-x="522" 
d="M393 49v702h-200l-26 -611q-3 -53 -41 -91h267zM443 801v-752h79v-140h-50v91h-462v50q26 0 46 9.5t33 23.5t20 29.5t8 27.5l27 661h299z" />
    <glyph glyph-name="afii10024" unicode="&#x416;" horiz-adv-x="703" 
d="M65 718q-5 9 -16.5 20t-28.5 11v51q15 0 28 -5t23 -12t17 -14t9 -11l155 -292h75v334h49v-334h75l155 292q2 4 9 11t17 14t23 12t28 5v-51q-17 0 -28.5 -11t-16.5 -20l-142 -272v-9l197 -437h-54l-188 417h-75v-417h-49v417h-75l-188 -417h-54l197 437v9z" />
    <glyph glyph-name="afii10040" unicode="&#x426;" horiz-adv-x="464" 
d="M454 -91h-50v91h-334v800h50v-751h205v751h50v-751h79v-140z" />
    <glyph glyph-name="afii10043" unicode="&#x429;" horiz-adv-x="659" 
d="M520 800h50v-751h79v-140h-50v91h-529v800h50v-751h175v751h50v-751h175v751z" />
    <glyph glyph-name="afii10042" unicode="&#x428;" horiz-adv-x="640" 
d="M70 0v800h50v-751h175v751h50v-751h175v751h50v-800h-500z" />
    <glyph glyph-name="afii10027" unicode="&#x419;" horiz-adv-x="445" 
d="M321 870q0 -40 -28 -68t-68 -28t-68 28t-28 68h50q0 -20 13 -33t33 -13t33 13t13 33h50zM325 0v628l-205 -595v-33h-50v800h50v-627l205 595v32h50v-800h-50z" />
    <glyph glyph-name="afii10047" unicode="&#x42d;" horiz-adv-x="413" 
d="M102 134q0 -39 26.5 -66.5t65.5 -27.5h20q20 0 37 7.5t29.5 20t20 30t7.5 36.5v262h-207v50h207v216q0 20 -7.5 37t-20 29.5t-29.5 20t-37 7.5h-20q-19 0 -36.5 -7.5t-30 -20t-20 -29.5t-7.5 -37v-126h-50v126q0 30 11.5 56.5t31 46t45.5 30.5t56 11h20q30 0 56.5 -11
t46 -30.5t30.5 -46t11 -56.5v-528q0 -30 -11 -56t-30.5 -45.5t-46 -31t-56.5 -11.5h-20q-30 0 -56 11.5t-45.5 31t-31 45.5t-11.5 56v158h52v-158z" />
    <glyph glyph-name="afii10025" unicode="&#x417;" horiz-adv-x="392" 
d="M51 801h138q60 0 100.5 -30t40.5 -90v-134q0 -39 -21.5 -71t-55.5 -47q37 -14 60.5 -47.5t23.5 -72.5v-194q0 -60 -40.5 -90t-100.5 -30h-17q-60 0 -94.5 30t-34.5 90v167h50v-167q0 -39 20 -54.5t59 -15.5h16q39 0 65.5 15.5t26.5 54.5v194q0 12 -8.5 28.5t-21.5 31
t-27.5 25t-26.5 10.5h-97v50h97q12 0 25.5 10t25 24.5t19 30.5t7.5 28v134q0 39 -26.5 54.5t-65.5 15.5h-137v50z" />
    <glyph glyph-name="Gbreve" unicode="&#x11e;" horiz-adv-x="409" 
d="M308 937q0 -40 -28 -68t-68 -28t-68 28t-28 68h50q0 -20 13 -33t33 -13t33 13t13 33h50zM215 40q20 0 37 7.5t29.5 20t20 30t7.5 36.5v208h-102v50h152v-258q0 -30 -11 -56t-30.5 -45.5t-46 -31t-56.5 -11.5h-16q-30 0 -56 11.5t-45.5 31t-31 45.5t-11.5 56v528
q0 30 11.5 56.5t31 46t45.5 30.5t56 11h16q30 0 56.5 -11t46 -30.5t30.5 -46t11 -56.5v-126h-50v126q0 20 -7.5 37t-20 29.5t-29.5 20t-37 7.5h-16q-19 0 -36.5 -7.5t-30 -20t-20 -29.5t-7.5 -37v-528q0 -19 7.5 -36.5t20 -30t30 -20t36.5 -7.5h16z" />
    <glyph glyph-name="gbreve" unicode="&#x11f;" horiz-adv-x="388" 
d="M292 720q0 -40 -28 -68t-68 -28t-68 28t-28 68h50q0 -20 13 -33t33 -13t33 13t13 33h50zM289 121q-26 -21 -52 -38q-22 -14 -46.5 -26t-44.5 -12q-40 0 -68 28t-28 68v297q0 27 10.5 51.5t28.5 42.5t42 28.5t52 10.5h22q28 0 52 -10.5t42 -28.5t28.5 -42.5t10.5 -51.5
v-472q0 -28 -10 -52t-28 -41.5t-42 -27.5t-52 -10h-22q-28 0 -52 10.5t-42 28.5t-28.5 42t-10.5 52v22h50v-22q0 -35 24 -59t59 -24h22q35 0 59 24t24 59v153zM100 141q0 -21 14.5 -33.5t31.5 -12.5q20 0 44.5 13t46.5 29q26 18 51 41v260q0 35 -24 59t-59 24h-22
q-35 0 -59 -24t-24 -59v-297z" />
    <glyph glyph-name="Idotaccent" unicode="&#x130;" horiz-adv-x="197" 
d="M98 831q-12 0 -20.5 8.5t-8.5 20.5t8.5 21t20.5 9t21 -9t9 -21t-9 -20.5t-21 -8.5zM123 800h-50v-800h50v800z" />
    <glyph glyph-name="Scedilla" unicode="&#x15e;" horiz-adv-x="394" 
d="M137 -192q17 -8 26.5 -11.5t20.5 -3.5q34 0 55 19.5t21 46.5q0 25 -18 45.5t-47 20.5h-33l11 66q-27 3 -50.5 15t-41 31t-27 44t-9.5 53v148h50v-148q0 -19 7.5 -36.5t20 -30t30 -20t36.5 -7.5h16q20 0 37 7.5t29.5 20t20 30t7.5 36.5v77q0 45 -12 78t-32.5 58.5
t-47.5 44.5t-57 37q-52 32 -78.5 73t-26.5 105v55q0 30 11.5 56.5t31 46t45.5 30.5t56 11h16q30 0 56.5 -11t46 -30.5t30.5 -46t11 -56.5h-50q0 20 -7.5 37t-20 29.5t-29.5 20t-37 7.5h-16q-19 0 -36.5 -7.5t-30 -20t-20 -29.5t-7.5 -37v-55q0 -28 10 -51t27.5 -42.5
t40.5 -36t49 -32.5q29 -17 52 -37.5t40 -48t26 -63.5t9 -85v-77q0 -28 -9.5 -52.5t-26.5 -43.5t-40 -31.5t-50 -15.5l-4 -18q40 -9 65.5 -41.5t25.5 -72.5q0 -24 -9 -45t-25.5 -37t-40 -25t-51.5 -9q-18 0 -37 6.5t-45 23.5z" />
    <glyph glyph-name="scedilla" unicode="&#x15f;" horiz-adv-x="368" 
d="M116 -192q17 -8 26.5 -11.5t20.5 -3.5q34 0 55 19.5t21 46.5q0 25 -18 45.5t-47 20.5h-33l11 67q-24 3 -44.5 15t-35.5 29.5t-23.5 39.5t-8.5 47v89h50v-89q0 -35 24 -59t59 -24h22q35 0 59 24t24 59v34q0 17 -18 37.5t-41 37.5q-26 20 -59 41q-34 19 -60 42
q-23 20 -41.5 46t-18.5 56v20q0 28 10.5 52t28.5 42t42 28.5t52 10.5h22q28 0 52 -10.5t42 -28.5t28.5 -42t10.5 -52v-20h-50v20q0 35 -24 59t-59 24h-22q-35 0 -59 -24t-24 -59v-20q0 -17 18 -36.5t40 -36.5q26 -19 57 -39q35 -20 62 -44q23 -20 42 -47t19 -57v-34
q0 -27 -10 -50.5t-27 -41.5t-40 -29t-49 -12l-4 -17q40 -9 65.5 -41.5t25.5 -72.5q0 -24 -9 -45t-25.5 -37t-40 -25t-51.5 -9q-18 0 -37 6.5t-45 23.5z" />
    <glyph glyph-name="afii10053" unicode="&#x404;" horiz-adv-x="413" 
d="M311 292h52v-158q0 -30 -11 -56t-30.5 -45.5t-46 -31t-56.5 -11.5h-20q-30 0 -56 11.5t-45.5 31t-31 45.5t-11.5 56v528q0 30 11.5 56.5t31 46t45.5 30.5t56 11h20q30 0 56.5 -11t46 -30.5t30.5 -46t11 -56.5v-126h-50v126q0 20 -7.5 37t-20 29.5t-29.5 20t-37 7.5h-20
q-19 0 -36.5 -7.5t-30 -20t-20 -29.5t-7.5 -37v-216h207v-50h-207v-262q0 -19 7.5 -36.5t20 -30t30 -20t36.5 -7.5h20q39 0 65.5 27.5t26.5 66.5v158z" />
    <glyph glyph-name="afii10071" unicode="&#x451;" horiz-adv-x="338" 
d="M255 831q-12 0 -21 8.5t-9 20.5t9 21t21 9t20.5 -9t8.5 -21t-8.5 -20.5t-20.5 -8.5zM133 831q-12 0 -20.5 8.5t-8.5 20.5t8.5 21t20.5 9t21 -9t9 -21t-9 -20.5t-21 -8.5zM120 750v-284h171v-50h-171v-366h198v-50h-248v800h248v-50h-198z" />
    <glyph glyph-name="afii10101" unicode="&#x454;" horiz-adv-x="413" 
d="M311 292h52v-158q0 -30 -11 -56t-30.5 -45.5t-46 -31t-56.5 -11.5h-20q-30 0 -56 11.5t-45.5 31t-31 45.5t-11.5 56v528q0 30 11.5 56.5t31 46t45.5 30.5t56 11h20q30 0 56.5 -11t46 -30.5t30.5 -46t11 -56.5v-126h-50v126q0 20 -7.5 37t-20 29.5t-29.5 20t-37 7.5h-20
q-19 0 -36.5 -7.5t-30 -20t-20 -29.5t-7.5 -37v-216h207v-50h-207v-262q0 -19 7.5 -36.5t20 -30t30 -20t36.5 -7.5h20q39 0 65.5 27.5t26.5 66.5v158z" />
    <glyph glyph-name="afii10105" unicode="&#x458;" horiz-adv-x="389" 
d="M334 800v-666q0 -30 -11 -56t-30.5 -45.5t-46 -31t-56.5 -11.5h-16q-30 0 -56 11.5t-45.5 31t-31 45.5t-11.5 56v158h50v-158q0 -19 7.5 -36.5t20 -30t30 -20t36.5 -7.5h16q20 0 37 7.5t29.5 20t20 30t7.5 36.5v666h50z" />
    <glyph glyph-name="afii10102" unicode="&#x455;" horiz-adv-x="394" 
d="M349 134q0 -30 -11 -56t-30.5 -45.5t-46 -31t-56.5 -11.5h-16q-30 0 -56 11.5t-45.5 31t-31 45.5t-11.5 56v148h50v-148q0 -19 7.5 -36.5t20 -30t30 -20t36.5 -7.5h16q20 0 37 7.5t29.5 20t20 30t7.5 36.5v77q0 45 -12 78t-32.5 58.5t-47.5 44.5t-57 37q-52 32 -78.5 73
t-26.5 105v55q0 30 11.5 56.5t31 46t45.5 30.5t56 11h16q30 0 56.5 -11t46 -30.5t30.5 -46t11 -56.5h-50q0 20 -7.5 37t-20 29.5t-29.5 20t-37 7.5h-16q-19 0 -36.5 -7.5t-30 -20t-20 -29.5t-7.5 -37v-55q0 -28 10 -51t27.5 -42.5t40.5 -36t49 -32.5q29 -17 52 -37.5t40 -48
t26 -63.5t9 -85v-77z" />
    <glyph glyph-name="afii10104" unicode="&#x457;" horiz-adv-x="196" 
d="M159 831q-12 0 -21 8.5t-9 20.5t9 21t21 9t20.5 -9t8.5 -21t-8.5 -20.5t-20.5 -8.5zM37 831q-12 0 -20.5 8.5t-8.5 20.5t8.5 21t20.5 9t21 -9t9 -21t-9 -20.5t-21 -8.5zM125 800h-50v-800h50v800z" />
    <glyph glyph-name="afii10106" unicode="&#x459;" horiz-adv-x="723" 
d="M618 454q0 21 -14.5 33.5t-31.5 12.5q-20 0 -44.5 -12.5t-46.5 -28.5q-26 -18 -51 -41v-295q0 -35 24 -59t59 -24h22q35 0 59 24t24 59v331zM194 751l-26 -620q-1 -30 -14.5 -55.5t-35 -44.5t-49.5 -29.5t-58 -10.5h-11v50h11q26 0 46 9.5t33 23.5t20 29.5t8 27.5l27 670
h285v-323q25 20 51 36q22 14 46.5 25t44.5 11q40 0 68 -28t28 -68v-331q0 -27 -10.5 -51.5t-28.5 -42.5t-42 -28.5t-52 -10.5h-22q-28 0 -52 10.5t-42 28.5t-28.5 42.5t-10.5 51.5v628h-186z" />
    <glyph glyph-name="afii10103" unicode="&#x456;" horiz-adv-x="210" 
d="M135 0h-60v800h60v-800z" />
    <glyph glyph-name="afii10065" unicode="&#x430;" horiz-adv-x="421" 
d="M108 264h204l-89 479q0 4 -2 7q-4 6 -8 6h-8q-6 0 -7.5 -5t-2.5 -8zM361 0l-40 214h-222l-39 -214h-50l139 772q2 12 14.5 23t28.5 11h34q16 0 28.5 -10.5t14.5 -23.5l142 -772h-50z" />
    <glyph glyph-name="afii10066" unicode="&#x431;" 
d="M298 454q0 21 -14.5 33.5t-31.5 12.5q-20 0 -44.5 -12.5t-46.5 -28.5q-26 -18 -51 -41v-295q0 -35 24 -59t59 -24h22q35 0 59 24t24 59v331zM60 801h249v-50h-199v-273q25 20 51 36q22 14 46.5 25t44.5 11q40 0 68 -28t28 -68v-331q0 -27 -10.5 -51.5t-28.5 -42.5
t-42 -28.5t-52 -10.5h-22q-28 0 -52 10.5t-42 28.5t-28.5 42.5t-10.5 51.5v678z" />
    <glyph glyph-name="afii10067" unicode="&#x432;" horiz-adv-x="428" 
d="M251 800q25 0 46.5 -9.5t38 -26t26 -38t9.5 -46.5v-144q0 -39 -21.5 -71t-55.5 -47q37 -14 60.5 -46t23.5 -74v-178q0 -25 -9.5 -46.5t-26 -38t-38 -26t-46.5 -9.5h-188v800h181zM246 443q10 5 23 12t24 18.5t19 26.5t8 34v146q0 27 -20 49t-49 22h-131v-308h126z
M328 298q0 21 -9 37t-22 27t-27.5 19t-24.5 12h-125v-343h137q30 0 50.5 20.5t20.5 49.5v178z" />
    <glyph glyph-name="afii10068" unicode="&#x433;" horiz-adv-x="319" 
d="M319 800v-50h-199v-750h-50v800h249z" />
    <glyph glyph-name="afii10069" unicode="&#x434;" horiz-adv-x="522" 
d="M393 49v702h-200l-26 -611q-3 -53 -41 -91h267zM443 801v-752h79v-140h-50v91h-462v50q26 0 46 9.5t33 23.5t20 29.5t8 27.5l27 661h299z" />
    <glyph glyph-name="afii10070" unicode="&#x435;" horiz-adv-x="338" 
d="M120 750v-284h171v-50h-171v-366h198v-50h-248v800h248v-50h-198z" />
    <glyph glyph-name="afii10072" unicode="&#x436;" horiz-adv-x="703" 
d="M65 718q-5 9 -16.5 20t-28.5 11v51q15 0 28 -5t23 -12t17 -14t9 -11l155 -292h75v334h49v-334h75l155 292q2 4 9 11t17 14t23 12t28 5v-51q-17 0 -28.5 -11t-16.5 -20l-142 -272v-9l197 -437h-54l-188 417h-75v-417h-49v417h-75l-188 -417h-54l197 437v9z" />
    <glyph glyph-name="afii10073" unicode="&#x437;" horiz-adv-x="392" 
d="M51 801h138q60 0 100.5 -30t40.5 -90v-134q0 -39 -21.5 -71t-55.5 -47q37 -14 60.5 -47.5t23.5 -72.5v-194q0 -60 -40.5 -90t-100.5 -30h-17q-60 0 -94.5 30t-34.5 90v167h50v-167q0 -39 20 -54.5t59 -15.5h16q39 0 65.5 15.5t26.5 54.5v194q0 12 -8.5 28.5t-21.5 31
t-27.5 25t-26.5 10.5h-97v50h97q12 0 25.5 10t25 24.5t19 30.5t7.5 28v134q0 39 -26.5 54.5t-65.5 15.5h-137v50z" />
    <glyph glyph-name="afii10074" unicode="&#x438;" horiz-adv-x="445" 
d="M325 0v628l-205 -595v-33h-50v800h50v-627l205 595v32h50v-800h-50z" />
    <glyph glyph-name="afii10075" unicode="&#x439;" horiz-adv-x="445" 
d="M321 871q0 -40 -28 -68t-68 -28t-68 28t-28 68h50q0 -20 13 -33t33 -13t33 13t13 33h50zM325 0v628l-205 -595v-33h-50v800h50v-627l205 595v32h50v-800h-50z" />
    <glyph glyph-name="afii10076" unicode="&#x43a;" horiz-adv-x="436" 
d="M239 446v-9l197 -437h-54l-188 417h-75v-417h-49v800h49v-334h75l155 292q2 4 9 11t17 14t23 12t28 5v-51q-17 0 -28.5 -11t-16.5 -20z" />
    <glyph glyph-name="afii10077" unicode="&#x43b;" horiz-adv-x="504" 
d="M13 41q26 0 46 9.5t33 23.5t20 29.5t8 27.5l27 670h287v-801h-50v751h-188l-26 -620q-1 -30 -14.5 -55.5t-35 -44.5t-49.5 -29.5t-58 -10.5h-11v50h11z" />
    <glyph glyph-name="afii10078" unicode="&#x43c;" horiz-adv-x="614" 
d="M524 800l30 -800h-50l-29 750h-20l-123 -740h-50l-122 740h-20l-30 -750h-50l31 800h109l107 -690l109 690h108z" />
    <glyph glyph-name="afii10079" unicode="&#x43d;" horiz-adv-x="445" 
d="M375 800v-800h-50v417h-205v-417h-50v800h50v-334h205v334h50z" />
    <glyph glyph-name="afii10080" unicode="&#x43e;" horiz-adv-x="418" 
d="M363 134q0 -30 -11 -56t-30.5 -45.5t-46 -31t-56.5 -11.5h-20q-30 0 -56 11.5t-45.5 31t-31 45.5t-11.5 56v528q0 30 11.5 56.5t31 46t45.5 30.5t56 11h20q30 0 56.5 -11t46 -30.5t30.5 -46t11 -56.5v-528zM313 662q0 20 -7.5 37t-20 29.5t-29.5 20t-37 7.5h-20
q-19 0 -36.5 -7.5t-30 -20t-20 -29.5t-7.5 -37v-528q0 -19 7.5 -36.5t20 -30t30 -20t36.5 -7.5h20q20 0 37 7.5t29.5 20t20 30t7.5 36.5v528z" />
    <glyph glyph-name="afii10081" unicode="&#x43f;" horiz-adv-x="445" 
d="M375 800v-800h-50v751h-205v-751h-50v800h305z" />
    <glyph glyph-name="afii10082" unicode="&#x440;" horiz-adv-x="404" 
d="M70 800h160q30 0 56.5 -10.5t46 -28.5t30.5 -43.5t11 -55.5v-176q0 -30 -11 -56t-30.5 -45.5t-46 -31t-56.5 -11.5h-110v-342h-50v800zM120 750v-358h110q20 0 37 7.5t29.5 20t20 30t7.5 36.5v176q0 38 -27.5 63t-66.5 25h-110z" />
    <glyph glyph-name="afii10083" unicode="&#x441;" horiz-adv-x="413" 
d="M313 292h50v-158q0 -30 -11 -56t-30.5 -45.5t-46 -31t-56.5 -11.5h-20q-30 0 -56 11.5t-45.5 31t-31 45.5t-11.5 56v528q0 30 11.5 56.5t31 46t45.5 30.5t56 11h20q30 0 56.5 -11t46 -30.5t30.5 -46t11 -56.5v-126h-50v126q0 20 -7.5 37t-20 29.5t-29.5 20t-37 7.5h-20
q-19 0 -36.5 -7.5t-30 -20t-20 -29.5t-7.5 -37v-528q0 -19 7.5 -36.5t20 -30t30 -20t36.5 -7.5h20q39 0 65.5 27.5t26.5 66.5v158h2z" />
    <glyph glyph-name="afii10084" unicode="&#x442;" horiz-adv-x="330" 
d="M190 750v-750h-50v750h-140v50h330v-50h-140z" />
    <glyph glyph-name="afii10085" unicode="&#x443;" horiz-adv-x="420" 
d="M153 0l57 221h-23q-14 3 -23 12.5t-11 20.5l-143 546h50l139 -517q0 -3 2 -6q2 -2 3.5 -4.5t4.5 -2.5h8q5 0 6 3l137 527h50l-207 -800h-50z" />
    <glyph glyph-name="afii10086" unicode="&#x444;" horiz-adv-x="468" 
d="M363 562q0 20 -7.5 37t-20 29.5t-29.5 20t-37 7.5h-9v-516h9q20 0 37 7.5t29.5 20t20 30t7.5 36.5v328zM105 234q0 -39 27.5 -66.5t66.5 -27.5h11v516h-11q-19 0 -36.5 -7.5t-30 -20t-20 -29.5t-7.5 -37v-328zM260 0h-50v90h-11q-30 0 -56 11.5t-45.5 31t-31 45.5
t-11.5 56v328q0 30 11.5 56.5t31 46t45.5 30.5t56 11h11v94h50v-94h9q30 0 56.5 -11t46 -30.5t30.5 -46t11 -56.5v-328q0 -30 -11 -56t-30.5 -45.5t-46 -31t-56.5 -11.5h-9v-90z" />
    <glyph glyph-name="afii10087" unicode="&#x445;" horiz-adv-x="400" 
d="M292 800h51l-118 -345l155 -455h-51l-129 399l-129 -399h-51l154 455l-116 345h51l91 -289z" />
    <glyph glyph-name="afii10088" unicode="&#x446;" horiz-adv-x="464" 
d="M454 -91h-50v91h-334v800h50v-751h205v751h50v-751h79v-140z" />
    <glyph glyph-name="afii10089" unicode="&#x447;" horiz-adv-x="448" 
d="M373 799v-808h-50v410q-33 -20 -64 -36q-26 -14 -54.5 -25t-48.5 -11q-40 0 -68 28t-28 68v374h50v-374q0 -21 14.5 -33.5t31.5 -12.5q20 0 48.5 12.5t54.5 28.5q31 18 64 41v338h50z" />
    <glyph glyph-name="afii10090" unicode="&#x448;" horiz-adv-x="640" 
d="M70 0v800h50v-751h175v751h50v-751h175v751h50v-800h-500z" />
    <glyph glyph-name="afii10091" unicode="&#x449;" horiz-adv-x="659" 
d="M520 800h50v-751h79v-140h-50v91h-529v800h50v-751h175v751h50v-751h175v751z" />
    <glyph glyph-name="afii10092" unicode="&#x44a;" horiz-adv-x="584" 
d="M479 454q0 21 -14.5 33.5t-31.5 12.5q-20 0 -44.5 -12.5t-46.5 -28.5q-26 -18 -51 -41v-295q0 -35 24 -59t59 -24h22q35 0 59 24t24 59v331zM529 123q0 -27 -10.5 -51.5t-28.5 -42.5t-42 -28.5t-52 -10.5h-22q-28 0 -52 10.5t-42 28.5t-28.5 42.5t-10.5 51.5v628h-241v50
h291v-323q25 20 51 36q22 14 46.5 25t44.5 11q40 0 68 -28t28 -68v-331z" />
    <glyph glyph-name="afii10093" unicode="&#x44b;" horiz-adv-x="575" 
d="M506 0h-50v800h50v-800zM298 454q0 21 -14.5 33.5t-31.5 12.5q-20 0 -44.5 -12.5t-46.5 -28.5q-26 -18 -51 -41v-295q0 -35 24 -59t59 -24h22q35 0 59 24t24 59v331zM348 123q0 -27 -10.5 -51.5t-28.5 -42.5t-42 -28.5t-52 -10.5h-22q-28 0 -52 10.5t-42 28.5t-28.5 42.5
t-10.5 51.5v678h50v-323q25 20 51 36q22 14 46.5 25t44.5 11q40 0 68 -28t28 -68v-331z" />
    <glyph glyph-name="afii10094" unicode="&#x44c;" 
d="M298 454q0 21 -14.5 33.5t-31.5 12.5q-20 0 -44.5 -12.5t-46.5 -28.5q-26 -18 -51 -41v-295q0 -35 24 -59t59 -24h22q35 0 59 24t24 59v331zM348 123q0 -27 -10.5 -51.5t-28.5 -42.5t-42 -28.5t-52 -10.5h-22q-28 0 -52 10.5t-42 28.5t-28.5 42.5t-10.5 51.5v678h50v-323
q25 20 51 36q22 14 46.5 25t44.5 11q40 0 68 -28t28 -68v-331z" />
    <glyph glyph-name="afii10095" unicode="&#x44d;" horiz-adv-x="413" 
d="M102 134q0 -39 26.5 -66.5t65.5 -27.5h20q20 0 37 7.5t29.5 20t20 30t7.5 36.5v262h-207v50h207v216q0 20 -7.5 37t-20 29.5t-29.5 20t-37 7.5h-20q-19 0 -36.5 -7.5t-30 -20t-20 -29.5t-7.5 -37v-126h-50v126q0 30 11.5 56.5t31 46t45.5 30.5t56 11h20q30 0 56.5 -11
t46 -30.5t30.5 -46t11 -56.5v-528q0 -30 -11 -56t-30.5 -45.5t-46 -31t-56.5 -11.5h-20q-30 0 -56 11.5t-45.5 31t-31 45.5t-11.5 56v158h52v-158z" />
    <glyph glyph-name="afii10096" unicode="&#x44e;" horiz-adv-x="570" 
d="M465 662q0 20 -7.5 37t-20 29.5t-29.5 20t-37 7.5h-20q-19 0 -36.5 -7.5t-30 -20t-20 -29.5t-7.5 -37v-528q0 -19 7.5 -36.5t20 -30t30 -20t36.5 -7.5h20q20 0 37 7.5t29.5 20t20 30t7.5 36.5v528zM515 134q0 -30 -11 -56t-30.5 -45.5t-46 -31t-56.5 -11.5h-20
q-30 0 -56 11.5t-45.5 31t-31 45.5t-11.5 56v283h-87v-417h-50v800h50v-334h87v196q0 30 11.5 56.5t31 46t45.5 30.5t56 11h20q30 0 56.5 -11t46 -30.5t30.5 -46t11 -56.5v-528z" />
    <glyph glyph-name="afii10097" unicode="&#x44f;" horiz-adv-x="431" 
d="M201 750q-39 0 -66.5 -25t-27.5 -63v-106q0 -19 7.5 -36.5t20 -30t30 -20t36.5 -7.5h110v288h-110zM361 0h-50v412h-53l-168 -412h-50l168 412h-7q-30 0 -56 11.5t-45.5 31t-31 45.5t-11.5 56v106q0 30 11.5 55.5t31 43.5t45.5 28.5t56 10.5h160v-800z" />
    <glyph glyph-name="afii10060" unicode="&#x40b;" horiz-adv-x="503" 
d="M190 750v-252q31 20 61 36q26 14 53.5 25t47.5 11q40 0 68 -28t28 -68v-474h-50v474q0 21 -14.5 33.5t-31.5 12.5q-20 0 -47.5 -12.5t-53.5 -28.5q-30 -18 -61 -41v-438h-50v750h-140v50h330v-50h-140z" />
    <glyph glyph-name="afii10108" unicode="&#x45b;" horiz-adv-x="503" 
d="M190 750v-252q31 20 61 36q26 14 53.5 25t47.5 11q40 0 68 -28t28 -68v-474h-50v474q0 21 -14.5 33.5t-31.5 12.5q-20 0 -47.5 -12.5t-53.5 -28.5q-30 -18 -61 -41v-438h-50v750h-140v50h330v-50h-140z" />
    <glyph glyph-name="afii10051" unicode="&#x402;" horiz-adv-x="503" 
d="M398 474q0 21 -14.5 33.5t-31.5 12.5q-20 0 -47.5 -12.5t-53.5 -28.5q-30 -18 -61 -41v-438h-50v750h-140v50h330v-50h-140v-252q31 20 61 36q26 14 53.5 25t47.5 11q40 0 68 -28t28 -68v-533q0 -20 -10.5 -37.5t-27.5 -30.5t-37.5 -20.5t-40.5 -7.5v50q9 0 20 4
t21.5 10.5t17.5 14.5t7 17v533z" />
    <glyph glyph-name="afii10099" unicode="&#x452;" horiz-adv-x="503" 
d="M398 474q0 21 -14.5 33.5t-31.5 12.5q-20 0 -47.5 -12.5t-53.5 -28.5q-30 -18 -61 -41v-438h-50v750h-140v50h330v-50h-140v-252q31 20 61 36q26 14 53.5 25t47.5 11q40 0 68 -28t28 -68v-533q0 -20 -10.5 -37.5t-27.5 -30.5t-37.5 -20.5t-40.5 -7.5v50q9 0 20 4
t21.5 10.5t17.5 14.5t7 17v533z" />
    <glyph glyph-name="afii10059" unicode="&#x40a;" horiz-adv-x="708" 
d="M603 454q0 21 -14.5 33.5t-31.5 12.5q-20 0 -44.5 -12.5t-46.5 -28.5q-26 -18 -51 -41v-295q0 -35 24 -59t59 -24h22q35 0 59 24t24 59v331zM653 123q0 -27 -10.5 -51.5t-28.5 -42.5t-42 -28.5t-52 -10.5h-22q-28 0 -52 10.5t-42 28.5t-28.5 42.5t-10.5 51.5v294h-245
v-417h-50v800h50v-334h245v335h50v-323q25 20 51 36q22 14 46.5 25t44.5 11q40 0 68 -28t28 -68v-331z" />
    <glyph glyph-name="afii10107" unicode="&#x45a;" horiz-adv-x="708" 
d="M603 454q0 21 -14.5 33.5t-31.5 12.5q-20 0 -44.5 -12.5t-46.5 -28.5q-26 -18 -51 -41v-295q0 -35 24 -59t59 -24h22q35 0 59 24t24 59v331zM653 123q0 -27 -10.5 -51.5t-28.5 -42.5t-42 -28.5t-52 -10.5h-22q-28 0 -52 10.5t-42 28.5t-28.5 42.5t-10.5 51.5v294h-245
v-417h-50v800h50v-334h245v335h50v-323q25 20 51 36q22 14 46.5 25t44.5 11q40 0 68 -28t28 -68v-331z" />
    <glyph glyph-name="afii10052" unicode="&#x403;" horiz-adv-x="319" 
d="M202 849h-58l101 131h57zM319 800v-50h-199v-750h-50v800h249z" />
    <glyph glyph-name="afii10100" unicode="&#x453;" horiz-adv-x="319" 
d="M202 849h-58l101 131h57zM319 800v-50h-199v-750h-50v800h249z" />
    <glyph glyph-name="afii10061" unicode="&#x40c;" horiz-adv-x="436" 
d="M242 799h-58l101 131h57zM239 446v-9l197 -437h-54l-188 417h-75v-417h-49v800h49v-334h75l155 292q2 4 9 11t17 14t23 12t28 5v-51q-17 0 -28.5 -11t-16.5 -20z" />
    <glyph glyph-name="afii10109" unicode="&#x45c;" horiz-adv-x="436" 
d="M242 799h-58l101 131h57zM239 446v-9l197 -437h-54l-188 417h-75v-417h-49v800h49v-334h75l155 292q2 4 9 11t17 14t23 12t28 5v-51q-17 0 -28.5 -11t-16.5 -20z" />
    <glyph glyph-name="afii10037" unicode="&#x423;" horiz-adv-x="420" 
d="M153 0l57 221h-23q-14 3 -23 12.5t-11 20.5l-143 546h50l139 -517q0 -3 2 -6q2 -2 3.5 -4.5t4.5 -2.5h8q5 0 6 3l137 527h50l-207 -800h-50z" />
    <glyph glyph-name="afii10062" unicode="&#x40e;" horiz-adv-x="420" 
d="M308 888q0 -40 -28 -68t-68 -28t-68 28t-28 68h50q0 -20 13 -33t33 -13t33 13t13 33h50zM153 0l57 221h-23q-14 3 -23 12.5t-11 20.5l-143 546h50l139 -517q0 -3 2 -6q2 -2 3.5 -4.5t4.5 -2.5h8q5 0 6 3l137 527h50l-207 -800h-50z" />
    <glyph glyph-name="afii10110" unicode="&#x45e;" horiz-adv-x="420" 
d="M308 888q0 -40 -28 -68t-68 -28t-68 28t-28 68h50q0 -20 13 -33t33 -13t33 13t13 33h50zM153 0l57 221h-23q-14 3 -23 12.5t-11 20.5l-143 546h50l139 -517q0 -3 2 -6q2 -2 3.5 -4.5t4.5 -2.5h8q5 0 6 3l137 527h50l-207 -800h-50z" />
    <glyph glyph-name="afii61352" unicode="&#x2116;" horiz-adv-x="734" 
d="M495 135v39h194v-39h-194zM678 311q0 -33 -23.5 -56.5t-56.5 -23.5h-13q-34 0 -57 23.5t-23 56.5v188q0 34 23 57t57 23h13q33 0 56.5 -23t23.5 -57v-188zM638 499q0 22 -13 31t-27 9h-13q-14 0 -27 -9t-13 -31v-188q0 -22 13 -31t27 -9h13q14 0 27 9t13 31v188zM307 0
l-167 750h-20v-750h-50v800h110l165 -750h20v750h50v-800h-108z" />
    <glyph glyph-name="afii10145" unicode="&#x40f;" horiz-adv-x="445" 
d="M252 0v-156h-50v156h-132v800h50v-751h205v751h50v-800h-123z" />
    <glyph glyph-name="afii10193" unicode="&#x45f;" horiz-adv-x="445" 
d="M252 0v-156h-50v156h-132v800h50v-751h205v751h50v-800h-123z" />
    <glyph glyph-name="tonos" unicode="&#x384;" horiz-adv-x="283" 
d="M148 669h-58l101 131h57z" />
    <glyph glyph-name="Alpha" unicode="&#x391;" horiz-adv-x="421" 
d="M108 264h204l-89 479q0 4 -2 7q-4 6 -8 6h-8q-6 0 -7.5 -5t-2.5 -8zM361 0l-40 214h-222l-39 -214h-50l139 772q2 12 14.5 23t28.5 11h34q16 0 28.5 -10.5t14.5 -23.5l142 -772h-50z" />
    <glyph glyph-name="Beta" unicode="&#x392;" horiz-adv-x="428" 
d="M251 800q25 0 46.5 -9.5t38 -26t26 -38t9.5 -46.5v-144q0 -39 -21.5 -71t-55.5 -47q37 -14 60.5 -46t23.5 -74v-178q0 -25 -9.5 -46.5t-26 -38t-38 -26t-46.5 -9.5h-188v800h181zM246 443q10 5 23 12t24 18.5t19 26.5t8 34v146q0 27 -20 49t-49 22h-131v-308h126z
M328 298q0 21 -9 37t-22 27t-27.5 19t-24.5 12h-125v-343h137q30 0 50.5 20.5t20.5 49.5v178z" />
    <glyph glyph-name="Epsilon" unicode="&#x395;" horiz-adv-x="338" 
d="M120 750v-284h171v-50h-171v-366h198v-50h-248v800h248v-50h-198z" />
    <glyph glyph-name="Zeta" unicode="&#x396;" horiz-adv-x="360" 
d="M15 0l261 750h-261v50h330l-260 -750h260v-50h-330z" />
    <glyph glyph-name="Eta" unicode="&#x397;" horiz-adv-x="445" 
d="M375 800v-800h-50v417h-205v-417h-50v800h50v-334h205v334h50z" />
    <glyph glyph-name="Iota" unicode="&#x399;" horiz-adv-x="200" 
d="M125 0h-50v800h50v-800z" />
    <glyph glyph-name="Kappa" unicode="&#x39a;" horiz-adv-x="436" 
d="M119 0h-49v800h49v-334h75l188 334h54l-197 -354v-9l197 -437h-54l-188 417h-75v-417z" />
    <glyph glyph-name="Lambda" unicode="&#x39b;" horiz-adv-x="421" 
d="M223 743q0 4 -2 7q-4 6 -8 6h-8q-6 0 -7.5 -5t-2.5 -8l-135 -743h-50l139 772q2 12 14.5 23t28.5 11h34q16 0 28.5 -10.5t14.5 -23.5l142 -772h-50z" />
    <glyph glyph-name="Mu" unicode="&#x39c;" horiz-adv-x="614" 
d="M524 800l30 -800h-50l-29 750h-20l-123 -740h-50l-122 740h-20l-30 -750h-50l31 800h109l107 -690l109 690h108z" />
    <glyph glyph-name="Nu" unicode="&#x39d;" horiz-adv-x="485" 
d="M307 0l-167 750h-20v-750h-50v800h110l165 -750h20v750h50v-800h-108z" />
    <glyph glyph-name="Omicron" unicode="&#x39f;" horiz-adv-x="418" 
d="M363 134q0 -30 -11 -56t-30.5 -45.5t-46 -31t-56.5 -11.5h-20q-30 0 -56 11.5t-45.5 31t-31 45.5t-11.5 56v528q0 30 11.5 56.5t31 46t45.5 30.5t56 11h20q30 0 56.5 -11t46 -30.5t30.5 -46t11 -56.5v-528zM313 662q0 20 -7.5 37t-20 29.5t-29.5 20t-37 7.5h-20
q-19 0 -36.5 -7.5t-30 -20t-20 -29.5t-7.5 -37v-528q0 -19 7.5 -36.5t20 -30t30 -20t36.5 -7.5h20q20 0 37 7.5t29.5 20t20 30t7.5 36.5v528z" />
    <glyph glyph-name="Pi" unicode="&#x3a0;" horiz-adv-x="445" 
d="M375 800v-800h-50v751h-205v-751h-50v800h305z" />
    <glyph glyph-name="Rho" unicode="&#x3a1;" horiz-adv-x="404" 
d="M70 800h160q30 0 56.5 -10.5t46 -28.5t30.5 -43.5t11 -55.5v-176q0 -30 -11 -56t-30.5 -45.5t-46 -31t-56.5 -11.5h-110v-342h-50v800zM120 750v-358h110q20 0 37 7.5t29.5 20t20 30t7.5 36.5v176q0 38 -27.5 63t-66.5 25h-110z" />
    <glyph glyph-name="Tau" unicode="&#x3a4;" horiz-adv-x="330" 
d="M190 750v-750h-50v750h-140v50h330v-50h-140z" />
    <glyph glyph-name="Upsilon" unicode="&#x3a5;" horiz-adv-x="424" 
d="M364 800h50l-141 -546q-2 -11 -12 -21t-24 -13v-220h-50v221q-14 3 -23 12.5t-11 20.5l-143 546h50l139 -517q0 -3 2 -6q2 -2 3.5 -4.5t4.5 -2.5h8q6 0 7.5 5t2.5 8z" />
    <glyph glyph-name="Phi" unicode="&#x3a6;" horiz-adv-x="468" 
d="M363 562q0 20 -7.5 37t-20 29.5t-29.5 20t-37 7.5h-9v-516h9q20 0 37 7.5t29.5 20t20 30t7.5 36.5v328zM105 234q0 -39 27.5 -66.5t66.5 -27.5h11v516h-11q-19 0 -36.5 -7.5t-30 -20t-20 -29.5t-7.5 -37v-328zM260 0h-50v90h-11q-30 0 -56 11.5t-45.5 31t-31 45.5
t-11.5 56v328q0 30 11.5 56.5t31 46t45.5 30.5t56 11h11v94h50v-94h9q30 0 56.5 -11t46 -30.5t30.5 -46t11 -56.5v-328q0 -30 -11 -56t-30.5 -45.5t-46 -31t-56.5 -11.5h-9v-90z" />
    <glyph glyph-name="Chi" unicode="&#x3a7;" horiz-adv-x="400" 
d="M292 800h51l-118 -345l155 -455h-51l-129 399l-129 -399h-51l154 455l-116 345h51l91 -289z" />
    <glyph glyph-name="Psi" unicode="&#x3a8;" horiz-adv-x="398" 
d="M225 0h-50v358h-11q-30 0 -56 11.5t-45.5 31t-31 45.5t-11.5 56v298h50v-298q0 -19 7.5 -36.5t20 -30t30 -20t36.5 -7.5h11v392h50v-392h9q20 0 37 7.5t29.5 20t20 30t7.5 36.5v298h50v-298q0 -30 -11 -56t-30.5 -45.5t-46 -31t-56.5 -11.5h-9v-358z" />
    <glyph glyph-name="Gamma" unicode="&#x393;" horiz-adv-x="319" 
d="M319 800v-50h-199v-750h-50v800h249z" />
    <glyph glyph-name="Xi" unicode="&#x39e;" horiz-adv-x="525" 
d="M373 417v49h-220v-49h220zM455 0v330h-50v-281h-285v281h-50v-330h385zM413 800v-200h-50v151h-205v-151h-50v200h305z" />
    <glyph glyph-name="Theta" unicode="&#x398;" horiz-adv-x="418" 
d="M363 134q0 -30 -11 -56t-30.5 -45.5t-46 -31t-56.5 -11.5h-20q-30 0 -56 11.5t-45.5 31t-31 45.5t-11.5 56v528q0 30 11.5 56.5t31 46t45.5 30.5t56 11h20q30 0 56.5 -11t46 -30.5t30.5 -46t11 -56.5v-528zM313 662q0 20 -7.5 37t-20 29.5t-29.5 20t-37 7.5h-20
q-19 0 -36.5 -7.5t-30 -20t-20 -29.5t-7.5 -37v-528q0 -19 7.5 -36.5t20 -30t30 -20t36.5 -7.5h20q20 0 37 7.5t29.5 20t20 30t7.5 36.5v528zM143 417v49h140v-49h-140z" />
    <glyph glyph-name="Sigma" unicode="&#x3a3;" horiz-adv-x="390" 
d="M241 401l-122 -351h261v-50h-330l138 401l-138 399h330v-50h-261z" />
    <glyph glyph-name="alpha" unicode="&#x3b1;" horiz-adv-x="421" 
d="M108 264h204l-89 479q0 4 -2 7q-4 6 -8 6h-8q-6 0 -7.5 -5t-2.5 -8zM361 0l-40 214h-222l-39 -214h-50l139 772q2 12 14.5 23t28.5 11h34q16 0 28.5 -10.5t14.5 -23.5l142 -772h-50z" />
    <glyph glyph-name="beta" unicode="&#x3b2;" horiz-adv-x="428" 
d="M251 800q25 0 46.5 -9.5t38 -26t26 -38t9.5 -46.5v-144q0 -39 -21.5 -71t-55.5 -47q37 -14 60.5 -46t23.5 -74v-178q0 -25 -9.5 -46.5t-26 -38t-38 -26t-46.5 -9.5h-188v800h181zM246 443q10 5 23 12t24 18.5t19 26.5t8 34v146q0 27 -20 49t-49 22h-131v-308h126z
M328 298q0 21 -9 37t-22 27t-27.5 19t-24.5 12h-125v-343h137q30 0 50.5 20.5t20.5 49.5v178z" />
    <glyph glyph-name="gamma" unicode="&#x3b3;" horiz-adv-x="319" 
d="M319 800v-50h-199v-750h-50v800h249z" />
    <glyph glyph-name="delta" unicode="&#x3b4;" horiz-adv-x="421" 
d="M69 50h282l-128 693q0 4 -2 7q-4 6 -8 6h-8q-6 0 -7.5 -5t-2.5 -8zM149 772q2 12 14.5 23t28.5 11h34q16 0 28.5 -10.5t14.5 -23.5l142 -772h-401z" />
    <glyph glyph-name="epsilon" unicode="&#x3b5;" horiz-adv-x="338" 
d="M120 750v-284h171v-50h-171v-366h198v-50h-248v800h248v-50h-198z" />
    <glyph glyph-name="zeta" unicode="&#x3b6;" horiz-adv-x="360" 
d="M15 0l261 750h-261v50h330l-260 -750h260v-50h-330z" />
    <glyph glyph-name="eta" unicode="&#x3b7;" horiz-adv-x="445" 
d="M375 800v-800h-50v417h-205v-417h-50v800h50v-334h205v334h50z" />
    <glyph glyph-name="theta" unicode="&#x3b8;" horiz-adv-x="418" 
d="M363 134q0 -30 -11 -56t-30.5 -45.5t-46 -31t-56.5 -11.5h-20q-30 0 -56 11.5t-45.5 31t-31 45.5t-11.5 56v528q0 30 11.5 56.5t31 46t45.5 30.5t56 11h20q30 0 56.5 -11t46 -30.5t30.5 -46t11 -56.5v-528zM313 662q0 20 -7.5 37t-20 29.5t-29.5 20t-37 7.5h-20
q-19 0 -36.5 -7.5t-30 -20t-20 -29.5t-7.5 -37v-528q0 -19 7.5 -36.5t20 -30t30 -20t36.5 -7.5h20q20 0 37 7.5t29.5 20t20 30t7.5 36.5v528zM143 417v49h140v-49h-140z" />
    <glyph glyph-name="iota" unicode="&#x3b9;" horiz-adv-x="200" 
d="M125 0h-50v800h50v-800z" />
    <glyph glyph-name="kappa" unicode="&#x3ba;" horiz-adv-x="436" 
d="M119 0h-49v800h49v-334h75l188 334h54l-197 -354v-9l197 -437h-54l-188 417h-75v-417z" />
    <glyph glyph-name="lambda" unicode="&#x3bb;" horiz-adv-x="421" 
d="M223 743q0 4 -2 7q-4 6 -8 6h-8q-6 0 -7.5 -5t-2.5 -8l-135 -743h-50l139 772q2 12 14.5 23t28.5 11h34q16 0 28.5 -10.5t14.5 -23.5l142 -772h-50z" />
    <glyph glyph-name="nu" unicode="&#x3bd;" horiz-adv-x="485" 
d="M307 0l-167 750h-20v-750h-50v800h110l165 -750h20v750h50v-800h-108z" />
    <glyph glyph-name="xi" unicode="&#x3be;" horiz-adv-x="525" 
d="M373 417v49h-220v-49h220zM455 0v330h-50v-281h-285v281h-50v-330h385zM413 800v-200h-50v151h-205v-151h-50v200h305z" />
    <glyph glyph-name="omicron" unicode="&#x3bf;" horiz-adv-x="418" 
d="M363 134q0 -30 -11 -56t-30.5 -45.5t-46 -31t-56.5 -11.5h-20q-30 0 -56 11.5t-45.5 31t-31 45.5t-11.5 56v528q0 30 11.5 56.5t31 46t45.5 30.5t56 11h20q30 0 56.5 -11t46 -30.5t30.5 -46t11 -56.5v-528zM313 662q0 20 -7.5 37t-20 29.5t-29.5 20t-37 7.5h-20
q-19 0 -36.5 -7.5t-30 -20t-20 -29.5t-7.5 -37v-528q0 -19 7.5 -36.5t20 -30t30 -20t36.5 -7.5h20q20 0 37 7.5t29.5 20t20 30t7.5 36.5v528z" />
    <glyph glyph-name="rho" unicode="&#x3c1;" horiz-adv-x="404" 
d="M70 800h160q30 0 56.5 -10.5t46 -28.5t30.5 -43.5t11 -55.5v-176q0 -30 -11 -56t-30.5 -45.5t-46 -31t-56.5 -11.5h-110v-342h-50v800zM120 750v-358h110q20 0 37 7.5t29.5 20t20 30t7.5 36.5v176q0 38 -27.5 63t-66.5 25h-110z" />
    <glyph glyph-name="sigma" unicode="&#x3c3;" horiz-adv-x="390" 
d="M241 401l-122 -351h261v-50h-330l138 401l-138 399h330v-50h-261z" />
    <glyph glyph-name="tau" unicode="&#x3c4;" horiz-adv-x="330" 
d="M190 750v-750h-50v750h-140v50h330v-50h-140z" />
    <glyph glyph-name="upsilon" unicode="&#x3c5;" horiz-adv-x="424" 
d="M364 800h50l-141 -546q-2 -11 -12 -21t-24 -13v-220h-50v221q-14 3 -23 12.5t-11 20.5l-143 546h50l139 -517q0 -3 2 -6q2 -2 3.5 -4.5t4.5 -2.5h8q6 0 7.5 5t2.5 8z" />
    <glyph glyph-name="phi" unicode="&#x3c6;" horiz-adv-x="468" 
d="M363 562q0 20 -7.5 37t-20 29.5t-29.5 20t-37 7.5h-9v-516h9q20 0 37 7.5t29.5 20t20 30t7.5 36.5v328zM105 234q0 -39 27.5 -66.5t66.5 -27.5h11v516h-11q-19 0 -36.5 -7.5t-30 -20t-20 -29.5t-7.5 -37v-328zM260 0h-50v90h-11q-30 0 -56 11.5t-45.5 31t-31 45.5
t-11.5 56v328q0 30 11.5 56.5t31 46t45.5 30.5t56 11h11v94h50v-94h9q30 0 56.5 -11t46 -30.5t30.5 -46t11 -56.5v-328q0 -30 -11 -56t-30.5 -45.5t-46 -31t-56.5 -11.5h-9v-90z" />
    <glyph glyph-name="chi" unicode="&#x3c7;" horiz-adv-x="400" 
d="M292 800h51l-118 -345l155 -455h-51l-129 399l-129 -399h-51l154 455l-116 345h51l91 -289z" />
    <glyph glyph-name="psi" unicode="&#x3c8;" horiz-adv-x="398" 
d="M225 0h-50v358h-11q-30 0 -56 11.5t-45.5 31t-31 45.5t-11.5 56v298h50v-298q0 -19 7.5 -36.5t20 -30t30 -20t36.5 -7.5h11v392h50v-392h9q20 0 37 7.5t29.5 20t20 30t7.5 36.5v298h50v-298q0 -30 -11 -56t-30.5 -45.5t-46 -31t-56.5 -11.5h-9v-358z" />
    <glyph glyph-name="omega" unicode="&#x3c9;" horiz-adv-x="418" 
d="M196 756q-19 0 -36.5 -7.5t-30 -20t-20 -29.5t-7.5 -37v-376q0 -19 7.5 -36t19.5 -30t27 -20t30 -7v-193h-120v50h70v104q-37 17 -60.5 52t-23.5 80v376q0 30 11.5 56.5t31 46t45.5 30.5t56 11h23q30 0 56.5 -11t46 -30.5t30.5 -46t11 -56.5v-376q0 -45 -23.5 -80
t-60.5 -52v-104h70v-50h-120v193q15 0 30 7t27 20t19.5 30t7.5 36v376q0 20 -7.5 37t-20 29.5t-29.5 20t-37 7.5h-23z" />
    <glyph glyph-name="sigma1" unicode="&#x3c2;" horiz-adv-x="390" 
d="M241 401l-122 -351h261v-50h-330l138 401l-138 399h330v-50h-261z" />
    <glyph glyph-name="dieresistonos" unicode="&#x385;" horiz-adv-x="298" 
d="M236 641q-12 0 -20.5 8.5t-8.5 20.5t8.5 21t20.5 9t21 -9t9 -21t-9 -20.5t-21 -8.5zM142 618h-58l101 131h57zM66 641q-12 0 -20.5 8.5t-8.5 20.5t8.5 21t20.5 9t21 -9t9 -21t-9 -20.5t-21 -8.5z" />
    <glyph glyph-name="Alphatonos" unicode="&#x386;" horiz-adv-x="447" 
d="M136 799h-57l-101 -131h58zM134 264h204l-89 479q0 4 -2 7q-4 6 -8 6h-8q-6 0 -7.5 -5t-2.5 -8zM387 0l-40 214h-222l-39 -214h-50l139 772q2 12 14.5 23t28.5 11h34q16 0 28.5 -10.5t14.5 -23.5l142 -772h-50z" />
    <glyph glyph-name="alphatonos" unicode="&#x3ac;" horiz-adv-x="447" 
d="M136 799h-57l-101 -131h58zM134 264h204l-89 479q0 4 -2 7q-4 6 -8 6h-8q-6 0 -7.5 -5t-2.5 -8zM387 0l-40 214h-222l-39 -214h-50l139 772q2 12 14.5 23t28.5 11h34q16 0 28.5 -10.5t14.5 -23.5l142 -772h-50z" />
    <glyph glyph-name="Iotadieresis" unicode="&#x3aa;" horiz-adv-x="196" 
d="M159 831q-12 0 -21 8.5t-9 20.5t9 21t21 9t20.5 -9t8.5 -21t-8.5 -20.5t-20.5 -8.5zM37 831q-12 0 -20.5 8.5t-8.5 20.5t8.5 21t20.5 9t21 -9t9 -21t-9 -20.5t-21 -8.5zM125 800h-50v-800h50v800z" />
    <glyph glyph-name="Upsilondieresis" unicode="&#x3ab;" horiz-adv-x="424" 
d="M270 831q-12 0 -21 8.5t-9 20.5t9 21t21 9t20.5 -9t8.5 -21t-8.5 -20.5t-20.5 -8.5zM148 831q-12 0 -20.5 8.5t-8.5 20.5t8.5 21t20.5 9t21 -9t9 -21t-9 -20.5t-21 -8.5zM364 800h50l-141 -546q-2 -11 -12 -21t-24 -13v-220h-50v221q-14 3 -23 12.5t-11 20.5l-143 546h50
l139 -517q0 -3 2 -6q2 -2 3.5 -4.5t4.5 -2.5h8q6 0 7.5 5t2.5 8z" />
    <glyph glyph-name="iotadieresis" unicode="&#x3ca;" horiz-adv-x="196" 
d="M159 831q-12 0 -21 8.5t-9 20.5t9 21t21 9t20.5 -9t8.5 -21t-8.5 -20.5t-20.5 -8.5zM37 831q-12 0 -20.5 8.5t-8.5 20.5t8.5 21t20.5 9t21 -9t9 -21t-9 -20.5t-21 -8.5zM125 800h-50v-800h50v800z" />
    <glyph glyph-name="upsilondieresis" unicode="&#x3cb;" horiz-adv-x="424" 
d="M270 831q-12 0 -21 8.5t-9 20.5t9 21t21 9t20.5 -9t8.5 -21t-8.5 -20.5t-20.5 -8.5zM148 831q-12 0 -20.5 8.5t-8.5 20.5t8.5 21t20.5 9t21 -9t9 -21t-9 -20.5t-21 -8.5zM364 800h50l-141 -546q-2 -11 -12 -21t-24 -13v-220h-50v221q-14 3 -23 12.5t-11 20.5l-143 546h50
l139 -517q0 -3 2 -6q2 -2 3.5 -4.5t4.5 -2.5h8q6 0 7.5 5t2.5 8z" />
    <glyph glyph-name="Epsilontonos" unicode="&#x388;" horiz-adv-x="363" 
d="M145 750v-284h171v-50h-171v-366h198v-50h-248v800h248v-50h-198zM68 800h-57l-101 -131h58z" />
    <glyph glyph-name="epsilontonos" unicode="&#x3ad;" horiz-adv-x="363" 
d="M145 750v-284h171v-50h-171v-366h198v-50h-248v800h248v-50h-198zM68 800h-57l-101 -131h58z" />
    <glyph glyph-name="Etatonos" unicode="&#x389;" horiz-adv-x="490" 
d="M420 800v-800h-50v417h-205v-417h-50v800h50v-334h205v334h50zM-22 669h-58l101 131h57z" />
    <glyph glyph-name="etatonos" unicode="&#x3ae;" horiz-adv-x="490" 
d="M420 800v-800h-50v417h-205v-417h-50v800h50v-334h205v334h50zM-22 669h-58l101 131h57z" />
    <glyph glyph-name="Iotatonos" unicode="&#x38a;" horiz-adv-x="229" 
d="M154 0h-50v800h50v-800zM-28 669h-58l101 131h57z" />
    <glyph glyph-name="Omicrontonos" unicode="&#x38c;" horiz-adv-x="474" 
d="M419 134q0 -30 -11 -56t-30.5 -45.5t-46 -31t-56.5 -11.5h-20q-30 0 -56 11.5t-45.5 31t-31 45.5t-11.5 56v528q0 30 11.5 56.5t31 46t45.5 30.5t56 11h20q30 0 56.5 -11t46 -30.5t30.5 -46t11 -56.5v-528zM369 662q0 20 -7.5 37t-20 29.5t-29.5 20t-37 7.5h-20
q-19 0 -36.5 -7.5t-30 -20t-20 -29.5t-7.5 -37v-528q0 -19 7.5 -36.5t20 -30t30 -20t36.5 -7.5h20q20 0 37 7.5t29.5 20t20 30t7.5 36.5v528zM3 669h-58l101 131h57z" />
    <glyph glyph-name="iotatonos" unicode="&#x3af;" horiz-adv-x="229" 
d="M154 0h-50v800h50v-800zM-28 669h-58l101 131h57z" />
    <glyph glyph-name="omicrontonos" unicode="&#x3cc;" horiz-adv-x="474" 
d="M419 134q0 -30 -11 -56t-30.5 -45.5t-46 -31t-56.5 -11.5h-20q-30 0 -56 11.5t-45.5 31t-31 45.5t-11.5 56v528q0 30 11.5 56.5t31 46t45.5 30.5t56 11h20q30 0 56.5 -11t46 -30.5t30.5 -46t11 -56.5v-528zM369 662q0 20 -7.5 37t-20 29.5t-29.5 20t-37 7.5h-20
q-19 0 -36.5 -7.5t-30 -20t-20 -29.5t-7.5 -37v-528q0 -19 7.5 -36.5t20 -30t30 -20t36.5 -7.5h20q20 0 37 7.5t29.5 20t20 30t7.5 36.5v528zM3 669h-58l101 131h57z" />
    <glyph glyph-name="Upsilontonos" unicode="&#x38e;" horiz-adv-x="585" 
d="M481 800h50l-141 -546q-2 -11 -12 -21t-24 -13v-220h-50v221q-14 3 -23 12.5t-11 20.5l-143 546h50l139 -517q0 -3 2 -6q2 -2 3.5 -4.5t4.5 -2.5h8q6 0 7.5 5t2.5 8zM108 800h-57l-101 -131h58z" />
    <glyph glyph-name="upsilontonos" unicode="&#x3cd;" horiz-adv-x="541" 
d="M481 800h50l-141 -546q-2 -11 -12 -21t-24 -13v-220h-50v221q-14 3 -23 12.5t-11 20.5l-143 546h50l139 -517q0 -3 2 -6q2 -2 3.5 -4.5t4.5 -2.5h8q6 0 7.5 5t2.5 8zM108 800h-57l-101 -131h58z" />
    <glyph glyph-name="Omegatonos" unicode="&#x38f;" horiz-adv-x="476" 
d="M255 756q-19 0 -36.5 -7.5t-30 -20t-20 -29.5t-7.5 -37v-376q0 -19 7.5 -36t19.5 -30t27 -20t30 -7v-193h-120v50h70v104q-37 17 -60.5 52t-23.5 80v376q0 30 11.5 56.5t31 46t45.5 30.5t56 11h23q30 0 56.5 -11t46 -30.5t30.5 -46t11 -56.5v-376q0 -45 -23.5 -80
t-60.5 -52v-104h70v-50h-120v193q15 0 30 7t27 20t19.5 30t7.5 36v376q0 20 -7.5 37t-20 29.5t-29.5 20t-37 7.5h-23zM3 669h-58l101 131h57z" />
    <glyph glyph-name="omegatonos" unicode="&#x3ce;" horiz-adv-x="476" 
d="M255 756q-19 0 -36.5 -7.5t-30 -20t-20 -29.5t-7.5 -37v-376q0 -19 7.5 -36t19.5 -30t27 -20t30 -7v-193h-120v50h70v104q-37 17 -60.5 52t-23.5 80v376q0 30 11.5 56.5t31 46t45.5 30.5t56 11h23q30 0 56.5 -11t46 -30.5t30.5 -46t11 -56.5v-376q0 -45 -23.5 -80
t-60.5 -52v-104h70v-50h-120v193q15 0 30 7t27 20t19.5 30t7.5 36v376q0 20 -7.5 37t-20 29.5t-29.5 20t-37 7.5h-23zM3 669h-58l101 131h57z" />
    <glyph glyph-name="iotadieresistonos" unicode="&#x390;" horiz-adv-x="242" 
d="M207 869q-12 0 -20.5 8.5t-8.5 20.5t8.5 21t20.5 9t21 -9t9 -21t-9 -20.5t-21 -8.5zM113 846h-58l101 131h57zM37 869q-12 0 -20.5 8.5t-8.5 20.5t8.5 21t20.5 9t21 -9t9 -21t-9 -20.5t-21 -8.5zM147 0h-50v800h50v-800z" />
    <glyph glyph-name="upsilondieresistonos" unicode="&#x3b0;" horiz-adv-x="424" 
d="M302 772q-12 0 -20.5 8.5t-8.5 20.5t8.5 21t20.5 9t21 -9t9 -21t-9 -20.5t-21 -8.5zM208 749h-58l101 131h57zM132 772q-12 0 -20.5 8.5t-8.5 20.5t8.5 21t20.5 9t21 -9t9 -21t-9 -20.5t-21 -8.5zM364 800h50l-141 -546q-2 -11 -12 -21t-24 -13v-220h-50v221
q-14 3 -23 12.5t-11 20.5l-143 546h50l139 -517q0 -3 2 -6q2 -2 3.5 -4.5t4.5 -2.5h8q6 0 7.5 5t2.5 8z" />
    <glyph glyph-name="afii00208" unicode="&#x2015;" horiz-adv-x="1001" 
d="M0 327v49h1000v-49h-1000z" />
    <glyph glyph-name="currency" unicode="&#xa4;" horiz-adv-x="448" 
d="M346 292h52v-158q0 -30 -11 -56t-30.5 -45.5t-46 -31t-56.5 -11.5h-20q-30 0 -56 11.5t-45.5 31t-31 45.5t-11.5 56v196h-55v50h55v36h-55v50h55v166q0 30 11.5 56.5t31 46t45.5 30.5t56 11h20q30 0 56.5 -11t46 -30.5t30.5 -46t11 -56.5v-126h-50v126q0 20 -7.5 37
t-20 29.5t-29.5 20t-37 7.5h-20q-19 0 -36.5 -7.5t-30 -20t-20 -29.5t-7.5 -37v-166h171v-50h-171v-36h171v-50h-171v-196q0 -19 7.5 -36.5t20 -30t30 -20t36.5 -7.5h20q39 0 65.5 27.5t26.5 66.5v158z" />
    <glyph glyph-name="commaaccent" unicode="&#xf6c3;" horiz-adv-x="206" 
d="M86 -80v169h50v-169h-50z" />
    <glyph glyph-name="Idotaccent" horiz-adv-x="75" 
d="M37 831q-12 0 -20.5 8.5t-8.5 20.5t8.5 21t20.5 9t21 -9t9 -21t-9 -20.5t-21 -8.5zM62 800h-50v-800h50v800z" />
    <glyph glyph-name="Rcommaaccent" unicode="&#x156;" horiz-adv-x="418" 
d="M246 443q10 5 23 12t24 18.5t19 26.5t8 34v146q0 27 -20 49t-49 22h-131v-308h126zM328 0v298q0 21 -9 37t-22 27t-27.5 19t-24.5 12h-125v-393h-50v800h181q25 0 46.5 -9.5t38 -26t26 -38t9.5 -46.5v-144q0 -39 -21.5 -71t-55.5 -47q37 -14 60.5 -46t23.5 -74v-298h-50z
M196 -86v169h50v-169h-50z" />
    <glyph glyph-name="Emacron" unicode="&#x112;" horiz-adv-x="338" 
d="M120 750v-284h171v-50h-171v-366h198v-50h-248v800h248v-50h-198zM82 866v49h220v-49h-220z" />
    <glyph glyph-name="Edotaccent" unicode="&#x116;" horiz-adv-x="338" 
d="M206 844q-12 0 -20.5 8.5t-8.5 20.5t8.5 21t20.5 9t21 -9t9 -21t-9 -20.5t-21 -8.5zM120 750v-284h171v-50h-171v-366h198v-50h-248v800h248v-50h-198z" />
    <glyph glyph-name="Iogonek" unicode="&#x12e;" horiz-adv-x="195" 
d="M122 0q-24 -11 -36.5 -28.5t-12.5 -33.5q0 -26 18 -43.5t44 -17.5q16 0 36.5 11t32.5 33l43 -16q-9 -18 -22.5 -31.5t-29 -23.5t-31.5 -15t-29 -5q-23 0 -43 8.5t-34.5 23.5t-23 34.5t-8.5 42.5t11.5 45.5t34.5 40.5v775h50v-800z" />
    <glyph glyph-name="Amacron" unicode="&#x100;" horiz-adv-x="421" 
d="M99 866v49h220v-49h-220zM108 264h204l-89 479q0 4 -2 7q-4 6 -8 6h-8q-6 0 -7.5 -5t-2.5 -8zM361 0l-40 214h-222l-39 -214h-50l139 772q2 12 14.5 23t28.5 11h34q16 0 28.5 -10.5t14.5 -23.5l142 -772h-50z" />
    <glyph glyph-name="rcommaaccent" unicode="&#x157;" horiz-adv-x="364" 
d="M60 -202v169h50v-169h-50zM61 0v560h50v-62q25 20 51 36q22 14 46.5 25t44.5 11q40 0 68 -28t28 -68v-101h-50v101q0 21 -14.5 33.5t-31.5 12.5q-20 0 -44.5 -12.5t-46.5 -28.5q-26 -18 -51 -41v-438h-50z" />
    <glyph glyph-name="Gcommaaccent" unicode="&#x122;" horiz-adv-x="399" 
d="M181 -211v169h50v-169h-50zM215 40q20 0 37 7.5t29.5 20t20 30t7.5 36.5v208h-102v50h152v-258q0 -30 -11 -56t-30.5 -45.5t-46 -31t-56.5 -11.5h-16q-30 0 -56 11.5t-45.5 31t-31 45.5t-11.5 56v528q0 30 11.5 56.5t31 46t45.5 30.5t56 11h16q30 0 56.5 -11t46 -30.5
t30.5 -46t11 -56.5v-126h-50v126q0 20 -7.5 37t-20 29.5t-29.5 20t-37 7.5h-16q-19 0 -36.5 -7.5t-30 -20t-20 -29.5t-7.5 -37v-528q0 -19 7.5 -36.5t20 -30t30 -20t36.5 -7.5h16z" />
    <glyph glyph-name="Kcommaaccent" unicode="&#x136;" horiz-adv-x="436" 
d="M119 0h-49v800h49v-334h75l188 334h54l-197 -354v-9l197 -437h-54l-188 417h-75v-417zM186 -97v169h50v-169h-50z" />
    <glyph glyph-name="Imacron" unicode="&#x12a;" horiz-adv-x="160" 
d="M105 0h-50v800h50v-800zM-30 866v49h220v-49h-220z" />
    <glyph glyph-name="Lcommaaccent" unicode="&#x13b;" horiz-adv-x="298" 
d="M148 -202v169h50v-169h-50zM100 50h198v-50h-247v800h49v-750z" />
    <glyph glyph-name="Ncommaaccent" unicode="&#x145;" horiz-adv-x="485" 
d="M183 -80v169h50v-169h-50zM307 0l-167 750h-20v-750h-50v800h110l165 -750h20v750h50v-800h-108z" />
    <glyph glyph-name="Omacron" unicode="&#x14c;" horiz-adv-x="418" 
d="M99 867v49h220v-49h-220zM363 134q0 -30 -11 -56t-30.5 -45.5t-46 -31t-56.5 -11.5h-20q-30 0 -56 11.5t-45.5 31t-31 45.5t-11.5 56v528q0 30 11.5 56.5t31 46t45.5 30.5t56 11h20q30 0 56.5 -11t46 -30.5t30.5 -46t11 -56.5v-528zM313 662q0 20 -7.5 37t-20 29.5
t-29.5 20t-37 7.5h-20q-19 0 -36.5 -7.5t-30 -20t-20 -29.5t-7.5 -37v-528q0 -19 7.5 -36.5t20 -30t30 -20t36.5 -7.5h20q20 0 37 7.5t29.5 20t20 30t7.5 36.5v528z" />
    <glyph glyph-name="Uogonek" unicode="&#x172;" horiz-adv-x="428" 
d="M318 800h50v-666q0 -28 -10 -53.5t-28 -44.5t-42.5 -31t-52.5 -14q-23 -11 -35 -28.5t-12 -33.5q0 -26 18 -43.5t44 -17.5q16 0 36.5 11t32.5 33l43 -16q-9 -18 -22.5 -31.5t-29 -23.5t-31.5 -15t-29 -5q-23 0 -43 8.5t-34.5 23.5t-23 34.5t-8.5 42.5q0 35 24 65
q-46 12 -75.5 50t-29.5 89v666h50v-666q0 -19 7.5 -36.5t20 -30t30 -20t36.5 -7.5h20q20 0 37 7.5t29.5 20t20 30t7.5 36.5v666z" />
    <glyph glyph-name="Umacron" unicode="&#x16a;" horiz-adv-x="428" 
d="M104 866v49h220v-49h-220zM318 800h50v-666q0 -30 -11 -56t-30.5 -45.5t-46 -31t-56.5 -11.5h-20q-30 0 -56 11.5t-45.5 31t-31 45.5t-11.5 56v666h50v-666q0 -19 7.5 -36.5t20 -30t30 -20t36.5 -7.5h20q20 0 37 7.5t29.5 20t20 30t7.5 36.5v666z" />
    <glyph glyph-name="iogonek" unicode="&#x12f;" horiz-adv-x="205" 
d="M181 -10q-24 -11 -36.5 -28.5t-12.5 -33.5q0 -26 18 -43.5t44 -17.5q16 0 36.5 11t32.5 33l43 -16q-9 -18 -22.5 -31.5t-29 -23.5t-31.5 -15t-29 -5q-23 0 -43 8.5t-34.5 23.5t-23 34.5t-8.5 42.5q0 20 9 40t27 37q-23 13 -39.5 33.5t-16.5 46.5v474h50v-474
q0 -7 6.5 -15.5t16 -15t21.5 -11t22 -4.5v-50z" />
    <glyph glyph-name="amacron" unicode="&#x101;" horiz-adv-x="373" 
d="M76 628v49h220v-49h-220zM268 437q0 39 -22 61t-61 22t-61 -24t-22 -59v-20h-50v20q0 30 10.5 54.5t28.5 42t42 27t52 9.5t52 -9.5t42 -27t28.5 -42t10.5 -54.5v-437h-50v62q-25 -20 -51 -36q-22 -14 -46.5 -25t-44.5 -11q-40 0 -68 28t-28 68v69q0 53 28 90.5t71 54.5
l139 44v93zM80 86q0 -17 14.5 -31.5t31.5 -14.5q20 0 44.5 13t46.5 29q26 18 51 41v169l-118 -37q-35 -14 -52.5 -40.5t-17.5 -59.5v-69z" />
    <glyph glyph-name="emacron" unicode="&#x113;" horiz-adv-x="373" 
d="M77 628v49h220v-49h-220zM205 40q35 0 59 24t24 59v72h50v-72q0 -28 -10.5 -52t-28.5 -42t-42 -28.5t-52 -10.5h-22q-28 0 -52 10.5t-42 28.5t-28.5 42t-10.5 52v314q0 28 10.5 52t28.5 42t42 28.5t52 10.5h22q28 0 52 -10.5t42 -28.5t28.5 -42t10.5 -52v-129h-238v-185
q0 -35 24 -59t59 -24h22zM288 357v80q0 35 -24 59t-59 24h-22q-35 0 -59 -24t-24 -59v-80h188z" />
    <glyph glyph-name="edotaccent" unicode="&#x117;" horiz-adv-x="373" 
d="M187 616q-12 0 -20.5 8.5t-8.5 20.5t8.5 21t20.5 9t21 -9t9 -21t-9 -20.5t-21 -8.5zM183 40q-35 0 -59 24t-24 59v185h238v129q0 28 -10.5 52t-28.5 42t-42 28.5t-52 10.5h-22q-28 0 -52 -10.5t-42 -28.5t-28.5 -42t-10.5 -52v-314q0 -28 10.5 -52t28.5 -42t42 -28.5
t52 -10.5h22q28 0 52 10.5t42 28.5t28.5 42t10.5 52v72h-50v-72q0 -35 -24 -59t-59 -24h-22zM100 357v80q0 35 24 59t59 24h22q35 0 59 -24t24 -59v-80h-188z" />
    <glyph glyph-name="gcommaaccent" unicode="&#x123;" horiz-adv-x="388" 
d="M167 626v169h50v-169h-50zM289 -32q0 -35 -24 -59t-59 -24h-22q-35 0 -59 24t-24 59v22h-50v-22q0 -28 10.5 -52t28.5 -42t42 -28.5t52 -10.5h22q28 0 52 10t42 27.5t28 41.5t10 52v472q0 27 -10.5 51.5t-28.5 42.5t-42 28.5t-52 10.5h-22q-28 0 -52 -10.5t-42 -28.5
t-28.5 -42.5t-10.5 -51.5v-297q0 -40 28 -68t68 -28q20 0 44.5 12t46.5 26q26 17 52 38v-153zM100 438q0 35 24 59t59 24h22q35 0 59 -24t24 -59v-260q-25 -23 -51 -41q-22 -16 -46.5 -29t-44.5 -13q-17 0 -31.5 12.5t-14.5 33.5v297z" />
    <glyph glyph-name="kcommaaccent" unicode="&#x137;" horiz-adv-x="351" 
d="M109 0h-49v765h49v-439h25l138 234h54l-147 -254v-9l197 -297h-54l-188 277h-25v-277zM150 -80v169h50v-169h-50z" />
    <glyph glyph-name="imacron" unicode="&#x12b;" horiz-adv-x="176" 
d="M-22 647v49h220v-49h-220zM63 560h50v-474q0 -7 6.5 -15.5t16 -15t21.5 -11t22 -4.5v-50q-20 0 -40.5 7.5t-37.5 20.5t-27.5 30.5t-10.5 37.5v474z" />
    <glyph glyph-name="lcommaaccent" unicode="&#x13c;" horiz-adv-x="196" 
d="M66 -191v169h50v-169h-50zM65 764h50v-678q0 -7 6.5 -15.5t16 -15t21.5 -11t22 -4.5v-50q-20 0 -40.5 7.5t-37.5 20.5t-27.5 30.5t-10.5 37.5v678z" />
    <glyph glyph-name="ncommaaccent" unicode="&#x146;" 
d="M60 0v560h50v-62q25 20 51 36q22 14 46.5 25t44.5 11q40 0 68 -28t28 -68v-474h-50v474q0 21 -14.5 33.5t-31.5 12.5q-20 0 -44.5 -12.5t-46.5 -28.5q-26 -18 -51 -41v-438h-50zM176 -81v169h50v-169h-50z" />
    <glyph glyph-name="omacron" unicode="&#x14d;" horiz-adv-x="388" 
d="M85 629v49h220v-49h-220zM338 123q0 -27 -10.5 -51.5t-28.5 -42.5t-42 -28.5t-52 -10.5h-22q-28 0 -52 10.5t-42 28.5t-28.5 42.5t-10.5 51.5v314q0 28 10.5 52t28.5 42t42 28.5t52 10.5h22q28 0 52 -10.5t42 -28.5t28.5 -42t10.5 -52v-314zM288 437q0 35 -24 59t-59 24
h-22q-35 0 -59 -24t-24 -59v-314q0 -35 24 -59t59 -24h22q35 0 59 24t24 59v314z" />
    <glyph glyph-name="uogonek" unicode="&#x173;" horiz-adv-x="401" 
d="M343 0q-24 -11 -36.5 -28.5t-12.5 -33.5q0 -26 18 -43.5t44 -17.5q16 0 36.5 11t32.5 33l43 -16q-9 -18 -22.5 -31.5t-29 -23.5t-31.5 -15t-29 -5q-23 0 -43 8.5t-34.5 23.5t-23 34.5t-8.5 42.5t11.5 45.5t34.5 40.5v37q-25 -20 -51 -36q-22 -14 -46.5 -25t-44.5 -11
q-40 0 -68 28t-28 68v474h50v-474q0 -21 14.5 -33.5t31.5 -12.5q20 0 44.5 12.5t46.5 28.5q26 18 51 41v438h50v-560z" />
    <glyph glyph-name="umacron" unicode="&#x16b;" 
d="M93 628v49h220v-49h-220zM343 560v-560h-50v62q-25 -20 -51 -36q-22 -14 -46.5 -25t-44.5 -11q-40 0 -68 28t-28 68v474h50v-474q0 -21 14.5 -33.5t31.5 -12.5q20 0 44.5 12.5t46.5 28.5q26 18 51 41v438h50z" />
    <glyph glyph-name="sacute" unicode="&#x15b;" horiz-adv-x="368" 
d="M198 634h-58l101 131h57zM90 417q0 -17 18 -36.5t40 -36.5q26 -19 57 -39q35 -20 62 -44q23 -20 42 -47t19 -57v-34q0 -27 -10.5 -51.5t-28.5 -42.5t-42 -28.5t-52 -10.5h-22q-28 0 -52 10.5t-42 28.5t-28.5 42.5t-10.5 51.5v89h50v-89q0 -35 24 -59t59 -24h22
q35 0 59 24t24 59v34q0 17 -18 37.5t-41 37.5q-26 20 -59 41q-34 19 -60 42q-23 20 -41.5 46t-18.5 56v20q0 28 10.5 52t28.5 42t42 28.5t52 10.5h22q28 0 52 -10.5t42 -28.5t28.5 -42t10.5 -52v-20h-50v20q0 35 -24 59t-59 24h-22q-35 0 -59 -24t-24 -59v-20z" />
    <glyph glyph-name="zacute" unicode="&#x17a;" horiz-adv-x="334" 
d="M183 624h-58l101 131h57zM309 0h-284v50l231 464h-229v50h279v-50l-232 -465h235v-49z" />
    <glyph glyph-name="Aogonek" unicode="&#x104;" horiz-adv-x="420" 
d="M108 264h204l-89 479q0 4 -2 7q-4 6 -8 6h-8q-6 0 -7.5 -5t-2.5 -8zM411 0q-24 -11 -36.5 -28.5t-12.5 -33.5q0 -26 18 -43.5t44 -17.5q16 0 36.5 11t32.5 33l43 -16q-9 -18 -22.5 -31.5t-29 -23.5t-31.5 -15t-29 -5q-23 0 -43 8.5t-34.5 23.5t-23 34.5t-8.5 42.5
q0 22 10.5 43.5t31.5 38.5l-36 193h-222l-39 -214h-50l139 772q2 12 14.5 23t28.5 11h34q16 0 28.5 -10.5t14.5 -23.5z" />
    <glyph glyph-name="Sacute" unicode="&#x15a;" horiz-adv-x="394" 
d="M215 872h-58l101 131h57zM349 134q0 -30 -11 -56t-30.5 -45.5t-46 -31t-56.5 -11.5h-16q-30 0 -56 11.5t-45.5 31t-31 45.5t-11.5 56v148h50v-148q0 -19 7.5 -36.5t20 -30t30 -20t36.5 -7.5h16q20 0 37 7.5t29.5 20t20 30t7.5 36.5v77q0 45 -12 78t-32.5 58.5t-47.5 44.5
t-57 37q-52 32 -78.5 73t-26.5 105v55q0 30 11.5 56.5t31 46t45.5 30.5t56 11h16q30 0 56.5 -11t46 -30.5t30.5 -46t11 -56.5h-50q0 20 -7.5 37t-20 29.5t-29.5 20t-37 7.5h-16q-19 0 -36.5 -7.5t-30 -20t-20 -29.5t-7.5 -37v-55q0 -28 10 -51t27.5 -42.5t40.5 -36t49 -32.5
q29 -17 52 -37.5t40 -48t26 -63.5t9 -85v-77z" />
    <glyph glyph-name="Tcaron" unicode="&#x164;" horiz-adv-x="330" 
d="M164 889h3l77 98h50l-124 -148h-9l-124 148h50zM190 750v-750h-50v750h-140v50h330v-50h-140z" />
    <glyph glyph-name="Zacute" unicode="&#x179;" horiz-adv-x="360" 
d="M181 859h-58l101 131h57zM15 0l261 750h-261v50h330l-260 -750h260v-50h-330z" />
    <glyph glyph-name="Zdotaccent" unicode="&#x17b;" horiz-adv-x="360" 
d="M180 857q-12 0 -20.5 8.5t-8.5 20.5t8.5 21t20.5 9t21 -9t9 -21t-9 -20.5t-21 -8.5zM345 0v50h-260l260 750h-330v-50h261l-261 -750h330z" />
    <glyph glyph-name="aogonek" unicode="&#x105;" horiz-adv-x="373" 
d="M80 86q0 -17 14.5 -31.5t31.5 -14.5q20 0 44.5 13t46.5 29q26 18 51 41v169l-118 -37q-35 -14 -52.5 -40.5t-17.5 -59.5v-69zM318 0q-24 -11 -36.5 -28.5t-12.5 -33.5q0 -26 18 -43.5t44 -17.5q16 0 36.5 11t32.5 33l43 -16q-9 -18 -22.5 -31.5t-29 -23.5t-31.5 -15
t-29 -5q-23 0 -43 8.5t-34.5 23.5t-23 34.5t-8.5 42.5t11.5 45.5t34.5 40.5v37q-25 -20 -51 -36q-22 -14 -46.5 -25t-44.5 -11q-40 0 -68 28t-28 68v69q0 53 28 90.5t71 54.5l139 44v93q0 39 -22 61t-61 22t-61 -24t-22 -59v-20h-50v20q0 30 10.5 54.5t28.5 42t42 27t52 9.5
t52 -9.5t42 -27t28.5 -42t10.5 -54.5v-437z" />
    <glyph glyph-name="zdotaccent" unicode="&#x17c;" horiz-adv-x="334" 
d="M166 616q-12 0 -20.5 8.5t-8.5 20.5t8.5 21t20.5 9t21 -9t9 -21t-9 -20.5t-21 -8.5zM309 0h-284v50l231 464h-229v50h279v-50l-232 -465h235v-49z" />
    <glyph glyph-name="Racute" unicode="&#x154;" horiz-adv-x="418" 
d="M207 857h-58l101 131h57zM246 443q10 5 23 12t24 18.5t19 26.5t8 34v146q0 27 -20 49t-49 22h-131v-308h126zM328 0v298q0 21 -9 37t-22 27t-27.5 19t-24.5 12h-125v-393h-50v800h181q25 0 46.5 -9.5t38 -26t26 -38t9.5 -46.5v-144q0 -39 -21.5 -71t-55.5 -47
q37 -14 60.5 -46t23.5 -74v-298h-50z" />
    <glyph glyph-name="Abreve" unicode="&#x102;" horiz-adv-x="421" 
d="M306 948q0 -40 -28 -68t-68 -28t-68 28t-28 68h50q0 -20 13 -33t33 -13t33 13t13 33h50zM108 264h204l-89 479q0 4 -2 7q-4 6 -8 6h-8q-6 0 -7.5 -5t-2.5 -8zM361 0l-40 214h-222l-39 -214h-50l139 772q2 12 14.5 23t28.5 11h34q16 0 28.5 -10.5t14.5 -23.5l142 -772h-50
z" />
    <glyph glyph-name="Lacute" unicode="&#x139;" horiz-adv-x="317" 
d="M98 858h-58l101 131h57zM119 50h198v-50h-247v800h49v-750z" />
    <glyph glyph-name="Cacute" unicode="&#x106;" horiz-adv-x="413" 
d="M206 861h-58l101 131h57zM313 292h50v-158q0 -30 -11 -56t-30.5 -45.5t-46 -31t-56.5 -11.5h-20q-30 0 -56 11.5t-45.5 31t-31 45.5t-11.5 56v528q0 30 11.5 56.5t31 46t45.5 30.5t56 11h20q30 0 56.5 -11t46 -30.5t30.5 -46t11 -56.5v-126h-50v126q0 20 -7.5 37
t-20 29.5t-29.5 20t-37 7.5h-20q-19 0 -36.5 -7.5t-30 -20t-20 -29.5t-7.5 -37v-528q0 -19 7.5 -36.5t20 -30t30 -20t36.5 -7.5h20q39 0 65.5 27.5t26.5 66.5v158h2z" />
    <glyph glyph-name="Ccaron" unicode="&#x10c;" horiz-adv-x="413" 
d="M205 887h3l77 98h50l-124 -148h-9l-124 148h50zM313 292h50v-158q0 -30 -11 -56t-30.5 -45.5t-46 -31t-56.5 -11.5h-20q-30 0 -56 11.5t-45.5 31t-31 45.5t-11.5 56v528q0 30 11.5 56.5t31 46t45.5 30.5t56 11h20q30 0 56.5 -11t46 -30.5t30.5 -46t11 -56.5v-126h-50v126
q0 20 -7.5 37t-20 29.5t-29.5 20t-37 7.5h-20q-19 0 -36.5 -7.5t-30 -20t-20 -29.5t-7.5 -37v-528q0 -19 7.5 -36.5t20 -30t30 -20t36.5 -7.5h20q39 0 65.5 27.5t26.5 66.5v158h2z" />
    <glyph glyph-name="Eogonek" unicode="&#x118;" horiz-adv-x="347" 
d="M120 750v-284h171v-50h-171v-366h198v-50q-24 -11 -36.5 -28.5t-12.5 -33.5q0 -26 18 -43.5t44 -17.5q16 0 36.5 11t32.5 33l43 -16q-9 -18 -22.5 -31.5t-29 -23.5t-31.5 -15t-29 -5q-23 0 -43 8.5t-34.5 23.5t-23 34.5t-8.5 42.5q0 32 21 61h-173v800h248v-50h-198z" />
    <glyph glyph-name="Ecaron" unicode="&#x11a;" horiz-adv-x="347" 
d="M197 890h3l77 98h50l-124 -148h-9l-124 148h50zM126 750v-284h171v-50h-171v-366h198v-50h-248v800h248v-50h-198z" />
    <glyph glyph-name="Dcaron" unicode="&#x10e;" horiz-adv-x="438" 
d="M197 890h3l77 98h50l-124 -148h-9l-124 148h50zM75 800h164q30 0 56.5 -10.5t46 -28.5t30.5 -43.5t11 -55.5v-518q0 -30 -11 -56t-30.5 -45.5t-46 -31t-56.5 -11.5h-164v800zM125 750v-700h114q20 0 37 7.5t29.5 20t20 30t7.5 36.5v518q0 38 -27.5 63t-66.5 25h-114z" />
    <glyph glyph-name="Nacute" unicode="&#x143;" horiz-adv-x="485" 
d="M274 837h-58l101 131h57zM307 0l-167 750h-20v-750h-50v800h110l165 -750h20v750h50v-800h-108z" />
    <glyph glyph-name="Ncaron" unicode="&#x147;" horiz-adv-x="485" 
d="M240 878h3l77 98h50l-124 -148h-9l-124 148h50zM307 0l-167 750h-20v-750h-50v800h110l165 -750h20v750h50v-800h-108z" />
    <glyph glyph-name="Ohungarumlaut" unicode="&#x150;" horiz-adv-x="426" 
d="M271 856h-58l101 131h57zM182 856h-58l101 131h57zM363 134q0 -30 -11 -56t-30.5 -45.5t-46 -31t-56.5 -11.5h-20q-30 0 -56 11.5t-45.5 31t-31 45.5t-11.5 56v528q0 30 11.5 56.5t31 46t45.5 30.5t56 11h20q30 0 56.5 -11t46 -30.5t30.5 -46t11 -56.5v-528zM313 662
q0 20 -7.5 37t-20 29.5t-29.5 20t-37 7.5h-20q-19 0 -36.5 -7.5t-30 -20t-20 -29.5t-7.5 -37v-528q0 -19 7.5 -36.5t20 -30t30 -20t36.5 -7.5h20q20 0 37 7.5t29.5 20t20 30t7.5 36.5v528z" />
    <glyph glyph-name="Rcaron" unicode="&#x158;" horiz-adv-x="418" 
d="M203 889h3l77 98h50l-124 -148h-9l-124 148h50zM246 443q10 5 23 12t24 18.5t19 26.5t8 34v146q0 27 -20 49t-49 22h-131v-308h126zM328 0v298q0 21 -9 37t-22 27t-27.5 19t-24.5 12h-125v-393h-50v800h181q25 0 46.5 -9.5t38 -26t26 -38t9.5 -46.5v-144q0 -39 -21.5 -71
t-55.5 -47q37 -14 60.5 -46t23.5 -74v-298h-50z" />
    <glyph glyph-name="Uring" unicode="&#x16e;" horiz-adv-x="428" 
d="M309 919q0 -40 -28 -68t-68 -28t-68 28t-28 68t28 68t68 28t68 -28t28 -68zM259 919q0 19 -13.5 32.5t-32.5 13.5t-32.5 -13.5t-13.5 -32.5t13.5 -32.5t32.5 -13.5t32.5 13.5t13.5 32.5zM318 800h50v-666q0 -30 -11 -56t-30.5 -45.5t-46 -31t-56.5 -11.5h-20
q-30 0 -56 11.5t-45.5 31t-31 45.5t-11.5 56v666h50v-666q0 -19 7.5 -36.5t20 -30t30 -20t36.5 -7.5h20q20 0 37 7.5t29.5 20t20 30t7.5 36.5v666z" />
    <glyph glyph-name="Uhungarumlaut" unicode="&#x170;" horiz-adv-x="435" 
d="M318 800h50v-666q0 -30 -11 -56t-30.5 -45.5t-46 -31t-56.5 -11.5h-20q-30 0 -56 11.5t-45.5 31t-31 45.5t-11.5 56v666h50v-666q0 -19 7.5 -36.5t20 -30t30 -20t36.5 -7.5h20q20 0 37 7.5t29.5 20t20 30t7.5 36.5v666zM275 856h-58l101 131h57zM186 856h-58l101 131h57z
" />
    <glyph glyph-name="Tcommaaccent" unicode="&#x162;" horiz-adv-x="330" 
d="M140 -199v169h50v-169h-50zM190 750v-750h-50v750h-140v50h330v-50h-140z" />
    <glyph glyph-name="racute" unicode="&#x155;" horiz-adv-x="363" 
d="M225 620h-58l101 131h57zM60 0v560h50v-62q25 20 51 36q22 14 46.5 25t44.5 11q40 0 68 -28t28 -68v-101h-50v101q0 21 -14.5 33.5t-31.5 12.5q-20 0 -44.5 -12.5t-46.5 -28.5q-26 -18 -51 -41v-438h-50z" />
    <glyph glyph-name="abreve" unicode="&#x103;" horiz-adv-x="373" 
d="M281 717q0 -40 -28 -68t-68 -28t-68 28t-28 68h50q0 -20 13 -33t33 -13t33 13t13 33h50zM268 437q0 39 -22 61t-61 22t-61 -24t-22 -59v-20h-50v20q0 30 10.5 54.5t28.5 42t42 27t52 9.5t52 -9.5t42 -27t28.5 -42t10.5 -54.5v-437h-50v62q-25 -20 -51 -36
q-22 -14 -46.5 -25t-44.5 -11q-40 0 -68 28t-28 68v69q0 53 28 90.5t71 54.5l139 44v93zM80 86q0 -17 14.5 -31.5t31.5 -14.5q20 0 44.5 13t46.5 29q26 18 51 41v169l-118 -37q-35 -14 -52.5 -40.5t-17.5 -59.5v-69z" />
    <glyph glyph-name="lacute" unicode="&#x13a;" horiz-adv-x="215" 
d="M95 782h-58l101 131h57zM84 764h50v-678q0 -7 6.5 -15.5t16 -15t21.5 -11t22 -4.5v-50q-20 0 -40.5 7.5t-37.5 20.5t-27.5 30.5t-10.5 37.5v678z" />
    <glyph glyph-name="cacute" unicode="&#x107;" horiz-adv-x="363" 
d="M206 617h-58l101 131h57zM288 195h50v-72q0 -27 -10.5 -51.5t-28.5 -42.5t-42 -28.5t-52 -10.5h-22q-28 0 -52 10.5t-42 28.5t-28.5 42.5t-10.5 51.5v314q0 28 10.5 52t28.5 42t42 28.5t52 10.5h22q28 0 52 -10.5t42 -28.5t28.5 -42t10.5 -52v-75h-50v75q0 35 -24 59
t-59 24h-22q-35 0 -59 -24t-24 -59v-314q0 -35 24 -59t59 -24h22q35 0 59 24t24 59v72z" />
    <glyph glyph-name="ccaron" unicode="&#x10d;" horiz-adv-x="363" 
d="M195 647h3l77 98h50l-124 -148h-9l-124 148h50zM288 195h50v-72q0 -27 -10.5 -51.5t-28.5 -42.5t-42 -28.5t-52 -10.5h-22q-28 0 -52 10.5t-42 28.5t-28.5 42.5t-10.5 51.5v314q0 28 10.5 52t28.5 42t42 28.5t52 10.5h22q28 0 52 -10.5t42 -28.5t28.5 -42t10.5 -52v-75
h-50v75q0 35 -24 59t-59 24h-22q-35 0 -59 -24t-24 -59v-314q0 -35 24 -59t59 -24h22q35 0 59 24t24 59v72z" />
    <glyph glyph-name="eogonek" unicode="&#x119;" horiz-adv-x="386" 
d="M288 357v80q0 35 -24 59t-59 24h-22q-35 0 -59 -24t-24 -59v-80h188zM205 40q35 0 59 24t24 59v72h50v-72q0 -26 -9 -48.5t-24.5 -40t-37 -29t-46.5 -14.5q-22 -11 -33 -28t-11 -32q0 -26 18 -43.5t44 -17.5q16 0 36.5 11t32.5 33l43 -16q-9 -18 -22.5 -31.5t-29 -23.5
t-31.5 -15t-29 -5q-23 0 -43 8.5t-34.5 23.5t-23 34.5t-8.5 42.5q0 33 22 62q-45 10 -73.5 45.5t-28.5 83.5v314q0 28 10.5 52t28.5 42t42 28.5t52 10.5h22q28 0 52 -10.5t42 -28.5t28.5 -42t10.5 -52v-129h-238v-185q0 -35 24 -59t59 -24h22z" />
    <glyph glyph-name="ecaron" unicode="&#x11b;" horiz-adv-x="373" 
d="M193 658h3l77 98h50l-124 -148h-9l-124 148h50zM205 40q35 0 59 24t24 59v72h50v-72q0 -28 -10.5 -52t-28.5 -42t-42 -28.5t-52 -10.5h-22q-28 0 -52 10.5t-42 28.5t-28.5 42t-10.5 52v314q0 28 10.5 52t28.5 42t42 28.5t52 10.5h22q28 0 52 -10.5t42 -28.5t28.5 -42
t10.5 -52v-129h-238v-185q0 -35 24 -59t59 -24h22zM288 357v80q0 35 -24 59t-59 24h-22q-35 0 -59 -24t-24 -59v-80h188z" />
    <glyph glyph-name="nacute" unicode="&#x144;" 
d="M219 623h-58l101 131h57zM60 0v560h50v-62q25 20 51 36q22 14 46.5 25t44.5 11q40 0 68 -28t28 -68v-474h-50v474q0 21 -14.5 33.5t-31.5 12.5q-20 0 -44.5 -12.5t-46.5 -28.5q-26 -18 -51 -41v-438h-50z" />
    <glyph glyph-name="ncaron" unicode="&#x148;" 
d="M213 674h3l77 98h50l-124 -148h-9l-124 148h50zM60 0v560h50v-62q25 20 51 36q22 14 46.5 25t44.5 11q40 0 68 -28t28 -68v-474h-50v474q0 21 -14.5 33.5t-31.5 12.5q-20 0 -44.5 -12.5t-46.5 -28.5q-26 -18 -51 -41v-438h-50z" />
    <glyph glyph-name="ohungarumlaut" unicode="&#x151;" horiz-adv-x="406" 
d="M338 123q0 -27 -10.5 -51.5t-28.5 -42.5t-42 -28.5t-52 -10.5h-22q-28 0 -52 10.5t-42 28.5t-28.5 42.5t-10.5 51.5v314q0 28 10.5 52t28.5 42t42 28.5t52 10.5h22q28 0 52 -10.5t42 -28.5t28.5 -42t10.5 -52v-314zM288 437q0 35 -24 59t-59 24h-22q-35 0 -59 -24
t-24 -59v-314q0 -35 24 -59t59 -24h22q35 0 59 24t24 59v314zM256 617h-58l101 131h57zM167 617h-58l101 131h57z" />
    <glyph glyph-name="rcaron" unicode="&#x159;" horiz-adv-x="363" 
d="M218 646h3l77 98h50l-124 -148h-9l-124 148h50zM60 0v560h50v-62q25 20 51 36q22 14 46.5 25t44.5 11q40 0 68 -28t28 -68v-101h-50v101q0 21 -14.5 33.5t-31.5 12.5q-20 0 -44.5 -12.5t-46.5 -28.5q-26 -18 -51 -41v-438h-50z" />
    <glyph glyph-name="uring" unicode="&#x16f;" 
d="M302 679q0 -40 -28 -68t-68 -28t-68 28t-28 68t28 68t68 28t68 -28t28 -68zM252 679q0 19 -13.5 32.5t-32.5 13.5t-32.5 -13.5t-13.5 -32.5t13.5 -32.5t32.5 -13.5t32.5 13.5t13.5 32.5zM343 560v-560h-50v62q-25 -20 -51 -36q-22 -14 -46.5 -25t-44.5 -11q-40 0 -68 28
t-28 68v474h50v-474q0 -21 14.5 -33.5t31.5 -12.5q20 0 44.5 12.5t46.5 28.5q26 18 51 41v438h50z" />
    <glyph glyph-name="uhungarumlaut" unicode="&#x171;" horiz-adv-x="431" 
d="M343 560v-560h-50v62q-25 -20 -51 -36q-22 -14 -46.5 -25t-44.5 -11q-40 0 -68 28t-28 68v474h50v-474q0 -21 14.5 -33.5t31.5 -12.5q20 0 44.5 12.5t46.5 28.5q26 18 51 41v438h50zM271 592h-58l101 131h57zM182 592h-58l101 131h57z" />
    <glyph glyph-name="tcommaaccent" unicode="&#x163;" horiz-adv-x="237" 
d="M80 -178v169h50v-169h-50zM0 511v49h80v145h50v-145h107v-49h-107v-425q0 -7 6.5 -15.5t16 -15t21.5 -11t22 -4.5v-50q-20 0 -40.5 7.5t-37.5 20.5t-27.5 30.5t-10.5 37.5v425h-80z" />
    <glyph glyph-name="scommaaccent" unicode="&#x219;" horiz-adv-x="368" 
d="M162 -214v169h50v-169h-50zM90 417q0 -17 18 -36.5t40 -36.5q26 -19 57 -39q35 -20 62 -44q23 -20 42 -47t19 -57v-34q0 -27 -10.5 -51.5t-28.5 -42.5t-42 -28.5t-52 -10.5h-22q-28 0 -52 10.5t-42 28.5t-28.5 42.5t-10.5 51.5v89h50v-89q0 -35 24 -59t59 -24h22
q35 0 59 24t24 59v34q0 17 -18 37.5t-41 37.5q-26 20 -59 41q-34 19 -60 42q-23 20 -41.5 46t-18.5 56v20q0 28 10.5 52t28.5 42t42 28.5t52 10.5h22q28 0 52 -10.5t42 -28.5t28.5 -42t10.5 -52v-20h-50v20q0 35 -24 59t-59 24h-22q-35 0 -59 -24t-24 -59v-20z" />
    <glyph glyph-name="Dcroat" unicode="&#x110;" horiz-adv-x="463" 
d="M150 750v-293h96v-49h-96v-358h114q20 0 37 7.5t29.5 20t20 30t7.5 36.5v518q0 38 -27.5 63t-66.5 25h-114zM50 408v49h50v343h164q30 0 56.5 -10.5t46 -28.5t30.5 -43.5t11 -55.5v-518q0 -30 -11 -56t-30.5 -45.5t-46 -31t-56.5 -11.5h-164v408h-50z" />
    <glyph glyph-name="lcaron" unicode="&#x13e;" horiz-adv-x="215" 
d="M165 596v169h50v-169h-50zM65 86q0 -20 10.5 -37.5t27.5 -30.5t37.5 -20.5t40.5 -7.5v50q-10 0 -22 4.5t-21.5 11t-16 15t-6.5 15.5v678h-50v-678z" />
    <glyph glyph-name="Lcaron" unicode="&#x13d;" horiz-adv-x="298" 
d="M187 632v169h50v-169h-50zM100 50h198v-50h-247v800h49v-750z" />
    <glyph glyph-name="Scommaaccent" unicode="&#x218;" horiz-adv-x="394" 
d="M175 -222v169h50v-169h-50zM349 134q0 -30 -11 -56t-30.5 -45.5t-46 -31t-56.5 -11.5h-16q-30 0 -56 11.5t-45.5 31t-31 45.5t-11.5 56v148h50v-148q0 -19 7.5 -36.5t20 -30t30 -20t36.5 -7.5h16q20 0 37 7.5t29.5 20t20 30t7.5 36.5v77q0 45 -12 78t-32.5 58.5
t-47.5 44.5t-57 37q-52 32 -78.5 73t-26.5 105v55q0 30 11.5 56.5t31 46t45.5 30.5t56 11h16q30 0 56.5 -11t46 -30.5t30.5 -46t11 -56.5h-50q0 20 -7.5 37t-20 29.5t-29.5 20t-37 7.5h-16q-19 0 -36.5 -7.5t-30 -20t-20 -29.5t-7.5 -37v-55q0 -28 10 -51t27.5 -42.5
t40.5 -36t49 -32.5q29 -17 52 -37.5t40 -48t26 -63.5t9 -85v-77z" />
    <glyph glyph-name="tcaron" unicode="&#x165;" horiz-adv-x="276" 
d="M254 580v169h50v-169h-50zM80 511v-425q0 -20 10.5 -37.5t27.5 -30.5t37.5 -20.5t40.5 -7.5v50q-10 0 -22 4.5t-21.5 11t-16 15t-6.5 15.5v425h107v49h-107v145h-50v-145h-80v-49h80z" />
    <glyph glyph-name="dcaron" unicode="&#x10f;" horiz-adv-x="513" 
d="M403 596v169h50v-169h-50zM343 764h-50v-222q-14 11 -35.5 20t-47.5 9h-22q-28 0 -52 -10.5t-42 -28.5t-28.5 -42.5t-10.5 -51.5v-352q0 -40 28 -68t68 -28q20 0 44.5 11t46.5 25q26 16 51 36v-62h50v764zM293 123q-25 -23 -51 -41q-22 -16 -46.5 -29t-44.5 -13
q-17 0 -31.5 12.5t-14.5 33.5v352q0 35 24 59t59 24h22q17 0 32 -6t26.5 -16.5t18 -25t6.5 -30.5v-320z" />
    <glyph glyph-name="dcroat" unicode="&#x111;" horiz-adv-x="462" 
d="M293 443q0 16 -6.5 30.5t-18 25t-26.5 16.5t-32 6h-22q-35 0 -59 -24t-24 -59v-352q0 -21 14.5 -33.5t31.5 -12.5q20 0 44.5 13t46.5 29q26 18 51 41v320zM343 0h-50v62q-25 -20 -51 -36q-22 -14 -46.5 -25t-44.5 -11q-40 0 -68 28t-28 68v352q0 27 10.5 51.5t28.5 42.5
t42 28.5t52 10.5h22q26 0 47.5 -9t35.5 -20v108h-193v49h193v65h50v-65h59v-49h-59v-650z" />
    <glyph glyph-name="ch" unicode="&#x221e;" horiz-adv-x="772" 
d="M429 765h50v-267q25 20 51 36q22 14 46.5 25t44.5 11q40 0 68 -28t28 -68v-474h-50v474q0 21 -14.5 33.5t-31.5 12.5q-20 0 -44.5 -12.5t-46.5 -28.5q-26 -18 -51 -41v-315q0 -27 -10.5 -51.5t-28.5 -42.5t-42 -28.5t-52 -10.5h-163q-28 0 -52 10.5t-42 28.5t-28.5 42.5
t-10.5 51.5v314q0 28 10.5 52t28.5 42t42 28.5t52 10.5h22q28 0 52 -10.5t42 -28.5t28.5 -42t10.5 -52v-75h-50v75q0 35 -24 59t-59 24h-22q-35 0 -59 -24t-24 -59v-314q0 -35 24 -59t59 -24h163q35 0 59 24t24 59v642z" />
    <glyph glyph-name="W_alt" unicode="&#x222b;" horiz-adv-x="582" 
d="M291 638l26 152h50l-42 -220l75 -441l122 671h50l-147 -800h-50l-84 479l-84 -479h-50l-147 800h50l122 -671l75 441l-42 220h50z" />
    <glyph glyph-name="pi" unicode="&#x3c0;" horiz-adv-x="445" 
d="M375 800v-800h-50v751h-205v-751h-50v800h305z" />
    <glyph glyph-name="Omega" unicode="&#x2126;" horiz-adv-x="418" 
d="M196 756q-19 0 -36.5 -7.5t-30 -20t-20 -29.5t-7.5 -37v-376q0 -19 7.5 -36t19.5 -30t27 -20t30 -7v-193h-120v50h70v104q-37 17 -60.5 52t-23.5 80v376q0 30 11.5 56.5t31 46t45.5 30.5t56 11h23q30 0 56.5 -11t46 -30.5t30.5 -46t11 -56.5v-376q0 -45 -23.5 -80
t-60.5 -52v-104h70v-50h-120v193q15 0 30 7t27 20t19.5 30t7.5 36v376q0 20 -7.5 37t-20 29.5t-29.5 20t-37 7.5h-23z" />
    <glyph glyph-name="Delta" unicode="&#x2206;" horiz-adv-x="421" 
d="M69 50h282l-128 693q0 4 -2 7q-4 6 -8 6h-8q-6 0 -7.5 -5t-2.5 -8zM149 772q2 12 14.5 23t28.5 11h34q16 0 28.5 -10.5t14.5 -23.5l142 -772h-401z" />
    <glyph glyph-name="R_alt" unicode="&#x2248;" horiz-adv-x="431" 
d="M120 750v-288h110q20 0 37 7.5t29.5 20t20 30t7.5 36.5v106q0 38 -27.5 63t-66.5 25h-110zM70 800h160q30 0 56.5 -10.5t46 -28.5t30.5 -43.5t11 -55.5v-106q0 -30 -11 -56t-30.5 -45.5t-46 -31t-56.5 -11.5h-7l168 -412h-50l-168 412h-53v-412h-50v800z" />
    <glyph glyph-name="mu" unicode="&#xb5;" horiz-adv-x="614" 
d="M524 800l30 -800h-50l-29 750h-20l-123 -740h-50l-122 740h-20l-30 -750h-50l31 800h109l107 -690l109 690h108z" />
    <glyph glyph-name="radical" unicode="&#x221a;" horiz-adv-x="381" 
d="M33 560h52v-488q5 -15 17.5 -23.5t26.5 -8.5q20 0 44.5 12.5t46.5 28.5q26 18 51 41v438h50v-560h-50v62q-25 -20 -51 -36q-22 -14 -46.5 -25t-44.5 -11q-22 0 -44 10v-59q0 -20 -10.5 -37.5t-27.5 -30.5t-37.5 -20.5t-40.5 -7.5v50q9 0 20 4t21.5 10.5t17.5 14.5t7 17
q-1 49 -1.5 77t-0.5 42v18.5v7.5v474z" />
    <glyph glyph-name="I_alt" unicode="&#x25ca;" horiz-adv-x="164" 
d="M5 801h154v-49h-52v-703h52v-49h-154v49h52v703h-52v49z" />
    </font>
</defs>
</svg>
